<svg version="1.1" id="Layer_1" xmlns="http://www.w3.org/2000/svg" xmlns:xlink="http://www.w3.org/1999/xlink" x="0px" y="0px"
	 width="100%" viewBox="0 0 2000 2000" enable-background="new 0 0 2000 2000" xml:space="preserve">
<path fill="#B32E2B" opacity="1.000000" stroke="none" 
	d="
M0.999998,1978.000000 
	C1.000000,1926.309937 1.000000,1874.619995 1.372166,1822.458496 
	C2.237233,1821.446045 2.889714,1820.983398 3.199632,1820.352539 
	C10.153879,1806.195312 21.812662,1799.963013 37.251308,1799.994385 
	C50.751244,1800.021851 64.251282,1800.000000 77.751274,1800.000000 
	C85.367661,1800.000000 92.984047,1800.000000 101.000000,1800.000000 
	C101.000000,1797.725708 101.000000,1795.932739 101.000000,1794.139771 
	C101.000000,1761.806396 100.997864,1729.473145 101.006767,1697.139771 
	C101.007179,1695.645874 100.828094,1694.078003 101.202759,1692.669556 
	C105.169922,1677.757935 118.277931,1666.946533 133.845764,1666.986938 
	C154.345612,1667.040161 174.845703,1667.000000 195.345688,1667.000000 
	C197.119644,1667.000000 198.893600,1667.000000 201.000000,1667.000000 
	C201.000000,1664.654419 201.000000,1662.849854 201.000000,1661.045288 
	C201.000000,1628.878662 201.075317,1596.711792 200.967606,1564.545532 
	C200.915298,1548.927246 215.920090,1533.743896 231.777176,1533.967896 
	C243.388260,1534.131958 255.003540,1534.000000 266.709015,1534.000000 
	C266.709015,1322.767578 266.709015,1112.040405 266.709015,901.000000 
	C254.615570,901.000000 242.803848,901.252991 231.007324,900.937439 
	C215.427963,900.520813 201.048264,886.607056 201.018219,870.670227 
	C200.957245,838.337036 201.000000,806.003662 201.000000,773.670349 
	C201.000000,771.894836 201.000000,770.119385 201.000000,768.000000 
	C198.835251,768.000000 197.198288,768.000000 195.561310,768.000000 
	C175.394653,768.000000 155.227814,768.045349 135.061569,767.954102 
	C131.813568,767.939453 128.490585,767.649780 125.335518,766.914978 
	C112.861351,764.009827 100.636795,749.627014 100.843079,736.182800 
	C101.331398,704.356934 101.000000,672.518494 101.000000,640.685181 
	C101.000000,638.908264 101.000000,637.131348 101.000000,635.000000 
	C98.840118,635.000000 97.208153,635.000000 95.576187,635.000000 
	C75.909531,635.000000 56.242702,635.050903 36.576279,634.983582 
	C21.351620,634.931458 8.390067,626.809143 2.923620,612.026062 
	C2.626807,611.223328 1.656700,610.669617 1.000003,610.000000 
	C1.000000,604.309875 1.000000,598.619812 1.349965,592.360229 
	C2.127405,591.113525 2.537375,590.424438 2.985102,589.760925 
	C6.501094,584.550171 9.074076,578.155701 13.761994,574.408020 
	C21.298321,568.383240 30.191093,564.035828 38.586967,559.109741 
	C53.557137,550.326233 68.589600,541.648865 83.586037,532.910034 
	C97.881821,524.579468 112.175064,516.244507 126.450729,507.879547 
	C141.154358,499.263763 155.826416,490.594147 170.528931,481.976440 
	C184.802795,473.609924 199.106079,465.293610 213.381119,456.929108 
	C228.085480,448.313049 242.766174,439.656616 257.466827,431.034241 
	C271.738861,422.663208 286.025513,414.317017 300.301300,405.952332 
	C315.005096,397.336853 329.717041,388.735138 344.400482,380.085083 
	C358.382721,371.848022 372.310394,363.518188 386.303070,355.298889 
	C401.410919,346.424530 416.580048,337.654388 431.697083,328.795532 
	C445.557892,320.672760 459.369049,312.465332 473.231018,304.344604 
	C488.349945,295.487457 503.520081,286.717743 518.634521,277.852936 
	C532.635010,269.641449 546.568787,261.315948 560.573486,253.111710 
	C575.549805,244.338318 590.580383,235.657501 605.576904,226.918610 
	C619.872559,218.588120 634.164917,210.251785 648.440491,201.886917 
	C663.144226,193.271133 677.817261,184.602875 692.519836,175.985107 
	C706.793640,167.618668 721.095886,159.300888 735.370850,150.936432 
	C750.075317,142.320374 764.757446,133.666031 779.457642,125.042755 
	C793.729431,116.670822 808.013245,108.319420 822.289185,99.954681 
	C836.992859,91.339302 851.707703,82.742691 866.391479,74.093468 
	C880.374084,65.857277 894.300354,57.525314 908.292969,49.306118 
	C923.400940,40.431686 938.495605,31.531338 953.711060,22.843809 
	C966.722900,15.414515 979.897400,8.270288 993.000000,1.000000 
	C998.356934,1.000000 1003.713867,1.000000 1009.669434,1.353666 
	C1011.067261,1.881274 1011.970032,1.871921 1012.650452,2.256208 
	C1026.614136,10.143340 1040.592651,18.005857 1054.484863,26.017704 
	C1068.815552,34.282375 1083.062744,42.691658 1097.336670,51.054672 
	C1112.039307,59.668900 1126.741699,68.283600 1141.422363,76.935257 
	C1155.401733,85.173508 1169.331055,93.496841 1183.322388,101.714760 
	C1198.428345,110.587433 1213.594238,119.358505 1228.709229,128.216064 
	C1242.568481,136.337784 1256.379272,144.542221 1270.239868,152.661606 
	C1285.357056,161.517242 1300.525024,170.286453 1315.637573,179.149979 
	C1329.636597,187.360321 1343.568604,195.684479 1357.572021,203.887299 
	C1372.546631,212.659210 1387.576050,221.337967 1402.570923,230.075638 
	C1416.864746,238.404922 1431.154541,246.741211 1445.428467,255.104568 
	C1460.130737,263.718842 1474.803955,272.382538 1489.504150,281.000610 
	C1503.775635,289.367401 1518.070923,297.693359 1532.344604,306.056335 
	C1547.047241,314.670624 1561.747925,323.288574 1576.428345,331.940765 
	C1590.407471,340.179688 1604.337646,348.501678 1618.329102,356.719666 
	C1633.435059,365.592316 1648.600342,374.364136 1663.715210,383.221680 
	C1677.574463,391.343384 1691.385742,399.546875 1705.246338,407.666351 
	C1720.363525,416.521820 1735.530640,425.291931 1750.643066,434.155396 
	C1764.641846,442.365753 1778.574829,450.688812 1792.578003,458.891602 
	C1807.552734,467.663391 1822.581299,476.342834 1837.576050,485.080444 
	C1851.869873,493.409637 1866.160156,501.745239 1880.434082,510.108551 
	C1895.136353,518.722961 1909.809082,527.387756 1924.509521,536.005371 
	C1938.781250,544.371704 1953.233154,552.445007 1967.295410,561.148743 
	C1976.259277,566.697021 1986.594360,570.391296 1993.434937,579.000488 
	C1996.196533,582.476318 1998.492188,586.322449 2001.000000,590.000000 
	C2001.000000,597.023315 2001.000000,604.046692 2000.658569,611.631897 
	C1999.969727,612.549744 1999.479126,612.843994 1999.295044,613.270447 
	C1992.353882,629.352600 1979.381104,635.186157 1962.735107,635.024109 
	C1950.238403,634.902405 1937.739502,635.000000 1925.241577,635.000000 
	C1917.293335,635.000000 1909.345215,635.000000 1901.000000,635.000000 
	C1901.000000,637.276489 1901.000000,639.069458 1901.000000,640.862427 
	C1901.000000,672.357117 1900.494019,703.863281 1901.205933,735.341919 
	C1901.581909,751.969727 1885.046143,768.388000 1868.284546,768.088318 
	C1847.627930,767.718994 1826.959717,768.000000 1806.296509,768.000000 
	C1804.676147,768.000000 1803.055664,768.000000 1801.000000,768.000000 
	C1801.000000,770.233948 1801.000000,772.022339 1801.000000,773.810730 
	C1801.000000,805.971985 1800.917236,838.133545 1801.042725,870.294312 
	C1801.089844,882.372620 1792.132935,895.650513 1779.791504,898.835815 
	C1772.613159,900.688599 1764.880615,900.601257 1757.377441,900.929321 
	C1749.974121,901.252930 1742.545532,901.000000 1735.373413,901.000000 
	C1735.373413,1112.447266 1735.373413,1323.149658 1735.373413,1534.000000 
	C1747.071533,1534.000000 1758.403687,1534.254272 1769.719971,1533.939209 
	C1785.913086,1533.488159 1801.206787,1549.106567 1801.077637,1565.035889 
	C1800.817017,1597.195068 1801.000000,1629.357788 1801.000000,1661.519043 
	C1801.000000,1663.276123 1801.000000,1665.033081 1801.000000,1667.000000 
	C1823.322266,1667.000000 1844.969360,1666.958252 1866.616211,1667.045166 
	C1869.863525,1667.058228 1873.160889,1667.413574 1876.345337,1668.055542 
	C1888.905762,1670.587524 1901.468018,1685.288330 1901.200195,1698.886597 
	C1900.573486,1730.702271 1901.000000,1762.538574 1901.000000,1794.366577 
	C1901.000000,1796.138306 1901.000000,1797.910034 1901.000000,1800.000000 
	C1903.201294,1800.000000 1904.837524,1800.000000 1906.473877,1800.000000 
	C1926.637207,1800.000000 1946.802246,1799.837524 1966.962891,1800.070923 
	C1976.556030,1800.181885 1985.365479,1803.140015 1991.920410,1810.552124 
	C1995.307617,1814.382324 1997.995850,1818.830933 2001.000000,1823.000000 
	C2001.000000,1874.356689 2001.000000,1925.713379 2000.650879,1977.639160 
	C1996.831665,1985.994263 1992.490356,1993.078125 1984.461792,1996.979126 
	C1981.383423,1998.474976 1978.158325,1999.668701 1975.000000,2001.000000 
	C1324.643311,2001.000000 674.286682,2001.000000 23.457279,2000.618896 
	C16.736250,1996.403687 9.951287,1993.236084 6.032145,1986.518921 
	C4.370121,1983.670288 2.678310,1980.839111 0.999998,1978.000000 
M162.997009,564.990662 
	C162.997009,564.990662 162.918579,564.928101 162.353973,565.299622 
	C163.222076,565.810913 164.090179,566.322144 165.893188,566.960815 
	C167.392700,566.973877 168.892212,566.998413 170.391724,566.998413 
	C725.097961,567.000061 1279.804199,567.000183 1834.510498,566.993164 
	C1836.340332,566.993103 1838.170166,566.889038 1840.471069,566.836487 
	C1840.565308,566.710999 1840.754272,566.489014 1840.739502,566.474426 
	C1840.523315,566.262085 1840.279785,566.077698 1839.729980,565.271912 
	C1829.279297,559.097839 1818.855591,552.877563 1808.372192,546.759705 
	C1787.663696,534.674927 1766.890625,522.700439 1746.203613,510.579163 
	C1728.215210,500.039093 1710.344727,489.297974 1692.356323,478.757965 
	C1671.669312,466.636749 1650.878540,454.692719 1630.191650,442.571503 
	C1612.203369,432.031525 1594.332886,421.290161 1576.344604,410.750183 
	C1555.657715,398.628998 1534.866699,386.685059 1514.179810,374.563843 
	C1496.191406,364.023804 1478.321167,353.282257 1460.332764,342.742310 
	C1439.645752,330.621094 1418.856689,318.674225 1398.166016,306.559174 
	C1373.796631,292.290131 1349.504272,277.889526 1325.142456,263.607544 
	C1306.868286,252.894394 1288.508057,242.327896 1270.239380,231.605362 
	C1252.258911,221.051865 1234.386108,210.314835 1216.392822,199.783142 
	C1191.732788,185.349197 1166.972046,171.087082 1142.313599,156.650345 
	C1120.354248,143.793839 1098.483398,130.786499 1076.558716,117.870514 
	C1055.192139,105.283211 1033.652588,92.979080 1012.510742,80.025505 
	C1004.795105,75.298096 998.949890,73.905060 990.329773,79.494820 
	C970.515991,92.343277 949.598267,103.483620 929.194031,115.429024 
	C911.201782,125.962372 893.334351,136.708923 875.345947,147.248901 
	C854.658936,159.370087 833.868103,171.314026 813.181152,183.435211 
	C795.192749,193.975235 777.322449,204.716827 759.334106,215.256790 
	C738.647095,227.378021 717.855042,239.319809 697.168579,251.441956 
	C675.214233,264.307037 653.361023,277.344604 631.406799,290.209839 
	C610.720520,302.332092 589.925659,314.269196 569.241272,326.394684 
	C543.179443,341.672577 517.202271,357.094727 491.148499,372.386414 
	C472.879700,383.108856 454.514954,393.667694 436.246277,404.390289 
	C418.265686,414.943756 400.392700,425.680725 382.399445,436.212402 
	C357.739227,450.646393 332.978851,464.909241 308.319946,479.345428 
	C286.360229,492.201447 264.482544,505.197540 242.564331,518.124512 
	C216.701736,533.377869 190.834457,548.623352 164.359497,563.991516 
	C163.875626,564.309387 163.391739,564.627319 162.997009,564.990662 
M533.502136,1533.845093 
	C533.844666,1533.666748 533.955078,1533.394409 533.960815,1532.094849 
	C533.926208,1520.034546 533.891663,1507.974243 533.981567,1495.003418 
	C533.987671,1320.354858 533.993958,1145.706299 533.993713,971.057800 
	C533.993713,970.060974 533.901306,969.064148 533.965332,967.128113 
	C533.965332,945.234253 533.965332,923.340332 533.965332,901.383911 
	C511.675751,901.383911 490.003174,901.383911 468.153259,901.383911 
	C468.153259,926.860657 468.153259,951.954224 468.019745,977.962708 
	C468.013245,1136.622314 468.006378,1295.281982 468.006256,1453.941528 
	C468.006256,1454.938477 468.098602,1455.935303 468.065033,1457.467651 
	C468.098907,1457.645142 468.132782,1457.822632 468.039093,1458.929565 
	C468.081604,1483.627441 468.124084,1508.325317 468.155029,1533.502197 
	C468.155029,1533.502197 468.492645,1533.841919 468.492645,1533.841919 
	C468.492645,1533.841919 468.971497,1533.833618 469.904755,1533.960938 
	C490.944214,1533.918457 511.983673,1533.875977 533.502136,1533.845093 
M1601.035400,1455.883301 
	C1601.035400,1481.767456 1601.035400,1507.651611 1601.035400,1533.627686 
	C1623.305176,1533.627686 1644.975464,1533.627686 1666.857056,1533.627686 
	C1666.857056,1520.809204 1666.857056,1508.361450 1666.981812,1495.003296 
	C1666.987793,1320.354736 1666.993896,1145.706055 1666.993408,971.057495 
	C1666.993408,970.060669 1666.901123,969.063904 1666.965332,967.127991 
	C1666.965332,945.234131 1666.965332,923.340271 1666.965332,901.383911 
	C1644.675659,901.383911 1623.003052,901.383911 1601.153198,901.383911 
	C1601.153198,926.860657 1601.153198,951.954224 1601.019531,977.962769 
	C1601.013062,1135.960571 1601.006470,1293.958374 1601.006470,1451.956177 
	C1601.006470,1452.952881 1601.101196,1453.949707 1601.035400,1455.883301 
M1100.965332,967.127991 
	C1100.965332,945.232910 1100.965332,923.337769 1100.965332,901.387573 
	C1078.670654,901.387573 1056.996826,901.387573 1035.148193,901.387573 
	C1035.148193,926.538452 1035.148193,951.302490 1035.018921,976.979309 
	C1035.012695,1135.638306 1035.006226,1294.297241 1035.006592,1452.956299 
	C1035.006592,1453.953003 1035.101196,1454.949707 1035.035400,1456.883301 
	C1035.035400,1482.432495 1035.035400,1507.981812 1035.035400,1533.632690 
	C1057.298584,1533.632690 1078.967041,1533.632690 1100.852051,1533.632690 
	C1100.852051,1520.822388 1100.852051,1508.377563 1100.981079,1495.020386 
	C1100.987305,1320.366089 1100.993774,1145.711914 1100.993530,971.057617 
	C1100.993530,970.060791 1100.901123,969.063904 1100.965332,967.127991 
M244.142731,1735.033691 
	C218.884857,1735.033691 193.626968,1735.033691 168.289246,1735.033691 
	C168.289246,1756.977783 168.289246,1778.228027 168.289246,1799.661743 
	C723.577209,1799.661743 1278.575928,1799.661743 1833.851685,1799.661743 
	C1833.851685,1788.529053 1833.851685,1777.731689 1833.980835,1766.012451 
	C1833.980835,1755.751831 1833.980835,1745.491089 1833.980835,1735.000000 
	C1831.369019,1735.000000 1829.388306,1735.000000 1827.407471,1735.000000 
	C1301.963623,1735.000000 776.519775,1734.999878 251.075943,1735.006104 
	C249.078995,1735.006104 247.082062,1735.095459 244.142731,1735.033691 
M1168.000000,1262.500000 
	C1168.000000,1352.915405 1168.000000,1443.330933 1168.000000,1534.000000 
	C1179.783447,1534.000000 1190.940918,1534.338135 1202.070068,1533.921875 
	C1219.373291,1533.274780 1234.861450,1548.682739 1234.955322,1566.989624 
	C1235.116821,1598.484985 1235.000000,1629.981812 1235.000000,1661.478027 
	C1235.000000,1663.239136 1235.000000,1665.000122 1235.000000,1666.642090 
	C1268.373413,1666.642090 1301.098633,1666.642090 1334.000000,1666.642090 
	C1334.000000,1632.632324 1333.927246,1598.979980 1334.031250,1565.328247 
	C1334.082397,1548.788452 1349.214600,1533.980469 1365.242920,1533.997559 
	C1377.024658,1534.010254 1388.806519,1534.000000 1400.749023,1534.000000 
	C1400.749023,1322.812256 1400.749023,1112.102661 1400.749023,901.000000 
	C1388.708618,901.000000 1376.915649,901.007812 1365.122681,900.998108 
	C1349.280273,900.985046 1334.005859,885.659790 1334.002197,869.764099 
	C1333.994873,837.767883 1334.000000,805.771729 1334.000000,773.775513 
	C1334.000000,771.990173 1334.000000,770.204773 1334.000000,768.268250 
	C1300.807373,768.268250 1268.082764,768.268250 1235.000000,768.268250 
	C1235.000000,770.331299 1235.000000,772.130371 1235.000000,773.929443 
	C1235.000000,805.425659 1235.120728,836.922729 1234.919067,868.417664 
	C1234.865479,876.783386 1231.704834,884.301819 1225.948120,890.521057 
	C1219.117676,897.900513 1210.712036,901.340759 1200.560425,901.065552 
	C1189.803467,900.773804 1179.032349,901.000000 1168.000000,901.000000 
	C1168.000000,1021.577332 1168.000000,1141.538696 1168.000000,1262.500000 
M834.000000,1144.500000 
	C834.000000,1063.414795 834.000000,982.329529 834.000000,901.000000 
	C822.205811,901.000000 811.056519,900.838745 799.913635,901.036621 
	C781.911194,901.356262 767.183838,886.215088 767.059448,867.972961 
	C766.844788,836.476990 767.000000,804.978577 767.000000,773.481140 
	C767.000000,771.723938 767.000000,769.966797 767.000000,768.373718 
	C733.596497,768.373718 700.870239,768.373718 668.000000,768.373718 
	C668.000000,802.404907 668.016846,836.062500 667.991760,869.720154 
	C667.981445,883.500122 656.777893,897.813049 643.611145,899.715149 
	C631.733948,901.430725 619.499084,900.677246 607.421448,900.992310 
	C605.337280,901.046692 603.250427,901.000000 601.379272,901.000000 
	C601.379272,1112.433472 601.379272,1323.148682 601.379272,1534.000000 
	C613.419128,1534.000000 625.080200,1534.012817 636.741272,1533.996948 
	C652.787903,1533.974976 667.911621,1548.789795 667.968079,1565.314087 
	C668.077393,1597.311035 668.000000,1629.308716 668.000000,1661.306030 
	C668.000000,1663.083740 668.000000,1664.861450 668.000000,1666.701538 
	C701.251892,1666.701538 733.977356,1666.701538 767.000000,1666.701538 
	C767.000000,1664.598755 767.000000,1662.791870 767.000000,1660.984863 
	C767.000000,1630.320679 767.254761,1599.653687 766.908386,1568.993408 
	C766.685730,1549.281738 782.702698,1532.420898 801.935913,1533.859009 
	C812.476624,1534.647217 823.124756,1534.000000 834.000000,1534.000000 
	C834.000000,1404.094482 834.000000,1274.797241 834.000000,1144.500000 
M1501.500000,1934.000000 
	C1643.149902,1934.000000 1784.799683,1934.000244 1926.449585,1933.999146 
	C1933.994873,1933.999023 1933.998169,1933.993530 1933.999268,1926.309692 
	C1934.001465,1909.978394 1934.029297,1893.646851 1933.989502,1877.315674 
	C1933.964111,1866.896484 1935.045654,1868.011475 1924.575317,1868.011230 
	C1308.817261,1867.998779 693.059082,1867.999878 77.300995,1868.000000 
	C75.967827,1868.000000 74.618645,1868.134644 73.304451,1867.976929 
	C69.082390,1867.470703 67.890175,1869.391602 67.929855,1873.440552 
	C68.098076,1890.603394 67.974617,1907.768921 68.009827,1924.933472 
	C68.030479,1934.999634 67.018593,1933.989990 77.173851,1933.990234 
	C551.615906,1934.001343 1026.057983,1934.000000 1501.500000,1934.000000 
M566.500000,700.000000 
	C985.442810,700.000000 1404.385620,700.000000 1823.328369,700.000000 
	C1824.994751,700.000000 1826.680908,699.834778 1828.323853,700.031250 
	C1832.648315,700.548401 1834.150024,698.890259 1834.089600,694.429993 
	C1833.863525,677.768616 1834.031982,661.102356 1833.988281,644.438049 
	C1833.960815,633.960022 1835.111084,635.010437 1824.697876,635.010193 
	C1275.605713,634.998657 726.513428,635.000000 177.421249,635.000000 
	C176.254745,635.000000 175.071747,635.127197 173.924622,634.978149 
	C169.407410,634.391418 167.836853,636.144836 167.903534,640.820740 
	C168.148270,657.981506 167.998550,675.148010 168.000763,692.312317 
	C168.001755,699.993347 168.005463,699.999084 175.552887,699.999146 
	C305.535248,700.000366 435.517639,700.000000 566.500000,700.000000 
M1468.000000,1228.500000 
	C1468.000000,1330.234619 1468.000000,1431.969238 1468.000000,1533.672974 
	C1490.388794,1533.672974 1511.972168,1533.672974 1533.598145,1533.672974 
	C1533.598145,1322.663086 1533.598145,1111.980591 1533.598145,901.327026 
	C1511.611328,901.327026 1490.027954,901.327026 1468.000000,901.327026 
	C1468.000000,1010.268921 1468.000000,1118.884399 1468.000000,1228.500000 
M901.000000,1516.498535 
	C901.000000,1522.250732 901.000000,1528.002930 901.000000,1533.659668 
	C923.415527,1533.659668 944.999146,1533.659668 966.584778,1533.659668 
	C966.584778,1322.636475 966.584778,1111.953735 966.584778,901.340393 
	C944.584290,901.340393 923.000671,901.340393 901.000000,901.340393 
	C901.000000,1106.286743 901.000000,1310.893066 901.000000,1516.498535 
M335.000000,1253.500000 
	C335.000000,1346.902100 335.000000,1440.304321 335.000000,1533.671753 
	C357.391144,1533.671753 378.974609,1533.671753 400.596985,1533.671753 
	C400.596985,1322.660767 400.596985,1111.978149 400.596985,901.328186 
	C378.608917,901.328186 357.025513,901.328186 335.000000,901.328186 
	C335.000000,1018.603882 335.000000,1135.551880 335.000000,1253.500000 
M385.500000,834.000000 
	C455.165436,834.000000 524.830872,834.001404 594.496277,833.997498 
	C600.983887,833.997131 600.995483,833.981262 600.997742,827.375427 
	C601.003967,809.375732 600.896973,791.375061 601.077148,773.377197 
	C601.117798,769.311462 599.968933,767.918640 595.747986,767.922546 
	C488.250000,768.022400 380.751892,768.022461 273.253906,767.922668 
	C269.035431,767.918762 267.882019,769.307068 267.922821,773.375366 
	C268.103363,791.373230 267.996124,809.373901 268.002289,827.373596 
	C268.004547,833.981201 268.016174,833.996521 274.501953,833.997437 
	C311.167969,834.002747 347.833984,834.000000 385.500000,834.000000 
M268.000000,1639.500000 
	C268.000275,1646.833252 268.255035,1654.178589 267.907074,1661.495239 
	C267.692413,1666.009521 269.327515,1667.085693 273.628235,1667.081543 
	C380.792847,1666.976929 487.957672,1666.975464 595.122314,1667.084106 
	C599.608582,1667.088623 601.171265,1665.949097 601.103394,1661.247925 
	C600.845764,1643.418579 601.003540,1625.583374 600.998169,1607.750366 
	C600.996094,1601.011353 600.986511,1601.001709 594.122070,1601.001587 
	C487.790649,1600.999512 381.459229,1600.999878 275.127808,1601.000000 
	C274.461151,1601.000000 273.785492,1601.072388 273.129303,1600.989868 
	C269.298798,1600.507568 267.829773,1601.959473 267.919647,1606.002441 
	C268.160339,1616.830200 268.000641,1627.666870 268.000000,1639.500000 
M1552.500000,768.000000 
	C1504.167480,768.000061 1455.834961,768.056458 1407.502808,767.911072 
	C1402.769775,767.896851 1400.753174,768.702209 1400.862061,774.128479 
	C1401.226807,792.287537 1401.102539,810.459412 1400.922729,828.623962 
	C1400.882446,832.691467 1402.033813,834.081238 1406.253174,834.077332 
	C1513.751221,833.977539 1621.249268,833.977478 1728.747314,834.077271 
	C1732.967163,834.081177 1734.117798,832.690491 1734.077148,828.623474 
	C1733.896729,810.625610 1734.004028,792.624878 1733.997925,774.625183 
	C1733.995728,768.018799 1733.984009,768.002991 1727.496948,768.002502 
	C1669.497925,767.998291 1611.499023,768.000000 1552.500000,768.000000 
M1581.500000,1601.000000 
	C1523.501099,1601.000000 1465.502075,1601.047363 1407.503540,1600.911987 
	C1402.772095,1600.900879 1400.752930,1601.700073 1400.862061,1607.127808 
	C1401.227051,1625.286865 1401.102539,1643.458618 1400.922852,1661.623291 
	C1400.882690,1665.689697 1402.031982,1667.081299 1406.252441,1667.077393 
	C1513.750488,1666.977539 1621.248657,1666.977661 1728.746704,1667.077515 
	C1732.966064,1667.081421 1734.117920,1665.691772 1734.077148,1661.624146 
	C1733.896606,1643.626099 1734.003906,1625.625488 1733.997803,1607.625732 
	C1733.995605,1601.018677 1733.984009,1601.003174 1727.497559,1601.002563 
	C1679.165039,1600.997925 1630.832520,1601.000000 1581.500000,1601.000000 
M976.500000,768.000000 
	C931.334167,768.000122 886.167969,768.073853 841.002869,767.894592 
	C836.095337,767.875122 834.831360,769.383301 834.897705,774.127258 
	C835.151611,792.290039 835.102478,810.459534 834.922852,828.624084 
	C834.882568,832.691589 836.034119,834.081238 840.253296,834.077332 
	C947.418030,833.977478 1054.582764,833.977417 1161.747437,834.077271 
	C1165.967529,834.081238 1167.118530,832.690125 1167.077148,828.623291 
	C1166.895874,810.792114 1167.001953,792.958069 1166.998901,775.125061 
	C1166.997559,768.009949 1166.991699,768.001587 1159.996826,768.001343 
	C1099.164551,767.999084 1038.332275,768.000000 976.500000,768.000000 
M842.598877,1601.000000 
	C835.004822,1601.017822 835.001465,1601.017822 835.000671,1608.521118 
	C834.998840,1626.176880 835.141357,1643.834717 834.902954,1661.487183 
	C834.842529,1665.963135 836.291809,1667.086914 840.610901,1667.082642 
	C947.544983,1666.976562 1054.479126,1666.975952 1161.413208,1667.084473 
	C1165.768433,1667.088867 1167.153076,1665.902344 1167.095337,1661.463135 
	C1166.863403,1643.643799 1167.002441,1625.819702 1166.998657,1607.997314 
	C1166.997070,1601.008301 1166.990112,1601.001343 1159.876953,1601.001221 
	C1054.441895,1600.999634 949.006775,1601.000000 842.598877,1601.000000 
z"/>
<path fill="#FFFFFF" opacity="1.000000" stroke="none" 
	d="
M992.531372,1.000000 
	C979.897400,8.270288 966.722900,15.414515 953.711060,22.843809 
	C938.495605,31.531338 923.400940,40.431686 908.292969,49.306118 
	C894.300354,57.525314 880.374084,65.857277 866.391479,74.093468 
	C851.707703,82.742691 836.992859,91.339302 822.289185,99.954681 
	C808.013245,108.319420 793.729431,116.670822 779.457642,125.042755 
	C764.757446,133.666031 750.075317,142.320374 735.370850,150.936432 
	C721.095886,159.300888 706.793640,167.618668 692.519836,175.985107 
	C677.817261,184.602875 663.144226,193.271133 648.440491,201.886917 
	C634.164917,210.251785 619.872559,218.588120 605.576904,226.918610 
	C590.580383,235.657501 575.549805,244.338318 560.573486,253.111710 
	C546.568787,261.315948 532.635010,269.641449 518.634521,277.852936 
	C503.520081,286.717743 488.349945,295.487457 473.231018,304.344604 
	C459.369049,312.465332 445.557892,320.672760 431.697083,328.795532 
	C416.580048,337.654388 401.410919,346.424530 386.303070,355.298889 
	C372.310394,363.518188 358.382721,371.848022 344.400482,380.085083 
	C329.717041,388.735138 315.005096,397.336853 300.301300,405.952332 
	C286.025513,414.317017 271.738861,422.663208 257.466827,431.034241 
	C242.766174,439.656616 228.085480,448.313049 213.381119,456.929108 
	C199.106079,465.293610 184.802795,473.609924 170.528931,481.976440 
	C155.826416,490.594147 141.154358,499.263763 126.450729,507.879547 
	C112.175064,516.244507 97.881821,524.579468 83.586037,532.910034 
	C68.589600,541.648865 53.557137,550.326233 38.586967,559.109741 
	C30.191093,564.035828 21.298321,568.383240 13.761994,574.408020 
	C9.074076,578.155701 6.501094,584.550171 2.985102,589.760925 
	C2.537375,590.424438 2.127405,591.113525 1.349965,591.895386 
	C1.000000,395.054443 1.000000,198.108871 1.000000,1.000000 
	C331.354218,1.000000 661.708435,1.000000 992.531372,1.000000 
z"/>
<path fill="#FFFFFF" opacity="1.000000" stroke="none" 
	d="
M2001.000000,589.531372 
	C1998.492188,586.322449 1996.196533,582.476318 1993.434937,579.000488 
	C1986.594360,570.391296 1976.259277,566.697021 1967.295410,561.148743 
	C1953.233154,552.445007 1938.781250,544.371704 1924.509521,536.005371 
	C1909.809082,527.387756 1895.136353,518.722961 1880.434082,510.108551 
	C1866.160156,501.745239 1851.869873,493.409637 1837.576050,485.080444 
	C1822.581299,476.342834 1807.552734,467.663391 1792.578003,458.891602 
	C1778.574829,450.688812 1764.641846,442.365753 1750.643066,434.155396 
	C1735.530640,425.291931 1720.363525,416.521820 1705.246338,407.666351 
	C1691.385742,399.546875 1677.574463,391.343384 1663.715210,383.221680 
	C1648.600342,374.364136 1633.435059,365.592316 1618.329102,356.719666 
	C1604.337646,348.501678 1590.407471,340.179688 1576.428345,331.940765 
	C1561.747925,323.288574 1547.047241,314.670624 1532.344604,306.056335 
	C1518.070923,297.693359 1503.775635,289.367401 1489.504150,281.000610 
	C1474.803955,272.382538 1460.130737,263.718842 1445.428467,255.104568 
	C1431.154541,246.741211 1416.864746,238.404922 1402.570923,230.075638 
	C1387.576050,221.337967 1372.546631,212.659210 1357.572021,203.887299 
	C1343.568604,195.684479 1329.636597,187.360321 1315.637573,179.149979 
	C1300.525024,170.286453 1285.357056,161.517242 1270.239868,152.661606 
	C1256.379272,144.542221 1242.568481,136.337784 1228.709229,128.216064 
	C1213.594238,119.358505 1198.428345,110.587433 1183.322388,101.714760 
	C1169.331055,93.496841 1155.401733,85.173508 1141.422363,76.935257 
	C1126.741699,68.283600 1112.039307,59.668900 1097.336670,51.054672 
	C1083.062744,42.691658 1068.815552,34.282375 1054.484863,26.017704 
	C1040.592651,18.005857 1026.614136,10.143340 1012.650452,2.256208 
	C1011.970032,1.871921 1011.067261,1.881274 1010.134033,1.353666 
	C1340.241943,1.000000 1670.483765,1.000000 2001.000000,1.000000 
	C2001.000000,197.020813 2001.000000,393.041748 2001.000000,589.531372 
z"/>
<path fill="#FFFFFF" opacity="1.000000" stroke="none" 
	d="
M1.000003,610.468628 
	C1.656700,610.669617 2.626807,611.223328 2.923620,612.026062 
	C8.390067,626.809143 21.351620,634.931458 36.576279,634.983582 
	C56.242702,635.050903 75.909531,635.000000 95.576187,635.000000 
	C97.208153,635.000000 98.840118,635.000000 101.000000,635.000000 
	C101.000000,637.131348 101.000000,638.908264 101.000000,640.685181 
	C101.000000,672.518494 101.331398,704.356934 100.843079,736.182800 
	C100.636795,749.627014 112.861351,764.009827 125.335518,766.914978 
	C128.490585,767.649780 131.813568,767.939453 135.061569,767.954102 
	C155.227814,768.045349 175.394653,768.000000 195.561310,768.000000 
	C197.198288,768.000000 198.835251,768.000000 201.000000,768.000000 
	C201.000000,770.119385 201.000000,771.894836 201.000000,773.670349 
	C201.000000,806.003662 200.957245,838.337036 201.018219,870.670227 
	C201.048264,886.607056 215.427963,900.520813 231.007324,900.937439 
	C242.803848,901.252991 254.615570,901.000000 266.709015,901.000000 
	C266.709015,1112.040405 266.709015,1322.767578 266.709015,1534.000000 
	C255.003540,1534.000000 243.388260,1534.131958 231.777176,1533.967896 
	C215.920090,1533.743896 200.915298,1548.927246 200.967606,1564.545532 
	C201.075317,1596.711792 201.000000,1628.878662 201.000000,1661.045288 
	C201.000000,1662.849854 201.000000,1664.654419 201.000000,1667.000000 
	C198.893600,1667.000000 197.119644,1667.000000 195.345688,1667.000000 
	C174.845703,1667.000000 154.345612,1667.040161 133.845764,1666.986938 
	C118.277931,1666.946533 105.169922,1677.757935 101.202759,1692.669556 
	C100.828094,1694.078003 101.007179,1695.645874 101.006767,1697.139771 
	C100.997864,1729.473145 101.000000,1761.806396 101.000000,1794.139771 
	C101.000000,1795.932739 101.000000,1797.725708 101.000000,1800.000000 
	C92.984047,1800.000000 85.367661,1800.000000 77.751274,1800.000000 
	C64.251282,1800.000000 50.751244,1800.021851 37.251308,1799.994385 
	C21.812662,1799.963013 10.153879,1806.195312 3.199632,1820.352539 
	C2.889714,1820.983398 2.237233,1821.446045 1.372166,1821.993652 
	C1.000000,1418.312378 1.000000,1014.624878 1.000003,610.468628 
z"/>
<path fill="#FFFFFF" opacity="1.000000" stroke="none" 
	d="
M2001.000000,1822.531372 
	C1997.995850,1818.830933 1995.307617,1814.382324 1991.920410,1810.552124 
	C1985.365479,1803.140015 1976.556030,1800.181885 1966.962891,1800.070923 
	C1946.802246,1799.837524 1926.637207,1800.000000 1906.473877,1800.000000 
	C1904.837524,1800.000000 1903.201294,1800.000000 1901.000000,1800.000000 
	C1901.000000,1797.910034 1901.000000,1796.138306 1901.000000,1794.366577 
	C1901.000000,1762.538574 1900.573486,1730.702271 1901.200195,1698.886597 
	C1901.468018,1685.288330 1888.905762,1670.587524 1876.345337,1668.055542 
	C1873.160889,1667.413574 1869.863525,1667.058228 1866.616211,1667.045166 
	C1844.969360,1666.958252 1823.322266,1667.000000 1801.000000,1667.000000 
	C1801.000000,1665.033081 1801.000000,1663.276123 1801.000000,1661.519043 
	C1801.000000,1629.357788 1800.817017,1597.195068 1801.077637,1565.035889 
	C1801.206787,1549.106567 1785.913086,1533.488159 1769.719971,1533.939209 
	C1758.403687,1534.254272 1747.071533,1534.000000 1735.373413,1534.000000 
	C1735.373413,1323.149658 1735.373413,1112.447266 1735.373413,901.000000 
	C1742.545532,901.000000 1749.974121,901.252930 1757.377441,900.929321 
	C1764.880615,900.601257 1772.613159,900.688599 1779.791504,898.835815 
	C1792.132935,895.650513 1801.089844,882.372620 1801.042725,870.294312 
	C1800.917236,838.133545 1801.000000,805.971985 1801.000000,773.810730 
	C1801.000000,772.022339 1801.000000,770.233948 1801.000000,768.000000 
	C1803.055664,768.000000 1804.676147,768.000000 1806.296509,768.000000 
	C1826.959717,768.000000 1847.627930,767.718994 1868.284546,768.088318 
	C1885.046143,768.388000 1901.581909,751.969727 1901.205933,735.341919 
	C1900.494019,703.863281 1901.000000,672.357117 1901.000000,640.862427 
	C1901.000000,639.069458 1901.000000,637.276489 1901.000000,635.000000 
	C1909.345215,635.000000 1917.293335,635.000000 1925.241577,635.000000 
	C1937.739502,635.000000 1950.238403,634.902405 1962.735107,635.024109 
	C1979.381104,635.186157 1992.353882,629.352600 1999.295044,613.270447 
	C1999.479126,612.843994 1999.969727,612.549744 2000.658569,612.096924 
	C2001.000000,1015.354248 2001.000000,1418.708496 2001.000000,1822.531372 
z"/>
<path fill="#FFFFFF" opacity="1.000000" stroke="none" 
	d="
M1975.468628,2001.000000 
	C1978.158325,1999.668701 1981.383423,1998.474976 1984.461792,1996.979126 
	C1992.490356,1993.078125 1996.831665,1985.994263 2000.650879,1978.104004 
	C2001.000000,1985.597534 2001.000000,1993.195068 2001.000000,2001.000000 
	C1992.646851,2001.000000 1984.292114,2001.000000 1975.468628,2001.000000 
z"/>
<path fill="#FFFFFF" opacity="1.000000" stroke="none" 
	d="
M0.999998,1978.468750 
	C2.678310,1980.839111 4.370121,1983.670288 6.032145,1986.518921 
	C9.951287,1993.236084 16.736250,1996.403687 22.992266,2000.618896 
	C15.738764,2001.000000 8.477529,2001.000000 1.000000,2001.000000 
	C1.000000,1993.647217 1.000000,1986.292358 0.999998,1978.468750 
z"/>
<path fill="#FFFFFF" opacity="1.000000" stroke="none" 
	d="
M1168.000000,1262.000000 
	C1168.000000,1141.538696 1168.000000,1021.577332 1168.000000,901.000000 
	C1179.032349,901.000000 1189.803467,900.773804 1200.560425,901.065552 
	C1210.712036,901.340759 1219.117676,897.900513 1225.948120,890.521057 
	C1231.704834,884.301819 1234.865479,876.783386 1234.919067,868.417664 
	C1235.120728,836.922729 1235.000000,805.425659 1235.000000,773.929443 
	C1235.000000,772.130371 1235.000000,770.331299 1235.000000,768.268250 
	C1268.082764,768.268250 1300.807373,768.268250 1334.000000,768.268250 
	C1334.000000,770.204773 1334.000000,771.990173 1334.000000,773.775513 
	C1334.000000,805.771729 1333.994873,837.767883 1334.002197,869.764099 
	C1334.005859,885.659790 1349.280273,900.985046 1365.122681,900.998108 
	C1376.915649,901.007812 1388.708618,901.000000 1400.749023,901.000000 
	C1400.749023,1112.102661 1400.749023,1322.812256 1400.749023,1534.000000 
	C1388.806519,1534.000000 1377.024658,1534.010254 1365.242920,1533.997559 
	C1349.214600,1533.980469 1334.082397,1548.788452 1334.031250,1565.328247 
	C1333.927246,1598.979980 1334.000000,1632.632324 1334.000000,1666.642090 
	C1301.098633,1666.642090 1268.373413,1666.642090 1235.000000,1666.642090 
	C1235.000000,1665.000122 1235.000000,1663.239136 1235.000000,1661.478027 
	C1235.000000,1629.981812 1235.116821,1598.484985 1234.955322,1566.989624 
	C1234.861450,1548.682739 1219.373291,1533.274780 1202.070068,1533.921875 
	C1190.940918,1534.338135 1179.783447,1534.000000 1168.000000,1534.000000 
	C1168.000000,1443.330933 1168.000000,1352.915405 1168.000000,1262.000000 
z"/>
<path fill="#FFFFFF" opacity="1.000000" stroke="none" 
	d="
M834.000000,1145.000000 
	C834.000000,1274.797241 834.000000,1404.094482 834.000000,1534.000000 
	C823.124756,1534.000000 812.476624,1534.647217 801.935913,1533.859009 
	C782.702698,1532.420898 766.685730,1549.281738 766.908386,1568.993408 
	C767.254761,1599.653687 767.000000,1630.320679 767.000000,1660.984863 
	C767.000000,1662.791870 767.000000,1664.598755 767.000000,1666.701538 
	C733.977356,1666.701538 701.251892,1666.701538 668.000000,1666.701538 
	C668.000000,1664.861450 668.000000,1663.083740 668.000000,1661.306030 
	C668.000000,1629.308716 668.077393,1597.311035 667.968079,1565.314087 
	C667.911621,1548.789795 652.787903,1533.974976 636.741272,1533.996948 
	C625.080200,1534.012817 613.419128,1534.000000 601.379272,1534.000000 
	C601.379272,1323.148682 601.379272,1112.433472 601.379272,901.000000 
	C603.250427,901.000000 605.337280,901.046692 607.421448,900.992310 
	C619.499084,900.677246 631.733948,901.430725 643.611145,899.715149 
	C656.777893,897.813049 667.981445,883.500122 667.991760,869.720154 
	C668.016846,836.062500 668.000000,802.404907 668.000000,768.373718 
	C700.870239,768.373718 733.596497,768.373718 767.000000,768.373718 
	C767.000000,769.966797 767.000000,771.723938 767.000000,773.481140 
	C767.000000,804.978577 766.844788,836.476990 767.059448,867.972961 
	C767.183838,886.215088 781.911194,901.356262 799.913635,901.036621 
	C811.056519,900.838745 822.205811,901.000000 834.000000,901.000000 
	C834.000000,982.329529 834.000000,1063.414795 834.000000,1145.000000 
z"/>
<path fill="#F9B1B0" opacity="1.000000" stroke="none" 
	d="
M164.969223,563.872253 
	C190.834457,548.623352 216.701736,533.377869 242.564331,518.124512 
	C264.482544,505.197540 286.360229,492.201447 308.319946,479.345428 
	C332.978851,464.909241 357.739227,450.646393 382.399445,436.212402 
	C400.392700,425.680725 418.265686,414.943756 436.246277,404.390289 
	C454.514954,393.667694 472.879700,383.108856 491.148499,372.386414 
	C517.202271,357.094727 543.179443,341.672577 569.241272,326.394684 
	C589.925659,314.269196 610.720520,302.332092 631.406799,290.209839 
	C653.361023,277.344604 675.214233,264.307037 697.168579,251.441956 
	C717.855042,239.319809 738.647095,227.378021 759.334106,215.256790 
	C777.322449,204.716827 795.192749,193.975235 813.181152,183.435211 
	C833.868103,171.314026 854.658936,159.370087 875.345947,147.248901 
	C893.334351,136.708923 911.201782,125.962372 929.194031,115.429024 
	C949.598267,103.483620 970.515991,92.343277 990.329773,79.494820 
	C998.949890,73.905060 1004.795105,75.298096 1012.510742,80.025505 
	C1033.652588,92.979080 1055.192139,105.283211 1076.558716,117.870514 
	C1098.483398,130.786499 1120.354248,143.793839 1142.313599,156.650345 
	C1166.972046,171.087082 1191.732788,185.349197 1216.392822,199.783142 
	C1234.386108,210.314835 1252.258911,221.051865 1270.239380,231.605362 
	C1288.508057,242.327896 1306.868286,252.894394 1325.142456,263.607544 
	C1349.504272,277.889526 1373.796631,292.290131 1398.166016,306.559174 
	C1418.856689,318.674225 1439.645752,330.621094 1460.332764,342.742310 
	C1478.321167,353.282257 1496.191406,364.023804 1514.179810,374.563843 
	C1534.866699,386.685059 1555.657715,398.628998 1576.344604,410.750183 
	C1594.332886,421.290161 1612.203369,432.031525 1630.191650,442.571503 
	C1650.878540,454.692719 1671.669312,466.636749 1692.356323,478.757965 
	C1710.344727,489.297974 1728.215210,500.039093 1746.203613,510.579163 
	C1766.890625,522.700439 1787.663696,534.674927 1808.372192,546.759705 
	C1818.855591,552.877563 1829.279297,559.097839 1839.874023,565.815918 
	C1840.018188,566.359985 1840.000000,566.833557 1840.000000,566.833557 
	C1838.170166,566.889038 1836.340332,566.993103 1834.510498,566.993164 
	C1279.804199,567.000183 725.097961,567.000061 170.391724,566.998413 
	C168.892212,566.998413 167.392700,566.973877 165.224258,566.703369 
	C164.009750,565.939941 163.464172,565.434021 162.918579,564.928101 
	C162.918579,564.928101 162.997009,564.990662 163.247772,564.915466 
	C163.988770,564.517578 164.478989,564.194885 164.969223,563.872253 
M1355.500000,549.000000 
	C1377.328735,549.000000 1399.159790,548.820618 1420.985229,549.085999 
	C1430.047729,549.196228 1437.449707,545.671631 1443.602661,539.741089 
	C1455.667847,528.112366 1461.697998,513.452576 1461.899048,496.841736 
	C1462.257935,467.183441 1462.081543,437.517365 1461.953979,407.855255 
	C1461.911865,398.082062 1462.374146,388.134735 1460.759766,378.578857 
	C1458.051270,362.546661 1451.224609,348.247559 1436.283813,339.851837 
	C1427.709961,335.033783 1418.506348,331.327881 1409.548706,327.202576 
	C1379.543335,313.384033 1349.516357,299.612152 1319.506714,285.802582 
	C1298.903809,276.321716 1278.317505,266.804871 1257.721313,257.309265 
	C1226.973633,243.133377 1196.222900,228.964386 1165.475464,214.788132 
	C1144.879639,205.292358 1124.278564,195.807861 1103.695557,186.284576 
	C1075.796875,173.376526 1047.834229,160.602463 1020.060730,147.430161 
	C1008.495117,141.944855 997.090149,138.878006 984.786865,144.650192 
	C963.946533,154.427521 943.105042,164.202454 922.240906,173.928665 
	C903.765808,182.541199 885.243896,191.053391 866.769897,199.668198 
	C836.072327,213.983185 805.399780,228.351974 774.710266,242.684341 
	C755.345703,251.727814 735.961243,260.728760 716.600342,269.780182 
	C688.592529,282.874115 660.608948,296.019714 632.592773,309.095673 
	C620.830200,314.585632 608.972412,319.872467 597.228760,325.402069 
	C586.803711,330.310822 575.895630,334.514343 566.236572,340.657684 
	C549.988892,350.991455 542.709351,367.522552 542.252197,385.991943 
	C541.382385,421.132263 542.252014,456.312164 541.873352,491.469940 
	C541.726379,505.115479 544.680969,517.705627 551.731873,529.156921 
	C559.173950,541.243530 569.172668,549.112366 584.604919,549.103638 
	C841.236572,548.958252 1097.868286,549.000000 1355.500000,549.000000 
z"/>
<path fill="#EF3D3A" opacity="1.000000" stroke="none" 
	d="
M1501.000000,1934.000000 
	C1026.057983,1934.000000 551.615906,1934.001343 77.173851,1933.990234 
	C67.018593,1933.989990 68.030479,1934.999634 68.009827,1924.933472 
	C67.974617,1907.768921 68.098076,1890.603394 67.929855,1873.440552 
	C67.890175,1869.391602 69.082390,1867.470703 73.304451,1867.976929 
	C74.618645,1868.134644 75.967827,1868.000000 77.300995,1868.000000 
	C693.059082,1867.999878 1308.817261,1867.998779 1924.575317,1868.011230 
	C1935.045654,1868.011475 1933.964111,1866.896484 1933.989502,1877.315674 
	C1934.029297,1893.646851 1934.001465,1909.978394 1933.999268,1926.309692 
	C1933.998169,1933.993530 1933.994873,1933.999023 1926.449585,1933.999146 
	C1784.799683,1934.000244 1643.149902,1934.000000 1501.000000,1934.000000 
z"/>
<path fill="#EF3D3A" opacity="1.000000" stroke="none" 
	d="
M566.000000,700.000000 
	C435.517639,700.000000 305.535248,700.000366 175.552887,699.999146 
	C168.005463,699.999084 168.001755,699.993347 168.000763,692.312317 
	C167.998550,675.148010 168.148270,657.981506 167.903534,640.820740 
	C167.836853,636.144836 169.407410,634.391418 173.924622,634.978149 
	C175.071747,635.127197 176.254745,635.000000 177.421249,635.000000 
	C726.513428,635.000000 1275.605713,634.998657 1824.697876,635.010193 
	C1835.111084,635.010437 1833.960815,633.960022 1833.988281,644.438049 
	C1834.031982,661.102356 1833.863525,677.768616 1834.089600,694.429993 
	C1834.150024,698.890259 1832.648315,700.548401 1828.323853,700.031250 
	C1826.680908,699.834778 1824.994751,700.000000 1823.328369,700.000000 
	C1404.385620,700.000000 985.442810,700.000000 566.000000,700.000000 
z"/>
<path fill="#F9B1B0" opacity="1.000000" stroke="none" 
	d="
M1833.851685,1766.934326 
	C1833.851685,1777.731689 1833.851685,1788.529053 1833.851685,1799.661743 
	C1278.575928,1799.661743 723.577209,1799.661743 168.289246,1799.661743 
	C168.289246,1778.228027 168.289246,1756.977783 168.289246,1735.033691 
	C193.626968,1735.033691 218.884857,1735.033691 244.746033,1735.393677 
	C248.421509,1739.855591 250.962326,1744.531372 254.661407,1747.956177 
	C267.923035,1760.234741 283.579590,1767.010742 301.923370,1767.010254 
	C810.399902,1766.997314 1318.876465,1767.000122 1827.353027,1766.997314 
	C1829.519287,1766.997314 1831.685425,1766.956299 1833.851685,1766.934326 
z"/>
<path fill="#FFFFFF" opacity="1.000000" stroke="none" 
	d="
M1833.916260,1766.473389 
	C1831.685425,1766.956299 1829.519287,1766.997314 1827.353027,1766.997314 
	C1318.876465,1767.000122 810.399902,1766.997314 301.923370,1767.010254 
	C283.579590,1767.010742 267.923035,1760.234741 254.661407,1747.956177 
	C250.962326,1744.531372 248.421509,1739.855591 245.217224,1735.448486 
	C247.082062,1735.095459 249.078995,1735.006104 251.075943,1735.006104 
	C776.519775,1734.999878 1301.963623,1735.000000 1827.407471,1735.000000 
	C1829.388306,1735.000000 1831.369019,1735.000000 1833.980835,1735.000000 
	C1833.980835,1745.491089 1833.980835,1755.751831 1833.916260,1766.473389 
z"/>
<path fill="#F9B1B0" opacity="1.000000" stroke="none" 
	d="
M1468.000000,1228.000000 
	C1468.000000,1118.884399 1468.000000,1010.268921 1468.000000,901.327026 
	C1490.027954,901.327026 1511.611328,901.327026 1533.598145,901.327026 
	C1533.598145,1111.980591 1533.598145,1322.663086 1533.598145,1533.672974 
	C1511.972168,1533.672974 1490.388794,1533.672974 1468.000000,1533.672974 
	C1468.000000,1431.969238 1468.000000,1330.234619 1468.000000,1228.000000 
z"/>
<path fill="#F9B1B0" opacity="1.000000" stroke="none" 
	d="
M901.000000,1515.998901 
	C901.000000,1310.893066 901.000000,1106.286743 901.000000,901.340393 
	C923.000671,901.340393 944.584290,901.340393 966.584778,901.340393 
	C966.584778,1111.953735 966.584778,1322.636475 966.584778,1533.659668 
	C944.999146,1533.659668 923.415527,1533.659668 901.000000,1533.659668 
	C901.000000,1528.002930 901.000000,1522.250732 901.000000,1515.998901 
z"/>
<path fill="#F9B1B0" opacity="1.000000" stroke="none" 
	d="
M335.000000,1253.000000 
	C335.000000,1135.551880 335.000000,1018.603882 335.000000,901.328186 
	C357.025513,901.328186 378.608917,901.328186 400.596985,901.328186 
	C400.596985,1111.978149 400.596985,1322.660767 400.596985,1533.671753 
	C378.974609,1533.671753 357.391144,1533.671753 335.000000,1533.671753 
	C335.000000,1440.304321 335.000000,1346.902100 335.000000,1253.000000 
z"/>
<path fill="#FFFFFF" opacity="1.000000" stroke="none" 
	d="
M1035.151611,1455.946411 
	C1035.101196,1454.949707 1035.006592,1453.953003 1035.006592,1452.956299 
	C1035.006226,1294.297241 1035.012695,1135.638306 1035.435913,976.458008 
	C1044.885986,971.568665 1054.342041,968.400757 1064.392578,968.095093 
	C1076.534790,967.725952 1088.697876,968.045593 1100.851807,968.067078 
	C1100.901123,969.063904 1100.993530,970.060791 1100.993530,971.057617 
	C1100.993774,1145.711914 1100.987305,1320.366089 1100.550049,1495.447266 
	C1089.089966,1491.124756 1077.865967,1486.775757 1067.083130,1481.521484 
	C1054.603149,1475.440308 1044.948120,1465.537109 1035.151611,1455.946411 
z"/>
<path fill="#FFFFFF" opacity="1.000000" stroke="none" 
	d="
M533.852051,968.067261 
	C533.901306,969.064148 533.993713,970.060974 533.993713,971.057800 
	C533.993958,1145.706299 533.987671,1320.354858 533.582764,1495.314941 
	C525.163269,1492.607178 516.916626,1490.072754 509.169983,1486.464966 
	C494.333344,1479.554810 481.756775,1469.339111 469.928406,1457.729370 
	C469.221466,1457.307861 468.684631,1457.120117 468.147797,1456.932251 
	C468.098602,1455.935303 468.006256,1454.938477 468.006256,1453.941528 
	C468.006378,1295.281982 468.013245,1136.622314 468.386047,977.337219 
	C477.604187,971.459717 487.214203,968.394470 497.449341,968.091675 
	C509.573212,967.733032 521.716919,968.045593 533.852051,968.067261 
z"/>
<path fill="#FFFFFF" opacity="1.000000" stroke="none" 
	d="
M1666.851807,968.067017 
	C1666.901123,969.063904 1666.993408,970.060669 1666.993408,971.057495 
	C1666.993896,1145.706055 1666.987793,1320.354736 1666.583130,1495.314941 
	C1650.586182,1491.270996 1635.969482,1484.739990 1623.245850,1474.668945 
	C1615.518677,1468.552734 1608.492554,1461.550659 1601.151611,1454.946411 
	C1601.101196,1453.949707 1601.006470,1452.952881 1601.006470,1451.956177 
	C1601.006470,1293.958374 1601.013062,1135.960571 1601.386719,977.336792 
	C1610.506958,971.701294 1619.991455,968.597839 1629.970947,968.142700 
	C1642.240234,967.583069 1654.556152,968.046021 1666.851807,968.067017 
z"/>
<path fill="#F26461" opacity="1.000000" stroke="none" 
	d="
M385.000000,834.000000 
	C347.833984,834.000000 311.167969,834.002747 274.501953,833.997437 
	C268.016174,833.996521 268.004547,833.981201 268.002289,827.373596 
	C267.996124,809.373901 268.103363,791.373230 267.922821,773.375366 
	C267.882019,769.307068 269.035431,767.918762 273.253906,767.922668 
	C380.751892,768.022461 488.250000,768.022400 595.747986,767.922546 
	C599.968933,767.918640 601.117798,769.311462 601.077148,773.377197 
	C600.896973,791.375061 601.003967,809.375732 600.997742,827.375427 
	C600.995483,833.981262 600.983887,833.997131 594.496277,833.997498 
	C524.830872,834.001404 455.165436,834.000000 385.000000,834.000000 
z"/>
<path fill="#F26461" opacity="1.000000" stroke="none" 
	d="
M268.000000,1639.000000 
	C268.000641,1627.666870 268.160339,1616.830200 267.919647,1606.002441 
	C267.829773,1601.959473 269.298798,1600.507568 273.129303,1600.989868 
	C273.785492,1601.072388 274.461151,1601.000000 275.127808,1601.000000 
	C381.459229,1600.999878 487.790649,1600.999512 594.122070,1601.001587 
	C600.986511,1601.001709 600.996094,1601.011353 600.998169,1607.750366 
	C601.003540,1625.583374 600.845764,1643.418579 601.103394,1661.247925 
	C601.171265,1665.949097 599.608582,1667.088623 595.122314,1667.084106 
	C487.957672,1666.975464 380.792847,1666.976929 273.628235,1667.081543 
	C269.327515,1667.085693 267.692413,1666.009521 267.907074,1661.495239 
	C268.255035,1654.178589 268.000275,1646.833252 268.000000,1639.000000 
z"/>
<path fill="#F26461" opacity="1.000000" stroke="none" 
	d="
M1553.000000,768.000000 
	C1611.499023,768.000000 1669.497925,767.998291 1727.496948,768.002502 
	C1733.984009,768.002991 1733.995728,768.018799 1733.997925,774.625183 
	C1734.004028,792.624878 1733.896729,810.625610 1734.077148,828.623474 
	C1734.117798,832.690491 1732.967163,834.081177 1728.747314,834.077271 
	C1621.249268,833.977478 1513.751221,833.977539 1406.253174,834.077332 
	C1402.033813,834.081238 1400.882446,832.691467 1400.922729,828.623962 
	C1401.102539,810.459412 1401.226807,792.287537 1400.862061,774.128479 
	C1400.753174,768.702209 1402.769775,767.896851 1407.502808,767.911072 
	C1455.834961,768.056458 1504.167480,768.000061 1553.000000,768.000000 
z"/>
<path fill="#F26461" opacity="1.000000" stroke="none" 
	d="
M1582.000000,1601.000000 
	C1630.832520,1601.000000 1679.165039,1600.997925 1727.497559,1601.002563 
	C1733.984009,1601.003174 1733.995605,1601.018677 1733.997803,1607.625732 
	C1734.003906,1625.625488 1733.896606,1643.626099 1734.077148,1661.624146 
	C1734.117920,1665.691772 1732.966064,1667.081421 1728.746704,1667.077515 
	C1621.248657,1666.977661 1513.750488,1666.977539 1406.252441,1667.077393 
	C1402.031982,1667.081299 1400.882690,1665.689697 1400.922852,1661.623291 
	C1401.102539,1643.458618 1401.227051,1625.286865 1400.862061,1607.127808 
	C1400.752930,1601.700073 1402.772095,1600.900879 1407.503540,1600.911987 
	C1465.502075,1601.047363 1523.501099,1601.000000 1582.000000,1601.000000 
z"/>
<path fill="#F26461" opacity="1.000000" stroke="none" 
	d="
M977.000000,768.000000 
	C1038.332275,768.000000 1099.164551,767.999084 1159.996826,768.001343 
	C1166.991699,768.001587 1166.997559,768.009949 1166.998901,775.125061 
	C1167.001953,792.958069 1166.895874,810.792114 1167.077148,828.623291 
	C1167.118530,832.690125 1165.967529,834.081238 1161.747437,834.077271 
	C1054.582764,833.977417 947.418030,833.977478 840.253296,834.077332 
	C836.034119,834.081238 834.882568,832.691589 834.922852,828.624084 
	C835.102478,810.459534 835.151611,792.290039 834.897705,774.127258 
	C834.831360,769.383301 836.095337,767.875122 841.002869,767.894592 
	C886.167969,768.073853 931.334167,768.000122 977.000000,768.000000 
z"/>
<path fill="#F26461" opacity="1.000000" stroke="none" 
	d="
M843.085266,1601.000000 
	C949.006775,1601.000000 1054.441895,1600.999634 1159.876953,1601.001221 
	C1166.990112,1601.001343 1166.997070,1601.008301 1166.998657,1607.997314 
	C1167.002441,1625.819702 1166.863403,1643.643799 1167.095337,1661.463135 
	C1167.153076,1665.902344 1165.768433,1667.088867 1161.413208,1667.084473 
	C1054.479126,1666.975952 947.544983,1666.976562 840.610901,1667.082642 
	C836.291809,1667.086914 834.842529,1665.963135 834.902954,1661.487183 
	C835.141357,1643.834717 834.998840,1626.176880 835.000671,1608.521118 
	C835.001465,1601.017822 835.004822,1601.017822 843.085266,1601.000000 
z"/>
<path fill="#F9B1B0" opacity="1.000000" stroke="none" 
	d="
M1666.908691,967.597534 
	C1654.556152,968.046021 1642.240234,967.583069 1629.970947,968.142700 
	C1619.991455,968.597839 1610.506958,971.701294 1601.453491,976.879333 
	C1601.153198,951.954224 1601.153198,926.860657 1601.153198,901.383911 
	C1623.003052,901.383911 1644.675659,901.383911 1666.965332,901.383911 
	C1666.965332,923.340271 1666.965332,945.234131 1666.908691,967.597534 
z"/>
<path fill="#F9B1B0" opacity="1.000000" stroke="none" 
	d="
M533.908691,967.597656 
	C521.716919,968.045593 509.573212,967.733032 497.449341,968.091675 
	C487.214203,968.394470 477.604187,971.459717 468.452820,976.879761 
	C468.153259,951.954224 468.153259,926.860657 468.153259,901.383911 
	C490.003174,901.383911 511.675751,901.383911 533.965332,901.383911 
	C533.965332,923.340332 533.965332,945.234253 533.908691,967.597656 
z"/>
<path fill="#F9B1B0" opacity="1.000000" stroke="none" 
	d="
M1100.908691,967.597534 
	C1088.697876,968.045593 1076.534790,967.725952 1064.392578,968.095093 
	C1054.342041,968.400757 1044.885986,971.568665 1035.500488,976.001648 
	C1035.148193,951.302490 1035.148193,926.538452 1035.148193,901.387573 
	C1056.996826,901.387573 1078.670654,901.387573 1100.965332,901.387573 
	C1100.965332,923.337769 1100.965332,945.232910 1100.908691,967.597534 
z"/>
<path fill="#F9B1B0" opacity="1.000000" stroke="none" 
	d="
M1601.093506,1455.414795 
	C1608.492554,1461.550659 1615.518677,1468.552734 1623.245850,1474.668945 
	C1635.969482,1484.739990 1650.586182,1491.270996 1666.520752,1495.770264 
	C1666.857056,1508.361450 1666.857056,1520.809204 1666.857056,1533.627686 
	C1644.975464,1533.627686 1623.305176,1533.627686 1601.035400,1533.627686 
	C1601.035400,1507.651611 1601.035400,1481.767456 1601.093506,1455.414795 
z"/>
<path fill="#F9B1B0" opacity="1.000000" stroke="none" 
	d="
M470.098511,1457.963013 
	C481.756775,1469.339111 494.333344,1479.554810 509.169983,1486.464966 
	C516.916626,1490.072754 525.163269,1492.607178 533.520569,1495.770264 
	C533.891663,1507.974243 533.926208,1520.034546 533.746155,1532.678955 
	C533.339050,1533.432739 533.169617,1533.622925 533.023132,1533.833496 
	C511.983673,1533.875977 490.944214,1533.918457 469.320740,1533.746216 
	C468.567139,1533.339111 468.377106,1533.169678 468.166595,1533.023193 
	C468.124084,1508.325317 468.081604,1483.627441 468.424622,1458.461914 
	C469.239594,1457.983887 469.669037,1457.973389 470.098511,1457.963013 
z"/>
<path fill="#F9B1B0" opacity="1.000000" stroke="none" 
	d="
M1035.093506,1456.414795 
	C1044.948120,1465.537109 1054.603149,1475.440308 1067.083130,1481.521484 
	C1077.865967,1486.775757 1089.089966,1491.124756 1100.485474,1495.903442 
	C1100.852051,1508.377563 1100.852051,1520.822388 1100.852051,1533.632690 
	C1078.967041,1533.632690 1057.298584,1533.632690 1035.035400,1533.632690 
	C1035.035400,1507.981812 1035.035400,1482.432495 1035.093506,1456.414795 
z"/>
<path fill="#F9B1B0" opacity="1.000000" stroke="none" 
	d="
M162.636292,565.113892 
	C163.464172,565.434021 164.009750,565.939941 164.756805,566.639648 
	C164.090179,566.322144 163.222076,565.810913 162.636292,565.113892 
z"/>
<path fill="#F9B1B0" opacity="1.000000" stroke="none" 
	d="
M469.928406,1457.729370 
	C469.669037,1457.973389 469.239594,1457.983887 468.488373,1457.997070 
	C468.132782,1457.822632 468.098907,1457.645142 468.106415,1457.199951 
	C468.684631,1457.120117 469.221466,1457.307861 469.928406,1457.729370 
z"/>
<path fill="#F9B1B0" opacity="1.000000" stroke="none" 
	d="
M164.664368,563.931885 
	C164.478989,564.194885 163.988770,564.517578 163.203201,564.892761 
	C163.391739,564.627319 163.875626,564.309387 164.664368,563.931885 
z"/>
<path fill="#F9B1B0" opacity="1.000000" stroke="none" 
	d="
M1840.235596,566.835022 
	C1840.000000,566.833557 1840.018188,566.359985 1840.030518,566.123291 
	C1840.279785,566.077698 1840.523315,566.262085 1840.739502,566.474426 
	C1840.754272,566.489014 1840.565308,566.710999 1840.235596,566.835022 
z"/>
<path fill="#F9B1B0" opacity="1.000000" stroke="none" 
	d="
M468.160828,1533.262695 
	C468.377106,1533.169678 468.567139,1533.339111 468.854095,1533.682617 
	C468.971497,1533.833618 468.492645,1533.841919 468.492645,1533.841919 
	C468.492645,1533.841919 468.155029,1533.502197 468.160828,1533.262695 
z"/>
<path fill="#F9B1B0" opacity="1.000000" stroke="none" 
	d="
M533.262634,1533.839355 
	C533.169617,1533.622925 533.339050,1533.432739 533.682495,1533.145508 
	C533.955078,1533.394409 533.844666,1533.666748 533.262634,1533.839355 
z"/>
<path fill="#B32E2B" opacity="1.000000" stroke="none" 
	d="
M1355.000000,549.000000 
	C1097.868286,549.000000 841.236572,548.958252 584.604919,549.103638 
	C569.172668,549.112366 559.173950,541.243530 551.731873,529.156921 
	C544.680969,517.705627 541.726379,505.115479 541.873352,491.469940 
	C542.252014,456.312164 541.382385,421.132263 542.252197,385.991943 
	C542.709351,367.522552 549.988892,350.991455 566.236572,340.657684 
	C575.895630,334.514343 586.803711,330.310822 597.228760,325.402069 
	C608.972412,319.872467 620.830200,314.585632 632.592773,309.095673 
	C660.608948,296.019714 688.592529,282.874115 716.600342,269.780182 
	C735.961243,260.728760 755.345703,251.727814 774.710266,242.684341 
	C805.399780,228.351974 836.072327,213.983185 866.769897,199.668198 
	C885.243896,191.053391 903.765808,182.541199 922.240906,173.928665 
	C943.105042,164.202454 963.946533,154.427521 984.786865,144.650192 
	C997.090149,138.878006 1008.495117,141.944855 1020.060730,147.430161 
	C1047.834229,160.602463 1075.796875,173.376526 1103.695557,186.284576 
	C1124.278564,195.807861 1144.879639,205.292358 1165.475464,214.788132 
	C1196.222900,228.964386 1226.973633,243.133377 1257.721313,257.309265 
	C1278.317505,266.804871 1298.903809,276.321716 1319.506714,285.802582 
	C1349.516357,299.612152 1379.543335,313.384033 1409.548706,327.202576 
	C1418.506348,331.327881 1427.709961,335.033783 1436.283813,339.851837 
	C1451.224609,348.247559 1458.051270,362.546661 1460.759766,378.578857 
	C1462.374146,388.134735 1461.911865,398.082062 1461.953979,407.855255 
	C1462.081543,437.517365 1462.257935,467.183441 1461.899048,496.841736 
	C1461.697998,513.452576 1455.667847,528.112366 1443.602661,539.741089 
	C1437.449707,545.671631 1430.047729,549.196228 1420.985229,549.085999 
	C1399.159790,548.820618 1377.328735,549.000000 1355.000000,549.000000 
M901.051453,255.904327 
	C901.014282,259.258026 900.977112,262.611694 900.598755,266.317993 
	C900.712769,266.890503 900.826782,267.463013 900.970947,268.961517 
	C900.884766,302.330780 915.148254,328.691467 941.361450,348.406097 
	C962.521240,364.320160 986.716431,370.383667 1013.229858,367.128296 
	C1038.427124,364.034485 1059.352417,353.175720 1076.594238,333.702606 
	C1082.246582,324.768402 1088.645020,316.210785 1093.386963,306.816986 
	C1101.759521,290.230743 1102.661255,272.028320 1100.563599,254.071838 
	C1097.789062,230.322983 1087.088257,210.200867 1069.367920,193.760605 
	C1047.401001,173.380402 1021.261902,164.850433 991.954590,167.319351 
	C967.184753,169.406067 945.666870,179.512375 928.292969,198.036942 
	C916.628479,210.474060 908.308594,224.495499 904.040100,241.644272 
	C904.007141,242.084274 903.974182,242.524277 903.543762,243.371948 
	C903.396973,243.911179 903.250183,244.450409 903.040771,245.647095 
	C903.007568,246.086151 902.974426,246.525208 902.543701,247.371933 
	C902.396912,247.911163 902.250122,248.450394 902.051086,249.783554 
	C902.014465,250.843796 901.977844,251.904022 901.543762,253.371948 
	C901.396973,253.911179 901.250183,254.450409 901.051453,255.904327 
M879.500000,501.000000 
	C1053.306030,501.000000 1227.111938,500.990570 1400.917969,501.016724 
	C1415.885376,501.018951 1426.205933,494.124023 1432.181519,480.542297 
	C1441.588013,459.161865 1425.809814,434.011566 1402.934204,434.010223 
	C1134.976685,433.994690 867.019104,433.998779 599.061523,434.026520 
	C596.919739,434.026733 594.724182,434.191101 592.644775,434.672272 
	C576.573120,438.390808 565.130920,454.699188 567.079651,470.971619 
	C569.173218,488.453522 582.929871,500.997131 600.044067,500.997925 
	C692.862732,501.002228 785.681335,501.000000 879.500000,501.000000 
z"/>
<path fill="#EF3D3A" opacity="1.000000" stroke="none" 
	d="
M879.000000,501.000000 
	C785.681335,501.000000 692.862732,501.002228 600.044067,500.997925 
	C582.929871,500.997131 569.173218,488.453522 567.079651,470.971619 
	C565.130920,454.699188 576.573120,438.390808 592.644775,434.672272 
	C594.724182,434.191101 596.919739,434.026733 599.061523,434.026520 
	C867.019104,433.998779 1134.976685,433.994690 1402.934204,434.010223 
	C1425.809814,434.011566 1441.588013,459.161865 1432.181519,480.542297 
	C1426.205933,494.124023 1415.885376,501.018951 1400.917969,501.016724 
	C1227.111938,500.990570 1053.306030,501.000000 879.000000,501.000000 
z"/>
<path fill="#EF3D3A" opacity="1.000000" stroke="none" 
	d="
M902.941284,246.964264 
	C902.974426,246.525208 903.007568,246.086151 903.309265,245.250885 
	C903.698914,244.224548 903.820068,243.594406 903.941284,242.964264 
	C903.974182,242.524277 904.007141,242.084274 904.384583,241.186615 
	C905.596436,238.981461 906.694458,237.309494 907.295410,235.474731 
	C913.195923,217.459778 924.559509,203.146591 939.319824,192.022247 
	C968.237854,170.227707 1000.227600,164.633499 1034.380005,178.080978 
	C1059.818237,188.097275 1078.016479,206.157959 1089.202881,231.143356 
	C1095.726929,245.715256 1097.817017,261.054291 1097.038574,276.927002 
	C1096.341064,291.147705 1092.357910,304.380585 1085.714844,316.862457 
	C1082.623657,322.670410 1079.262695,328.334625 1076.023926,334.063995 
	C1059.352417,353.175720 1038.427124,364.034485 1013.229858,367.128296 
	C986.716431,370.383667 962.521240,364.320160 941.361450,348.406097 
	C915.148254,328.691467 900.884766,302.330780 901.121460,268.317688 
	C901.161316,267.104340 901.050659,266.534882 900.939941,265.965393 
	C900.977112,262.611694 901.014282,259.258026 901.314575,255.379517 
	C901.698853,254.224548 901.820007,253.594406 901.941162,252.964264 
	C901.977844,251.904022 902.014465,250.843796 902.314453,249.319122 
	C902.698914,248.224548 902.820068,247.594406 902.941284,246.964264 
M973.376038,248.154556 
	C972.448853,248.817017 971.231506,249.284958 970.637817,250.170898 
	C960.468140,265.346100 962.607300,280.973511 972.914856,293.352783 
	C985.346130,308.282654 1014.282410,308.708893 1027.345337,290.800964 
	C1030.348022,286.684753 1031.135620,280.952850 1032.991577,275.306030 
	C1033.028931,274.867462 1033.066284,274.428864 1033.579346,273.854736 
	C1033.699951,273.224731 1033.820435,272.594727 1033.970581,271.070282 
	C1034.177246,246.469330 1014.399475,229.567871 992.088623,236.309357 
	C985.503723,238.299103 980.044495,244.014297 973.376038,248.154556 
z"/>
<path fill="#EF3D3A" opacity="1.000000" stroke="none" 
	d="
M1076.309082,333.883301 
	C1079.262695,328.334625 1082.623657,322.670410 1085.714844,316.862457 
	C1092.357910,304.380585 1096.341064,291.147705 1097.038574,276.927002 
	C1097.817017,261.054291 1095.726929,245.715256 1089.202881,231.143356 
	C1078.016479,206.157959 1059.818237,188.097275 1034.380005,178.080978 
	C1000.227600,164.633499 968.237854,170.227707 939.319824,192.022247 
	C924.559509,203.146591 913.195923,217.459778 907.295410,235.474731 
	C906.694458,237.309494 905.596436,238.981461 904.415527,240.857147 
	C908.308594,224.495499 916.628479,210.474060 928.292969,198.036942 
	C945.666870,179.512375 967.184753,169.406067 991.954590,167.319351 
	C1021.261902,164.850433 1047.401001,173.380402 1069.367920,193.760605 
	C1087.088257,210.200867 1097.789062,230.322983 1100.563599,254.071838 
	C1102.661255,272.028320 1101.759521,290.230743 1093.386963,306.816986 
	C1088.645020,316.210785 1082.246582,324.768402 1076.309082,333.883301 
z"/>
<path fill="#EF3D3A" opacity="1.000000" stroke="none" 
	d="
M900.769348,266.141693 
	C901.050659,266.534882 901.161316,267.104340 901.106445,267.854675 
	C900.826782,267.463013 900.712769,266.890503 900.769348,266.141693 
z"/>
<path fill="#EF3D3A" opacity="1.000000" stroke="none" 
	d="
M901.742432,253.168106 
	C901.820007,253.594406 901.698853,254.224548 901.340576,254.922165 
	C901.250183,254.450409 901.396973,253.911179 901.742432,253.168106 
z"/>
<path fill="#EF3D3A" opacity="1.000000" stroke="none" 
	d="
M902.742432,247.168091 
	C902.820068,247.594406 902.698914,248.224548 902.340576,248.922150 
	C902.250122,248.450394 902.396912,247.911163 902.742432,247.168091 
z"/>
<path fill="#EF3D3A" opacity="1.000000" stroke="none" 
	d="
M903.742493,243.168106 
	C903.820068,243.594406 903.698914,244.224548 903.340576,244.922165 
	C903.250183,244.450409 903.396973,243.911179 903.742493,243.168106 
z"/>
<path fill="#B32E2B" opacity="1.000000" stroke="none" 
	d="
M1033.103516,273.990295 
	C1033.066284,274.428864 1033.028931,274.867462 1032.739502,275.897614 
	C1030.718140,280.058136 1029.420044,283.972961 1027.097168,287.135254 
	C1017.755981,299.852661 999.955566,303.659607 985.941284,296.496460 
	C972.867249,289.813904 964.059082,271.925995 969.981812,257.593292 
	C971.306519,254.387344 972.704956,251.211807 974.069458,248.022247 
	C980.044495,244.014297 985.503723,238.299103 992.088623,236.309357 
	C1014.399475,229.567871 1034.177246,246.469330 1033.757324,271.721497 
	C1033.397217,272.911926 1033.250366,273.451111 1033.103516,273.990295 
z"/>
<path fill="#EF3D3A" opacity="1.000000" stroke="none" 
	d="
M973.722778,248.088409 
	C972.704956,251.211807 971.306519,254.387344 969.981812,257.593292 
	C964.059082,271.925995 972.867249,289.813904 985.941284,296.496460 
	C999.955566,303.659607 1017.755981,299.852661 1027.097168,287.135254 
	C1029.420044,283.972961 1030.718140,280.058136 1032.714966,276.226837 
	C1031.135620,280.952850 1030.348022,286.684753 1027.345337,290.800964 
	C1014.282410,308.708893 985.346130,308.282654 972.914856,293.352783 
	C962.607300,280.973511 960.468140,265.346100 970.637817,250.170898 
	C971.231506,249.284958 972.448853,248.817017 973.722778,248.088409 
z"/>
<path fill="#EF3D3A" opacity="1.000000" stroke="none" 
	d="
M1033.341431,273.922485 
	C1033.250366,273.451111 1033.397217,272.911926 1033.742432,272.168732 
	C1033.820435,272.594727 1033.699951,273.224731 1033.341431,273.922485 
z"/>
</svg>