<svg version="1.1" id="Layer_1" xmlns="http://www.w3.org/2000/svg" xmlns:xlink="http://www.w3.org/1999/xlink" x="0px" y="0px"
	 width="100%" viewBox="0 0 1467 2000" enable-background="new 0 0 1467 2000" xml:space="preserve">
<path fill="#B32E2B" opacity="1.000000" stroke="none" 
	d="
M1468.000000,142.000000 
	C1468.000000,142.444443 1468.000000,142.888901 1467.636719,143.814056 
	C1467.515503,146.196533 1467.757690,148.098267 1468.000000,150.000000 
	C1468.000000,717.034912 1468.000000,1284.069824 1467.633301,1851.704834 
	C1468.140625,1855.150146 1464.238770,1858.398315 1468.000000,1861.000000 
	C1468.000000,1861.000000 1468.000000,1861.500000 1467.650024,1861.876709 
	C1466.531982,1864.162476 1465.471069,1866.008301 1465.042603,1867.990723 
	C1461.815186,1882.927490 1457.014893,1897.354126 1449.940430,1910.868896 
	C1438.050049,1933.583618 1421.951294,1952.834351 1401.313232,1968.240356 
	C1383.960083,1981.194092 1364.931274,1990.587646 1343.963135,1995.968506 
	C1336.690552,1997.834717 1329.323730,1999.333374 1322.000000,2001.000000 
	C929.298401,2001.000000 536.596863,2001.000000 143.306580,2000.638794 
	C141.329956,1999.851807 139.969269,1999.263062 138.549820,1999.025391 
	C124.741943,1996.714722 111.389015,1992.783325 98.721504,1986.892456 
	C73.704292,1975.258423 52.222637,1959.016357 35.420124,1936.917725 
	C19.771433,1916.336304 8.806688,1893.622314 3.905905,1868.098755 
	C3.618425,1866.601685 1.999373,1865.360352 0.999991,1864.000000 
	C1.000000,1863.250000 1.000000,1862.500000 1.363334,1861.227539 
	C1.484448,1858.803467 1.242228,1856.901733 1.000004,1855.000000 
	C1.000000,1285.965088 1.000000,716.930176 1.353857,147.313995 
	C1.471810,145.155151 1.235906,143.577576 1.000001,142.000000 
	C1.000000,141.250000 1.000000,140.500000 1.357078,139.264038 
	C2.470885,137.365936 3.474181,136.031036 3.944763,134.529221 
	C7.270777,123.914536 9.989606,113.081223 13.846047,102.667198 
	C21.134277,82.985893 33.158993,66.201324 47.493332,51.047554 
	C58.359623,39.560085 70.867889,29.972305 84.593971,22.294781 
	C98.735619,14.384814 113.592537,7.881387 129.750641,4.924712 
	C135.545776,3.864296 141.252777,2.322237 147.000000,1.000000 
	C538.034912,1.000000 929.069824,1.000000 1320.720947,1.378065 
	C1339.381348,3.703829 1356.593994,8.728800 1372.920898,16.511488 
	C1393.300415,26.226011 1410.927734,39.680340 1426.085815,56.486778 
	C1436.309448,67.822128 1444.630859,80.417374 1451.332031,93.984764 
	C1457.929810,107.342781 1462.860352,121.393730 1465.200195,136.246719 
	C1465.517578,138.261505 1467.037109,140.086899 1468.000000,142.000000 
M1155.500000,68.000000 
	C828.846130,68.000000 502.192291,67.994926 175.538437,68.039726 
	C169.576401,68.040550 163.590958,68.401482 157.656464,68.994789 
	C131.916275,71.568192 110.632439,82.740318 93.365692,102.036125 
	C76.391602,121.004898 68.094360,143.341034 68.089066,168.436508 
	C67.972481,721.414978 67.997185,1274.393433 68.039284,1827.371948 
	C68.039711,1833.000732 68.425797,1838.649902 68.983688,1844.254639 
	C71.546021,1869.996094 82.656776,1891.309814 101.973953,1908.569580 
	C121.083244,1925.643555 143.568878,1933.913696 168.852203,1933.921387 
	C546.004150,1934.035278 923.156128,1934.004517 1300.308105,1933.952515 
	C1305.434326,1933.951782 1310.627441,1933.635986 1315.675903,1932.790283 
	C1344.917114,1927.890137 1367.763428,1912.896240 1384.307251,1888.381592 
	C1396.953857,1869.641724 1400.965332,1848.428955 1400.967041,1826.311157 
	C1401.009155,1287.665405 1401.008057,749.019714 1400.958496,210.374023 
	C1400.957031,195.078644 1400.149292,179.784485 1400.057373,164.487717 
	C1399.932983,143.763535 1393.106689,125.332512 1380.891724,108.958054 
	C1361.154419,82.499565 1334.402344,68.546143 1301.492554,68.149925 
	C1253.168213,67.568115 1204.831421,68.000000 1155.500000,68.000000 
z"/>
<path fill="#FFFFFF" opacity="1.000000" stroke="none" 
	d="
M1468.000000,141.531342 
	C1467.037109,140.086899 1465.517578,138.261505 1465.200195,136.246719 
	C1462.860352,121.393730 1457.929810,107.342781 1451.332031,93.984764 
	C1444.630859,80.417374 1436.309448,67.822128 1426.085815,56.486778 
	C1410.927734,39.680340 1393.300415,26.226011 1372.920898,16.511488 
	C1356.593994,8.728800 1339.381348,3.703829 1321.168457,1.378065 
	C1369.925537,1.000000 1418.850952,1.000000 1468.000000,1.000000 
	C1468.000000,47.687325 1468.000000,94.375000 1468.000000,141.531342 
z"/>
<path fill="#FFFFFF" opacity="1.000000" stroke="none" 
	d="
M1322.468628,2001.000000 
	C1329.323730,1999.333374 1336.690552,1997.834717 1343.963135,1995.968506 
	C1364.931274,1990.587646 1383.960083,1981.194092 1401.313232,1968.240356 
	C1421.951294,1952.834351 1438.050049,1933.583618 1449.940430,1910.868896 
	C1457.014893,1897.354126 1461.815186,1882.927490 1465.042603,1867.990723 
	C1465.471069,1866.008301 1466.531982,1864.162476 1467.650024,1862.126709 
	C1468.000000,1908.262085 1468.000000,1954.524292 1468.000000,2001.000000 
	C1419.645996,2001.000000 1371.291626,2001.000000 1322.468628,2001.000000 
z"/>
<path fill="#FFFFFF" opacity="1.000000" stroke="none" 
	d="
M146.531342,1.000000 
	C141.252777,2.322237 135.545776,3.864296 129.750641,4.924712 
	C113.592537,7.881387 98.735619,14.384814 84.593971,22.294781 
	C70.867889,29.972305 58.359623,39.560085 47.493332,51.047554 
	C33.158993,66.201324 21.134277,82.985893 13.846047,102.667198 
	C9.989606,113.081223 7.270777,123.914536 3.944763,134.529221 
	C3.474181,136.031036 2.470885,137.365936 1.357078,138.889038 
	C1.000000,93.070938 1.000000,47.141876 1.000000,1.000000 
	C49.354019,1.000000 97.708351,1.000000 146.531342,1.000000 
z"/>
<path fill="#FFFFFF" opacity="1.000000" stroke="none" 
	d="
M0.999991,1864.468628 
	C1.999373,1865.360352 3.618425,1866.601685 3.905905,1868.098755 
	C8.806688,1893.622314 19.771433,1916.336304 35.420124,1936.917725 
	C52.222637,1959.016357 73.704292,1975.258423 98.721504,1986.892456 
	C111.389015,1992.783325 124.741943,1996.714722 138.549820,1999.025391 
	C139.969269,1999.263062 141.329956,1999.851807 142.858948,2000.638794 
	C95.740982,2001.000000 48.481964,2001.000000 1.000000,2001.000000 
	C1.000000,1955.645996 1.000000,1910.291626 0.999991,1864.468628 
z"/>
<path fill="#FFFFFF" opacity="1.000000" stroke="none" 
	d="
M1468.000000,1860.550049 
	C1464.238770,1858.398315 1468.140625,1855.150146 1467.633301,1852.152466 
	C1468.000000,1854.700073 1468.000000,1857.400024 1468.000000,1860.550049 
z"/>
<path fill="#FFFFFF" opacity="1.000000" stroke="none" 
	d="
M1468.000000,149.571533 
	C1467.757690,148.098267 1467.515503,146.196533 1467.636719,144.147400 
	C1468.000000,145.714355 1468.000000,147.428711 1468.000000,149.571533 
z"/>
<path fill="#FFFFFF" opacity="1.000000" stroke="none" 
	d="
M1.000004,1855.428467 
	C1.242228,1856.901733 1.484448,1858.803467 1.363334,1860.852539 
	C1.000000,1859.285645 1.000000,1857.571289 1.000004,1855.428467 
z"/>
<path fill="#FFFFFF" opacity="1.000000" stroke="none" 
	d="
M1.000001,142.416656 
	C1.235906,143.577576 1.471810,145.155151 1.353857,146.866364 
	C1.000000,145.611115 1.000000,144.222214 1.000001,142.416656 
z"/>
<path fill="#F26461" opacity="1.000000" stroke="none" 
	d="
M1156.000000,68.000000 
	C1204.831421,68.000000 1253.168213,67.568115 1301.492554,68.149925 
	C1334.402344,68.546143 1361.154419,82.499565 1380.891724,108.958054 
	C1393.106689,125.332512 1399.932983,143.763535 1400.057373,164.487717 
	C1400.149292,179.784485 1400.957031,195.078644 1400.958496,210.374023 
	C1401.008057,749.019714 1401.009155,1287.665405 1400.967041,1826.311157 
	C1400.965332,1848.428955 1396.953857,1869.641724 1384.307251,1888.381592 
	C1367.763428,1912.896240 1344.917114,1927.890137 1315.675903,1932.790283 
	C1310.627441,1933.635986 1305.434326,1933.951782 1300.308105,1933.952515 
	C923.156128,1934.004517 546.004150,1934.035278 168.852203,1933.921387 
	C143.568878,1933.913696 121.083244,1925.643555 101.973953,1908.569580 
	C82.656776,1891.309814 71.546021,1869.996094 68.983688,1844.254639 
	C68.425797,1838.649902 68.039711,1833.000732 68.039284,1827.371948 
	C67.997185,1274.393433 67.972481,721.414978 68.089066,168.436508 
	C68.094360,143.341034 76.391602,121.004898 93.365692,102.036125 
	C110.632439,82.740318 131.916275,71.568192 157.656464,68.994789 
	C163.590958,68.401482 169.576401,68.040550 175.538437,68.039726 
	C502.192291,67.994926 828.846130,68.000000 1156.000000,68.000000 
M1070.500000,1601.000000 
	C1127.660156,1601.000000 1184.820435,1601.001831 1241.980591,1600.992188 
	C1243.977417,1600.991821 1246.008545,1601.092041 1247.965820,1600.781128 
	C1271.351685,1597.067383 1291.476685,1587.121826 1307.822021,1569.724243 
	C1325.204590,1551.222900 1334.817749,1529.135498 1334.831665,1504.032227 
	C1335.066772,1080.068359 1335.004761,656.104370 1334.942261,232.140366 
	C1334.941528,227.192001 1334.490601,222.160339 1333.531494,217.309570 
	C1328.702759,192.885132 1317.476196,172.189514 1297.866821,156.286819 
	C1280.328125,142.063461 1260.369507,134.103027 1237.886353,134.093933 
	C901.914856,133.958084 565.943359,133.995316 229.971924,134.048599 
	C225.346893,134.049332 220.627808,134.320984 216.112625,135.246597 
	C190.728638,140.450363 169.656067,152.912369 153.957062,173.696320 
	C141.624725,190.023148 134.134018,208.570084 134.125977,229.069611 
	C133.958862,654.700073 133.995514,1080.330688 134.059113,1505.961182 
	C134.059814,1510.573730 134.578323,1515.261353 135.489700,1519.786011 
	C140.240448,1543.371826 151.505234,1563.281860 170.193878,1578.577515 
	C187.544189,1592.777222 207.376099,1600.975586 230.071259,1600.978271 
	C509.880829,1601.011475 789.690430,1601.000000 1070.500000,1601.000000 
M671.509827,1688.991211 
	C666.477173,1694.019531 661.028503,1698.699829 656.483765,1704.136108 
	C636.439026,1728.112793 630.283447,1756.100830 635.485413,1786.281006 
	C639.818726,1811.421387 652.778259,1832.132324 673.243713,1847.652344 
	C696.750793,1865.479004 723.435425,1871.498413 752.278870,1866.601685 
	C776.550598,1862.481201 796.885620,1850.752686 812.216980,1831.247192 
	C834.284485,1803.171265 840.459961,1771.795654 830.220337,1737.536621 
	C824.833252,1719.512817 814.908325,1704.280029 800.500977,1691.917603 
	C776.432800,1671.265137 748.615662,1663.826782 717.610901,1668.426270 
	C700.746033,1670.928223 685.628113,1678.188354 671.509827,1688.991211 
M379.698303,1741.143921 
	C366.919128,1752.125610 363.461700,1768.620117 370.819794,1783.500366 
	C377.293915,1796.592896 393.586426,1804.346191 408.942535,1800.706421 
	C427.134369,1796.394409 438.814392,1778.144531 433.878082,1759.368286 
	C426.577118,1731.597534 395.309204,1728.079224 379.698303,1741.143921 
M1091.497314,1792.002319 
	C1104.192383,1780.433105 1105.131958,1756.445923 1091.732422,1743.463013 
	C1078.469238,1730.612183 1057.794556,1730.507202 1045.181519,1742.381592 
	C1030.770630,1755.948853 1029.844971,1777.720459 1043.104858,1791.472168 
	C1055.471191,1804.297119 1078.642456,1804.619263 1091.497314,1792.002319 
z"/>
<path fill="#B32E2B" opacity="1.000000" stroke="none" 
	d="
M1070.000000,1601.000000 
	C789.690430,1601.000000 509.880829,1601.011475 230.071259,1600.978271 
	C207.376099,1600.975586 187.544189,1592.777222 170.193878,1578.577515 
	C151.505234,1563.281860 140.240448,1543.371826 135.489700,1519.786011 
	C134.578323,1515.261353 134.059814,1510.573730 134.059113,1505.961182 
	C133.995514,1080.330688 133.958862,654.700073 134.125977,229.069611 
	C134.134018,208.570084 141.624725,190.023148 153.957062,173.696320 
	C169.656067,152.912369 190.728638,140.450363 216.112625,135.246597 
	C220.627808,134.320984 225.346893,134.049332 229.971924,134.048599 
	C565.943359,133.995316 901.914856,133.958084 1237.886353,134.093933 
	C1260.369507,134.103027 1280.328125,142.063461 1297.866821,156.286819 
	C1317.476196,172.189514 1328.702759,192.885132 1333.531494,217.309570 
	C1334.490601,222.160339 1334.941528,227.192001 1334.942261,232.140366 
	C1335.004761,656.104370 1335.066772,1080.068359 1334.831665,1504.032227 
	C1334.817749,1529.135498 1325.204590,1551.222900 1307.822021,1569.724243 
	C1291.476685,1587.121826 1271.351685,1597.067383 1247.965820,1600.781128 
	C1246.008545,1601.092041 1243.977417,1600.991821 1241.980591,1600.992188 
	C1184.820435,1601.001831 1127.660156,1601.000000 1070.000000,1601.000000 
M201.019119,368.988800 
	C201.012741,744.781189 201.001450,1120.573608 201.062454,1496.365967 
	C201.063141,1500.584839 201.437531,1504.968506 202.607941,1508.992920 
	C207.074921,1524.352539 219.979279,1534.013550 236.036331,1534.012573 
	C522.505188,1533.995117 808.973999,1534.000366 1095.442871,1533.993896 
	C1097.272949,1533.993896 1099.103027,1533.901245 1101.872314,1533.965332 
	C1145.534912,1533.976929 1189.197510,1533.957275 1232.860107,1534.015015 
	C1250.868530,1534.038818 1267.112061,1519.704102 1267.105591,1500.072021 
	C1266.966553,1078.442139 1267.000000,656.812256 1266.999878,235.182373 
	C1266.999878,234.015808 1267.069458,232.844315 1266.987793,231.683472 
	C1266.393555,223.227371 1262.502808,216.203903 1256.677490,210.431290 
	C1249.644897,203.462479 1240.394653,201.263779 1230.914185,201.104843 
	C1211.088257,200.772446 1191.252563,200.982941 1171.421387,201.059738 
	C1170.312988,201.064026 1168.327515,201.749649 1168.243164,202.333725 
	C1167.681519,206.223724 1165.271240,204.606522 1163.056274,204.576935 
	C1151.393066,204.421005 1139.680664,203.830872 1128.076904,204.664337 
	C1119.183350,205.303131 1110.425415,207.830750 1101.236694,209.589203 
	C1101.090454,207.021988 1100.934448,204.286530 1100.765381,201.319397 
	C1056.439331,201.319397 1012.380005,201.319397 968.365845,201.319397 
	C968.051392,203.368820 967.786072,205.097778 967.629761,206.116455 
	C956.045288,204.714600 944.804260,202.123474 933.619812,202.348343 
	C922.520691,202.571487 911.478638,205.629608 900.209778,207.477493 
	C900.068604,205.491364 899.929932,203.539688 899.749390,201.000000 
	C897.482178,201.000000 895.364319,201.000000 893.246460,201.000000 
	C828.085510,201.000000 762.924500,201.000000 697.763550,201.000000 
	C545.610168,201.000000 393.456696,200.959488 241.303528,201.136856 
	C234.689728,201.144577 227.642014,202.048019 221.552063,204.450043 
	C206.637726,210.332642 201.214798,223.170883 201.119370,238.087143 
	C200.842209,281.412231 201.099930,324.740723 201.019119,368.988800 
z"/>
<path fill="#B32E2B" opacity="1.000000" stroke="none" 
	d="
M671.765625,1688.742065 
	C685.628113,1678.188354 700.746033,1670.928223 717.610901,1668.426270 
	C748.615662,1663.826782 776.432800,1671.265137 800.500977,1691.917603 
	C814.908325,1704.280029 824.833252,1719.512817 830.220337,1737.536621 
	C840.459961,1771.795654 834.284485,1803.171265 812.216980,1831.247192 
	C796.885620,1850.752686 776.550598,1862.481201 752.278870,1866.601685 
	C723.435425,1871.498413 696.750793,1865.479004 673.243713,1847.652344 
	C652.778259,1832.132324 639.818726,1811.421387 635.485413,1786.281006 
	C630.283447,1756.100830 636.439026,1728.112793 656.483765,1704.136108 
	C661.028503,1698.699829 666.477173,1694.019531 671.765625,1688.742065 
M706.962891,1785.445435 
	C716.669922,1800.587280 735.210083,1803.604004 748.731079,1796.995239 
	C764.027344,1789.518921 770.872192,1772.445435 764.919067,1756.501465 
	C757.070923,1735.482056 729.637085,1725.798218 710.267273,1745.505127 
	C700.141541,1755.807251 698.920654,1772.674194 706.962891,1785.445435 
z"/>
<path fill="#B32E2B" opacity="1.000000" stroke="none" 
	d="
M380.023865,1740.987061 
	C395.309204,1728.079224 426.577118,1731.597534 433.878082,1759.368286 
	C438.814392,1778.144531 427.134369,1796.394409 408.942535,1800.706421 
	C393.586426,1804.346191 377.293915,1796.592896 370.819794,1783.500366 
	C363.461700,1768.620117 366.919128,1752.125610 380.023865,1740.987061 
z"/>
<path fill="#B32E2B" opacity="1.000000" stroke="none" 
	d="
M1091.242432,1792.257324 
	C1078.642456,1804.619263 1055.471191,1804.297119 1043.104858,1791.472168 
	C1029.844971,1777.720459 1030.770630,1755.948853 1045.181519,1742.381592 
	C1057.794556,1730.507202 1078.469238,1730.612183 1091.732422,1743.463013 
	C1105.131958,1756.445923 1104.192383,1780.433105 1091.242432,1792.257324 
z"/>
<path fill="#FFFFFF" opacity="1.000000" stroke="none" 
	d="
M1100.933105,1533.851929 
	C1099.103027,1533.901245 1097.272949,1533.993896 1095.442871,1533.993896 
	C808.973999,1534.000366 522.505188,1533.995117 236.036331,1534.012573 
	C219.979279,1534.013550 207.074921,1524.352539 202.607941,1508.992920 
	C201.437531,1504.968506 201.063141,1500.584839 201.062454,1496.365967 
	C201.001450,1120.573608 201.012741,744.781189 201.542114,368.508118 
	C322.514008,368.018311 442.963165,367.867188 563.411621,368.086029 
	C599.818726,368.152191 636.285339,366.292114 672.623291,370.036377 
	C687.261169,371.544678 701.961548,372.896820 716.435974,375.442932 
	C744.219299,380.330139 771.510559,387.385864 797.739258,397.917694 
	C812.321106,403.772858 826.548462,410.511078 840.474609,416.916016 
	C649.197083,416.987152 458.380524,416.997559 267.563995,416.987122 
	C258.828827,416.986664 251.215881,420.154114 244.861374,425.770935 
	C234.105103,435.278473 230.756119,450.619812 236.213699,464.395782 
	C241.026474,476.544067 254.280853,485.007812 268.003693,485.007202 
	C490.817474,484.997040 713.631226,484.999603 936.445007,485.006195 
	C938.608398,485.006256 940.771851,485.099091 943.121277,485.423981 
	C958.850037,501.750000 974.392761,517.800659 989.474487,533.916016 
	C987.014099,533.987183 985.014771,533.999146 983.015381,533.999146 
	C744.072998,534.000000 505.130585,533.998413 266.188202,534.025696 
	C264.076447,534.025940 261.912598,534.186096 259.861298,534.656433 
	C244.392822,538.202942 233.209259,552.621155 233.837677,569.711731 
	C234.412399,585.341553 249.013275,601.098389 265.131592,601.090271 
	C520.569946,600.961853 776.008362,600.999634 1031.446777,601.006165 
	C1033.609863,601.006226 1035.772949,601.099121 1038.106689,601.445984 
	C1042.163574,608.795593 1046.321167,615.715088 1049.861572,622.937012 
	C1053.531128,630.422424 1056.603027,638.200928 1059.475220,645.915955 
	C799.682800,645.987122 540.351501,645.989563 281.020172,646.041016 
	C277.434418,646.041748 273.845673,646.630066 270.263672,646.996460 
	C255.610992,648.494995 242.813522,662.421875 242.092392,677.547607 
	C241.147537,697.366272 254.300308,713.927795 276.223022,713.936096 
	C538.220886,714.035156 800.218750,714.007141 1062.216675,713.964294 
	C1069.791504,713.963074 1077.366333,713.433411 1084.962769,713.551025 
	C1085.515015,716.365417 1086.091187,718.769958 1086.568604,721.194031 
	C1089.052246,733.806824 1091.510620,746.424500 1093.597412,759.016357 
	C1087.558105,756.297546 1081.752808,754.904541 1075.327271,754.907166 
	C808.345337,755.015503 541.363342,754.999817 274.381409,755.003845 
	C272.551025,755.003845 270.636627,754.718262 268.903076,755.143494 
	C249.076202,760.005981 238.584961,778.443970 243.051407,796.799805 
	C246.703949,811.810730 260.651672,822.120972 275.503754,822.112305 
	C541.819031,821.957764 808.134399,821.969971 1074.449585,822.117615 
	C1084.356445,822.123108 1092.634155,819.262329 1099.985352,813.430420 
	C1100.326660,822.323975 1100.863770,830.744263 1100.952026,839.169312 
	C1101.109985,854.266479 1101.029785,869.366577 1100.950684,884.464966 
	C1100.942627,886.014709 1100.266357,887.560852 1099.593018,888.956665 
	C1093.645996,883.486389 1087.054443,880.043762 1079.227661,880.042236 
	C810.441467,879.991394 541.655334,879.999817 272.869141,880.003845 
	C271.539032,880.003845 270.148651,879.819275 268.887787,880.130920 
	C249.056213,885.033630 238.586197,903.468506 243.052216,921.805542 
	C246.707535,936.813965 260.651398,947.120972 275.504730,947.112305 
	C541.291382,946.957703 807.078064,946.960449 1072.864624,947.140198 
	C1083.826904,947.147644 1093.086304,944.446533 1100.985474,937.430420 
	C1100.957031,954.231934 1100.922119,970.562256 1100.427734,986.932739 
	C1006.752014,986.972778 913.535950,986.972778 820.310486,986.972778 
	C820.310486,1112.708374 820.310486,1237.591064 820.310486,1363.000000 
	C822.737122,1363.000000 824.860107,1363.000000 826.983093,1363.000000 
	C889.961853,1363.000000 952.940613,1362.989258 1015.919373,1363.004761 
	C1044.241943,1363.011841 1072.564453,1363.071289 1100.921387,1363.567627 
	C1100.948120,1420.636230 1100.940674,1477.244141 1100.933105,1533.851929 
M659.500000,1411.000000 
	C539.704163,1411.000000 419.908112,1410.901123 300.112732,1411.134155 
	C286.283447,1411.161011 273.267731,1415.068481 262.172485,1424.227661 
	C245.889267,1437.669434 248.636948,1455.693726 263.941498,1466.947021 
	C275.943573,1475.772095 290.088165,1478.860352 304.455353,1478.852295 
	C517.317078,1478.733032 730.178772,1478.390259 943.039917,1477.872070 
	C957.277344,1477.837402 969.997925,1472.645630 980.372437,1462.227905 
	C990.904053,1451.652222 990.305542,1436.754883 980.334961,1426.878906 
	C969.176147,1415.826050 955.032959,1411.197998 939.912537,1411.149658 
	C846.775818,1410.851196 753.637695,1411.000000 659.500000,1411.000000 
M549.500000,1331.000000 
	C594.333130,1331.000000 639.166992,1331.133057 683.998962,1330.905884 
	C695.127075,1330.849487 704.898560,1326.935669 711.942261,1317.603638 
	C720.451660,1306.329590 721.515991,1293.900146 715.624023,1281.704224 
	C709.759705,1269.565430 699.176697,1263.020142 685.300537,1263.017212 
	C552.300964,1262.988403 419.301422,1262.992920 286.301910,1263.042480 
	C283.055115,1263.043701 279.689331,1263.238647 276.581665,1264.086182 
	C258.972595,1268.888550 250.217422,1282.446899 251.269379,1298.885864 
	C252.544495,1318.812378 267.473114,1330.908325 286.500977,1330.938721 
	C373.833801,1331.078247 461.166962,1331.000000 549.500000,1331.000000 
M652.500000,1209.000000 
	C664.994873,1209.000000 677.502747,1209.357544 689.981262,1208.905029 
	C704.014221,1208.395874 715.249695,1201.772949 720.407898,1188.779907 
	C729.786255,1165.156738 715.286682,1141.182373 688.959412,1141.127441 
	C556.181396,1140.849854 423.402496,1140.994507 290.623932,1141.039917 
	C288.039276,1141.040771 285.447510,1141.588989 282.871368,1141.965698 
	C262.508209,1144.942993 251.958984,1165.713623 256.376343,1183.688843 
	C260.044312,1198.614746 274.229584,1208.999146 289.649261,1208.999268 
	C410.266174,1209.000732 530.883057,1209.000000 652.500000,1209.000000 
M696.901978,1012.397400 
	C691.537781,1011.264893 686.174927,1009.151001 680.809143,1009.143616 
	C547.167542,1008.960632 413.525604,1008.987976 279.883759,1009.068604 
	C276.525909,1009.070679 273.110657,1009.861694 269.820892,1010.681091 
	C254.018311,1014.616882 244.920425,1035.353394 247.551849,1048.976440 
	C250.300598,1063.206909 266.004120,1076.343384 281.039490,1076.287842 
	C415.012787,1075.793335 548.988647,1075.978516 682.963806,1076.038696 
	C694.369141,1076.043823 702.745422,1070.670532 708.957581,1061.813110 
	C720.482788,1045.380371 714.755920,1022.365662 696.901978,1012.397400 
z"/>
<path fill="#F9B1B0" opacity="1.000000" stroke="none" 
	d="
M840.935547,416.851318 
	C826.548462,410.511078 812.321106,403.772858 797.739258,397.917694 
	C771.510559,387.385864 744.219299,380.330139 716.435974,375.442932 
	C701.961548,372.896820 687.261169,371.544678 672.623291,370.036377 
	C636.285339,366.292114 599.818726,368.152191 563.411621,368.086029 
	C442.963165,367.867188 322.514008,368.018311 201.606476,368.047668 
	C201.099930,324.740723 200.842209,281.412231 201.119370,238.087143 
	C201.214798,223.170883 206.637726,210.332642 221.552063,204.450043 
	C227.642014,202.048019 234.689728,201.144577 241.303528,201.136856 
	C393.456696,200.959488 545.610168,201.000000 697.763550,201.000000 
	C762.924500,201.000000 828.085510,201.000000 893.246460,201.000000 
	C895.364319,201.000000 897.482178,201.000000 899.749390,201.000000 
	C899.929932,203.539688 900.068604,205.491364 900.209778,207.477493 
	C911.478638,205.629608 922.520691,202.571487 933.619812,202.348343 
	C944.804260,202.123474 956.045288,204.714600 967.629761,206.116455 
	C967.786072,205.097778 968.051392,203.368820 968.365845,201.319397 
	C1012.380005,201.319397 1056.439331,201.319397 1100.765381,201.319397 
	C1100.934448,204.286530 1101.090454,207.021988 1101.236694,209.589203 
	C1110.425415,207.830750 1119.183350,205.303131 1128.076904,204.664337 
	C1139.680664,203.830872 1151.393066,204.421005 1163.056274,204.576935 
	C1165.271240,204.606522 1167.681519,206.223724 1168.243164,202.333725 
	C1168.327515,201.749649 1170.312988,201.064026 1171.421387,201.059738 
	C1191.252563,200.982941 1211.088257,200.772446 1230.914185,201.104843 
	C1240.394653,201.263779 1249.644897,203.462479 1256.677490,210.431290 
	C1262.502808,216.203903 1266.393555,223.227371 1266.987793,231.683472 
	C1267.069458,232.844315 1266.999878,234.015808 1266.999878,235.182373 
	C1267.000000,656.812256 1266.966553,1078.442139 1267.105591,1500.072021 
	C1267.112061,1519.704102 1250.868530,1534.038818 1232.860107,1534.015015 
	C1189.197510,1533.957275 1145.534912,1533.976929 1101.402710,1533.908691 
	C1100.940674,1477.244141 1100.948120,1420.636230 1101.396973,1363.539307 
	C1136.662842,1363.033325 1171.487183,1363.019043 1206.311646,1362.997803 
	C1212.976685,1362.993774 1212.996826,1362.981201 1212.997070,1356.477661 
	C1213.001099,1235.508057 1213.000977,1114.538452 1212.997192,993.568909 
	C1212.996948,987.020325 1212.977905,987.009338 1206.358398,987.001831 
	C1171.201294,986.962097 1136.044312,986.928406 1100.887207,986.892639 
	C1100.922119,970.562256 1100.957031,954.231934 1101.114014,937.113403 
	C1112.339111,923.549438 1113.924194,904.204712 1099.900146,889.108704 
	C1100.266357,887.560852 1100.942627,886.014709 1100.950684,884.464966 
	C1101.029785,869.366577 1101.109985,854.266479 1100.952026,839.169312 
	C1100.863770,830.744263 1100.326660,822.323975 1100.111816,813.115845 
	C1108.473877,803.250610 1111.747559,792.840393 1109.008667,780.669067 
	C1106.917236,771.374573 1101.158813,764.740417 1093.977783,759.040527 
	C1091.510620,746.424500 1089.052246,733.806824 1086.568604,721.194031 
	C1086.091187,718.769958 1085.515015,716.365417 1085.299927,713.397095 
	C1098.809937,708.242188 1106.810913,699.497498 1109.445679,685.373901 
	C1112.325195,669.937500 1102.353638,654.439758 1089.327637,648.938660 
	C1079.789795,644.910767 1069.776367,646.436951 1059.936279,645.851196 
	C1056.603027,638.200928 1053.531128,630.422424 1049.861572,622.937012 
	C1046.321167,615.715088 1042.163574,608.795593 1038.575928,601.389038 
	C1049.683228,601.023193 1060.497192,601.198486 1071.297485,600.892883 
	C1074.803223,600.793640 1078.568359,600.051453 1081.708496,598.546814 
	C1094.591919,592.373169 1100.589600,582.227295 1101.251465,567.585632 
	C1102.101196,548.787415 1084.645386,533.368896 1067.247803,533.816040 
	C1041.493774,534.477966 1015.707825,533.900940 989.935425,533.851318 
	C974.392761,517.800659 958.850037,501.750000 943.590637,485.367065 
	C984.535950,485.023224 1025.197876,485.035645 1065.859741,484.954651 
	C1069.126953,484.948120 1072.497314,484.701324 1075.642212,483.883331 
	C1096.658569,478.416901 1105.165649,459.712036 1099.826782,440.512360 
	C1095.794922,426.013367 1082.386963,417.004425 1067.402588,417.002838 
	C1003.243225,416.996124 939.083801,417.007141 874.924438,416.993317 
	C863.594788,416.990875 852.265198,416.900909 840.935547,416.851318 
M262.089874,300.427582 
	C260.042969,301.483917 257.758759,302.240875 255.987625,303.645050 
	C244.363205,312.860840 239.058258,327.442413 243.795975,341.940582 
	C248.175537,355.342743 261.720123,365.118286 275.886414,365.107086 
	C475.506897,364.949524 675.127502,364.986664 874.748108,365.048615 
	C882.760620,365.051086 889.782593,363.155243 896.417053,358.393066 
	C907.637024,350.339417 913.019775,332.835693 908.090454,320.061523 
	C901.976074,304.216309 889.008911,297.077637 873.501648,297.069458 
	C675.214111,296.964691 476.926514,296.976562 278.639069,297.128479 
	C273.353455,297.132538 268.069275,299.041840 262.089874,300.427582 
M928.670654,304.029083 
	C942.399048,308.082214 944.599121,319.301575 944.838074,331.803345 
	C946.982056,330.427704 948.834961,329.852051 949.580322,328.611145 
	C950.597534,326.917511 951.808533,324.217773 951.134155,322.817017 
	C947.371033,314.999939 943.142761,307.400055 938.858826,299.847687 
	C938.211914,298.707306 935.847595,297.230621 935.287415,297.571014 
	C932.340515,299.361755 929.717834,301.686096 926.982605,303.825165 
	C927.307373,303.881042 927.632141,303.936920 928.670654,304.029083 
M971.038086,369.563141 
	C969.498352,368.475311 967.245605,366.111328 966.535400,366.508148 
	C962.143372,368.961975 958.098389,372.037048 953.938110,374.905731 
	C959.830872,374.365875 965.293030,373.143890 970.754700,371.919678 
	C970.913635,371.884064 971.182129,371.855072 971.204529,371.770996 
	C971.347351,371.235016 971.435364,370.684387 971.038086,369.563141 
M1117.419434,385.998627 
	C1113.046875,385.839752 1108.374512,382.990753 1104.398926,387.391235 
	C1117.436890,392.517700 1119.785522,392.390045 1121.691895,386.288330 
	C1120.521484,386.189636 1119.399902,386.095062 1117.419434,385.998627 
M1117.610107,289.894043 
	C1120.227539,292.094360 1122.844971,294.294678 1125.543823,296.563507 
	C1126.125122,288.606476 1118.623901,283.847900 1109.620728,284.402496 
	C1112.230347,286.190887 1114.625977,287.832703 1117.610107,289.894043 
z"/>
<path fill="#EF3D3A" opacity="1.000000" stroke="none" 
	d="
M706.747070,1785.151001 
	C698.920654,1772.674194 700.141541,1755.807251 710.267273,1745.505127 
	C729.637085,1725.798218 757.070923,1735.482056 764.919067,1756.501465 
	C770.872192,1772.445435 764.027344,1789.518921 748.731079,1796.995239 
	C735.210083,1803.604004 716.669922,1800.587280 706.747070,1785.151001 
z"/>
<path fill="#B32E2B" opacity="1.000000" stroke="none" 
	d="
M1059.475220,645.915955 
	C1069.776367,646.436951 1079.789795,644.910767 1089.327637,648.938660 
	C1102.353638,654.439758 1112.325195,669.937500 1109.445679,685.373901 
	C1106.810913,699.497498 1098.809937,708.242188 1085.278320,712.996216 
	C1077.366333,713.433411 1069.791504,713.963074 1062.216675,713.964294 
	C800.218750,714.007141 538.220886,714.035156 276.223022,713.936096 
	C254.300308,713.927795 241.147537,697.366272 242.092392,677.547607 
	C242.813522,662.421875 255.610992,648.494995 270.263672,646.996460 
	C273.845673,646.630066 277.434418,646.041748 281.020172,646.041016 
	C540.351501,645.989563 799.682800,645.987122 1059.475220,645.915955 
z"/>
<path fill="#B32E2B" opacity="1.000000" stroke="none" 
	d="
M840.474609,416.916046 
	C852.265198,416.900909 863.594788,416.990875 874.924438,416.993317 
	C939.083801,417.007141 1003.243225,416.996124 1067.402588,417.002838 
	C1082.386963,417.004425 1095.794922,426.013367 1099.826782,440.512360 
	C1105.165649,459.712036 1096.658569,478.416901 1075.642212,483.883331 
	C1072.497314,484.701324 1069.126953,484.948120 1065.859741,484.954651 
	C1025.197876,485.035645 984.535950,485.023224 943.404602,485.091736 
	C940.771851,485.099091 938.608398,485.006256 936.445007,485.006195 
	C713.631226,484.999603 490.817474,484.997040 268.003693,485.007202 
	C254.280853,485.007812 241.026474,476.544067 236.213699,464.395782 
	C230.756119,450.619812 234.105103,435.278473 244.861374,425.770935 
	C251.215881,420.154114 258.828827,416.986664 267.563995,416.987122 
	C458.380524,416.997559 649.197083,416.987152 840.474609,416.916046 
z"/>
<path fill="#B32E2B" opacity="1.000000" stroke="none" 
	d="
M1099.593018,888.956665 
	C1113.924194,904.204712 1112.339111,923.549438 1101.107666,936.642273 
	C1093.086304,944.446533 1083.826904,947.147644 1072.864624,947.140198 
	C807.078064,946.960449 541.291382,946.957703 275.504730,947.112305 
	C260.651398,947.120972 246.707535,936.813965 243.052216,921.805542 
	C238.586197,903.468506 249.056213,885.033630 268.887787,880.130920 
	C270.148651,879.819275 271.539032,880.003845 272.869141,880.003845 
	C541.655334,879.999817 810.441467,879.991394 1079.227661,880.042236 
	C1087.054443,880.043762 1093.645996,883.486389 1099.593018,888.956665 
z"/>
<path fill="#B32E2B" opacity="1.000000" stroke="none" 
	d="
M1093.597412,759.016357 
	C1101.158813,764.740417 1106.917236,771.374573 1109.008667,780.669067 
	C1111.747559,792.840393 1108.473877,803.250610 1100.105347,812.644775 
	C1092.634155,819.262329 1084.356445,822.123108 1074.449585,822.117615 
	C808.134399,821.969971 541.819031,821.957764 275.503754,822.112305 
	C260.651672,822.120972 246.703949,811.810730 243.051407,796.799805 
	C238.584961,778.443970 249.076202,760.005981 268.903076,755.143494 
	C270.636627,754.718262 272.551025,755.003845 274.381409,755.003845 
	C541.363342,754.999817 808.345337,755.015503 1075.327271,754.907166 
	C1081.752808,754.904541 1087.558105,756.297546 1093.597412,759.016357 
z"/>
<path fill="#B32E2B" opacity="1.000000" stroke="none" 
	d="
M989.474487,533.916077 
	C1015.707825,533.900940 1041.493774,534.477966 1067.247803,533.816040 
	C1084.645386,533.368896 1102.101196,548.787415 1101.251465,567.585632 
	C1100.589600,582.227295 1094.591919,592.373169 1081.708496,598.546814 
	C1078.568359,600.051453 1074.803223,600.793640 1071.297485,600.892883 
	C1060.497192,601.198486 1049.683228,601.023193 1038.405273,601.091797 
	C1035.772949,601.099121 1033.609863,601.006226 1031.446777,601.006165 
	C776.008362,600.999634 520.569946,600.961853 265.131592,601.090271 
	C249.013275,601.098389 234.412399,585.341553 233.837677,569.711731 
	C233.209259,552.621155 244.392822,538.202942 259.861298,534.656433 
	C261.912598,534.186096 264.076447,534.025940 266.188202,534.025696 
	C505.130585,533.998413 744.072998,534.000000 983.015381,533.999146 
	C985.014771,533.999146 987.014099,533.987183 989.474487,533.916077 
z"/>
<path fill="#B32E2B" opacity="1.000000" stroke="none" 
	d="
M660.000000,1411.000000 
	C753.637695,1411.000000 846.775818,1410.851196 939.912537,1411.149658 
	C955.032959,1411.197998 969.176147,1415.826050 980.334961,1426.878906 
	C990.305542,1436.754883 990.904053,1451.652222 980.372437,1462.227905 
	C969.997925,1472.645630 957.277344,1477.837402 943.039917,1477.872070 
	C730.178772,1478.390259 517.317078,1478.733032 304.455353,1478.852295 
	C290.088165,1478.860352 275.943573,1475.772095 263.941498,1466.947021 
	C248.636948,1455.693726 245.889267,1437.669434 262.172485,1424.227661 
	C273.267731,1415.068481 286.283447,1411.161011 300.112732,1411.134155 
	C419.908112,1410.901123 539.704163,1411.000000 660.000000,1411.000000 
z"/>
<path fill="#EF7E7C" opacity="1.000000" stroke="none" 
	d="
M1100.427734,986.932739 
	C1136.044312,986.928406 1171.201294,986.962097 1206.358398,987.001831 
	C1212.977905,987.009338 1212.996948,987.020325 1212.997192,993.568909 
	C1213.000977,1114.538452 1213.001099,1235.508057 1212.997070,1356.477661 
	C1212.996826,1362.981201 1212.976685,1362.993774 1206.311646,1362.997803 
	C1171.487183,1363.019043 1136.662842,1363.033325 1101.362671,1363.078491 
	C1072.564453,1363.071289 1044.241943,1363.011841 1015.919373,1363.004761 
	C952.940613,1362.989258 889.961853,1363.000000 826.983093,1363.000000 
	C824.860107,1363.000000 822.737122,1363.000000 820.310486,1363.000000 
	C820.310486,1237.591064 820.310486,1112.708374 820.310486,986.972778 
	C913.535950,986.972778 1006.752014,986.972778 1100.427734,986.932739 
M849.000000,1105.500000 
	C849.000000,1181.553467 849.000000,1257.606934 849.000000,1333.575195 
	C961.149353,1333.575195 1072.358643,1333.575195 1183.618652,1333.575195 
	C1183.618652,1227.606323 1183.618652,1122.062866 1183.618652,1016.336426 
	C1072.027832,1016.336426 960.818787,1016.336426 849.000000,1016.336426 
	C849.000000,1045.945923 849.000000,1075.222900 849.000000,1105.500000 
z"/>
<path fill="#B32E2B" opacity="1.000000" stroke="none" 
	d="
M549.000000,1331.000000 
	C461.166962,1331.000000 373.833801,1331.078247 286.500977,1330.938721 
	C267.473114,1330.908325 252.544495,1318.812378 251.269379,1298.885864 
	C250.217422,1282.446899 258.972595,1268.888550 276.581665,1264.086182 
	C279.689331,1263.238647 283.055115,1263.043701 286.301910,1263.042480 
	C419.301422,1262.992920 552.300964,1262.988403 685.300537,1263.017212 
	C699.176697,1263.020142 709.759705,1269.565430 715.624023,1281.704224 
	C721.515991,1293.900146 720.451660,1306.329590 711.942261,1317.603638 
	C704.898560,1326.935669 695.127075,1330.849487 683.998962,1330.905884 
	C639.166992,1331.133057 594.333130,1331.000000 549.000000,1331.000000 
z"/>
<path fill="#B32E2B" opacity="1.000000" stroke="none" 
	d="
M652.000000,1209.000000 
	C530.883057,1209.000000 410.266174,1209.000732 289.649261,1208.999268 
	C274.229584,1208.999146 260.044312,1198.614746 256.376343,1183.688843 
	C251.958984,1165.713623 262.508209,1144.942993 282.871368,1141.965698 
	C285.447510,1141.588989 288.039276,1141.040771 290.623932,1141.039917 
	C423.402496,1140.994507 556.181396,1140.849854 688.959412,1141.127441 
	C715.286682,1141.182373 729.786255,1165.156738 720.407898,1188.779907 
	C715.249695,1201.772949 704.014221,1208.395874 689.981262,1208.905029 
	C677.502747,1209.357544 664.994873,1209.000000 652.000000,1209.000000 
z"/>
<path fill="#B32E2B" opacity="1.000000" stroke="none" 
	d="
M697.188171,1012.654907 
	C714.755920,1022.365662 720.482788,1045.380371 708.957581,1061.813110 
	C702.745422,1070.670532 694.369141,1076.043823 682.963806,1076.038696 
	C548.988647,1075.978516 415.012787,1075.793335 281.039490,1076.287842 
	C266.004120,1076.343384 250.300598,1063.206909 247.551849,1048.976440 
	C244.920425,1035.353394 254.018311,1014.616882 269.820892,1010.681091 
	C273.110657,1009.861694 276.525909,1009.070679 279.883759,1009.068604 
	C413.525604,1008.987976 547.167542,1008.960632 680.809143,1009.143616 
	C686.174927,1009.151001 691.537781,1011.264893 697.188171,1012.654907 
z"/>
<path fill="#B32E2B" opacity="1.000000" stroke="none" 
	d="
M262.437134,300.245117 
	C268.069275,299.041840 273.353455,297.132538 278.639069,297.128479 
	C476.926514,296.976562 675.214111,296.964691 873.501648,297.069458 
	C889.008911,297.077637 901.976074,304.216309 908.090454,320.061523 
	C913.019775,332.835693 907.637024,350.339417 896.417053,358.393066 
	C889.782593,363.155243 882.760620,365.051086 874.748108,365.048615 
	C675.127502,364.986664 475.506897,364.949524 275.886414,365.107086 
	C261.720123,365.118286 248.175537,355.342743 243.795975,341.940582 
	C239.058258,327.442413 244.363205,312.860840 255.987625,303.645050 
	C257.758759,302.240875 260.042969,301.483917 262.437134,300.245117 
z"/>
<path fill="#B32E2B" opacity="1.000000" stroke="none" 
	d="
M928.313782,304.010925 
	C927.632141,303.936920 927.307373,303.881042 926.982666,303.825195 
	C929.717834,301.686096 932.340515,299.361755 935.287415,297.571014 
	C935.847595,297.230621 938.211914,298.707306 938.858826,299.847687 
	C943.142761,307.400055 947.371033,314.999939 951.134155,322.817017 
	C951.808533,324.217773 950.597534,326.917511 949.580322,328.611145 
	C948.834961,329.852051 946.982056,330.427704 944.838074,331.803345 
	C944.599121,319.301575 942.399048,308.082214 928.313782,304.010925 
z"/>
<path fill="#B32E2B" opacity="1.000000" stroke="none" 
	d="
M971.289734,369.850891 
	C971.435364,370.684387 971.347351,371.235016 971.204529,371.770996 
	C971.182129,371.855072 970.913635,371.884064 970.754700,371.919678 
	C965.293030,373.143890 959.830872,374.365875 953.938110,374.905731 
	C958.098389,372.037048 962.143372,368.961975 966.535400,366.508148 
	C967.245605,366.111328 969.498352,368.475311 971.289734,369.850891 
z"/>
<path fill="#B32E2B" opacity="1.000000" stroke="none" 
	d="
M1117.848877,385.999573 
	C1119.399902,386.095062 1120.521484,386.189636 1121.691895,386.288330 
	C1119.785522,392.390045 1117.436890,392.517700 1104.398926,387.391235 
	C1108.374512,382.990753 1113.046875,385.839752 1117.848877,385.999573 
z"/>
<path fill="#B32E2B" opacity="1.000000" stroke="none" 
	d="
M1117.315918,289.684265 
	C1114.625977,287.832703 1112.230347,286.190887 1109.620728,284.402496 
	C1118.623901,283.847900 1126.125122,288.606476 1125.543823,296.563507 
	C1122.844971,294.294678 1120.227539,292.094360 1117.315918,289.684265 
z"/>
<path fill="#FCE5E5" opacity="1.000000" stroke="none" 
	d="
M849.000000,1105.000000 
	C849.000000,1075.222900 849.000000,1045.945923 849.000000,1016.336426 
	C960.818787,1016.336426 1072.027832,1016.336426 1183.618652,1016.336426 
	C1183.618652,1122.062866 1183.618652,1227.606323 1183.618652,1333.575195 
	C1072.358643,1333.575195 961.149353,1333.575195 849.000000,1333.575195 
	C849.000000,1257.606934 849.000000,1181.553467 849.000000,1105.000000 
z"/>
</svg>