<svg version="1.1" id="Layer_1" xmlns="http://www.w3.org/2000/svg" xmlns:xlink="http://www.w3.org/1999/xlink" x="0px" y="0px"
	 width="100%" viewBox="0 0 1786 1677" enable-background="new 0 0 1786 1677" xml:space="preserve">
<path fill="#B31100" opacity="1.000000" stroke="none" 
	d="
M1.000000,1210.000000 
	C1.000000,846.302429 1.000000,482.604858 1.372481,118.337143 
	C2.161816,116.920876 2.701652,116.112740 2.976756,115.222778 
	C6.205799,104.776924 8.600140,93.989952 12.760448,83.932381 
	C21.416233,63.006943 35.294651,45.795021 52.912521,31.563116 
	C67.713432,19.606779 84.158936,10.879946 102.573296,6.022525 
	C109.663788,4.152165 116.854790,2.662901 124.000000,0.999999 
	C637.030945,1.000000 1150.061890,1.000000 1663.707520,1.387544 
	C1680.012573,3.010339 1694.846558,7.640595 1708.803955,14.523973 
	C1725.541504,22.778484 1740.364258,33.707592 1752.727905,48.036961 
	C1764.431641,61.601562 1773.625366,76.493965 1779.582520,93.297195 
	C1782.557007,101.686859 1784.558472,110.421448 1787.000000,118.999992 
	C1787.000000,483.030914 1787.000000,847.061829 1786.627441,1211.662842 
	C1784.884521,1216.990234 1783.528198,1221.751587 1782.141113,1226.503906 
	C1774.629761,1252.238770 1760.913940,1273.942871 1740.838135,1291.848267 
	C1731.390503,1300.274536 1721.061279,1307.199463 1709.938477,1312.932617 
	C1689.152466,1323.646729 1666.629395,1327.869507 1643.535156,1327.893311 
	C1458.758301,1328.084106 1273.981079,1328.000000 1089.203979,1328.000000 
	C1087.254883,1328.000000 1085.305908,1328.000000 1083.256592,1328.000000 
	C1083.256592,1332.210205 1083.256592,1335.942383 1083.256592,1340.000000 
	C1089.473389,1340.000000 1095.444458,1340.143677 1101.403809,1339.942017 
	C1104.598877,1339.833984 1106.026611,1340.584961 1107.174194,1344.047607 
	C1128.811890,1409.335571 1150.681152,1474.546875 1172.577637,1540.000000 
	C1188.510620,1540.000000 1204.496704,1539.803833 1220.474243,1540.090454 
	C1227.487915,1540.216309 1234.531616,1541.006348 1241.479126,1542.046509 
	C1265.844727,1545.693970 1287.154175,1556.346436 1305.578735,1572.289551 
	C1325.754883,1589.748169 1339.575439,1611.662598 1346.695312,1637.472046 
	C1349.949463,1649.267944 1352.152954,1661.320068 1350.645874,1674.000000 
	C1348.653076,1674.000000 1346.849487,1674.000000 1345.045776,1674.000000 
	C1306.390869,1674.000000 1267.735474,1674.098633 1229.081543,1673.903687 
	C1222.597656,1673.871094 1216.705322,1675.212524 1211.000000,1678.000000 
	C999.969055,1678.000000 788.938171,1678.000000 577.325317,1677.636963 
	C569.836853,1674.283325 562.615356,1673.838745 555.158508,1673.917236 
	C533.161499,1674.149170 511.160400,1674.000000 489.160919,1674.000000 
	C487.549713,1674.000000 485.938507,1674.000000 483.340271,1674.000000 
	C484.322479,1664.469482 484.390320,1655.348755 486.318634,1646.639893 
	C492.891968,1616.952148 507.034943,1591.608154 530.605286,1571.767090 
	C543.802429,1560.658203 558.345398,1552.270386 574.640625,1546.710083 
	C590.490601,1541.301758 606.749817,1539.378906 623.427246,1539.861572 
	C625.690308,1539.927246 628.399658,1538.590942 630.208252,1537.075439 
	C632.944946,1534.781860 635.179932,1531.846924 637.430054,1529.026611 
	C640.057617,1525.732910 643.527954,1522.627197 644.817444,1518.824463 
	C659.412842,1475.781372 673.650146,1432.617065 688.005737,1389.492554 
	C693.198425,1373.893677 698.114685,1358.188965 703.867249,1342.798096 
	C705.749084,1337.763184 706.327332,1333.175903 705.578979,1328.000000 
	C703.294067,1328.000000 701.302124,1328.000000 699.310181,1328.000000 
	C515.314453,1328.000000 331.318665,1328.049438 147.323120,1327.872314 
	C136.726730,1327.862061 126.014122,1326.691650 115.558357,1324.886719 
	C81.619827,1319.027954 53.975349,1302.212280 32.098446,1275.655151 
	C18.034626,1258.582764 8.782653,1239.269043 3.942714,1217.737915 
	C3.343639,1215.072754 1.999097,1212.575195 1.000000,1210.000000 
M267.120483,72.044678 
	C222.837250,72.030029 178.554001,72.010033 134.270767,72.024231 
	C132.801697,72.024696 131.323547,72.317970 129.865097,72.565704 
	C115.278648,75.043365 102.770302,81.435097 92.208359,91.900536 
	C80.619576,103.383446 72.581688,117.198067 72.303238,133.250046 
	C71.500687,179.514816 72.091263,225.803772 72.018379,272.989594 
	C72.012291,457.843964 72.005898,642.698303 72.006767,827.552673 
	C72.006775,828.714905 72.107529,829.877075 72.016403,831.961670 
	C72.016403,918.884033 72.016403,1005.806396 72.016403,1093.000000 
	C74.045464,1093.000000 75.519562,1093.000000 76.993652,1093.000000 
	C233.809067,1093.000000 390.624481,1093.000488 547.439880,1092.993652 
	C548.936218,1092.993652 550.432556,1092.897339 552.867188,1092.976074 
	C698.605713,1092.984009 844.344177,1092.992188 990.082703,1092.993408 
	C991.078979,1092.993408 992.075317,1092.897461 993.990784,1092.984375 
	C1234.894043,1092.984375 1475.797363,1092.984375 1717.000000,1092.984375 
	C1717.000000,1090.652954 1717.000000,1088.849121 1717.000000,1087.045166 
	C1717.000000,913.735229 1717.000244,740.425354 1716.996460,567.115417 
	C1716.996460,565.450073 1716.942993,563.784668 1716.966187,561.168762 
	C1716.977417,538.691650 1717.005737,516.214539 1716.963501,493.737579 
	C1716.960449,492.141846 1716.437988,490.547089 1716.017212,488.103760 
	C1716.344849,485.201965 1716.950562,482.300842 1716.957153,479.398315 
	C1717.026367,448.766144 1717.058838,418.133484 1716.918945,387.501801 
	C1716.902954,384.015656 1715.770752,380.534637 1715.786743,376.582520 
	C1716.191040,375.042664 1716.943970,373.503510 1716.947266,371.962799 
	C1716.994385,349.603790 1716.941040,327.244537 1716.991089,303.964874 
	C1716.994141,248.662140 1717.020630,193.359375 1716.945190,138.056747 
	C1716.940308,134.490799 1716.480103,130.848083 1715.665894,127.373711 
	C1711.634155,110.171280 1703.143921,95.602768 1688.617554,85.274857 
	C1677.522339,77.386314 1665.303345,71.982437 1651.227905,71.983994 
	C1441.510132,72.007149 1231.792358,71.999603 1022.074524,72.005814 
	C1020.078552,72.005875 1018.082520,72.093750 1015.144653,72.028580 
	C1014.311890,72.019218 1013.479065,72.001656 1012.646301,72.001648 
	C765.947266,72.000313 519.248291,71.999916 272.549255,72.006355 
	C271.052856,72.006401 269.556488,72.102020 267.120483,72.044678 
M997.500000,1164.000000 
	C691.674011,1164.000000 385.847992,1163.999878 80.022003,1164.000122 
	C78.355377,1164.000122 76.678764,1164.119629 75.024307,1163.978394 
	C71.992943,1163.719727 70.806290,1164.980957 70.974266,1168.019653 
	C71.395569,1175.640747 71.694786,1183.268921 71.991623,1190.896362 
	C72.862991,1213.286255 83.575272,1230.307983 100.974510,1243.530396 
	C115.002289,1254.190796 131.498718,1256.942749 148.488571,1256.945312 
	C610.310913,1257.013794 1072.133301,1257.024170 1533.955688,1256.956787 
	C1573.081055,1256.951050 1612.208374,1256.471558 1651.331299,1255.953491 
	C1677.665039,1255.604736 1702.805176,1236.676392 1712.285767,1211.817139 
	C1717.307129,1198.650024 1717.106934,1185.145874 1716.999878,1171.522827 
	C1716.934570,1163.216309 1717.785278,1164.008667 1709.483154,1164.008301 
	C1472.488770,1163.998047 1235.494385,1164.000000 997.500000,1164.000000 
M878.500000,1328.000000 
	C844.750000,1328.000000 810.999939,1328.000000 777.311951,1328.000000 
	C777.311951,1332.322266 777.311951,1336.055176 777.311951,1339.708984 
	C855.665344,1339.708984 933.706421,1339.708984 1011.688110,1339.708984 
	C1011.688110,1335.677979 1011.688110,1331.945068 1011.688110,1328.000000 
	C967.417786,1328.000000 923.458862,1328.000000 878.500000,1328.000000 
z"/>
<path fill="#FFFFFF" opacity="1.000000" stroke="none" 
	d="
M1.000000,1210.468628 
	C1.999097,1212.575195 3.343639,1215.072754 3.942714,1217.737915 
	C8.782653,1239.269043 18.034626,1258.582764 32.098446,1275.655151 
	C53.975349,1302.212280 81.619827,1319.027954 115.558357,1324.886719 
	C126.014122,1326.691650 136.726730,1327.862061 147.323120,1327.872314 
	C331.318665,1328.049438 515.314453,1328.000000 699.310181,1328.000000 
	C701.302124,1328.000000 703.294067,1328.000000 705.578979,1328.000000 
	C706.327332,1333.175903 705.749084,1337.763184 703.867249,1342.798096 
	C698.114685,1358.188965 693.198425,1373.893677 688.005737,1389.492554 
	C673.650146,1432.617065 659.412842,1475.781372 644.817444,1518.824463 
	C643.527954,1522.627197 640.057617,1525.732910 637.430054,1529.026611 
	C635.179932,1531.846924 632.944946,1534.781860 630.208252,1537.075439 
	C628.399658,1538.590942 625.690308,1539.927246 623.427246,1539.861572 
	C606.749817,1539.378906 590.490601,1541.301758 574.640625,1546.710083 
	C558.345398,1552.270386 543.802429,1560.658203 530.605286,1571.767090 
	C507.034943,1591.608154 492.891968,1616.952148 486.318634,1646.639893 
	C484.390320,1655.348755 484.322479,1664.469482 483.340271,1674.000000 
	C485.938507,1674.000000 487.549713,1674.000000 489.160919,1674.000000 
	C511.160400,1674.000000 533.161499,1674.149170 555.158508,1673.917236 
	C562.615356,1673.838745 569.836853,1674.283325 576.871704,1677.636963 
	C385.080444,1678.000000 193.160904,1678.000000 1.000000,1678.000000 
	C1.000000,1522.312500 1.000000,1366.624878 1.000000,1210.468628 
z"/>
<path fill="#FFFFFF" opacity="1.000000" stroke="none" 
	d="
M1211.468628,1678.000000 
	C1216.705322,1675.212524 1222.597656,1673.871094 1229.081543,1673.903687 
	C1267.735474,1674.098633 1306.390869,1674.000000 1345.045776,1674.000000 
	C1346.849487,1674.000000 1348.653076,1674.000000 1350.645874,1674.000000 
	C1352.152954,1661.320068 1349.949463,1649.267944 1346.695312,1637.472046 
	C1339.575439,1611.662598 1325.754883,1589.748169 1305.578735,1572.289551 
	C1287.154175,1556.346436 1265.844727,1545.693970 1241.479126,1542.046509 
	C1234.531616,1541.006348 1227.487915,1540.216309 1220.474243,1540.090454 
	C1204.496704,1539.803833 1188.510620,1540.000000 1172.577637,1540.000000 
	C1150.681152,1474.546875 1128.811890,1409.335571 1107.174194,1344.047607 
	C1106.026611,1340.584961 1104.598877,1339.833984 1101.403809,1339.942017 
	C1095.444458,1340.143677 1089.473389,1340.000000 1083.256592,1340.000000 
	C1083.256592,1335.942383 1083.256592,1332.210205 1083.256592,1328.000000 
	C1085.305908,1328.000000 1087.254883,1328.000000 1089.203979,1328.000000 
	C1273.981079,1328.000000 1458.758301,1328.084106 1643.535156,1327.893311 
	C1666.629395,1327.869507 1689.152466,1323.646729 1709.938477,1312.932617 
	C1721.061279,1307.199463 1731.390503,1300.274536 1740.838135,1291.848267 
	C1760.913940,1273.942871 1774.629761,1252.238770 1782.141113,1226.503906 
	C1783.528198,1221.751587 1784.884521,1216.990234 1786.627441,1212.116455 
	C1787.000000,1367.268066 1787.000000,1522.536255 1787.000000,1678.000000 
	C1595.312500,1678.000000 1403.624878,1678.000000 1211.468628,1678.000000 
z"/>
<path fill="#FFFFFF" opacity="1.000000" stroke="none" 
	d="
M123.531342,0.999999 
	C116.854790,2.662901 109.663788,4.152165 102.573296,6.022525 
	C84.158936,10.879946 67.713432,19.606779 52.912521,31.563116 
	C35.294651,45.795021 21.416233,63.006943 12.760448,83.932381 
	C8.600140,93.989952 6.205799,104.776924 2.976756,115.222778 
	C2.701652,116.112740 2.161816,116.920876 1.372481,117.883514 
	C1.000000,79.071205 1.000000,40.142414 1.000000,1.000000 
	C41.687313,1.000000 82.375000,1.000000 123.531342,0.999999 
z"/>
<path fill="#FFFFFF" opacity="1.000000" stroke="none" 
	d="
M1787.000000,118.531334 
	C1784.558472,110.421448 1782.557007,101.686859 1779.582520,93.297195 
	C1773.625366,76.493965 1764.431641,61.601562 1752.727905,48.036961 
	C1740.364258,33.707592 1725.541504,22.778484 1708.803955,14.523973 
	C1694.846558,7.640595 1680.012573,3.010339 1664.161133,1.387544 
	C1704.925415,1.000000 1745.850952,1.000000 1787.000000,1.000000 
	C1787.000000,40.020611 1787.000000,79.041649 1787.000000,118.531334 
z"/>
<path fill="#FFFFFF" opacity="1.000000" stroke="none" 
	d="
M1716.914551,562.119385 
	C1716.942993,563.784668 1716.996460,565.450073 1716.996460,567.115417 
	C1717.000244,740.425354 1717.000000,913.735229 1717.000000,1087.045166 
	C1717.000000,1088.849121 1717.000000,1090.652954 1717.000000,1092.984375 
	C1475.797363,1092.984375 1234.894043,1092.984375 993.683838,1092.628662 
	C1002.072815,1081.194824 1011.231750,1070.444946 1019.368774,1058.970581 
	C1036.629883,1034.629639 1054.008789,1010.329041 1070.137207,985.239197 
	C1089.198853,955.585999 1105.427124,924.270874 1119.887451,892.106079 
	C1129.211060,871.366882 1138.082520,850.421753 1146.958862,829.484985 
	C1151.808105,818.046692 1156.245728,806.433899 1161.250488,794.935547 
	C1162.833252,795.489075 1164.073853,795.931335 1165.229492,796.535828 
	C1180.457275,804.501404 1195.798950,812.373291 1213.783203,809.882446 
	C1221.119263,808.866394 1228.504517,807.253052 1235.472168,804.791931 
	C1242.796753,802.204712 1249.524048,797.978882 1256.728027,794.988892 
	C1286.826538,782.496643 1318.689331,779.093384 1350.790527,778.132629 
	C1395.467285,776.795593 1440.313477,780.654663 1484.823608,774.788269 
	C1501.855469,772.543457 1518.577271,767.923340 1535.413818,764.264038 
	C1536.723145,763.979492 1537.823120,762.731689 1539.384521,761.991943 
	C1563.522583,774.113098 1588.459473,782.898804 1614.346558,789.242004 
	C1624.308350,791.683044 1632.629395,782.963013 1631.913940,775.557434 
	C1630.891602,764.976868 1628.933472,754.483521 1628.006470,743.897705 
	C1626.757690,729.634827 1626.109741,715.319275 1625.531250,700.954651 
	C1626.757080,699.955811 1627.847290,699.150391 1628.525391,698.083191 
	C1636.436279,685.631897 1645.081909,673.560547 1651.932373,660.546143 
	C1659.169556,646.796814 1664.680054,632.138611 1670.975586,617.531860 
	C1672.144653,615.817627 1673.239258,614.409668 1674.428345,613.086670 
	C1683.525757,602.963074 1692.870850,593.050415 1701.667969,582.672913 
	C1707.172363,576.179565 1711.860352,568.994202 1716.914551,562.119385 
z"/>
<path fill="#F14533" opacity="1.000000" stroke="none" 
	d="
M998.000000,1164.000000 
	C1235.494385,1164.000000 1472.488770,1163.998047 1709.483154,1164.008301 
	C1717.785278,1164.008667 1716.934570,1163.216309 1716.999878,1171.522827 
	C1717.106934,1185.145874 1717.307129,1198.650024 1712.285767,1211.817139 
	C1702.805176,1236.676392 1677.665039,1255.604736 1651.331299,1255.953491 
	C1612.208374,1256.471558 1573.081055,1256.951050 1533.955688,1256.956787 
	C1072.133301,1257.024170 610.310913,1257.013794 148.488571,1256.945312 
	C131.498718,1256.942749 115.002289,1254.190796 100.974510,1243.530396 
	C83.575272,1230.307983 72.862991,1213.286255 71.991623,1190.896362 
	C71.694786,1183.268921 71.395569,1175.640747 70.974266,1168.019653 
	C70.806290,1164.980957 71.992943,1163.719727 75.024307,1163.978394 
	C76.678764,1164.119629 78.355377,1164.000122 80.022003,1164.000122 
	C385.847992,1163.999878 691.674011,1164.000000 998.000000,1164.000000 
z"/>
<path fill="#F8C5BF" opacity="1.000000" stroke="none" 
	d="
M1160.868896,794.899719 
	C1156.245728,806.433899 1151.808105,818.046692 1146.958862,829.484985 
	C1138.082520,850.421753 1129.211060,871.366882 1119.887451,892.106079 
	C1105.427124,924.270874 1089.198853,955.585999 1070.137207,985.239197 
	C1054.008789,1010.329041 1036.629883,1034.629639 1019.368774,1058.970581 
	C1011.231750,1070.444946 1002.072815,1081.194824 993.224243,1092.559570 
	C992.075317,1092.897461 991.078979,1092.993408 990.082703,1092.993408 
	C844.344177,1092.992188 698.605713,1092.984009 552.255371,1092.602051 
	C542.939880,1073.489380 534.198303,1054.767822 525.559814,1035.999023 
	C523.498352,1031.520142 521.780518,1026.882935 520.366089,1022.198486 
	C522.993103,1022.052246 525.158630,1022.003357 527.324097,1022.003296 
	C640.631042,1021.999573 753.937988,1022.015381 867.244934,1021.957642 
	C873.351746,1021.954529 879.500610,1021.681885 885.556824,1020.938843 
	C901.174011,1019.022888 914.507019,1011.788452 925.330994,1000.831482 
	C938.263733,987.739929 943.981506,971.232666 943.985840,952.857544 
	C944.013550,834.551758 943.999084,716.246033 944.006653,597.940247 
	C944.006775,595.610107 944.105164,593.280029 944.501831,590.909668 
	C953.253662,585.904724 961.661377,580.939941 970.362671,576.146179 
	C976.426147,583.698364 981.732666,591.505920 988.055542,598.378357 
	C1005.008972,616.805420 1023.633240,633.377136 1044.759521,646.999573 
	C1046.120850,647.877258 1047.726440,649.549377 1047.859863,650.978821 
	C1049.391968,667.386780 1050.989014,683.801819 1051.863281,700.252502 
	C1052.309448,708.647949 1051.647461,717.146179 1050.919800,725.548889 
	C1050.027222,735.857971 1048.545532,746.116089 1047.311768,756.395386 
	C1046.548096,762.757690 1045.521240,769.100464 1045.061401,775.484314 
	C1044.402344,784.634827 1055.336548,791.763245 1062.950684,789.214905 
	C1078.036377,784.166016 1093.500244,780.214966 1108.478149,774.883789 
	C1134.722168,765.542725 1158.554565,751.673035 1180.547485,734.824341 
	C1179.149292,740.442444 1177.774902,745.695862 1176.039185,750.827087 
	C1171.060913,765.544495 1165.936035,780.212341 1160.868896,794.899719 
z"/>
<path fill="#B35248" opacity="1.000000" stroke="none" 
	d="
M1180.406372,734.403809 
	C1158.554565,751.673035 1134.722168,765.542725 1108.478149,774.883789 
	C1093.500244,780.214966 1078.036377,784.166016 1062.950684,789.214905 
	C1055.336548,791.763245 1044.402344,784.634827 1045.061401,775.484314 
	C1045.521240,769.100464 1046.548096,762.757690 1047.311768,756.395386 
	C1048.545532,746.116089 1050.027222,735.857971 1050.919800,725.548889 
	C1051.647461,717.146179 1052.309448,708.647949 1051.863281,700.252502 
	C1050.989014,683.801819 1049.391968,667.386780 1047.859863,650.978821 
	C1047.726440,649.549377 1046.120850,647.877258 1044.759521,646.999573 
	C1023.633240,633.377136 1005.008972,616.805420 988.055542,598.378357 
	C981.732666,591.505920 976.426147,583.698364 970.230957,575.826843 
	C962.409241,562.947388 955.008728,550.560669 947.620300,538.166809 
	C946.418091,536.150024 945.269531,534.101196 944.069275,531.595032 
	C944.028442,467.514526 944.007202,403.906189 944.038696,340.297882 
	C944.039551,338.512085 944.605408,336.726593 945.060303,334.617859 
	C953.520752,320.047913 961.558044,305.633148 970.251770,291.625763 
	C974.547424,284.704620 980.053650,278.534821 985.316956,271.887787 
	C992.877502,264.537201 999.852478,257.010284 1007.464539,250.194992 
	C1015.797546,242.734207 1024.347290,235.402267 1033.479370,228.976089 
	C1044.626709,221.131958 1056.478516,214.289017 1068.387939,206.996994 
	C1071.335693,205.608353 1073.878296,204.146713 1076.513550,202.877380 
	C1098.043457,192.506439 1120.280640,183.806458 1143.748291,179.323456 
	C1163.339600,175.580948 1183.215088,172.642822 1203.096924,171.286972 
	C1224.670898,169.815765 1246.296143,171.398071 1267.797607,174.837860 
	C1289.972656,178.385406 1311.655029,183.417786 1332.482666,191.842484 
	C1336.425415,193.437302 1339.901489,193.614487 1344.014648,192.059784 
	C1353.897949,188.324142 1364.004517,185.179184 1374.413086,181.843262 
	C1397.412598,175.650772 1420.507690,171.965317 1443.868896,171.229095 
	C1460.348389,170.709717 1476.959351,171.649963 1493.392700,173.200348 
	C1507.634399,174.543991 1521.813232,177.163788 1535.835205,180.100586 
	C1564.224121,186.046402 1590.891113,196.914536 1616.042236,211.144547 
	C1640.622192,225.051361 1663.376221,241.658203 1682.226196,262.909912 
	C1692.536621,274.533905 1701.851929,287.039276 1711.658813,299.112335 
	C1713.296631,301.128601 1715.155273,302.965576 1716.911865,304.885376 
	C1716.941040,327.244537 1716.994385,349.603790 1716.947266,371.962799 
	C1716.943970,373.503510 1716.191040,375.042664 1715.405029,376.420990 
	C1710.628296,361.191040 1704.914185,346.598053 1696.552856,333.334290 
	C1688.649658,320.797455 1680.523560,308.229523 1671.002075,296.934143 
	C1662.017700,286.275757 1651.382446,276.927399 1640.939209,267.600952 
	C1628.113525,256.146759 1613.618774,246.978729 1598.484985,238.817261 
	C1579.620728,228.643951 1559.878052,220.737518 1539.240723,214.929504 
	C1516.289673,208.470398 1492.883423,204.727615 1469.124146,204.189438 
	C1453.953003,203.845779 1438.728027,205.145187 1423.552612,206.107361 
	C1418.296753,206.440598 1413.117188,207.977081 1407.474609,208.978607 
	C1398.514771,210.648422 1389.983032,212.303650 1379.809448,214.277451 
	C1381.871582,215.690125 1382.656494,216.291092 1383.499023,216.795715 
	C1410.572510,233.010208 1434.137573,253.244507 1454.237061,277.625610 
	C1466.274170,292.226685 1477.121826,307.644409 1485.074219,324.738312 
	C1491.798828,339.192688 1498.075684,354.081818 1502.330200,369.395477 
	C1506.638428,384.902222 1509.578247,401.073822 1510.669678,417.120697 
	C1512.180542,439.335785 1510.956055,461.585358 1506.175415,483.626160 
	C1500.114624,511.569763 1489.793335,537.637817 1474.656006,561.781372 
	C1461.496338,582.770630 1446.370728,602.229919 1427.228271,618.196167 
	C1416.650146,627.019165 1405.803223,635.527466 1394.907837,643.958618 
	C1390.579102,647.308411 1385.791748,650.065552 1380.290283,653.702698 
	C1382.296021,653.892334 1383.077026,653.903931 1383.833130,654.046936 
	C1399.541138,657.017639 1415.152100,660.752747 1430.982666,662.744446 
	C1443.265991,664.289978 1455.821899,663.865295 1468.258423,663.914307 
	C1474.488403,663.938904 1478.784058,666.327698 1482.215942,671.455811 
	C1491.396362,685.173706 1501.580933,698.106750 1515.254028,707.679016 
	C1526.754883,715.730347 1538.218750,723.966858 1550.418823,730.844604 
	C1560.010620,736.251953 1570.700684,739.711304 1581.080444,744.362732 
	C1587.021240,746.707764 1592.784546,748.726013 1598.517212,750.733582 
	C1597.942139,744.678894 1597.388550,738.849854 1596.901611,732.591309 
	C1596.645630,729.736267 1596.058472,727.312622 1596.040527,724.884827 
	C1595.841553,697.917786 1595.147583,670.906372 1600.093750,644.217468 
	C1601.174683,638.384583 1602.253174,632.064697 1605.325317,627.237183 
	C1607.912476,623.171997 1613.334106,620.862122 1617.603638,617.924561 
	C1635.112915,605.877319 1651.582397,592.729858 1665.907227,576.826294 
	C1677.613159,563.830505 1687.703735,549.833069 1696.705200,534.447632 
	C1698.950073,530.210327 1701.287109,526.450745 1702.945923,522.412598 
	C1707.501831,511.321564 1711.773071,500.113586 1716.156982,488.951904 
	C1716.437988,490.547089 1716.960449,492.141846 1716.963501,493.737579 
	C1717.005737,516.214539 1716.977417,538.691650 1716.940430,561.644043 
	C1711.860352,568.994202 1707.172363,576.179565 1701.667969,582.672913 
	C1692.870850,593.050415 1683.525757,602.963074 1674.428345,613.086670 
	C1673.239258,614.409668 1672.144653,615.817627 1670.627075,617.591553 
	C1658.178101,627.165161 1646.159790,636.402344 1634.001099,645.450806 
	C1631.151733,647.571350 1628.460449,649.316772 1628.732788,653.507690 
	C1628.888428,655.904480 1628.126831,658.346863 1627.954956,660.781189 
	C1627.007812,674.194092 1626.115234,687.610901 1625.203979,701.026367 
	C1626.109741,715.319275 1626.757690,729.634827 1628.006470,743.897705 
	C1628.933472,754.483521 1630.891602,764.976868 1631.913940,775.557434 
	C1632.629395,782.963013 1624.308350,791.683044 1614.346558,789.242004 
	C1588.459473,782.898804 1563.522583,774.113098 1539.226562,761.677368 
	C1534.081177,758.854919 1529.320190,756.633728 1524.857910,753.921326 
	C1503.187012,740.748535 1483.734497,725.040527 1468.058105,704.836487 
	C1465.416260,701.431396 1463.839600,696.806824 1457.120972,696.674744 
	C1441.202148,696.361877 1425.267822,694.770874 1409.429443,692.926208 
	C1386.293579,690.231506 1364.092773,683.661438 1342.412109,675.243652 
	C1340.725098,674.588684 1338.510864,674.192566 1336.865967,674.708923 
	C1327.386719,677.684692 1318.175537,681.677795 1308.553223,683.998230 
	C1291.291016,688.160889 1273.909180,692.090515 1256.370483,694.756287 
	C1243.859009,696.657959 1231.003784,696.254150 1218.315918,697.091064 
	C1216.561401,697.206787 1214.205322,698.066223 1213.281494,699.387878 
	C1204.127197,712.482117 1192.515625,723.234558 1180.789551,734.024902 
	C1180.669922,734.042114 1180.572266,734.263123 1180.508301,734.271851 
	C1180.444336,734.280518 1180.406372,734.403809 1180.406372,734.403809 
M1202.946655,664.014343 
	C1213.548218,663.677246 1224.189941,663.803772 1234.741211,662.887573 
	C1248.447754,661.697510 1262.155273,660.127014 1275.731201,657.914734 
	C1298.411621,654.218628 1319.976562,646.707153 1340.768677,637.022949 
	C1362.090942,627.091736 1382.519531,615.569580 1399.859131,599.489014 
	C1412.173462,588.068787 1424.601929,576.548767 1435.324219,563.692871 
	C1447.781372,548.756714 1457.441895,531.804871 1465.182617,513.752258 
	C1475.447144,489.813232 1480.756714,464.892090 1481.909302,439.020172 
	C1482.187256,432.778473 1481.213257,426.490021 1481.027100,420.216766 
	C1480.571533,404.874420 1477.466309,390.016876 1472.977173,375.416138 
	C1462.001709,339.718689 1442.646240,309.119781 1416.307495,282.830963 
	C1400.650391,267.203491 1383.033203,254.188675 1364.000732,242.885681 
	C1346.749146,232.640366 1328.533203,224.590576 1309.576660,218.463577 
	C1289.831787,212.081741 1269.577881,207.676239 1248.752197,205.829712 
	C1232.083618,204.351746 1215.503906,202.926849 1198.820435,204.994919 
	C1185.651855,206.627258 1172.398315,207.793900 1159.343872,210.086121 
	C1126.666382,215.823975 1096.311890,227.924774 1067.277100,245.254318 
	C1065.322876,246.451401 1063.260376,247.503479 1061.432495,248.869690 
	C1051.230591,256.494812 1041.085449,264.195984 1030.325195,272.184418 
	C1020.474670,282.372284 1009.856567,291.934631 1000.936462,302.880676 
	C983.369568,324.437378 970.467163,348.684357 962.180969,375.385437 
	C956.250793,394.494843 953.787109,414.079498 953.147217,433.910797 
	C952.905273,441.409821 953.878601,449.036652 955.099304,456.473694 
	C956.970581,467.874146 958.852234,479.350861 961.942932,490.457520 
	C969.152832,516.366760 981.517029,539.803467 998.251160,561.683594 
	C1007.568054,571.689514 1016.144958,582.543091 1026.389771,591.486084 
	C1039.109741,602.589661 1053.068115,612.308777 1066.798584,622.199585 
	C1070.967407,625.202698 1074.117310,628.618164 1074.847046,633.440674 
	C1077.132446,648.546021 1080.189209,663.676025 1080.714844,678.873596 
	C1081.537231,702.650391 1082.202759,726.552856 1078.044922,750.529175 
	C1078.941040,750.317139 1079.520752,750.220276 1080.074829,750.043030 
	C1102.263428,742.943542 1123.492065,733.707397 1143.209595,721.225647 
	C1161.949219,709.362854 1178.173340,694.791443 1191.061279,676.581665 
	C1194.244995,672.083191 1198.337769,668.227966 1202.946655,664.014343 
z"/>
<path fill="#FFFFFF" opacity="1.000000" stroke="none" 
	d="
M1716.951416,304.425140 
	C1715.155273,302.965576 1713.296631,301.128601 1711.658813,299.112335 
	C1701.851929,287.039276 1692.536621,274.533905 1682.226196,262.909912 
	C1663.376221,241.658203 1640.622192,225.051361 1616.042236,211.144547 
	C1590.891113,196.914536 1564.224121,186.046402 1535.835205,180.100586 
	C1521.813232,177.163788 1507.634399,174.543991 1493.392700,173.200348 
	C1476.959351,171.649963 1460.348389,170.709717 1443.868896,171.229095 
	C1420.507690,171.965317 1397.412598,175.650772 1374.317627,181.524826 
	C1366.225708,177.158066 1358.888916,172.502472 1350.971069,169.269638 
	C1316.959961,155.382660 1281.104736,151.091660 1244.743042,150.087158 
	C1235.633545,149.835495 1226.468262,150.335846 1217.374146,151.061432 
	C1198.713867,152.550247 1179.966675,153.620224 1161.469360,156.325760 
	C1132.005249,160.635330 1103.084961,167.624893 1074.918579,177.488693 
	C1072.756836,178.245697 1070.412598,178.481262 1068.101196,178.495728 
	C1068.032837,174.869873 1068.062134,171.706451 1067.992065,168.545212 
	C1067.672485,154.113205 1068.482666,139.534760 1066.673340,125.290100 
	C1064.733887,110.021584 1056.779175,97.254936 1044.773193,87.080421 
	C1036.261108,79.866936 1026.490845,75.499756 1016.086548,72.140625 
	C1018.082520,72.093750 1020.078552,72.005875 1022.074524,72.005814 
	C1231.792358,71.999603 1441.510132,72.007149 1651.227905,71.983994 
	C1665.303345,71.982437 1677.522339,77.386314 1688.617554,85.274857 
	C1703.143921,95.602768 1711.634155,110.171280 1715.665894,127.373711 
	C1716.480103,130.848083 1716.940308,134.490799 1716.945190,138.056747 
	C1717.020630,193.359375 1716.994141,248.662140 1716.951416,304.425140 
z"/>
<path fill="#FCD1CC" opacity="1.000000" stroke="none" 
	d="
M72.161232,831.039307 
	C72.107529,829.877075 72.006775,828.714905 72.006767,827.552673 
	C72.005898,642.698303 72.012291,457.843964 72.535324,272.508606 
	C112.669624,272.058014 152.286987,272.088440 191.941849,272.578125 
	C191.986038,457.878693 191.993011,642.720093 191.992950,827.561462 
	C191.992950,828.724304 191.894943,829.887207 191.384125,831.035522 
	C151.337433,831.027039 111.749336,831.033203 72.161232,831.039307 
z"/>
<path fill="#FFFFFF" opacity="1.000000" stroke="none" 
	d="
M72.088821,831.500488 
	C111.749336,831.033203 151.337433,831.027039 191.450928,831.496704 
	C191.984207,874.457092 191.959732,916.941772 192.056229,959.426270 
	C192.064713,963.166321 192.480194,966.997375 193.357315,970.629028 
	C200.779236,1001.358582 229.165222,1021.837830 259.525818,1021.920166 
	C344.161499,1022.149658 428.798157,1021.997620 513.434448,1022.013245 
	C515.591187,1022.013672 517.747864,1022.212341 519.904602,1022.318604 
	C521.780518,1026.882935 523.498352,1031.520142 525.559814,1035.999023 
	C534.198303,1054.767822 542.939880,1073.489380 551.786255,1092.537109 
	C550.432556,1092.897339 548.936218,1092.993652 547.439880,1092.993652 
	C390.624481,1093.000488 233.809067,1093.000000 76.993652,1093.000000 
	C75.519562,1093.000000 74.045464,1093.000000 72.016403,1093.000000 
	C72.016403,1005.806396 72.016403,918.884033 72.088821,831.500488 
z"/>
<path fill="#F8A299" opacity="1.000000" stroke="none" 
	d="
M1015.615601,72.084602 
	C1026.490845,75.499756 1036.261108,79.866936 1044.773193,87.080421 
	C1056.779175,97.254936 1064.733887,110.021584 1066.673340,125.290100 
	C1068.482666,139.534760 1067.672485,154.113205 1067.992065,168.545212 
	C1068.062134,171.706451 1068.032837,174.869873 1068.050537,178.965485 
	C1068.043091,188.936813 1068.034424,197.974960 1068.025635,207.013092 
	C1056.478516,214.289017 1044.626709,221.131958 1033.479370,228.976089 
	C1024.347290,235.402267 1015.797546,242.734207 1007.464539,250.194992 
	C999.852478,257.010284 992.877502,264.537201 984.847656,271.878723 
	C970.760132,272.035217 957.446655,272.063477 944.088257,271.619263 
	C944.028870,265.482452 943.997864,259.818146 944.004333,254.153870 
	C944.011719,247.740784 942.136780,242.198120 937.259460,237.707886 
	C926.760742,228.042511 916.371338,218.257675 905.986877,208.469040 
	C893.300110,196.510269 880.665771,184.495712 868.005676,172.508591 
	C855.587402,160.750473 843.126526,149.037155 830.754395,137.230728 
	C814.406067,121.630005 798.063110,106.022469 781.857971,90.273712 
	C777.443604,85.983673 772.643250,83.913925 766.367188,83.917900 
	C602.606506,84.021545 438.845734,84.000481 275.084991,83.995186 
	C272.754028,83.995110 270.423096,83.922699 268.065765,83.433334 
	C268.046295,79.372742 268.053192,75.762878 268.060089,72.153008 
	C269.556488,72.102020 271.052856,72.006401 272.549255,72.006355 
	C519.248291,71.999916 765.947266,72.000313 1012.646301,72.001648 
	C1013.479065,72.001656 1014.311890,72.019218 1015.615601,72.084602 
z"/>
<path fill="#F57466" opacity="1.000000" stroke="none" 
	d="
M267.590271,72.098846 
	C268.053192,75.762878 268.046295,79.372742 267.590820,83.468887 
	C247.258881,82.811485 229.436295,87.596161 214.160217,101.119476 
	C200.197876,113.479767 192.240494,128.626175 192.093262,147.209717 
	C191.763412,188.844009 191.936218,230.482254 191.904343,272.118896 
	C152.286987,272.088440 112.669624,272.058014 72.593460,272.055420 
	C72.091263,225.803772 71.500687,179.514816 72.303238,133.250046 
	C72.581688,117.198067 80.619576,103.383446 92.208359,91.900536 
	C102.770302,81.435097 115.278648,75.043365 129.865097,72.565704 
	C131.323547,72.317970 132.801697,72.024696 134.270767,72.024231 
	C178.554001,72.010033 222.837250,72.030029 267.590271,72.098846 
z"/>
<path fill="#FFFFFF" opacity="1.000000" stroke="none" 
	d="
M1716.087158,488.527832 
	C1711.773071,500.113586 1707.501831,511.321564 1702.945923,522.412598 
	C1701.287109,526.450745 1698.950073,530.210327 1696.624023,533.914429 
	C1696.287842,533.400879 1696.181152,533.060852 1696.222778,532.740112 
	C1698.910522,512.046631 1702.196899,491.407990 1704.083496,470.642120 
	C1705.171997,458.663208 1705.027954,446.359283 1703.635254,434.411896 
	C1700.635986,408.682922 1691.093994,384.833496 1679.348145,361.982697 
	C1668.629639,341.130249 1656.564575,320.994049 1641.766602,302.704590 
	C1626.373901,283.679932 1608.666260,267.327362 1586.521118,256.218719 
	C1563.002563,244.421295 1537.743774,240.138718 1511.859375,239.146011 
	C1498.771362,238.644043 1485.611938,239.413864 1472.508667,240.078247 
	C1461.599487,240.631363 1450.684814,241.547363 1439.846680,242.897385 
	C1429.347290,244.205200 1430.008179,244.203262 1424.807617,234.589966 
	C1419.957031,225.623657 1413.597778,217.473450 1407.902710,208.963989 
	C1413.117188,207.977081 1418.296753,206.440598 1423.552612,206.107361 
	C1438.728027,205.145187 1453.953003,203.845779 1469.124146,204.189438 
	C1492.883423,204.727615 1516.289673,208.470398 1539.240723,214.929504 
	C1559.878052,220.737518 1579.620728,228.643951 1598.484985,238.817261 
	C1613.618774,246.978729 1628.113525,256.146759 1640.939209,267.600952 
	C1651.382446,276.927399 1662.017700,286.275757 1671.002075,296.934143 
	C1680.523560,308.229523 1688.649658,320.797455 1696.552856,333.334290 
	C1704.914185,346.598053 1710.628296,361.191040 1715.089844,376.655334 
	C1715.770752,380.534637 1716.902954,384.015656 1716.918945,387.501801 
	C1717.058838,418.133484 1717.026367,448.766144 1716.957153,479.398315 
	C1716.950562,482.300842 1716.344849,485.201965 1716.087158,488.527832 
z"/>
<path fill="#FFFFFF" opacity="1.000000" stroke="none" 
	d="
M879.000000,1328.000000 
	C923.458862,1328.000000 967.417786,1328.000000 1011.688110,1328.000000 
	C1011.688110,1331.945068 1011.688110,1335.677979 1011.688110,1339.708984 
	C933.706421,1339.708984 855.665344,1339.708984 777.311951,1339.708984 
	C777.311951,1336.055176 777.311951,1332.322266 777.311951,1328.000000 
	C810.999939,1328.000000 844.750000,1328.000000 879.000000,1328.000000 
z"/>
<path fill="#FCEDEB" opacity="1.000000" stroke="none" 
	d="
M1180.909180,734.007751 
	C1192.515625,723.234558 1204.127197,712.482117 1213.281494,699.387878 
	C1214.205322,698.066223 1216.561401,697.206787 1218.315918,697.091064 
	C1231.003784,696.254150 1243.859009,696.657959 1256.370483,694.756287 
	C1273.909180,692.090515 1291.291016,688.160889 1308.553223,683.998230 
	C1318.175537,681.677795 1327.386719,677.684692 1336.865967,674.708923 
	C1338.510864,674.192566 1340.725098,674.588684 1342.412109,675.243652 
	C1364.092773,683.661438 1386.293579,690.231506 1409.429443,692.926208 
	C1425.267822,694.770874 1441.202148,696.361877 1457.120972,696.674744 
	C1463.839600,696.806824 1465.416260,701.431396 1468.058105,704.836487 
	C1483.734497,725.040527 1503.187012,740.748535 1524.857910,753.921326 
	C1529.320190,756.633728 1534.081177,758.854919 1538.862427,761.617065 
	C1537.823120,762.731689 1536.723145,763.979492 1535.413818,764.264038 
	C1518.577271,767.923340 1501.855469,772.543457 1484.823608,774.788269 
	C1440.313477,780.654663 1395.467285,776.795593 1350.790527,778.132629 
	C1318.689331,779.093384 1286.826538,782.496643 1256.728027,794.988892 
	C1249.524048,797.978882 1242.796753,802.204712 1235.472168,804.791931 
	C1228.504517,807.253052 1221.119263,808.866394 1213.783203,809.882446 
	C1195.798950,812.373291 1180.457275,804.501404 1165.229492,796.535828 
	C1164.073853,795.931335 1162.833252,795.489075 1161.250488,794.935547 
	C1165.936035,780.212341 1171.060913,765.544495 1176.039185,750.827087 
	C1177.774902,745.695862 1179.149292,740.442444 1180.547485,734.824341 
	C1180.406372,734.403809 1180.444336,734.280518 1180.632446,734.398071 
	C1180.932983,734.526550 1181.045410,734.537415 1181.157837,734.548279 
	C1181.074951,734.368103 1180.992065,734.187927 1180.909180,734.007751 
z"/>
<path fill="#FCEDEB" opacity="1.000000" stroke="none" 
	d="
M1625.531250,700.954651 
	C1626.115234,687.610901 1627.007812,674.194092 1627.954956,660.781189 
	C1628.126831,658.346863 1628.888428,655.904480 1628.732788,653.507690 
	C1628.460449,649.316772 1631.151733,647.571350 1634.001099,645.450806 
	C1646.159790,636.402344 1658.178101,627.165161 1670.596191,617.937134 
	C1664.680054,632.138611 1659.169556,646.796814 1651.932373,660.546143 
	C1645.081909,673.560547 1636.436279,685.631897 1628.525391,698.083191 
	C1627.847290,699.150391 1626.757080,699.955811 1625.531250,700.954651 
z"/>
<path fill="#F14533" opacity="1.000000" stroke="none" 
	d="
M191.941849,272.578125 
	C191.936218,230.482254 191.763412,188.844009 192.093262,147.209717 
	C192.240494,128.626175 200.197876,113.479767 214.160217,101.119476 
	C229.436295,87.596161 247.258881,82.811485 267.617188,83.919601 
	C270.423096,83.922699 272.754028,83.995110 275.084991,83.995186 
	C438.845734,84.000481 602.606506,84.021545 766.367188,83.917900 
	C772.643250,83.913925 777.443604,85.983673 781.857971,90.273712 
	C798.063110,106.022469 814.406067,121.630005 830.754395,137.230728 
	C843.126526,149.037155 855.587402,160.750473 868.005676,172.508591 
	C880.665771,184.495712 893.300110,196.510269 905.986877,208.469040 
	C916.371338,218.257675 926.760742,228.042511 937.259460,237.707886 
	C942.136780,242.198120 944.011719,247.740784 944.004333,254.153870 
	C943.997864,259.818146 944.028870,265.482452 944.033203,272.078979 
	C944.015381,292.298737 943.989380,311.586365 944.039062,330.873779 
	C944.042542,332.230255 944.605164,333.585297 944.907776,334.940979 
	C944.605408,336.726593 944.039551,338.512085 944.038696,340.297882 
	C944.007202,403.906189 944.028442,467.514526 944.029175,532.059937 
	C944.063293,552.314636 944.110474,571.632263 944.157715,590.949890 
	C944.105164,593.280029 944.006775,595.610107 944.006653,597.940247 
	C943.999084,716.246033 944.013550,834.551758 943.985840,952.857544 
	C943.981506,971.232666 938.263733,987.739929 925.330994,1000.831482 
	C914.507019,1011.788452 901.174011,1019.022888 885.556824,1020.938843 
	C879.500610,1021.681885 873.351746,1021.954529 867.244934,1021.957642 
	C753.937988,1022.015381 640.631042,1021.999573 527.324097,1022.003296 
	C525.158630,1022.003357 522.993103,1022.052246 520.366089,1022.198486 
	C517.747864,1022.212341 515.591187,1022.013672 513.434448,1022.013245 
	C428.798157,1021.997620 344.161499,1022.149658 259.525818,1021.920166 
	C229.165222,1021.837830 200.779236,1001.358582 193.357315,970.629028 
	C192.480194,966.997375 192.064713,963.166321 192.056229,959.426270 
	C191.959732,916.941772 191.984207,874.457092 191.909515,831.511230 
	C191.894943,829.887207 191.992950,828.724304 191.992950,827.561462 
	C191.993011,642.720093 191.986038,457.878693 191.941849,272.578125 
M267.156525,115.045555 
	C260.310730,116.020348 253.229736,116.201576 246.671082,118.145317 
	C235.198761,121.545296 225.049301,135.682816 225.033798,147.242935 
	C224.978012,188.870499 225.053467,230.498215 225.011902,273.045197 
	C225.007935,501.433624 225.002029,729.822083 225.035751,958.210510 
	C225.036011,959.961609 225.473068,961.737061 225.881149,963.459778 
	C230.010788,980.892456 245.920441,990.954895 263.073883,990.968262 
	C351.197449,991.036865 439.321136,991.000732 527.444763,990.993713 
	C528.941040,990.993591 530.437256,990.899658 532.873535,990.963135 
	C646.528992,990.975281 760.184509,991.036133 873.839844,990.919434 
	C884.444885,990.908569 893.864319,986.570251 901.225281,979.037476 
	C908.440247,971.654053 910.998169,962.114929 910.998413,951.893250 
	C911.000854,841.070740 911.000671,730.248291 910.993713,619.425781 
	C910.993591,617.595032 910.899658,615.764343 910.977295,613.012512 
	C910.984863,594.451904 911.017456,575.891296 910.959045,557.330872 
	C910.953613,555.590820 910.374451,553.852539 910.768005,551.599243 
	C910.845337,550.441895 910.990173,549.284546 910.990356,548.127197 
	C911.000793,462.769989 911.001038,377.412781 910.988464,292.055573 
	C910.988281,290.767181 910.818665,289.478790 910.724182,288.134064 
	C909.293335,288.134064 908.138123,288.134064 906.053833,288.020203 
	C871.122803,288.013458 836.191589,288.068451 801.261108,287.924438 
	C796.727173,287.905762 792.179993,286.972473 787.669128,286.269104 
	C775.812500,284.420349 765.573547,278.958801 755.745117,271.307617 
	C752.121460,267.428070 748.179749,263.795868 744.934082,259.622345 
	C735.390442,247.350723 731.962830,233.092743 731.984802,217.774765 
	C732.033630,183.701538 732.000000,149.628220 732.000000,115.000000 
	C730.110840,115.000000 727.815735,115.000000 725.520630,115.000000 
	C575.211426,115.000000 424.902191,114.999519 274.592987,115.004776 
	C272.427917,115.004852 270.262817,115.076599 267.156525,115.045555 
M819.995605,210.495056 
	C814.908569,205.741531 809.782593,201.028809 804.743164,196.225296 
	C796.210999,188.092667 787.786438,179.846497 779.210876,171.760208 
	C774.818481,167.618454 770.197266,163.719482 765.000000,159.107910 
	C765.000000,178.380692 764.937317,196.795654 765.046692,215.209610 
	C765.072083,219.488342 765.380371,223.813889 766.079956,228.031387 
	C768.540588,242.865891 784.098389,255.966599 799.099182,255.991196 
	C820.069946,256.025543 841.040771,256.005341 862.011597,255.987793 
	C863.402710,255.986633 864.793701,255.810593 867.337769,255.637405 
	C851.185913,240.244415 835.841614,225.621017 819.995605,210.495056 
z"/>
<path fill="#FCEDEB" opacity="1.000000" stroke="none" 
	d="
M944.501770,590.909668 
	C944.110474,571.632263 944.063293,552.314636 944.056152,532.532104 
	C945.269531,534.101196 946.418091,536.150024 947.620300,538.166809 
	C955.008728,550.560669 962.409241,562.947388 969.937439,575.655823 
	C961.661377,580.939941 953.253662,585.904724 944.501770,590.909668 
z"/>
<path fill="#FCEDEB" opacity="1.000000" stroke="none" 
	d="
M997.978516,561.071655 
	C981.517029,539.803467 969.152832,516.366760 961.942932,490.457520 
	C958.852234,479.350861 956.970581,467.874146 955.099304,456.473694 
	C953.878601,449.036652 952.905273,441.409821 953.147217,433.910797 
	C953.787109,414.079498 956.250793,394.494843 962.180969,375.385437 
	C970.467163,348.684357 983.369568,324.437378 1000.936462,302.880676 
	C1009.856567,291.934631 1020.474670,282.372284 1031.094727,272.069031 
	C1042.482422,271.968292 1053.102051,271.891846 1063.718018,272.052887 
	C1066.911377,272.101349 1068.149536,271.117462 1068.053955,267.811401 
	C1067.833252,260.186005 1067.913086,252.551895 1067.870972,244.921310 
	C1096.311890,227.924774 1126.666382,215.823975 1159.343872,210.086121 
	C1172.398315,207.793900 1185.651855,206.627258 1198.820435,204.994919 
	C1215.503906,202.926849 1232.083618,204.351746 1248.752197,205.829712 
	C1269.577881,207.676239 1289.831787,212.081741 1309.576660,218.463577 
	C1328.533203,224.590576 1346.749146,232.640366 1364.000732,242.885681 
	C1383.033203,254.188675 1400.650391,267.203491 1416.307495,282.830963 
	C1442.646240,309.119781 1462.001709,339.718689 1472.977173,375.416138 
	C1477.466309,390.016876 1480.571533,404.874420 1481.027100,420.216766 
	C1481.213257,426.490021 1482.187256,432.778473 1481.909302,439.020172 
	C1480.756714,464.892090 1475.447144,489.813232 1465.182617,513.752258 
	C1457.441895,531.804871 1447.781372,548.756714 1435.324219,563.692871 
	C1424.601929,576.548767 1412.173462,588.068787 1399.859131,599.489014 
	C1382.519531,615.569580 1362.090942,627.091736 1340.768677,637.022949 
	C1319.976562,646.707153 1298.411621,654.218628 1275.731201,657.914734 
	C1262.155273,660.127014 1248.447754,661.697510 1234.741211,662.887573 
	C1224.189941,663.803772 1213.548218,663.677246 1202.476074,663.608154 
	C1204.429565,647.370972 1207.452637,631.601868 1209.096680,615.690308 
	C1210.521973,601.894836 1210.888916,587.932068 1210.725708,574.054932 
	C1210.643799,567.075867 1208.344116,560.122803 1207.509155,553.093689 
	C1215.465454,553.019592 1222.959839,553.001709 1230.454346,553.001282 
	C1279.751831,552.998779 1329.049927,553.100525 1378.345581,552.794373 
	C1381.986572,552.771851 1386.725342,550.757019 1389.006836,548.036072 
	C1393.642090,542.507874 1394.730103,535.556946 1391.202515,528.718811 
	C1387.927612,522.370605 1382.463501,519.934265 1375.368286,519.947815 
	C1324.405640,520.045288 1273.442505,520.011292 1222.479614,519.992554 
	C1208.659546,519.987427 1194.839600,519.891357 1180.775391,519.601257 
	C1171.289917,513.941589 1161.037476,511.677277 1150.590942,511.131134 
	C1130.536865,510.082581 1111.031006,513.636536 1091.520264,519.902954 
	C1081.225464,519.979553 1071.361450,520.501343 1061.571167,519.873230 
	C1048.715820,519.048584 1042.034058,526.908447 1041.486084,539.028381 
	C1027.287598,545.813416 1013.438354,552.517517 999.618164,559.281067 
	C998.941528,559.612183 998.519226,560.462891 997.978516,561.071655 
M1266.500000,450.000000 
	C1303.996826,450.000000 1341.493774,450.001678 1378.990601,449.998322 
	C1384.960083,449.997772 1390.000244,446.654602 1391.882812,441.120880 
	C1395.828003,429.523529 1390.389771,416.931702 1374.968262,416.946655 
	C1269.977051,417.048584 1164.985962,416.999969 1059.994751,417.000000 
	C1059.494751,417.000000 1058.993042,416.972137 1058.495117,417.004852 
	C1046.992554,417.760803 1042.600098,424.415344 1042.129272,434.084503 
	C1041.635376,444.228760 1048.036377,449.999847 1058.517456,449.999878 
	C1127.511597,450.000183 1196.505859,450.000000 1266.500000,450.000000 
M1185.500000,308.000000 
	C1142.503784,308.000000 1099.507446,308.008179 1056.511230,307.989441 
	C1051.307495,307.987183 1047.489258,310.016846 1044.746948,314.607330 
	C1038.394409,325.241180 1043.924438,341.224091 1060.493774,341.170593 
	C1164.817017,340.833710 1269.141724,341.007568 1373.466064,340.958679 
	C1376.223145,340.957367 1379.025146,340.552216 1381.728394,339.972443 
	C1389.490601,338.307648 1393.955688,330.716003 1392.991821,321.127899 
	C1392.241089,313.659698 1385.992798,308.000977 1378.483398,308.000793 
	C1314.488892,307.999420 1250.494507,308.000000 1185.500000,308.000000 
z"/>
<path fill="#FCEDEB" opacity="1.000000" stroke="none" 
	d="
M1407.474609,208.978607 
	C1413.597778,217.473450 1419.957031,225.623657 1424.807617,234.589966 
	C1430.008179,244.203262 1429.347290,244.205200 1439.846680,242.897385 
	C1450.684814,241.547363 1461.599487,240.631363 1472.508667,240.078247 
	C1485.611938,239.413864 1498.771362,238.644043 1511.859375,239.146011 
	C1537.743774,240.138718 1563.002563,244.421295 1586.521118,256.218719 
	C1608.666260,267.327362 1626.373901,283.679932 1641.766602,302.704590 
	C1656.564575,320.994049 1668.629639,341.130249 1679.348145,361.982697 
	C1691.093994,384.833496 1700.635986,408.682922 1703.635254,434.411896 
	C1705.027954,446.359283 1705.171997,458.663208 1704.083496,470.642120 
	C1702.196899,491.407990 1698.910522,512.046631 1696.222778,532.740112 
	C1696.181152,533.060852 1696.287842,533.400879 1696.406738,534.265076 
	C1687.703735,549.833069 1677.613159,563.830505 1665.907227,576.826294 
	C1651.582397,592.729858 1635.112915,605.877319 1617.603638,617.924561 
	C1613.334106,620.862122 1607.912476,623.171997 1605.325317,627.237183 
	C1602.253174,632.064697 1601.174683,638.384583 1600.093750,644.217468 
	C1595.147583,670.906372 1595.841553,697.917786 1596.040527,724.884827 
	C1596.058472,727.312622 1596.645630,729.736267 1596.570435,732.648438 
	C1591.082642,736.768738 1585.992676,740.402344 1580.902832,744.035950 
	C1570.700684,739.711304 1560.010620,736.251953 1550.418823,730.844604 
	C1538.218750,723.966858 1526.754883,715.730347 1515.254028,707.679016 
	C1501.580933,698.106750 1491.396362,685.173706 1482.215942,671.455811 
	C1478.784058,666.327698 1474.488403,663.938904 1468.258423,663.914307 
	C1455.821899,663.865295 1443.265991,664.289978 1430.982666,662.744446 
	C1415.152100,660.752747 1399.541138,657.017639 1383.833130,654.046936 
	C1383.077026,653.903931 1382.296021,653.892334 1380.290283,653.702698 
	C1385.791748,650.065552 1390.579102,647.308411 1394.907837,643.958618 
	C1405.803223,635.527466 1416.650146,627.019165 1427.228271,618.196167 
	C1446.370728,602.229919 1461.496338,582.770630 1474.656006,561.781372 
	C1489.793335,537.637817 1500.114624,511.569763 1506.175415,483.626160 
	C1510.956055,461.585358 1512.180542,439.335785 1510.669678,417.120697 
	C1509.578247,401.073822 1506.638428,384.902222 1502.330200,369.395477 
	C1498.075684,354.081818 1491.798828,339.192688 1485.074219,324.738312 
	C1477.121826,307.644409 1466.274170,292.226685 1454.237061,277.625610 
	C1434.137573,253.244507 1410.572510,233.010208 1383.499023,216.795715 
	C1382.656494,216.291092 1381.871582,215.690125 1379.809448,214.277451 
	C1389.983032,212.303650 1398.514771,210.648422 1407.474609,208.978607 
z"/>
<path fill="#F8C5BF" opacity="1.000000" stroke="none" 
	d="
M998.114868,561.377686 
	C998.519226,560.462891 998.941528,559.612183 999.618164,559.281067 
	C1013.438354,552.517517 1027.287598,545.813416 1041.654053,539.367798 
	C1045.542725,550.908508 1049.972534,553.356201 1060.694824,553.110901 
	C1078.502075,552.703491 1096.325562,552.981934 1114.142212,553.003906 
	C1145.110596,553.042175 1176.079102,553.105286 1207.047363,553.157959 
	C1208.344116,560.122803 1210.643799,567.075867 1210.725708,574.054932 
	C1210.888916,587.932068 1210.521973,601.894836 1209.096680,615.690308 
	C1207.452637,631.601868 1204.429565,647.370972 1202.009033,663.639465 
	C1198.337769,668.227966 1194.244995,672.083191 1191.061279,676.581665 
	C1178.173340,694.791443 1161.949219,709.362854 1143.209595,721.225647 
	C1123.492065,733.707397 1102.263428,742.943542 1080.074829,750.043030 
	C1079.520752,750.220276 1078.941040,750.317139 1078.044922,750.529175 
	C1082.202759,726.552856 1081.537231,702.650391 1080.714844,678.873596 
	C1080.189209,663.676025 1077.132446,648.546021 1074.847046,633.440674 
	C1074.117310,628.618164 1070.967407,625.202698 1066.798584,622.199585 
	C1053.068115,612.308777 1039.109741,602.589661 1026.389771,591.486084 
	C1016.144958,582.543091 1007.568054,571.689514 998.114868,561.377686 
z"/>
<path fill="#FCEDEB" opacity="1.000000" stroke="none" 
	d="
M1068.387939,206.997009 
	C1068.034424,197.974960 1068.043091,188.936813 1068.102539,179.428925 
	C1070.412598,178.481262 1072.756836,178.245697 1074.918579,177.488693 
	C1103.084961,167.624893 1132.005249,160.635330 1161.469360,156.325760 
	C1179.966675,153.620224 1198.713867,152.550247 1217.374146,151.061432 
	C1226.468262,150.335846 1235.633545,149.835495 1244.743042,150.087158 
	C1281.104736,151.091660 1316.959961,155.382660 1350.971069,169.269638 
	C1358.888916,172.502472 1366.225708,177.158066 1373.925415,181.477463 
	C1364.004517,185.179184 1353.897949,188.324142 1344.014648,192.059784 
	C1339.901489,193.614487 1336.425415,193.437302 1332.482666,191.842484 
	C1311.655029,183.417786 1289.972656,178.385406 1267.797607,174.837860 
	C1246.296143,171.398071 1224.670898,169.815765 1203.096924,171.286972 
	C1183.215088,172.642822 1163.339600,175.580948 1143.748291,179.323456 
	C1120.280640,183.806458 1098.043457,192.506439 1076.513550,202.877380 
	C1073.878296,204.146713 1071.335693,205.608353 1068.387939,206.997009 
z"/>
<path fill="#FCEDEB" opacity="1.000000" stroke="none" 
	d="
M945.060303,334.617859 
	C944.605164,333.585297 944.042542,332.230255 944.039062,330.873779 
	C943.989380,311.586365 944.015381,292.298737 944.078125,272.551453 
	C957.446655,272.063477 970.760132,272.035217 984.542847,272.016022 
	C980.053650,278.534821 974.547424,284.704620 970.251770,291.625763 
	C961.558044,305.633148 953.520752,320.047913 945.060303,334.617859 
z"/>
<path fill="#F8A299" opacity="1.000000" stroke="none" 
	d="
M1067.573975,245.087814 
	C1067.913086,252.551895 1067.833252,260.186005 1068.053955,267.811401 
	C1068.149536,271.117462 1066.911377,272.101349 1063.718018,272.052887 
	C1053.102051,271.891846 1042.482422,271.968292 1031.392578,271.912415 
	C1041.085449,264.195984 1051.230591,256.494812 1061.432495,248.869690 
	C1063.260376,247.503479 1065.322876,246.451401 1067.573975,245.087814 
z"/>
<path fill="#FFFFFF" opacity="1.000000" stroke="none" 
	d="
M1581.080444,744.362732 
	C1585.992676,740.402344 1591.082642,736.768738 1596.503662,733.077942 
	C1597.388550,738.849854 1597.942139,744.678894 1598.517212,750.733582 
	C1592.784546,748.726013 1587.021240,746.707764 1581.080444,744.362732 
z"/>
<path fill="#F8C5BF" opacity="1.000000" stroke="none" 
	d="
M1180.789551,734.024902 
	C1180.992065,734.187927 1181.074951,734.368103 1181.157837,734.548279 
	C1181.045410,734.537415 1180.932983,734.526550 1180.696411,734.389404 
	C1180.572266,734.263123 1180.669922,734.042114 1180.789551,734.024902 
z"/>
<path fill="#FFFFFF" opacity="1.000000" stroke="none" 
	d="
M756.089966,271.871124 
	C765.573547,278.958801 775.812500,284.420349 787.669128,286.269104 
	C792.179993,286.972473 796.727173,287.905762 801.261108,287.924438 
	C836.191589,288.068451 871.122803,288.013458 906.465332,288.411102 
	C904.980530,291.302399 903.276245,293.980011 901.158203,296.275757 
	C880.384399,318.791931 869.423462,345.728180 867.244751,375.884918 
	C865.653137,397.915649 866.908752,420.027527 871.422424,441.827087 
	C879.392395,480.319580 892.784973,516.891968 910.061707,552.113464 
	C910.374451,553.852539 910.953613,555.590820 910.959045,557.330872 
	C911.017456,575.891296 910.984863,594.451904 910.575745,613.540710 
	C885.426392,631.900513 860.327881,649.269043 836.017273,667.677917 
	C803.651001,692.186951 771.705872,717.264954 739.961060,742.576660 
	C723.641785,755.588806 707.726929,769.180603 692.394775,783.339294 
	C674.913879,799.482239 658.280212,816.542847 641.298523,833.225159 
	C640.118958,834.383911 639.121338,835.726074 638.015259,836.961670 
	C629.065674,846.960205 620.110413,856.953613 611.086853,866.487854 
	C611.011230,828.863037 610.574829,791.691040 611.250183,754.539307 
	C611.465881,742.673462 603.092957,735.892700 592.461975,735.908081 
	C487.469391,736.060059 382.476471,736.000000 277.483673,736.000000 
	C276.650391,736.000000 275.815887,735.970398 274.984009,736.004700 
	C265.320038,736.403320 259.000336,743.005615 259.000244,752.695862 
	C258.999695,802.025818 258.999969,851.355774 259.000000,900.685730 
	C259.000000,912.647461 265.404907,918.999146 277.479156,918.999329 
	C373.639252,919.000488 469.799316,918.999084 565.959412,919.006592 
	C567.955688,919.006714 569.952026,919.104553 571.789062,919.444763 
	C566.797791,927.265686 561.504395,934.547119 557.230591,942.384583 
	C548.507690,958.381104 540.333679,974.676941 531.933533,990.849487 
	C530.437256,990.899658 528.941040,990.993591 527.444763,990.993713 
	C439.321136,991.000732 351.197449,991.036865 263.073883,990.968262 
	C245.920441,990.954895 230.010788,980.892456 225.881149,963.459778 
	C225.473068,961.737061 225.036011,959.961609 225.035751,958.210510 
	C225.002029,729.822083 225.007935,501.433624 225.506805,272.536438 
	C239.977798,271.968964 253.953888,271.910278 268.400604,271.901672 
	C269.870453,271.967651 270.869659,271.997467 271.868866,271.997467 
	C431.778259,271.999664 591.687622,272.000031 751.597046,271.994446 
	C753.094666,271.994385 754.592346,271.914032 756.089966,271.871124 
M487.500000,436.000000 
	C566.963745,436.000000 646.427429,436.013702 725.891113,435.955505 
	C729.490173,435.952881 733.144043,435.583435 736.675964,434.892334 
	C744.154968,433.428986 749.155212,423.948090 747.252869,416.490997 
	C745.356873,409.058899 740.717407,404.033691 728.539001,404.030182 
	C570.611267,403.984589 412.683472,404.000031 254.755722,404.000214 
	C253.756180,404.000214 252.753723,403.953491 251.757584,404.012329 
	C244.616821,404.434082 238.196167,408.722198 236.280823,414.323059 
	C234.205582,420.391479 236.163162,428.479187 242.176971,432.314514 
	C245.915878,434.699097 251.078094,435.840118 255.606018,435.852234 
	C332.570251,436.058380 409.535217,436.000000 487.500000,436.000000 
M747.977539,625.671021 
	C744.223206,613.628296 740.677307,611.000000 728.183411,611.000000 
	C570.188660,610.999939 412.193939,611.000000 254.199219,611.000305 
	C252.699280,611.000305 251.182907,610.860535 249.702393,611.030945 
	C244.717331,611.604797 240.486282,613.729492 237.996674,618.185059 
	C232.067688,628.795959 238.183090,642.059998 252.028046,642.052795 
	C411.022675,641.969910 570.017395,642.000000 729.012085,641.999817 
	C740.936035,641.999817 745.426453,638.331909 747.977539,625.671021 
M387.500000,510.000000 
	C386.000183,510.000000 384.500366,510.000000 383.000549,510.000000 
	C341.837280,510.000031 300.674011,509.993896 259.510742,510.006165 
	C252.740524,510.008179 246.977280,513.676941 245.047455,519.113586 
	C241.001511,530.511597 248.524338,540.992432 260.820923,540.993408 
	C393.643280,541.003906 526.465637,541.000000 659.288025,540.999817 
	C659.954651,540.999817 660.640015,541.098511 661.284912,540.979248 
	C666.740112,539.970642 671.819702,538.404907 674.609009,532.895996 
	C680.341736,521.573730 673.238464,510.002350 660.477539,510.001862 
	C569.818359,509.998322 479.159180,510.000000 387.500000,510.000000 
z"/>
<path fill="#F8C5BF" opacity="1.000000" stroke="none" 
	d="
M611.156860,866.948608 
	C620.110413,856.953613 629.065674,846.960205 638.015259,836.961670 
	C639.121338,835.726074 640.118958,834.383911 641.298523,833.225159 
	C658.280212,816.542847 674.913879,799.482239 692.394775,783.339294 
	C707.726929,769.180603 723.641785,755.588806 739.961060,742.576660 
	C771.705872,717.264954 803.651001,692.186951 836.017273,667.677917 
	C860.327881,649.269043 885.426392,631.900513 910.511841,614.001221 
	C910.899658,615.764343 910.993591,617.595032 910.993713,619.425781 
	C911.000671,730.248291 911.000854,841.070740 910.998413,951.893250 
	C910.998169,962.114929 908.440247,971.654053 901.225281,979.037476 
	C893.864319,986.570251 884.444885,990.908569 873.839844,990.919434 
	C760.184509,991.036133 646.528992,990.975281 532.403564,990.906311 
	C540.333679,974.676941 548.507690,958.381104 557.230591,942.384583 
	C561.504395,934.547119 566.797791,927.265686 572.256958,919.379395 
	C579.869751,919.017334 586.855347,918.991577 593.840881,919.003967 
	C604.079773,919.022095 611.709106,911.031067 611.175476,901.857239 
	C610.500977,890.259888 611.104614,878.588196 611.156860,866.948608 
z"/>
<path fill="#F8A299" opacity="1.000000" stroke="none" 
	d="
M755.917542,271.589355 
	C754.592346,271.914032 753.094666,271.994385 751.597046,271.994446 
	C591.687622,272.000031 431.778259,271.999664 271.868866,271.997467 
	C270.869659,271.997467 269.870453,271.967651 268.421143,271.443665 
	C267.980682,265.608368 267.995331,260.281158 267.999207,254.953934 
	C268.033173,208.340927 268.065186,161.727921 268.097748,115.114906 
	C270.262817,115.076599 272.427917,115.004852 274.592987,115.004776 
	C424.902191,114.999519 575.211426,115.000000 725.520630,115.000000 
	C727.815735,115.000000 730.110840,115.000000 732.000000,115.000000 
	C732.000000,149.628220 732.033630,183.701538 731.984802,217.774765 
	C731.962830,233.092743 735.390442,247.350723 744.934082,259.622345 
	C748.179749,263.795868 752.121460,267.428070 755.917542,271.589355 
z"/>
<path fill="#FCEDEB" opacity="1.000000" stroke="none" 
	d="
M910.414856,551.856323 
	C892.784973,516.891968 879.392395,480.319580 871.422424,441.827087 
	C866.908752,420.027527 865.653137,397.915649 867.244751,375.884918 
	C869.423462,345.728180 880.384399,318.791931 901.158203,296.275757 
	C903.276245,293.980011 904.980530,291.302399 906.929810,288.468018 
	C908.138123,288.134064 909.293335,288.134064 910.724182,288.134064 
	C910.818665,289.478790 910.988281,290.767181 910.988464,292.055573 
	C911.001038,377.412781 911.000793,462.769989 910.990356,548.127197 
	C910.990173,549.284546 910.845337,550.441895 910.414856,551.856323 
z"/>
<path fill="#F57466" opacity="1.000000" stroke="none" 
	d="
M267.627136,115.080231 
	C268.065186,161.727921 268.033173,208.340927 267.999207,254.953934 
	C267.995331,260.281158 267.980682,265.608368 267.950500,271.393585 
	C253.953888,271.910278 239.977798,271.968964 225.540527,272.076782 
	C225.053467,230.498215 224.978012,188.870499 225.033798,147.242935 
	C225.049301,135.682816 235.198761,121.545296 246.671082,118.145317 
	C253.229736,116.201576 260.310730,116.020348 267.627136,115.080231 
z"/>
<path fill="#F8A299" opacity="1.000000" stroke="none" 
	d="
M820.246460,210.746338 
	C835.841614,225.621017 851.185913,240.244415 867.337769,255.637405 
	C864.793701,255.810593 863.402710,255.986633 862.011597,255.987793 
	C841.040771,256.005341 820.069946,256.025543 799.099182,255.991196 
	C784.098389,255.966599 768.540588,242.865891 766.079956,228.031387 
	C765.380371,223.813889 765.072083,219.488342 765.046692,215.209610 
	C764.937317,196.795654 765.000000,178.380692 765.000000,159.107910 
	C770.197266,163.719482 774.818481,167.618454 779.210876,171.760208 
	C787.786438,179.846497 796.210999,188.092667 804.743164,196.225296 
	C809.782593,201.028809 814.908569,205.741531 820.246460,210.746338 
z"/>
<path fill="#B35248" opacity="1.000000" stroke="none" 
	d="
M1266.000000,450.000000 
	C1196.505859,450.000000 1127.511597,450.000183 1058.517456,449.999878 
	C1048.036377,449.999847 1041.635376,444.228760 1042.129272,434.084503 
	C1042.600098,424.415344 1046.992554,417.760803 1058.495117,417.004852 
	C1058.993042,416.972137 1059.494751,417.000000 1059.994751,417.000000 
	C1164.985962,416.999969 1269.977051,417.048584 1374.968262,416.946655 
	C1390.389771,416.931702 1395.828003,429.523529 1391.882812,441.120880 
	C1390.000244,446.654602 1384.960083,449.997772 1378.990601,449.998322 
	C1341.493774,450.001678 1303.996826,450.000000 1266.000000,450.000000 
z"/>
<path fill="#B35248" opacity="1.000000" stroke="none" 
	d="
M1186.000000,308.000000 
	C1250.494507,308.000000 1314.488892,307.999420 1378.483398,308.000793 
	C1385.992798,308.000977 1392.241089,313.659698 1392.991821,321.127899 
	C1393.955688,330.716003 1389.490601,338.307648 1381.728394,339.972443 
	C1379.025146,340.552216 1376.223145,340.957367 1373.466064,340.958679 
	C1269.141724,341.007568 1164.817017,340.833710 1060.493774,341.170593 
	C1043.924438,341.224091 1038.394409,325.241180 1044.746948,314.607330 
	C1047.489258,310.016846 1051.307495,307.987183 1056.511230,307.989441 
	C1099.507446,308.008179 1142.503784,308.000000 1186.000000,308.000000 
z"/>
<path fill="#B35248" opacity="1.000000" stroke="none" 
	d="
M1207.509277,553.093628 
	C1176.079102,553.105286 1145.110596,553.042175 1114.142212,553.003906 
	C1096.325562,552.981934 1078.502075,552.703491 1060.694824,553.110901 
	C1049.972534,553.356201 1045.542725,550.908508 1042.008911,539.298706 
	C1042.034058,526.908447 1048.715820,519.048584 1061.571167,519.873230 
	C1071.361450,520.501343 1081.225464,519.979553 1091.986450,519.963623 
	C1122.283936,519.917664 1151.651733,519.877319 1181.019531,519.837036 
	C1194.839600,519.891357 1208.659546,519.987427 1222.479614,519.992554 
	C1273.442505,520.011292 1324.405640,520.045288 1375.368286,519.947815 
	C1382.463501,519.934265 1387.927612,522.370605 1391.202515,528.718811 
	C1394.730103,535.556946 1393.642090,542.507874 1389.006836,548.036072 
	C1386.725342,550.757019 1381.986572,552.771851 1378.345581,552.794373 
	C1329.049927,553.100525 1279.751831,552.998779 1230.454346,553.001282 
	C1222.959839,553.001709 1215.465454,553.019592 1207.509277,553.093628 
z"/>
<path fill="#F8C5BF" opacity="1.000000" stroke="none" 
	d="
M1180.775391,519.601257 
	C1151.651733,519.877319 1122.283936,519.917664 1092.449951,519.897217 
	C1111.031006,513.636536 1130.536865,510.082581 1150.590942,511.131134 
	C1161.037476,511.677277 1171.289917,513.941589 1180.775391,519.601257 
z"/>
<path fill="#EE1700" opacity="1.000000" stroke="none" 
	d="
M611.086914,866.487915 
	C611.104614,878.588196 610.500977,890.259888 611.175476,901.857239 
	C611.709106,911.031067 604.079773,919.022095 593.840881,919.003967 
	C586.855347,918.991577 579.869751,919.017334 572.416260,919.091431 
	C569.952026,919.104553 567.955688,919.006714 565.959412,919.006592 
	C469.799316,918.999084 373.639252,919.000488 277.479156,918.999329 
	C265.404907,918.999146 259.000000,912.647461 259.000000,900.685730 
	C258.999969,851.355774 258.999695,802.025818 259.000244,752.695862 
	C259.000336,743.005615 265.320038,736.403320 274.984009,736.004700 
	C275.815887,735.970398 276.650391,736.000000 277.483673,736.000000 
	C382.476471,736.000000 487.469391,736.060059 592.461975,735.908081 
	C603.092957,735.892700 611.465881,742.673462 611.250183,754.539307 
	C610.574829,791.691040 611.011230,828.863037 611.086914,866.487915 
M399.500000,887.000000 
	C458.910461,887.000000 518.320923,887.000000 577.697021,887.000000 
	C577.697021,846.692078 577.697021,806.970093 577.697021,767.292542 
	C482.352478,767.292542 387.311218,767.292542 292.302917,767.292542 
	C292.302917,807.307861 292.302917,847.029846 292.302917,887.000000 
	C327.903503,887.000000 363.201752,887.000000 399.500000,887.000000 
z"/>
<path fill="#F57466" opacity="1.000000" stroke="none" 
	d="
M487.000000,436.000000 
	C409.535217,436.000000 332.570251,436.058380 255.606018,435.852234 
	C251.078094,435.840118 245.915878,434.699097 242.176971,432.314514 
	C236.163162,428.479187 234.205582,420.391479 236.280823,414.323059 
	C238.196167,408.722198 244.616821,404.434082 251.757584,404.012329 
	C252.753723,403.953491 253.756180,404.000214 254.755722,404.000214 
	C412.683472,404.000031 570.611267,403.984589 728.539001,404.030182 
	C740.717407,404.033691 745.356873,409.058899 747.252869,416.490997 
	C749.155212,423.948090 744.154968,433.428986 736.675964,434.892334 
	C733.144043,435.583435 729.490173,435.952881 725.891113,435.955505 
	C646.427429,436.013702 566.963745,436.000000 487.000000,436.000000 
z"/>
<path fill="#F57466" opacity="1.000000" stroke="none" 
	d="
M747.984253,626.085510 
	C745.426453,638.331909 740.936035,641.999817 729.012085,641.999817 
	C570.017395,642.000000 411.022675,641.969910 252.028046,642.052795 
	C238.183090,642.059998 232.067688,628.795959 237.996674,618.185059 
	C240.486282,613.729492 244.717331,611.604797 249.702393,611.030945 
	C251.182907,610.860535 252.699280,611.000305 254.199219,611.000305 
	C412.193939,611.000000 570.188660,610.999939 728.183411,611.000000 
	C740.677307,611.000000 744.223206,613.628296 747.984253,626.085510 
z"/>
<path fill="#F57466" opacity="1.000000" stroke="none" 
	d="
M388.000000,510.000000 
	C479.159180,510.000000 569.818359,509.998322 660.477539,510.001862 
	C673.238464,510.002350 680.341736,521.573730 674.609009,532.895996 
	C671.819702,538.404907 666.740112,539.970642 661.284912,540.979248 
	C660.640015,541.098511 659.954651,540.999817 659.288025,540.999817 
	C526.465637,541.000000 393.643280,541.003906 260.820923,540.993408 
	C248.524338,540.992432 241.001511,530.511597 245.047455,519.113586 
	C246.977280,513.676941 252.740524,510.008179 259.510742,510.006165 
	C300.674011,509.993896 341.837280,510.000031 383.000549,510.000000 
	C384.500366,510.000000 386.000183,510.000000 388.000000,510.000000 
z"/>
<path fill="#FFFFFF" opacity="1.000000" stroke="none" 
	d="
M399.000000,887.000000 
	C363.201752,887.000000 327.903503,887.000000 292.302917,887.000000 
	C292.302917,847.029846 292.302917,807.307861 292.302917,767.292542 
	C387.311218,767.292542 482.352478,767.292542 577.697021,767.292542 
	C577.697021,806.970093 577.697021,846.692078 577.697021,887.000000 
	C518.320923,887.000000 458.910461,887.000000 399.000000,887.000000 
z"/>
</svg>