<svg version="1.1" id="Layer_1" xmlns="http://www.w3.org/2000/svg" xmlns:xlink="http://www.w3.org/1999/xlink" x="0px" y="0px"
	 width="100%" viewBox="0 0 1976 1924" enable-background="new 0 0 1976 1924" xml:space="preserve">
<path fill="#FFFFFF" opacity="1.000000" stroke="none" 
	d="
M1071.000000,1.000000 
	C1372.935181,1.000000 1674.870361,1.000000 1977.000000,1.000000 
	C1977.000000,331.697571 1977.000000,662.395142 1976.531372,993.546387 
	C1873.144653,994.000000 1770.226562,994.000000 1666.878662,994.000000 
	C1666.878662,929.074463 1666.878662,864.682190 1666.878662,799.862915 
	C1595.724487,799.862915 1524.999756,799.862915 1453.836304,799.862915 
	C1453.836304,786.701782 1453.836304,773.963928 1453.836304,761.000000 
	C1451.585327,761.000000 1449.773804,761.000000 1447.962158,761.000000 
	C1402.637451,761.000000 1357.312622,760.967773 1311.988159,761.068054 
	C1308.749756,761.075195 1306.480713,760.161499 1304.212158,757.847107 
	C1300.176636,753.729980 1296.043457,749.589539 1291.408569,746.200989 
	C1276.778809,735.505676 1260.812012,727.877869 1242.678955,724.811340 
	C1224.606567,721.755066 1206.856934,722.125244 1189.160278,726.932678 
	C1170.770996,731.928162 1154.962769,741.408752 1140.521973,754.091431 
	C1111.040771,753.955322 1082.022461,753.894287 1053.002197,753.375183 
	C1053.001709,738.000366 1053.002808,723.083557 1053.467529,708.093872 
	C1102.860474,708.020874 1151.790161,708.020874 1200.704956,708.020874 
	C1200.704956,684.043823 1200.704956,660.644836 1200.704956,637.000000 
	C1198.601685,637.000000 1196.791382,637.003174 1194.981079,636.999573 
	C1167.654541,636.944580 1140.328125,636.888672 1113.000732,636.374878 
	C1113.000366,621.333618 1113.000977,606.750305 1113.464844,592.092529 
	C1142.859985,592.018005 1171.791748,592.018005 1200.703857,592.018005 
	C1200.703857,568.041382 1200.703857,544.642334 1200.703857,521.000000 
	C1186.933105,521.000000 1173.457153,521.014832 1159.981323,520.997131 
	C1123.988892,520.949951 1087.996460,520.888794 1052.002197,520.375122 
	C1052.001709,505.000336 1052.002808,490.083588 1052.467529,475.093872 
	C1102.194092,475.020935 1151.457153,475.020935 1200.704590,475.020935 
	C1200.704590,451.043091 1200.704590,427.643921 1200.704590,404.000031 
	C1198.434082,404.000031 1196.456909,404.002411 1194.479858,403.999695 
	C1154.320923,403.944641 1114.162109,403.889008 1074.001709,403.375549 
	C1074.001099,388.000580 1074.002197,373.083527 1074.466553,358.092834 
	C1116.860352,358.019196 1158.790771,358.019196 1200.704346,358.019196 
	C1200.704346,334.042633 1200.704346,310.643524 1200.704346,287.000031 
	C1198.436646,287.000031 1196.458008,287.002380 1194.479370,286.999664 
	C1154.320679,286.944611 1114.161865,286.889008 1074.001709,286.375549 
	C1074.001099,271.333923 1074.002075,256.750214 1074.466553,242.092865 
	C1116.860718,242.019180 1158.791626,242.019180 1200.704956,242.019180 
	C1200.704956,200.042953 1200.704956,158.644913 1200.704956,117.000076 
	C1198.435059,117.000076 1196.458008,117.002373 1194.481079,116.999733 
	C1153.321777,116.944633 1112.162598,116.888962 1071.001709,116.375198 
	C1071.000122,77.611320 1071.000122,39.305660 1071.000000,1.000000 
z"/>
<path fill="#FFFFFF" opacity="1.000000" stroke="none" 
	d="
M774.000000,1925.000000 
	C516.417908,1925.000000 258.835846,1925.000000 1.000000,1925.000000 
	C1.000000,1756.973267 1.000000,1588.946289 1.453501,1420.459717 
	C5.255117,1420.054199 8.603232,1420.108276 11.808287,1420.463623 
	C10.947262,1421.880615 10.312275,1423.061279 9.498291,1424.101807 
	C2.323896,1433.273560 3.489870,1447.038818 11.087156,1455.374512 
	C15.414504,1460.122437 20.364153,1464.459839 25.592356,1468.201050 
	C41.858402,1479.841187 60.381573,1487.121948 79.291786,1492.696411 
	C105.147110,1500.317871 131.379562,1506.771484 157.666977,1512.777832 
	C176.003784,1516.967529 194.654465,1519.884766 213.256775,1522.780273 
	C229.409744,1525.294678 245.683197,1527.050293 261.918793,1529.014038 
	C278.972473,1531.076904 296.019989,1533.242310 313.115875,1534.889038 
	C327.611206,1536.285156 342.173309,1536.982422 356.702759,1538.031616 
	C374.692535,1539.330688 392.668182,1540.854614 410.670380,1541.943481 
	C426.063965,1542.874512 441.483002,1543.426147 456.897095,1543.964111 
	C470.512787,1544.439575 484.138550,1544.992676 497.757599,1544.939453 
	C541.207520,1544.769531 584.657898,1544.461670 628.104553,1543.923462 
	C641.520752,1543.757324 654.927307,1542.712891 668.335449,1542.016968 
	C687.201843,1541.037720 706.066833,1540.028564 724.930298,1538.993652 
	C736.509033,1538.358398 748.091370,1537.755493 759.656921,1536.926147 
	C764.404175,1536.585693 769.111450,1535.687012 773.910217,1535.503296 
	C773.989014,1665.642822 773.994507,1795.321411 774.000000,1925.000000 
z"/>
<path fill="#F50007" opacity="1.000000" stroke="none" 
	d="
M774.468628,1925.000000 
	C773.994507,1795.321411 773.989014,1665.642822 773.981689,1535.036621 
	C773.986572,1478.048218 774.000000,1421.987549 773.992554,1365.926758 
	C773.991455,1357.945679 773.889404,1349.964600 773.907959,1341.521118 
	C773.981812,1160.813843 773.981812,980.568970 773.981812,799.925842 
	C784.994141,799.925842 795.459900,799.925842 806.396973,799.951416 
	C867.060120,799.976929 927.251953,799.976929 988.037537,799.976929 
	C988.037537,786.742249 988.037537,774.180420 988.037537,761.000000 
	C990.570190,761.000000 992.514526,761.000000 994.458801,761.000000 
	C1038.403320,761.000000 1082.348877,760.860291 1126.291382,761.152588 
	C1132.786255,761.195740 1137.524048,759.533447 1140.984619,754.166382 
	C1154.962769,741.408752 1170.770996,731.928162 1189.160278,726.932678 
	C1206.856934,722.125244 1224.606567,721.755066 1242.678955,724.811340 
	C1260.812012,727.877869 1276.778809,735.505676 1291.408569,746.200989 
	C1296.043457,749.589539 1300.176636,753.729980 1304.212158,757.847107 
	C1306.480713,760.161499 1308.749756,761.075195 1311.988159,761.068054 
	C1357.312622,760.967773 1402.637451,761.000000 1447.962158,761.000000 
	C1449.773804,761.000000 1451.585327,761.000000 1453.836304,761.000000 
	C1453.836304,773.963928 1453.836304,786.701782 1453.836304,799.862915 
	C1524.999756,799.862915 1595.724487,799.862915 1666.878662,799.862915 
	C1666.878662,864.682190 1666.878662,929.074463 1666.878662,994.000000 
	C1770.226562,994.000000 1873.144653,994.000000 1976.531372,994.000000 
	C1977.000000,1278.354248 1977.000000,1562.708496 1976.531372,1847.531372 
	C1873.107056,1848.000000 1770.151489,1848.000000 1667.000000,1848.000000 
	C1667.000000,1874.097778 1667.000000,1899.548950 1667.000000,1925.000000 
	C1369.645752,1925.000000 1072.291504,1925.000000 774.468628,1925.000000 
M1282.730835,794.231201 
	C1279.757202,790.924072 1276.999634,787.387573 1273.774902,784.346863 
	C1251.973022,763.789551 1226.590942,757.453247 1197.848022,766.134033 
	C1181.597900,771.041931 1168.886108,781.122742 1158.346802,795.140381 
	C1156.038574,799.762207 1152.498047,801.173340 1147.208984,801.137390 
	C1109.390137,800.880127 1071.568604,801.000000 1033.747925,801.000000 
	C1031.963623,801.000000 1030.179321,801.000000 1028.243896,801.000000 
	C1028.243896,839.514832 1028.243896,877.570190 1028.243896,915.774048 
	C1156.854980,915.774048 1285.222168,915.774048 1413.759766,915.774048 
	C1413.759766,877.492493 1413.759766,839.437195 1413.759766,801.000000 
	C1411.731079,801.000000 1409.937134,801.000000 1408.143188,801.000000 
	C1370.489136,801.000000 1332.833374,800.822327 1295.182861,801.186646 
	C1289.365234,801.242981 1285.811157,799.361511 1282.730835,794.231201 
M1938.000000,1057.500000 
	C1938.000000,1049.737671 1938.000000,1041.975342 1938.000000,1034.316162 
	C1588.985107,1034.316162 1240.611816,1034.316162 892.320740,1034.316162 
	C892.320740,1292.345215 892.320740,1550.057861 892.320740,1807.683838 
	C1241.014771,1807.683838 1589.388062,1807.683838 1938.000000,1807.683838 
	C1938.000000,1557.745239 1938.000000,1308.122681 1938.000000,1057.500000 
M852.000000,1301.500000 
	C852.000000,1199.077637 852.000000,1096.655396 852.000000,993.734070 
	C1111.070312,993.734070 1369.462280,993.734070 1627.749023,993.734070 
	C1627.749023,942.292297 1627.749023,891.351379 1627.749023,840.295288 
	C1569.772583,840.295288 1512.047363,840.295288 1453.821533,840.295288 
	C1453.821533,878.982605 1453.821533,917.377197 1453.821533,955.616089 
	C1298.261719,955.616089 1143.203125,955.616089 987.821228,955.616089 
	C987.821228,916.957825 987.821228,878.682617 987.821228,840.295959 
	C929.771240,840.295959 872.046021,840.295959 814.339539,840.295959 
	C814.339539,1188.983398 814.339539,1537.374634 814.339539,1885.616699 
	C1085.737427,1885.616699 1356.795654,1885.616699 1627.748901,1885.616699 
	C1627.748901,1872.956665 1627.748901,1860.681519 1627.748901,1847.910645 
	C1369.106445,1847.910645 1110.714600,1847.910645 852.000000,1847.910645 
	C852.000000,1665.773438 852.000000,1484.136719 852.000000,1301.500000 
z"/>
<path fill="#B80005" opacity="1.000000" stroke="none" 
	d="
M11.951349,1420.162354 
	C8.603232,1420.108276 5.255117,1420.054199 1.453501,1420.000000 
	C1.000000,1117.303955 1.000000,814.607910 1.363013,511.565704 
	C7.360831,513.121155 12.964113,515.123047 18.636137,516.906250 
	C38.353638,523.105347 58.116459,529.160706 77.822517,535.395691 
	C112.897789,546.493469 147.944199,557.682434 183.386246,568.910950 
	C194.832535,572.476074 205.901306,575.944580 216.956879,579.454590 
	C247.995041,589.308777 279.025208,599.188232 310.067749,609.028564 
	C312.341980,609.749451 314.690155,610.237122 317.349487,610.999939 
	C337.422729,617.617737 357.150452,624.068970 376.999878,630.559937 
	C376.999878,632.513489 376.999908,634.338562 376.999908,636.163635 
	C376.999908,867.944275 376.999420,1099.724854 377.006775,1331.505493 
	C377.006836,1333.667725 377.110870,1335.829956 377.093079,1338.456299 
	C377.019836,1365.833618 377.019836,1392.746826 377.019836,1420.000000 
	C374.512817,1420.000000 372.544983,1420.000000 370.577148,1420.000000 
	C253.029526,1420.000000 135.481903,1419.999146 17.934277,1420.006714 
	C15.939964,1420.006836 13.945659,1420.108276 11.951349,1420.162354 
M320.003143,1138.500000 
	C320.003143,1125.078735 320.003143,1111.657593 320.003143,1098.316162 
	C285.001404,1098.316162 250.620270,1098.316162 216.315735,1098.316162 
	C216.315735,1149.341431 216.315735,1200.047485 216.315735,1250.684814 
	C251.010239,1250.684814 285.391357,1250.684814 320.003143,1250.684814 
	C320.003143,1213.411865 320.003143,1176.455933 320.003143,1138.500000 
M290.500000,831.001831 
	C300.257416,831.001831 310.014832,831.001831 319.699097,831.001831 
	C319.699097,779.670471 319.699097,728.963196 319.699097,678.310425 
	C285.013031,678.310425 250.631958,678.310425 216.310028,678.310425 
	C216.310028,729.329956 216.310028,780.035828 216.310028,831.001648 
	C240.910599,831.001648 265.205292,831.001648 290.500000,831.001831 
M320.003143,956.500000 
	C320.003143,933.751221 320.003143,911.002502 320.003143,888.309631 
	C285.014709,888.309631 250.633636,888.309631 216.309174,888.309631 
	C216.309174,939.328308 216.309174,990.034241 216.309174,1040.691406 
	C250.997025,1040.691406 285.378082,1040.691406 320.003143,1040.691406 
	C320.003143,1012.754089 320.003143,985.127075 320.003143,956.500000 
M122.500000,1250.999634 
	C135.254379,1250.999634 148.008759,1250.999634 160.697754,1250.999634 
	C160.697754,1199.671631 160.697754,1148.966064 160.697754,1098.310425 
	C126.345055,1098.310425 92.298248,1098.310425 58.307098,1098.310425 
	C58.307098,1149.328613 58.307098,1200.033325 58.307098,1250.999634 
	C79.574951,1250.999634 100.537476,1250.999634 122.500000,1250.999634 
M58.000713,724.500000 
	C58.000713,759.907349 58.000713,795.314697 58.000713,830.699341 
	C92.642990,830.699341 126.689713,830.699341 160.706940,830.699341 
	C160.706940,779.690125 160.706940,728.984619 160.706940,678.301086 
	C126.363564,678.301086 92.316833,678.301086 58.000713,678.301086 
	C58.000713,693.568726 58.000713,708.534363 58.000713,724.500000 
M86.500000,1040.999634 
	C111.246780,1040.999634 135.993561,1040.999634 160.706528,1040.999634 
	C160.706528,989.689331 160.706528,938.983765 160.706528,888.301514 
	C126.362732,888.301514 92.316002,888.301514 58.298290,888.301514 
	C58.298290,939.310852 58.298290,990.015625 58.298290,1040.999634 
	C67.562584,1040.999634 76.531288,1040.999634 86.500000,1040.999634 
z"/>
<path fill="#F2EFE3" opacity="1.000000" stroke="none" 
	d="
M377.166351,1337.992188 
	C377.110870,1335.829956 377.006836,1333.667725 377.006775,1331.505493 
	C376.999420,1099.724854 376.999908,867.944275 376.999908,636.163635 
	C376.999908,634.338562 376.999878,632.513489 376.999878,630.559937 
	C357.150452,624.068970 337.422729,617.617737 317.348175,610.542053 
	C317.000916,406.945038 317.000458,203.972519 317.000000,1.000000 
	C352.354218,1.000000 387.708466,1.000000 423.531342,1.468657 
	C424.000031,100.236084 424.000031,198.534851 423.622986,297.069336 
	C423.164795,299.462006 423.012573,301.618927 423.012512,303.775879 
	C423.002045,645.352966 423.002777,986.930115 422.995575,1328.507202 
	C422.995544,1330.669312 422.891052,1332.831421 422.391327,1334.995972 
	C413.880188,1335.335327 405.803619,1335.527832 397.748749,1336.052856 
	C390.875031,1336.500977 384.026184,1337.331177 377.166351,1337.992188 
z"/>
<path fill="#EEE9D9" opacity="1.000000" stroke="none" 
	d="
M183.002686,568.833313 
	C147.944199,557.682434 112.897789,546.493469 77.822517,535.395691 
	C58.116459,529.160706 38.353638,523.105347 18.636137,516.906250 
	C12.964113,515.123047 7.360831,513.121155 1.363013,511.109741 
	C1.000000,353.645782 1.000000,196.291550 1.314301,38.309425 
	C2.074881,37.009148 2.674566,36.392921 2.944365,35.655930 
	C6.824514,25.056780 13.439774,16.412706 23.080286,10.763715 
	C29.938967,6.744776 37.662464,4.201729 45.000000,1.000000 
	C90.687561,1.000000 136.375122,1.000000 182.531342,1.468657 
	C183.000885,190.902649 183.001785,379.867981 183.002686,568.833313 
z"/>
<path fill="#F0ECDE" opacity="1.000000" stroke="none" 
	d="
M183.386246,568.910950 
	C183.001785,379.867981 183.000885,190.902649 183.000000,1.468657 
	C227.354233,1.000000 271.708466,1.000000 316.531342,1.000000 
	C317.000458,203.972519 317.000916,406.945038 317.002686,610.375427 
	C314.690155,610.237122 312.341980,609.749451 310.067749,609.028564 
	C279.025208,599.188232 247.995041,589.308777 216.956879,579.454590 
	C205.901306,575.944580 194.832535,572.476074 183.386246,568.910950 
z"/>
<path fill="#F9F7F1" opacity="1.000000" stroke="none" 
	d="
M805.925659,799.925842 
	C795.459900,799.925842 784.994141,799.925842 773.981812,799.925842 
	C773.981812,980.568970 773.981812,1160.813843 773.487427,1341.526245 
	C768.717346,1341.657349 764.441589,1341.320923 760.091736,1340.521973 
	C760.017578,991.488953 760.017578,642.918274 760.017578,293.897705 
	C746.434448,293.897705 733.363525,293.897705 719.859680,293.897705 
	C719.859680,255.051636 719.859680,216.653427 719.859680,177.833221 
	C711.945740,177.833221 704.474304,177.833221 697.001831,177.375015 
	C697.000488,118.277870 697.000244,59.638935 697.000000,1.000000 
	C741.020874,1.000000 785.041809,1.000000 829.531372,1.468657 
	C830.000793,40.235966 830.001648,78.534615 829.539185,116.909378 
	C821.473389,116.985489 813.870911,116.985489 806.002441,116.985489 
	C806.002441,119.545319 806.002502,121.519073 806.002502,123.492828 
	C806.002502,346.971558 806.002625,570.450317 805.999268,793.929016 
	C805.999207,795.927979 805.951294,797.926880 805.925659,799.925842 
z"/>
<path fill="#FFFFFF" opacity="1.000000" stroke="none" 
	d="
M1667.468628,1925.000000 
	C1667.000000,1899.548950 1667.000000,1874.097778 1667.000000,1848.000000 
	C1770.151489,1848.000000 1873.107056,1848.000000 1976.531372,1848.000000 
	C1977.000000,1873.637573 1977.000000,1899.275269 1977.000000,1925.000000 
	C1873.979126,1925.000000 1770.958130,1925.000000 1667.468628,1925.000000 
z"/>
<path fill="#FDFCFA" opacity="1.000000" stroke="none" 
	d="
M1070.531372,1.000000 
	C1071.000122,39.305660 1071.000122,77.611320 1070.538330,116.452049 
	C1055.787354,116.992279 1041.498291,117.018219 1027.209106,116.998322 
	C996.806885,116.955994 966.404724,116.889847 936.001526,116.375237 
	C936.000366,77.611343 936.000183,39.305672 936.000000,1.000000 
	C980.687561,1.000000 1025.375122,1.000000 1070.531372,1.000000 
z"/>
<path fill="#F7F4ED" opacity="1.000000" stroke="none" 
	d="
M696.531372,1.000000 
	C697.000244,59.638935 697.000488,118.277870 696.538391,177.451050 
	C668.051208,177.934708 640.026367,177.884140 612.000793,177.375336 
	C612.000061,118.278084 612.000000,59.639042 612.000000,1.000000 
	C640.020874,1.000000 668.041809,1.000000 696.531372,1.000000 
z"/>
<path fill="#F4F1E6" opacity="1.000000" stroke="none" 
	d="
M424.000061,296.833618 
	C424.000031,198.534851 424.000031,100.236084 424.000000,1.468657 
	C442.354218,1.000000 460.708466,1.000000 479.531342,1.468657 
	C480.000275,60.569389 480.000519,119.201469 479.537781,177.907928 
	C473.805847,177.982300 468.536957,177.982300 462.842468,177.982300 
	C462.842468,217.963043 462.842468,257.351837 462.842468,296.833618 
	C449.600891,296.833618 436.800476,296.833618 424.000061,296.833618 
z"/>
<path fill="#FBF9F5" opacity="1.000000" stroke="none" 
	d="
M935.531372,1.000000 
	C936.000183,39.305672 936.000366,77.611343 935.538147,116.451515 
	C900.051331,116.935097 865.026917,116.884186 830.002502,116.833267 
	C830.001648,78.534615 830.000793,40.235966 830.000000,1.468657 
	C865.020874,1.000000 900.041809,1.000000 935.531372,1.000000 
z"/>
<path fill="#F6F3EA" opacity="1.000000" stroke="none" 
	d="
M611.531372,1.000000 
	C612.000000,59.639042 612.000061,118.278084 611.537354,177.450455 
	C594.813538,177.983780 578.552490,177.983780 561.956726,177.983780 
	C561.956726,124.665092 561.956726,71.889809 561.970093,18.639580 
	C561.988953,12.443089 561.994446,6.721545 562.000000,1.000000 
	C578.354248,1.000000 594.708435,1.000000 611.531372,1.000000 
z"/>
<path fill="#F4F1E8" opacity="1.000000" stroke="none" 
	d="
M480.000763,177.833542 
	C480.000519,119.201469 480.000275,60.569389 480.000000,1.468657 
	C488.354218,1.000000 496.708466,1.000000 505.531342,1.428461 
	C506.000000,3.571275 506.000000,5.285628 506.000000,7.416650 
	C506.000000,9.222213 506.000000,10.611106 506.000000,12.395437 
	C506.333282,14.805044 506.666504,16.819212 506.558014,18.907585 
	C504.849091,18.981789 503.581879,18.981789 501.848206,18.981789 
	C501.848206,72.225815 501.848206,124.996918 501.848206,177.833542 
	C494.250031,177.833542 487.125397,177.833542 480.000763,177.833542 
z"/>
<path fill="#FFFFFF" opacity="1.000000" stroke="none" 
	d="
M44.531342,1.000000 
	C37.662464,4.201729 29.938967,6.744776 23.080286,10.763715 
	C13.439774,16.412706 6.824514,25.056780 2.944365,35.655930 
	C2.674566,36.392921 2.074881,37.009148 1.314301,37.840767 
	C1.000000,25.733667 1.000000,13.467335 1.000000,1.000000 
	C15.353602,1.000000 29.708143,1.000000 44.531342,1.000000 
z"/>
<path fill="#F5F2E9" opacity="1.000000" stroke="none" 
	d="
M532.000000,1.000000 
	C540.020935,1.000000 548.041809,1.000000 556.531372,1.467700 
	C557.000122,7.568101 557.000244,13.200803 556.536865,18.907753 
	C548.049011,18.932449 540.024719,18.882896 532.000122,18.375851 
	C531.999939,12.278907 532.000000,6.639453 532.000000,1.000000 
z"/>
<path fill="#F5F2E8" opacity="1.000000" stroke="none" 
	d="
M531.531372,1.000000 
	C532.000000,6.639453 531.999939,12.278907 531.536621,18.450121 
	C523.382385,18.932119 515.691406,18.882359 508.000244,18.527176 
	C508.000000,17.814529 508.000000,17.407303 508.388031,16.914997 
	C509.184052,13.886612 509.592010,10.943306 510.000000,7.666667 
	C510.000000,6.888889 510.000000,6.444445 509.958618,5.679202 
	C509.278168,4.905586 508.639069,4.452770 507.975769,3.680733 
	C507.634369,2.574342 507.317169,1.787172 507.000000,1.000000 
	C515.020935,1.000000 523.041809,1.000000 531.531372,1.000000 
z"/>
<path fill="#F5F3E9" opacity="1.000000" stroke="none" 
	d="
M557.000366,18.833504 
	C557.000244,13.200803 557.000122,7.568101 557.000000,1.467700 
	C558.388916,1.000000 559.777771,1.000000 561.583374,1.000000 
	C561.994446,6.721545 561.988953,12.443089 561.558533,18.589100 
	C559.755920,18.953545 558.378113,18.893524 557.000366,18.833504 
z"/>
<path fill="#F5F1E8" opacity="1.000000" stroke="none" 
	d="
M510.000000,5.999993 
	C510.000000,6.444445 510.000000,6.888889 509.654602,7.634840 
	C508.206146,7.624225 507.103058,7.312103 506.000000,6.999981 
	C506.000000,5.285628 506.000000,3.571275 506.000000,1.428461 
	C506.000000,1.000000 506.500000,1.000000 506.750000,1.000000 
	C507.317169,1.787172 507.634369,2.574342 508.017151,4.001529 
	C508.721863,5.094358 509.360931,5.547173 510.000000,5.999993 
z"/>
<path fill="#B80005" opacity="1.000000" stroke="none" 
	d="
M829.539185,116.909378 
	C865.026917,116.884186 900.051331,116.935097 935.539124,116.909737 
	C966.404724,116.889847 996.806885,116.955994 1027.209106,116.998322 
	C1041.498291,117.018219 1055.787354,116.992279 1070.539917,116.910263 
	C1112.162598,116.888962 1153.321777,116.944633 1194.481079,116.999733 
	C1196.458008,117.002373 1198.435059,117.000076 1200.704956,117.000076 
	C1200.704956,158.644913 1200.704956,200.042953 1200.704956,242.019180 
	C1158.791626,242.019180 1116.860718,242.019180 1074.003174,242.016418 
	C1045.051636,242.064560 1017.027039,242.115479 988.539001,242.090439 
	C967.110779,242.010162 946.145935,241.993622 925.181152,242.028381 
	C923.743103,242.030762 922.280762,242.311081 920.871948,242.641861 
	C910.724548,245.024353 903.465515,255.784790 904.865112,266.885834 
	C906.616882,280.780548 915.094971,286.554871 923.630249,286.784454 
	C945.405701,287.369995 967.209778,286.888275 989.465698,286.907471 
	C1017.953735,286.932068 1045.978394,286.882782 1074.003174,286.833496 
	C1114.161865,286.889008 1154.320679,286.944611 1194.479370,286.999664 
	C1196.458008,287.002380 1198.436646,287.000031 1200.704346,287.000031 
	C1200.704346,310.643524 1200.704346,334.042633 1200.704346,358.019196 
	C1158.790771,358.019196 1116.860352,358.019196 1074.003174,358.016388 
	C1045.718262,358.064575 1018.360168,358.115570 990.538696,358.090820 
	C973.050598,358.065582 956.025818,358.116058 938.556030,358.091583 
	C935.407288,358.066681 932.703674,358.116730 929.577271,358.091919 
	C921.408569,358.613617 913.867249,359.983124 909.067566,366.899658 
	C903.139160,375.442719 902.929993,384.650848 908.022217,393.526520 
	C912.790222,401.836853 920.661743,404.680481 930.445068,403.907776 
	C933.593750,403.932678 936.297424,403.883087 939.464355,403.908112 
	C956.952454,403.932983 973.977234,403.883209 991.465332,403.907623 
	C1019.286804,403.932373 1046.645020,403.882935 1074.003174,403.833496 
	C1114.162109,403.889008 1154.320923,403.944641 1194.479858,403.999695 
	C1196.456909,404.002411 1198.434082,404.000031 1200.704590,404.000031 
	C1200.704590,427.643921 1200.704590,451.043091 1200.704590,475.020935 
	C1151.457153,475.020935 1102.194092,475.020935 1052.004150,475.016693 
	C1010.798645,475.009308 970.519897,474.984436 930.241272,475.046173 
	C927.170593,475.050903 924.039429,475.390839 921.042053,476.053253 
	C911.347229,478.195801 905.372986,485.192963 904.440674,497.243622 
	C903.679199,507.085083 909.752075,516.233459 918.782410,518.927856 
	C922.613464,520.070984 926.705811,520.901001 930.681519,520.909668 
	C971.122131,520.998291 1011.563110,520.887878 1052.004028,520.833252 
	C1087.996460,520.888794 1123.988892,520.949951 1159.981323,520.997131 
	C1173.457153,521.014832 1186.933105,521.000000 1200.703857,521.000000 
	C1200.703857,544.642334 1200.703857,568.041382 1200.703857,592.018005 
	C1171.791748,592.018005 1142.859985,592.018005 1113.001465,592.016724 
	C1099.055420,592.065918 1086.036011,592.116455 1072.762695,592.100220 
	C1072.339111,592.077942 1072.169678,592.122375 1071.536865,592.091797 
	C1063.715942,592.066589 1056.358154,592.116516 1048.537231,592.090942 
	C1029.049805,592.065796 1010.025635,592.116089 990.538208,592.090576 
	C968.444153,592.010437 946.813293,591.994385 925.182556,592.028748 
	C923.744324,592.031006 922.281799,592.310547 920.872986,592.641602 
	C910.722595,595.027039 903.466736,605.784546 904.865723,616.885559 
	C906.616760,630.779907 915.097473,636.564819 923.630981,636.784058 
	C946.073425,637.360596 968.542786,636.888123 991.464844,636.907471 
	C1010.952332,636.932129 1029.976440,636.882812 1049.463867,636.908081 
	C1057.284912,636.932800 1064.642456,636.882935 1072.330811,636.907227 
	C1073.107910,636.932007 1073.554199,636.882629 1074.463867,636.908386 
	C1087.618652,636.933289 1100.310059,636.883118 1113.001587,636.832947 
	C1140.328125,636.888672 1167.654541,636.944580 1194.981079,636.999573 
	C1196.791382,637.003174 1198.601685,637.000000 1200.704956,637.000000 
	C1200.704956,660.644836 1200.704956,684.043823 1200.704956,708.020874 
	C1151.790161,708.020874 1102.860474,708.020874 1053.004150,708.016663 
	C1013.290344,708.009094 974.503174,707.974976 935.716248,708.046204 
	C931.473633,708.053955 927.205078,708.468384 922.995239,709.038818 
	C912.043335,710.522949 903.083252,720.760864 904.172119,731.288269 
	C905.625427,745.340698 913.291077,754.049988 928.665222,754.008850 
	C947.475952,753.958557 966.287048,754.020996 985.097900,753.994629 
	C1007.733276,753.962830 1030.368652,753.888855 1053.004028,753.833252 
	C1082.022461,753.894287 1111.040771,753.955322 1140.521973,754.091431 
	C1137.524048,759.533447 1132.786255,761.195740 1126.291382,761.152588 
	C1082.348877,760.860291 1038.403320,761.000000 994.458801,761.000000 
	C992.514526,761.000000 990.570190,761.000000 988.037537,761.000000 
	C988.037537,774.180420 988.037537,786.742249 988.037537,799.976929 
	C927.251953,799.976929 867.060120,799.976929 806.396973,799.951416 
	C805.951294,797.926880 805.999207,795.927979 805.999268,793.929016 
	C806.002625,570.450317 806.002502,346.971558 806.002502,123.492828 
	C806.002502,121.519073 806.002441,119.545319 806.002441,116.985489 
	C813.870911,116.985489 821.473389,116.985489 829.539185,116.909378 
z"/>
<path fill="#FCFCF9" opacity="1.000000" stroke="none" 
	d="
M1053.002197,753.375122 
	C1030.368652,753.888855 1007.733276,753.962830 985.097900,753.994629 
	C966.287048,754.020996 947.475952,753.958557 928.665222,754.008850 
	C913.291077,754.049988 905.625427,745.340698 904.172119,731.288269 
	C903.083252,720.760864 912.043335,710.522949 922.995239,709.038818 
	C927.205078,708.468384 931.473633,708.053955 935.716248,708.046204 
	C974.503174,707.974976 1013.290344,708.009094 1052.540771,708.089600 
	C1053.002808,723.083557 1053.001709,738.000366 1053.002197,753.375122 
z"/>
<path fill="#FCFBF9" opacity="1.000000" stroke="none" 
	d="
M1052.002197,520.375183 
	C1011.563110,520.887878 971.122131,520.998291 930.681519,520.909668 
	C926.705811,520.901001 922.613464,520.070984 918.782410,518.927856 
	C909.752075,516.233459 903.679199,507.085083 904.440674,497.243622 
	C905.372986,485.192963 911.347229,478.195801 921.042053,476.053253 
	C924.039429,475.390839 927.170593,475.050903 930.241272,475.046173 
	C970.519897,474.984436 1010.798645,475.009308 1051.540771,475.089630 
	C1052.002808,490.083588 1052.001709,505.000336 1052.002197,520.375183 
z"/>
<path fill="#FDFDFB" opacity="1.000000" stroke="none" 
	d="
M989.002380,242.166412 
	C1017.027039,242.115479 1045.051636,242.064560 1073.539795,242.090088 
	C1074.002075,256.750214 1074.001099,271.333923 1074.001709,286.375549 
	C1045.978394,286.882782 1017.953735,286.932068 989.464722,286.449524 
	C989.001160,271.333923 989.001770,256.750153 989.002380,242.166412 
z"/>
<path fill="#FDFDFB" opacity="1.000000" stroke="none" 
	d="
M991.002075,358.166565 
	C1018.360168,358.115570 1045.718262,358.064575 1073.539795,358.090027 
	C1074.002197,373.083527 1074.001099,388.000580 1074.001709,403.375549 
	C1046.645020,403.882935 1019.286804,403.932373 991.464478,403.449677 
	C991.000916,388.000549 991.001465,373.083557 991.002075,358.166565 
z"/>
<path fill="#FEFEFD" opacity="1.000000" stroke="none" 
	d="
M1113.000732,636.374878 
	C1100.310059,636.883118 1087.618652,636.933289 1074.463623,636.450439 
	C1074.000000,627.489624 1074.059082,619.061157 1073.954468,610.634705 
	C1073.931030,608.752808 1073.333252,606.878052 1073.000000,604.545898 
	C1073.000000,601.061218 1073.000000,598.030579 1073.230957,594.848206 
	C1073.313599,593.853271 1073.165161,593.010132 1073.016724,592.166992 
	C1086.036011,592.116455 1099.055420,592.065918 1112.538086,592.091187 
	C1113.000977,606.750305 1113.000366,621.333618 1113.000732,636.374878 
z"/>
<path fill="#EEE9D9" opacity="1.000000" stroke="none" 
	d="
M760.165894,1340.984497 
	C764.441589,1341.320923 768.717346,1341.657349 773.413574,1341.988647 
	C773.889404,1349.964600 773.991455,1357.945679 773.992554,1365.926758 
	C774.000000,1421.987549 773.986572,1478.048218 773.908386,1534.575684 
	C769.111450,1535.687012 764.404175,1536.585693 759.656921,1536.926147 
	C748.091370,1537.755493 736.509033,1538.358398 724.930298,1538.993652 
	C706.066833,1540.028564 687.201843,1541.037720 668.335449,1542.016968 
	C654.927307,1542.712891 641.520752,1543.757324 628.104553,1543.923462 
	C584.657898,1544.461670 541.207520,1544.769531 497.757599,1544.939453 
	C484.138550,1544.992676 470.512787,1544.439575 456.897095,1543.964111 
	C441.483002,1543.426147 426.063965,1542.874512 410.670380,1541.943481 
	C392.668182,1540.854614 374.692535,1539.330688 356.702759,1538.031616 
	C342.173309,1536.982422 327.611206,1536.285156 313.115875,1534.889038 
	C296.019989,1533.242310 278.972473,1531.076904 261.918793,1529.014038 
	C245.683197,1527.050293 229.409744,1525.294678 213.256775,1522.780273 
	C194.654465,1519.884766 176.003784,1516.967529 157.666977,1512.777832 
	C131.379562,1506.771484 105.147110,1500.317871 79.291786,1492.696411 
	C60.381573,1487.121948 41.858402,1479.841187 25.592356,1468.201050 
	C20.364153,1464.459839 15.414504,1460.122437 11.087156,1455.374512 
	C3.489870,1447.038818 2.323896,1433.273560 9.498291,1424.101807 
	C10.312275,1423.061279 10.947262,1421.880615 11.808288,1420.463623 
	C13.945659,1420.108276 15.939964,1420.006836 17.934277,1420.006714 
	C135.481903,1419.999146 253.029526,1420.000000 370.577148,1420.000000 
	C372.544983,1420.000000 374.512817,1420.000000 377.019836,1420.000000 
	C377.019836,1392.746826 377.019836,1365.833618 377.093079,1338.456299 
	C384.026184,1337.331177 390.875031,1336.500977 397.748749,1336.052856 
	C405.803619,1335.527832 413.880188,1335.335327 422.463806,1335.460083 
	C422.980316,1363.851318 422.980316,1391.780762 422.980316,1419.694946 
	C535.633301,1419.694946 647.684204,1419.694946 760.165894,1419.694946 
	C760.165894,1393.255493 760.165894,1367.119995 760.165894,1340.984497 
z"/>
<path fill="#FFFFCF" opacity="1.000000" stroke="none" 
	d="
M1938.000000,1058.000000 
	C1938.000000,1308.122681 1938.000000,1557.745239 1938.000000,1807.683838 
	C1589.388062,1807.683838 1241.014771,1807.683838 892.320740,1807.683838 
	C892.320740,1550.057861 892.320740,1292.345215 892.320740,1034.316162 
	C1240.611816,1034.316162 1588.985107,1034.316162 1938.000000,1034.316162 
	C1938.000000,1041.975342 1938.000000,1049.737671 1938.000000,1058.000000 
M1550.000000,1433.500000 
	C1550.000000,1545.908203 1550.000000,1658.316406 1550.000000,1770.683228 
	C1602.318237,1770.683228 1654.041016,1770.683228 1705.702759,1770.683228 
	C1705.702759,1537.669678 1705.702759,1304.973022 1705.702759,1072.316650 
	C1653.682007,1072.316650 1601.959229,1072.316650 1550.000000,1072.316650 
	C1550.000000,1192.588745 1550.000000,1312.544434 1550.000000,1433.500000 
M1827.500000,1169.000000 
	C1799.745850,1169.000000 1771.991699,1169.000000 1744.296631,1169.000000 
	C1744.296631,1369.993896 1744.296631,1570.358154 1744.296631,1770.685303 
	C1796.315796,1770.685303 1848.037720,1770.685303 1899.703369,1770.685303 
	C1899.703369,1570.006226 1899.703369,1369.641846 1899.703369,1169.000000 
	C1875.771851,1169.000000 1852.135864,1169.000000 1827.500000,1169.000000 
M1356.000000,1286.500000 
	C1356.000000,1447.895874 1356.000000,1609.291748 1356.000000,1770.704102 
	C1408.279785,1770.704102 1460.000854,1770.704102 1511.720947,1770.704102 
	C1511.720947,1589.376221 1511.720947,1408.344482 1511.720947,1227.295898 
	C1459.720337,1227.295898 1407.999268,1227.295898 1356.000000,1227.295898 
	C1356.000000,1246.893799 1356.000000,1266.196899 1356.000000,1286.500000 
M1162.000000,1394.500000 
	C1162.000000,1519.899536 1162.000000,1645.298950 1162.000000,1770.700317 
	C1214.289307,1770.700317 1266.009399,1770.700317 1317.715576,1770.700317 
	C1317.715576,1615.034302 1317.715576,1459.668213 1317.715576,1304.299561 
	C1265.710693,1304.299561 1213.990723,1304.299561 1162.000000,1304.299561 
	C1162.000000,1334.232300 1162.000000,1363.866211 1162.000000,1394.500000 
M968.000000,1737.500000 
	C968.000000,1748.591919 968.000000,1759.683716 968.000000,1770.670898 
	C1020.353210,1770.670898 1072.071045,1770.670898 1123.682739,1770.670898 
	C1123.682739,1653.973022 1123.682739,1537.604370 1123.682739,1421.329102 
	C1071.646973,1421.329102 1019.929077,1421.329102 968.000000,1421.329102 
	C968.000000,1526.605347 968.000000,1631.552612 968.000000,1737.500000 
M1106.000488,1119.499756 
	C1099.089233,1126.429688 1092.178101,1133.359741 1085.678833,1139.876709 
	C1078.803833,1137.113892 1072.564819,1134.606812 1065.758301,1131.871582 
	C1065.758301,1118.635376 1065.758301,1104.895020 1065.758301,1091.378052 
	C1052.565552,1091.378052 1039.834473,1091.378052 1026.876953,1091.378052 
	C1026.876953,1105.393311 1026.876953,1119.031860 1026.876953,1131.939453 
	C1021.359741,1134.193604 1016.138794,1135.942261 1011.304077,1138.439087 
	C1008.148315,1140.068848 1006.282776,1140.051880 1003.711548,1137.355591 
	C995.205078,1128.435669 986.382141,1119.817383 978.257141,1111.661865 
	C968.899048,1121.019043 959.651001,1130.266235 950.159790,1139.756592 
	C959.622803,1149.115234 969.428345,1158.812622 978.814636,1168.095337 
	C976.685364,1173.251953 974.548889,1177.766602 972.963745,1182.467041 
	C971.618774,1186.455688 969.902588,1188.373535 965.088501,1188.163696 
	C953.509277,1187.658569 941.893127,1188.000000 930.312622,1188.000000 
	C930.312622,1201.634521 930.312622,1214.696899 930.312622,1228.000122 
	C942.933655,1228.000122 955.244080,1228.055664 967.553223,1227.956543 
	C970.249329,1227.934814 971.575989,1228.597168 972.357178,1231.505493 
	C973.395935,1235.372314 975.194946,1239.077759 977.009338,1242.680054 
	C978.518738,1245.676880 977.996582,1247.753174 975.590759,1250.021484 
	C970.380066,1254.934448 965.445068,1260.138184 960.325256,1265.149536 
	C956.696289,1268.701538 952.949219,1272.132812 949.942444,1274.969360 
	C960.026428,1285.052490 969.290955,1294.316284 978.678650,1303.703125 
	C987.932007,1294.390259 997.542542,1284.718018 1006.868896,1275.331665 
	C1013.812866,1278.306641 1020.280701,1281.077637 1027.282959,1284.077515 
	C1027.282959,1297.419922 1027.282959,1311.157227 1027.282959,1324.774658 
	C1040.360840,1324.774658 1052.971680,1324.774658 1066.000000,1324.774658 
	C1066.000000,1322.932739 1066.000000,1321.309692 1066.000000,1319.686523 
	C1066.000000,1308.688843 1065.901245,1297.689331 1066.113525,1286.695801 
	C1066.143066,1285.160645 1067.341797,1282.833374 1068.613281,1282.277588 
	C1074.188477,1279.840820 1079.989624,1277.920776 1087.000122,1275.337524 
	C1095.919678,1284.364868 1105.590698,1294.152832 1115.126099,1303.803589 
	C1124.300049,1294.629028 1133.473633,1285.454712 1143.395752,1275.531860 
	C1133.794922,1266.062134 1123.987427,1256.388550 1114.404663,1246.936646 
	C1116.915771,1240.736450 1119.437744,1234.509399 1122.191772,1227.709717 
	C1135.437134,1227.709717 1149.172241,1227.709717 1162.768555,1227.709717 
	C1162.768555,1214.293457 1162.768555,1201.348999 1162.768555,1188.000000 
	C1160.918579,1188.000000 1159.293945,1188.000000 1157.669312,1188.000000 
	C1147.004883,1188.000000 1136.338745,1188.096191 1125.678101,1187.895020 
	C1124.108521,1187.865234 1121.728516,1186.814209 1121.154297,1185.573608 
	C1118.591675,1180.036377 1116.548096,1174.258789 1114.020752,1167.812256 
	C1123.411377,1158.457275 1133.175781,1148.730103 1142.434814,1139.506470 
	C1133.080566,1130.148193 1123.730835,1120.794312 1114.119751,1111.179077 
	C1111.828125,1113.531372 1109.164429,1116.265503 1106.000488,1119.499756 
M1300.500000,1111.000000 
	C1319.247559,1111.000000 1337.995117,1111.000000 1356.677979,1111.000000 
	C1356.677979,1097.667236 1356.677979,1084.943970 1356.677979,1072.303467 
	C1304.657837,1072.303467 1252.960205,1072.303467 1201.321777,1072.303467 
	C1201.321777,1085.332520 1201.321777,1098.055786 1201.321777,1111.000000 
	C1234.262085,1111.000000 1266.881104,1111.000000 1300.500000,1111.000000 
M1279.989258,1187.263428 
	C1279.989258,1174.657349 1279.989258,1162.051270 1279.989258,1149.382080 
	C1253.418945,1149.382080 1227.261475,1149.382080 1201.218018,1149.382080 
	C1201.218018,1162.699341 1201.218018,1175.633789 1201.218018,1188.780518 
	C1202.035034,1188.864990 1202.663086,1188.986450 1203.291138,1188.986694 
	C1227.759399,1188.997925 1252.227661,1189.007935 1276.695923,1188.966553 
	C1277.765259,1188.964722 1278.833862,1188.479858 1279.989258,1187.263428 
M1326.535889,1149.000000 
	C1323.436523,1149.000000 1320.337036,1149.000000 1317.302490,1149.000000 
	C1317.302490,1162.649780 1317.302490,1175.694336 1317.302490,1188.696777 
	C1330.651611,1188.696777 1343.696167,1188.696777 1356.696045,1188.696777 
	C1356.696045,1175.346802 1356.696045,1162.302246 1356.696045,1149.000000 
	C1346.770752,1149.000000 1337.147705,1149.000000 1326.535889,1149.000000 
z"/>
<path fill="#FDCCCD" opacity="1.000000" stroke="none" 
	d="
M852.000000,1302.000000 
	C852.000000,1484.136719 852.000000,1665.773438 852.000000,1847.910645 
	C1110.714600,1847.910645 1369.106445,1847.910645 1627.748901,1847.910645 
	C1627.748901,1860.681519 1627.748901,1872.956665 1627.748901,1885.616699 
	C1356.795654,1885.616699 1085.737427,1885.616699 814.339539,1885.616699 
	C814.339539,1537.374634 814.339539,1188.983398 814.339539,840.295959 
	C872.046021,840.295959 929.771240,840.295959 987.821228,840.295959 
	C987.821228,878.682617 987.821228,916.957825 987.821228,955.616089 
	C1143.203125,955.616089 1298.261719,955.616089 1453.821533,955.616089 
	C1453.821533,917.377197 1453.821533,878.982605 1453.821533,840.295288 
	C1512.047363,840.295288 1569.772583,840.295288 1627.749023,840.295288 
	C1627.749023,891.351379 1627.749023,942.292297 1627.749023,993.734070 
	C1369.462280,993.734070 1111.070312,993.734070 852.000000,993.734070 
	C852.000000,1096.655396 852.000000,1199.077637 852.000000,1302.000000 
z"/>
<path fill="#CFDCFF" opacity="1.000000" stroke="none" 
	d="
M1283.002686,794.835327 
	C1285.811157,799.361511 1289.365234,801.242981 1295.182861,801.186646 
	C1332.833374,800.822327 1370.489136,801.000000 1408.143188,801.000000 
	C1409.937134,801.000000 1411.731079,801.000000 1413.759766,801.000000 
	C1413.759766,839.437195 1413.759766,877.492493 1413.759766,915.774048 
	C1285.222168,915.774048 1156.854980,915.774048 1028.243896,915.774048 
	C1028.243896,877.570190 1028.243896,839.514832 1028.243896,801.000000 
	C1030.179321,801.000000 1031.963623,801.000000 1033.747925,801.000000 
	C1071.568604,801.000000 1109.390137,800.880127 1147.208984,801.137390 
	C1152.498047,801.173340 1156.038574,799.762207 1159.135742,795.053345 
	C1200.950562,794.922668 1241.976685,794.879028 1283.002686,794.835327 
z"/>
<path fill="#FFFD3D" opacity="1.000000" stroke="none" 
	d="
M1282.866699,794.533264 
	C1241.976685,794.879028 1200.950562,794.922668 1159.460938,794.900818 
	C1168.886108,781.122742 1181.597900,771.041931 1197.848022,766.134033 
	C1226.590942,757.453247 1251.973022,763.789551 1273.774902,784.346863 
	C1276.999634,787.387573 1279.757202,790.924072 1282.866699,794.533264 
z"/>
<path fill="#F1ECDF" opacity="1.000000" stroke="none" 
	d="
M320.003143,1139.000000 
	C320.003143,1176.455933 320.003143,1213.411865 320.003143,1250.684814 
	C285.391357,1250.684814 251.010239,1250.684814 216.315735,1250.684814 
	C216.315735,1200.047485 216.315735,1149.341431 216.315735,1098.316162 
	C250.620270,1098.316162 285.001404,1098.316162 320.003143,1098.316162 
	C320.003143,1111.657593 320.003143,1125.078735 320.003143,1139.000000 
z"/>
<path fill="#F1ECDF" opacity="1.000000" stroke="none" 
	d="
M290.000000,831.001709 
	C265.205292,831.001648 240.910599,831.001648 216.310028,831.001648 
	C216.310028,780.035828 216.310028,729.329956 216.310028,678.310425 
	C250.631958,678.310425 285.013031,678.310425 319.699097,678.310425 
	C319.699097,728.963196 319.699097,779.670471 319.699097,831.001831 
	C310.014832,831.001831 300.257416,831.001831 290.000000,831.001709 
z"/>
<path fill="#F1ECDF" opacity="1.000000" stroke="none" 
	d="
M320.003143,957.000000 
	C320.003143,985.127075 320.003143,1012.754089 320.003143,1040.691406 
	C285.378082,1040.691406 250.997025,1040.691406 216.309174,1040.691406 
	C216.309174,990.034241 216.309174,939.328308 216.309174,888.309631 
	C250.633636,888.309631 285.014709,888.309631 320.003143,888.309631 
	C320.003143,911.002502 320.003143,933.751221 320.003143,957.000000 
z"/>
<path fill="#EEE9D9" opacity="1.000000" stroke="none" 
	d="
M122.000000,1250.999634 
	C100.537476,1250.999634 79.574951,1250.999634 58.307098,1250.999634 
	C58.307098,1200.033325 58.307098,1149.328613 58.307098,1098.310425 
	C92.298248,1098.310425 126.345055,1098.310425 160.697754,1098.310425 
	C160.697754,1148.966064 160.697754,1199.671631 160.697754,1250.999634 
	C148.008759,1250.999634 135.254379,1250.999634 122.000000,1250.999634 
z"/>
<path fill="#EEE9D9" opacity="1.000000" stroke="none" 
	d="
M58.000713,724.000000 
	C58.000713,708.534363 58.000713,693.568726 58.000713,678.301086 
	C92.316833,678.301086 126.363564,678.301086 160.706940,678.301086 
	C160.706940,728.984619 160.706940,779.690125 160.706940,830.699341 
	C126.689713,830.699341 92.642990,830.699341 58.000713,830.699341 
	C58.000713,795.314697 58.000713,759.907349 58.000713,724.000000 
z"/>
<path fill="#EEE9D9" opacity="1.000000" stroke="none" 
	d="
M86.000000,1040.999634 
	C76.531288,1040.999634 67.562584,1040.999634 58.298290,1040.999634 
	C58.298290,990.015625 58.298290,939.310852 58.298290,888.301514 
	C92.316002,888.301514 126.362732,888.301514 160.706528,888.301514 
	C160.706528,938.983765 160.706528,989.689331 160.706528,1040.999634 
	C135.993561,1040.999634 111.246780,1040.999634 86.000000,1040.999634 
z"/>
<path fill="#B80005" opacity="1.000000" stroke="none" 
	d="
M760.091736,1340.521973 
	C760.165894,1367.119995 760.165894,1393.255493 760.165894,1419.694946 
	C647.684204,1419.694946 535.633301,1419.694946 422.980316,1419.694946 
	C422.980316,1391.780762 422.980316,1363.851318 422.907837,1335.457642 
	C422.891052,1332.831421 422.995544,1330.669312 422.995575,1328.507202 
	C423.002777,986.930115 423.002045,645.352966 423.012512,303.775879 
	C423.012573,301.618927 423.164795,299.462006 423.622986,297.069336 
	C436.800476,296.833618 449.600891,296.833618 462.842468,296.833618 
	C462.842468,257.351837 462.842468,217.963043 462.842468,177.982300 
	C468.536957,177.982300 473.805847,177.982300 479.537781,177.907928 
	C487.125397,177.833542 494.250031,177.833542 501.848206,177.833542 
	C501.848206,124.996918 501.848206,72.225815 501.848206,18.981789 
	C503.581879,18.981789 504.849091,18.981789 506.808228,18.972214 
	C507.666931,18.919292 507.833679,18.875946 508.000458,18.832598 
	C515.691406,18.882359 523.382385,18.932119 531.536865,18.907612 
	C540.024719,18.882896 548.049011,18.932449 556.536865,18.907753 
	C558.378113,18.893524 559.755920,18.953545 561.545166,19.064045 
	C561.956726,71.889809 561.956726,124.665092 561.956726,177.983780 
	C578.552490,177.983780 594.813538,177.983780 611.538086,177.908661 
	C640.026367,177.884140 668.051208,177.934708 696.539490,177.909241 
	C704.474304,177.833221 711.945740,177.833221 719.859680,177.833221 
	C719.859680,216.653427 719.859680,255.051636 719.859680,293.897705 
	C733.363525,293.897705 746.434448,293.897705 760.017578,293.897705 
	C760.017578,642.918274 760.017578,991.488953 760.091736,1340.521973 
M561.421021,1011.002930 
	C563.522644,1011.002930 565.624207,1011.002930 567.718933,1011.002930 
	C567.718933,979.716003 567.718933,949.000671 567.718933,918.285767 
	C536.719055,918.285767 506.004303,918.285767 475.292419,918.285767 
	C475.292419,949.289612 475.292419,980.003723 475.292419,1011.002686 
	C503.865967,1011.002686 532.150940,1011.002686 561.421021,1011.002930 
M475.002899,821.500000 
	C475.002899,837.917297 475.002899,854.334534 475.002899,870.699890 
	C506.325195,870.699890 537.039185,870.699890 567.702393,870.699890 
	C567.702393,839.681091 567.702393,808.966431 567.702393,778.300903 
	C536.686707,778.300903 505.972687,778.300903 475.002899,778.300903 
	C475.002899,792.568909 475.002899,806.534424 475.002899,821.500000 
M475.012695,639.735229 
	C475.012695,670.123230 475.012695,700.511230 475.012695,730.621643 
	C506.477722,730.621643 537.195190,730.621643 567.620056,730.621643 
	C567.620056,699.521912 567.620056,668.804382 567.620056,638.003479 
	C537.425964,638.003479 507.614899,637.996704 477.803864,638.036072 
	C476.900330,638.037231 475.997437,638.519531 475.012695,639.735229 
M664.500000,871.000000 
	C678.920227,871.000000 693.340393,871.000000 707.703796,871.000000 
	C707.703796,839.682739 707.703796,808.966248 707.703796,778.299072 
	C676.687683,778.299072 645.971802,778.299072 615.303772,778.299072 
	C615.303772,809.317566 615.303772,840.032898 615.303772,871.000000 
	C631.569336,871.000000 647.534668,871.000000 664.500000,871.000000 
M568.003174,1212.504395 
	C568.003174,1207.743896 568.003174,1202.983521 568.003174,1198.309692 
	C536.669189,1198.309692 505.955017,1198.309692 475.315094,1198.309692 
	C475.315094,1229.336914 475.315094,1260.050415 475.315094,1290.691162 
	C506.342407,1290.691162 537.056519,1290.691162 568.003174,1290.691162 
	C568.003174,1264.754639 568.003174,1239.129028 568.003174,1212.504395 
M698.464844,1011.002869 
	C701.568542,1011.002869 704.672241,1011.002869 707.706055,1011.002869 
	C707.706055,979.688660 707.706055,948.971558 707.706055,918.297791 
	C676.691650,918.297791 645.975159,918.297791 615.303467,918.297791 
	C615.303467,949.315613 615.303467,980.031616 615.303467,1011.002563 
	C642.894592,1011.002563 670.185303,1011.002563 698.464844,1011.002869 
M568.003174,1078.500000 
	C568.003174,1071.739746 568.003174,1064.979370 568.003174,1058.309448 
	C536.669678,1058.309448 505.955566,1058.309448 475.314728,1058.309448 
	C475.314728,1089.336304 475.314728,1120.049805 475.314728,1150.691650 
	C506.341675,1150.691650 537.055786,1150.691650 568.003174,1150.691650 
	C568.003174,1126.754028 568.003174,1103.127075 568.003174,1078.500000 
M708.003052,1103.500000 
	C708.003052,1088.413574 708.003052,1073.327148 708.003052,1058.300781 
	C676.684265,1058.300781 645.968384,1058.300781 615.305420,1058.300781 
	C615.305420,1089.320801 615.305420,1120.036255 615.305420,1150.700195 
	C646.325500,1150.700195 677.041382,1150.700195 708.003052,1150.700195 
	C708.003052,1135.099121 708.003052,1119.799561 708.003052,1103.500000 
M675.500000,1197.999390 
	C655.417480,1197.999390 635.335022,1197.999390 615.303589,1197.999390 
	C615.303589,1229.317139 615.303589,1260.032349 615.303589,1290.702026 
	C646.321716,1290.702026 677.037598,1290.702026 707.704224,1290.702026 
	C707.704224,1259.683716 707.704224,1228.967407 707.704224,1197.999390 
	C697.104919,1197.999390 686.802429,1197.999390 675.500000,1197.999390 
M707.994141,729.271667 
	C707.994141,698.880798 707.994141,668.489990 707.994141,638.376099 
	C676.537415,638.376099 645.818115,638.376099 615.384949,638.376099 
	C615.384949,669.473877 615.384949,700.191772 615.384949,731.002441 
	C645.580383,731.002441 675.393188,731.009277 705.205872,730.970093 
	C706.109375,730.968872 707.012268,730.488159 707.994141,729.271667 
M510.500000,358.000092 
	C498.745605,358.000092 486.991241,358.000092 475.312927,358.000092 
	C475.312927,389.332703 475.312927,420.046173 475.312927,450.693542 
	C506.338074,450.693542 537.052185,450.693542 567.696045,450.693542 
	C567.696045,419.668243 567.696045,388.953491 567.696045,358.000000 
	C548.760010,358.000000 530.130005,358.000000 510.500000,358.000092 
M708.003052,423.500000 
	C708.003052,401.751373 708.003052,380.002716 708.003052,358.295349 
	C676.695129,358.295349 645.979309,358.295349 615.300049,358.295349 
	C615.300049,389.310089 615.300049,420.025421 615.300049,450.705627 
	C646.314758,450.705627 677.030579,450.705627 708.003052,450.705627 
	C708.003052,441.773376 708.003052,433.136688 708.003052,423.500000 
M707.994141,499.733765 
	C706.387634,499.154785 704.782959,498.076904 703.174377,498.071075 
	C675.193054,497.970032 647.211243,498.000519 619.229553,498.002319 
	C617.947510,498.002411 616.665466,498.002350 615.241028,498.002350 
	C615.241028,529.186646 615.241028,559.903809 615.241028,590.761292 
	C646.197998,590.761292 676.915771,590.761292 708.002319,590.761292 
	C708.002319,560.579590 708.002319,530.638184 707.994141,499.733765 
M475.781281,498.094482 
	C475.521820,499.829437 475.039307,501.563995 475.036316,503.299408 
	C474.988861,530.779785 475.002960,558.260193 475.002960,585.740601 
	C475.002960,587.358643 475.002930,588.976746 475.002930,590.775269 
	C506.168732,590.775269 536.884521,590.775269 567.774536,590.775269 
	C567.774536,559.830750 567.774536,529.114319 567.774536,498.012573 
	C537.278748,498.012573 507.009918,498.012573 475.781281,498.094482 
z"/>
<path fill="#F5F1E8" opacity="1.000000" stroke="none" 
	d="
M506.000000,7.416650 
	C507.103058,7.312103 508.206146,7.624225 509.654602,7.968173 
	C509.592010,10.943306 509.184052,13.886612 508.388031,16.519266 
	C507.333344,14.805741 506.666687,13.402869 506.000000,11.999998 
	C506.000000,10.611106 506.000000,9.222213 506.000000,7.416650 
z"/>
<path fill="#F5F1E8" opacity="1.000000" stroke="none" 
	d="
M506.000000,12.395436 
	C506.666687,13.402869 507.333344,14.805741 508.000000,16.604345 
	C508.000000,17.407303 508.000000,17.814529 508.000244,18.527176 
	C507.833679,18.875946 507.666931,18.919292 507.249969,18.898010 
	C506.666504,16.819212 506.333282,14.805044 506.000000,12.395436 
z"/>
<path fill="#F5F1E8" opacity="1.000000" stroke="none" 
	d="
M509.958618,5.679195 
	C509.360931,5.547173 508.721863,5.094358 508.041382,4.320748 
	C508.639069,4.452770 509.278168,4.905586 509.958618,5.679195 
z"/>
<path fill="#FCFBF8" opacity="1.000000" stroke="none" 
	d="
M991.001465,636.833557 
	C968.542786,636.888123 946.073425,637.360596 923.630981,636.784058 
	C915.097473,636.564819 906.616760,630.779907 904.865723,616.885559 
	C903.466736,605.784546 910.722595,595.027039 920.872986,592.641602 
	C922.281799,592.310547 923.744324,592.031006 925.182556,592.028748 
	C946.813293,591.994385 968.444153,592.010437 990.537476,592.548523 
	C991.000488,607.666138 991.000977,622.249817 991.001465,636.833557 
z"/>
<path fill="#FCFBF8" opacity="1.000000" stroke="none" 
	d="
M988.539001,242.090439 
	C989.001770,256.750153 989.001160,271.333923 989.001465,286.375610 
	C967.209778,286.888275 945.405701,287.369995 923.630249,286.784454 
	C915.094971,286.554871 906.616882,280.780548 904.865112,266.885834 
	C903.465515,255.784790 910.724548,245.024353 920.871948,242.641861 
	C922.280762,242.311081 923.743103,242.030762 925.181152,242.028381 
	C946.145935,241.993622 967.110779,242.010162 988.539001,242.090439 
z"/>
<path fill="#FDFDFB" opacity="1.000000" stroke="none" 
	d="
M991.464844,636.907471 
	C991.000977,622.249817 991.000488,607.666138 991.000732,592.624390 
	C1010.025635,592.116089 1029.049805,592.065796 1048.536987,592.548950 
	C1049.000244,607.666138 1049.000366,622.249817 1049.000488,636.833557 
	C1029.976440,636.882812 1010.952332,636.932129 991.464844,636.907471 
z"/>
<path fill="#FCFBF8" opacity="1.000000" stroke="none" 
	d="
M990.538696,358.090820 
	C991.001465,373.083557 991.000916,388.000549 991.001221,403.375488 
	C973.977234,403.883209 956.952454,403.932983 939.463806,403.450195 
	C939.000366,388.000580 939.000732,373.083557 939.001099,358.166534 
	C956.025818,358.116058 973.050598,358.065582 990.538696,358.090820 
z"/>
<path fill="#FEFEFC" opacity="1.000000" stroke="none" 
	d="
M1049.463867,636.908081 
	C1049.000366,622.249817 1049.000244,607.666138 1049.000244,592.624390 
	C1056.358154,592.116516 1063.715942,592.066589 1071.539062,592.414185 
	C1072.336304,593.541077 1072.668213,594.270569 1073.000000,595.000000 
	C1073.000000,598.030579 1073.000000,601.061218 1072.702881,604.839722 
	C1072.270386,616.002869 1072.135254,626.417969 1072.000000,636.833130 
	C1064.642456,636.882935 1057.284912,636.932800 1049.463867,636.908081 
z"/>
<path fill="#FBFAF7" opacity="1.000000" stroke="none" 
	d="
M930.000000,403.833252 
	C920.661743,404.680481 912.790222,401.836853 908.022217,393.526520 
	C902.929993,384.650848 903.139160,375.442719 909.067566,366.899658 
	C913.867249,359.983124 921.408569,358.613617 929.577271,358.549805 
	C930.000000,373.999481 930.000000,388.916351 930.000000,403.833252 
z"/>
<path fill="#FCFBF7" opacity="1.000000" stroke="none" 
	d="
M930.445068,403.907776 
	C930.000000,388.916351 930.000000,373.999481 930.000000,358.624664 
	C932.703674,358.116730 935.407288,358.066681 938.556030,358.091583 
	C939.000732,373.083557 939.000366,388.000580 939.000488,403.375549 
	C936.297424,403.883087 933.593750,403.932678 930.445068,403.907776 
z"/>
<path fill="#FEFEFD" opacity="1.000000" stroke="none" 
	d="
M1072.330811,636.907227 
	C1072.135254,626.417969 1072.270386,616.002869 1072.702881,605.293823 
	C1073.333252,606.878052 1073.931030,608.752808 1073.954468,610.634705 
	C1074.059082,619.061157 1074.000000,627.489624 1074.000244,636.375366 
	C1073.554199,636.882629 1073.107910,636.932007 1072.330811,636.907227 
z"/>
<path fill="#FEFEFD" opacity="1.000000" stroke="none" 
	d="
M1073.230957,594.848206 
	C1072.668213,594.270569 1072.336304,593.541077 1072.002441,592.489258 
	C1072.169678,592.122375 1072.339111,592.077942 1072.762695,592.100220 
	C1073.165161,593.010132 1073.313599,593.853271 1073.230957,594.848206 
z"/>
<path fill="#F50007" opacity="1.000000" stroke="none" 
	d="
M1550.000000,1433.000000 
	C1550.000000,1312.544434 1550.000000,1192.588745 1550.000000,1072.316650 
	C1601.959229,1072.316650 1653.682007,1072.316650 1705.702759,1072.316650 
	C1705.702759,1304.973022 1705.702759,1537.669678 1705.702759,1770.683228 
	C1654.041016,1770.683228 1602.318237,1770.683228 1550.000000,1770.683228 
	C1550.000000,1658.316406 1550.000000,1545.908203 1550.000000,1433.000000 
M1590.000000,1585.500000 
	C1590.000000,1633.916260 1590.000000,1682.332642 1590.000000,1730.667480 
	C1615.678467,1730.667480 1640.738037,1730.667480 1665.691406,1730.667480 
	C1665.691406,1523.974243 1665.691406,1317.613892 1665.691406,1111.332520 
	C1640.321777,1111.332520 1615.262085,1111.332520 1590.000000,1111.332520 
	C1590.000000,1269.276611 1590.000000,1426.888306 1590.000000,1585.500000 
z"/>
<path fill="#F50007" opacity="1.000000" stroke="none" 
	d="
M1828.000000,1169.000000 
	C1852.135864,1169.000000 1875.771851,1169.000000 1899.703369,1169.000000 
	C1899.703369,1369.641846 1899.703369,1570.006226 1899.703369,1770.685303 
	C1848.037720,1770.685303 1796.315796,1770.685303 1744.296631,1770.685303 
	C1744.296631,1570.358154 1744.296631,1369.993896 1744.296631,1169.000000 
	C1771.991699,1169.000000 1799.745850,1169.000000 1828.000000,1169.000000 
M1784.000000,1356.500000 
	C1784.000000,1481.231934 1784.000000,1605.963989 1784.000000,1730.694092 
	C1809.625977,1730.694092 1834.684570,1730.694092 1859.716919,1730.694092 
	C1859.716919,1556.360229 1859.716919,1382.332397 1859.716919,1208.305908 
	C1834.374023,1208.305908 1809.315430,1208.305908 1784.000000,1208.305908 
	C1784.000000,1257.574219 1784.000000,1306.537109 1784.000000,1356.500000 
z"/>
<path fill="#F50007" opacity="1.000000" stroke="none" 
	d="
M1356.000000,1286.000000 
	C1356.000000,1266.196899 1356.000000,1246.893799 1356.000000,1227.295898 
	C1407.999268,1227.295898 1459.720337,1227.295898 1511.720947,1227.295898 
	C1511.720947,1408.344482 1511.720947,1589.376221 1511.720947,1770.704102 
	C1460.000854,1770.704102 1408.279785,1770.704102 1356.000000,1770.704102 
	C1356.000000,1609.291748 1356.000000,1447.895874 1356.000000,1286.000000 
M1396.000000,1297.500000 
	C1396.000000,1441.891357 1396.000000,1586.282715 1396.000000,1730.705688 
	C1421.603638,1730.705688 1446.661499,1730.705688 1471.727783,1730.705688 
	C1471.727783,1575.716187 1471.727783,1421.021240 1471.727783,1266.294312 
	C1446.396362,1266.294312 1421.338501,1266.294312 1396.000000,1266.294312 
	C1396.000000,1276.557739 1396.000000,1286.528931 1396.000000,1297.500000 
z"/>
<path fill="#F50007" opacity="1.000000" stroke="none" 
	d="
M1162.000000,1394.000000 
	C1162.000000,1363.866211 1162.000000,1334.232300 1162.000000,1304.299561 
	C1213.990723,1304.299561 1265.710693,1304.299561 1317.715576,1304.299561 
	C1317.715576,1459.668213 1317.715576,1615.034302 1317.715576,1770.700317 
	C1266.009399,1770.700317 1214.289307,1770.700317 1162.000000,1770.700317 
	C1162.000000,1645.298950 1162.000000,1519.899536 1162.000000,1394.000000 
M1279.000000,1369.500000 
	C1279.000000,1361.073242 1279.000000,1352.646484 1279.000000,1344.338379 
	C1252.971924,1344.338379 1227.581055,1344.338379 1202.317993,1344.338379 
	C1202.317993,1473.373291 1202.317993,1602.069458 1202.317993,1730.661621 
	C1228.028076,1730.661621 1253.418945,1730.661621 1279.000000,1730.661621 
	C1279.000000,1610.382202 1279.000000,1490.441040 1279.000000,1369.500000 
z"/>
<path fill="#F50007" opacity="1.000000" stroke="none" 
	d="
M968.000000,1737.000000 
	C968.000000,1631.552612 968.000000,1526.605347 968.000000,1421.329102 
	C1019.929077,1421.329102 1071.646973,1421.329102 1123.682739,1421.329102 
	C1123.682739,1537.604370 1123.682739,1653.973022 1123.682739,1770.670898 
	C1072.071045,1770.670898 1020.353210,1770.670898 968.000000,1770.670898 
	C968.000000,1759.683716 968.000000,1748.591919 968.000000,1737.000000 
M1085.000000,1486.500000 
	C1085.000000,1477.741089 1085.000000,1468.982056 1085.000000,1460.333740 
	C1058.976685,1460.333740 1033.588257,1460.333740 1008.316650,1460.333740 
	C1008.316650,1550.699707 1008.316650,1640.731445 1008.316650,1730.666260 
	C1034.023193,1730.666260 1059.411621,1730.666260 1085.000000,1730.666260 
	C1085.000000,1649.388428 1085.000000,1568.444214 1085.000000,1486.500000 
z"/>
<path fill="#F50007" opacity="1.000000" stroke="none" 
	d="
M1106.250610,1119.249756 
	C1109.164429,1116.265503 1111.828125,1113.531372 1114.119751,1111.179077 
	C1123.730835,1120.794312 1133.080566,1130.148193 1142.434814,1139.506470 
	C1133.175781,1148.730103 1123.411377,1158.457275 1114.020752,1167.812256 
	C1116.548096,1174.258789 1118.591675,1180.036377 1121.154297,1185.573608 
	C1121.728516,1186.814209 1124.108521,1187.865234 1125.678101,1187.895020 
	C1136.338745,1188.096191 1147.004883,1188.000000 1157.669312,1188.000000 
	C1159.293945,1188.000000 1160.918579,1188.000000 1162.768555,1188.000000 
	C1162.768555,1201.348999 1162.768555,1214.293457 1162.768555,1227.709717 
	C1149.172241,1227.709717 1135.437134,1227.709717 1122.191772,1227.709717 
	C1119.437744,1234.509399 1116.915771,1240.736450 1114.404663,1246.936646 
	C1123.987427,1256.388550 1133.794922,1266.062134 1143.395752,1275.531860 
	C1133.473633,1285.454712 1124.300049,1294.629028 1115.126099,1303.803589 
	C1105.590698,1294.152832 1095.919678,1284.364868 1087.000122,1275.337524 
	C1079.989624,1277.920776 1074.188477,1279.840820 1068.613281,1282.277588 
	C1067.341797,1282.833374 1066.143066,1285.160645 1066.113525,1286.695801 
	C1065.901245,1297.689331 1066.000000,1308.688843 1066.000000,1319.686523 
	C1066.000000,1321.309692 1066.000000,1322.932739 1066.000000,1324.774658 
	C1052.971680,1324.774658 1040.360840,1324.774658 1027.282959,1324.774658 
	C1027.282959,1311.157227 1027.282959,1297.419922 1027.282959,1284.077515 
	C1020.280701,1281.077637 1013.812866,1278.306641 1006.868896,1275.331665 
	C997.542542,1284.718018 987.932007,1294.390259 978.678650,1303.703125 
	C969.290955,1294.316284 960.026428,1285.052490 949.942444,1274.969360 
	C952.949219,1272.132812 956.696289,1268.701538 960.325256,1265.149536 
	C965.445068,1260.138184 970.380066,1254.934448 975.590759,1250.021484 
	C977.996582,1247.753174 978.518738,1245.676880 977.009338,1242.680054 
	C975.194946,1239.077759 973.395935,1235.372314 972.357178,1231.505493 
	C971.575989,1228.597168 970.249329,1227.934814 967.553223,1227.956543 
	C955.244080,1228.055664 942.933655,1228.000122 930.312622,1228.000122 
	C930.312622,1214.696899 930.312622,1201.634521 930.312622,1188.000000 
	C941.893127,1188.000000 953.509277,1187.658569 965.088501,1188.163696 
	C969.902588,1188.373535 971.618774,1186.455688 972.963745,1182.467041 
	C974.548889,1177.766602 976.685364,1173.251953 978.814636,1168.095337 
	C969.428345,1158.812622 959.622803,1149.115234 950.159790,1139.756592 
	C959.651001,1130.266235 968.899048,1121.019043 978.257141,1111.661865 
	C986.382141,1119.817383 995.205078,1128.435669 1003.711548,1137.355591 
	C1006.282776,1140.051880 1008.148315,1140.068848 1011.304077,1138.439087 
	C1016.138794,1135.942261 1021.359741,1134.193604 1026.876953,1131.939453 
	C1026.876953,1119.031860 1026.876953,1105.393311 1026.876953,1091.378052 
	C1039.834473,1091.378052 1052.565552,1091.378052 1065.758301,1091.378052 
	C1065.758301,1104.895020 1065.758301,1118.635376 1065.758301,1131.871582 
	C1072.564819,1134.606812 1078.803833,1137.113892 1085.678833,1139.876709 
	C1092.178101,1133.359741 1099.089233,1126.429688 1106.250610,1119.249756 
M1072.066040,1235.434082 
	C1082.123413,1227.252075 1087.008789,1212.041016 1083.576782,1199.034180 
	C1078.981567,1181.618408 1063.038574,1169.227173 1045.172852,1169.777588 
	C1025.656250,1170.379028 1008.631287,1186.893799 1008.123901,1206.736328 
	C1007.793030,1219.675659 1013.274414,1230.187500 1023.683655,1238.294922 
	C1037.782959,1249.276489 1058.755615,1248.455566 1072.066040,1235.434082 
z"/>
<path fill="#F50007" opacity="1.000000" stroke="none" 
	d="
M1300.000000,1111.000000 
	C1266.881104,1111.000000 1234.262085,1111.000000 1201.321777,1111.000000 
	C1201.321777,1098.055786 1201.321777,1085.332520 1201.321777,1072.303467 
	C1252.960205,1072.303467 1304.657837,1072.303467 1356.677979,1072.303467 
	C1356.677979,1084.943970 1356.677979,1097.667236 1356.677979,1111.000000 
	C1337.995117,1111.000000 1319.247559,1111.000000 1300.000000,1111.000000 
z"/>
<path fill="#F50007" opacity="1.000000" stroke="none" 
	d="
M1279.946045,1187.741699 
	C1278.833862,1188.479858 1277.765259,1188.964722 1276.695923,1188.966553 
	C1252.227661,1189.007935 1227.759399,1188.997925 1203.291138,1188.986694 
	C1202.663086,1188.986450 1202.035034,1188.864990 1201.218018,1188.780518 
	C1201.218018,1175.633789 1201.218018,1162.699341 1201.218018,1149.382080 
	C1227.261475,1149.382080 1253.418945,1149.382080 1279.989258,1149.382080 
	C1279.989258,1162.051270 1279.989258,1174.657349 1279.946045,1187.741699 
z"/>
<path fill="#F50007" opacity="1.000000" stroke="none" 
	d="
M1327.030273,1149.000000 
	C1337.147705,1149.000000 1346.770752,1149.000000 1356.696045,1149.000000 
	C1356.696045,1162.302246 1356.696045,1175.346802 1356.696045,1188.696777 
	C1343.696167,1188.696777 1330.651611,1188.696777 1317.302490,1188.696777 
	C1317.302490,1175.694336 1317.302490,1162.649780 1317.302490,1149.000000 
	C1320.337036,1149.000000 1323.436523,1149.000000 1327.030273,1149.000000 
z"/>
<path fill="#F5F2E8" opacity="1.000000" stroke="none" 
	d="
M560.928467,1011.002808 
	C532.150940,1011.002686 503.865967,1011.002686 475.292419,1011.002686 
	C475.292419,980.003723 475.292419,949.289612 475.292419,918.285767 
	C506.004303,918.285767 536.719055,918.285767 567.718933,918.285767 
	C567.718933,949.000671 567.718933,979.716003 567.718933,1011.002930 
	C565.624207,1011.002930 563.522644,1011.002930 560.928467,1011.002808 
z"/>
<path fill="#F5F2E8" opacity="1.000000" stroke="none" 
	d="
M475.002899,821.000000 
	C475.002899,806.534424 475.002899,792.568909 475.002899,778.300903 
	C505.972687,778.300903 536.686707,778.300903 567.702393,778.300903 
	C567.702393,808.966431 567.702393,839.681091 567.702393,870.699890 
	C537.039185,870.699890 506.325195,870.699890 475.002899,870.699890 
	C475.002899,854.334534 475.002899,837.917297 475.002899,821.000000 
z"/>
<path fill="#F5F2E8" opacity="1.000000" stroke="none" 
	d="
M475.053467,639.256409 
	C475.997437,638.519531 476.900330,638.037231 477.803864,638.036072 
	C507.614899,637.996704 537.425964,638.003479 567.620056,638.003479 
	C567.620056,668.804382 567.620056,699.521912 567.620056,730.621643 
	C537.195190,730.621643 506.477722,730.621643 475.012695,730.621643 
	C475.012695,700.511230 475.012695,670.123230 475.053467,639.256409 
z"/>
<path fill="#F7F5ED" opacity="1.000000" stroke="none" 
	d="
M664.000000,871.000000 
	C647.534668,871.000000 631.569336,871.000000 615.303772,871.000000 
	C615.303772,840.032898 615.303772,809.317566 615.303772,778.299072 
	C645.971802,778.299072 676.687683,778.299072 707.703796,778.299072 
	C707.703796,808.966248 707.703796,839.682739 707.703796,871.000000 
	C693.340393,871.000000 678.920227,871.000000 664.000000,871.000000 
z"/>
<path fill="#F5F2E8" opacity="1.000000" stroke="none" 
	d="
M568.003174,1213.003906 
	C568.003174,1239.129028 568.003174,1264.754639 568.003174,1290.691162 
	C537.056519,1290.691162 506.342407,1290.691162 475.315094,1290.691162 
	C475.315094,1260.050415 475.315094,1229.336914 475.315094,1198.309692 
	C505.955017,1198.309692 536.669189,1198.309692 568.003174,1198.309692 
	C568.003174,1202.983521 568.003174,1207.743896 568.003174,1213.003906 
z"/>
<path fill="#F7F5ED" opacity="1.000000" stroke="none" 
	d="
M697.970398,1011.002686 
	C670.185303,1011.002563 642.894592,1011.002563 615.303467,1011.002563 
	C615.303467,980.031616 615.303467,949.315613 615.303467,918.297791 
	C645.975159,918.297791 676.691650,918.297791 707.706055,918.297791 
	C707.706055,948.971558 707.706055,979.688660 707.706055,1011.002869 
	C704.672241,1011.002869 701.568542,1011.002869 697.970398,1011.002686 
z"/>
<path fill="#F5F2E8" opacity="1.000000" stroke="none" 
	d="
M568.003174,1079.000000 
	C568.003174,1103.127075 568.003174,1126.754028 568.003174,1150.691650 
	C537.055786,1150.691650 506.341675,1150.691650 475.314728,1150.691650 
	C475.314728,1120.049805 475.314728,1089.336304 475.314728,1058.309448 
	C505.955566,1058.309448 536.669678,1058.309448 568.003174,1058.309448 
	C568.003174,1064.979370 568.003174,1071.739746 568.003174,1079.000000 
z"/>
<path fill="#F7F5ED" opacity="1.000000" stroke="none" 
	d="
M708.003052,1104.000000 
	C708.003052,1119.799561 708.003052,1135.099121 708.003052,1150.700195 
	C677.041382,1150.700195 646.325500,1150.700195 615.305420,1150.700195 
	C615.305420,1120.036255 615.305420,1089.320801 615.305420,1058.300781 
	C645.968384,1058.300781 676.684265,1058.300781 708.003052,1058.300781 
	C708.003052,1073.327148 708.003052,1088.413574 708.003052,1104.000000 
z"/>
<path fill="#F7F5ED" opacity="1.000000" stroke="none" 
	d="
M676.000000,1197.999390 
	C686.802429,1197.999390 697.104919,1197.999390 707.704224,1197.999390 
	C707.704224,1228.967407 707.704224,1259.683716 707.704224,1290.702026 
	C677.037598,1290.702026 646.321716,1290.702026 615.303589,1290.702026 
	C615.303589,1260.032349 615.303589,1229.317139 615.303589,1197.999390 
	C635.335022,1197.999390 655.417480,1197.999390 676.000000,1197.999390 
z"/>
<path fill="#F7F5ED" opacity="1.000000" stroke="none" 
	d="
M707.954773,729.751343 
	C707.012268,730.488159 706.109375,730.968872 705.205872,730.970093 
	C675.393188,731.009277 645.580383,731.002441 615.384949,731.002441 
	C615.384949,700.191772 615.384949,669.473877 615.384949,638.376099 
	C645.818115,638.376099 676.537415,638.376099 707.994141,638.376099 
	C707.994141,668.489990 707.994141,698.880798 707.954773,729.751343 
z"/>
<path fill="#F5F2E8" opacity="1.000000" stroke="none" 
	d="
M511.000000,358.000061 
	C530.130005,358.000000 548.760010,358.000000 567.696045,358.000000 
	C567.696045,388.953491 567.696045,419.668243 567.696045,450.693542 
	C537.052185,450.693542 506.338074,450.693542 475.312927,450.693542 
	C475.312927,420.046173 475.312927,389.332703 475.312927,358.000092 
	C486.991241,358.000092 498.745605,358.000092 511.000000,358.000061 
z"/>
<path fill="#F7F5ED" opacity="1.000000" stroke="none" 
	d="
M708.003052,424.000000 
	C708.003052,433.136688 708.003052,441.773376 708.003052,450.705627 
	C677.030579,450.705627 646.314758,450.705627 615.300049,450.705627 
	C615.300049,420.025421 615.300049,389.310089 615.300049,358.295349 
	C645.979309,358.295349 676.695129,358.295349 708.003052,358.295349 
	C708.003052,380.002716 708.003052,401.751373 708.003052,424.000000 
z"/>
<path fill="#F7F5ED" opacity="1.000000" stroke="none" 
	d="
M707.998230,500.215271 
	C708.002319,530.638184 708.002319,560.579590 708.002319,590.761292 
	C676.915771,590.761292 646.197998,590.761292 615.241028,590.761292 
	C615.241028,559.903809 615.241028,529.186646 615.241028,498.002350 
	C616.665466,498.002350 617.947510,498.002411 619.229553,498.002319 
	C647.211243,498.000519 675.193054,497.970032 703.174377,498.071075 
	C704.782959,498.076904 706.387634,499.154785 707.998230,500.215271 
z"/>
<path fill="#F5F2E8" opacity="1.000000" stroke="none" 
	d="
M476.261169,498.053528 
	C507.009918,498.012573 537.278748,498.012573 567.774536,498.012573 
	C567.774536,529.114319 567.774536,559.830750 567.774536,590.775269 
	C536.884521,590.775269 506.168732,590.775269 475.002930,590.775269 
	C475.002930,588.976746 475.002960,587.358643 475.002960,585.740601 
	C475.002960,558.260193 474.988861,530.779785 475.036316,503.299408 
	C475.039307,501.563995 475.521820,499.829437 476.261169,498.053528 
z"/>
<path fill="#FFFFCF" opacity="1.000000" stroke="none" 
	d="
M1590.000000,1585.000000 
	C1590.000000,1426.888306 1590.000000,1269.276611 1590.000000,1111.332520 
	C1615.262085,1111.332520 1640.321777,1111.332520 1665.691406,1111.332520 
	C1665.691406,1317.613892 1665.691406,1523.974243 1665.691406,1730.667480 
	C1640.738037,1730.667480 1615.678467,1730.667480 1590.000000,1730.667480 
	C1590.000000,1682.332642 1590.000000,1633.916260 1590.000000,1585.000000 
z"/>
<path fill="#FFFFCF" opacity="1.000000" stroke="none" 
	d="
M1784.000000,1356.000000 
	C1784.000000,1306.537109 1784.000000,1257.574219 1784.000000,1208.305908 
	C1809.315430,1208.305908 1834.374023,1208.305908 1859.716919,1208.305908 
	C1859.716919,1382.332397 1859.716919,1556.360229 1859.716919,1730.694092 
	C1834.684570,1730.694092 1809.625977,1730.694092 1784.000000,1730.694092 
	C1784.000000,1605.963989 1784.000000,1481.231934 1784.000000,1356.000000 
z"/>
<path fill="#FFFFCF" opacity="1.000000" stroke="none" 
	d="
M1396.000000,1297.000000 
	C1396.000000,1286.528931 1396.000000,1276.557739 1396.000000,1266.294312 
	C1421.338501,1266.294312 1446.396362,1266.294312 1471.727783,1266.294312 
	C1471.727783,1421.021240 1471.727783,1575.716187 1471.727783,1730.705688 
	C1446.661499,1730.705688 1421.603638,1730.705688 1396.000000,1730.705688 
	C1396.000000,1586.282715 1396.000000,1441.891357 1396.000000,1297.000000 
z"/>
<path fill="#FFFFCF" opacity="1.000000" stroke="none" 
	d="
M1279.000000,1370.000000 
	C1279.000000,1490.441040 1279.000000,1610.382202 1279.000000,1730.661621 
	C1253.418945,1730.661621 1228.028076,1730.661621 1202.317993,1730.661621 
	C1202.317993,1602.069458 1202.317993,1473.373291 1202.317993,1344.338379 
	C1227.581055,1344.338379 1252.971924,1344.338379 1279.000000,1344.338379 
	C1279.000000,1352.646484 1279.000000,1361.073242 1279.000000,1370.000000 
z"/>
<path fill="#FFFFCF" opacity="1.000000" stroke="none" 
	d="
M1085.000000,1487.000000 
	C1085.000000,1568.444214 1085.000000,1649.388428 1085.000000,1730.666260 
	C1059.411621,1730.666260 1034.023193,1730.666260 1008.316650,1730.666260 
	C1008.316650,1640.731445 1008.316650,1550.699707 1008.316650,1460.333740 
	C1033.588257,1460.333740 1058.976685,1460.333740 1085.000000,1460.333740 
	C1085.000000,1468.982056 1085.000000,1477.741089 1085.000000,1487.000000 
z"/>
<path fill="#FFFFCF" opacity="1.000000" stroke="none" 
	d="
M1071.810059,1235.699951 
	C1058.755615,1248.455566 1037.782959,1249.276489 1023.683655,1238.294922 
	C1013.274414,1230.187500 1007.793030,1219.675659 1008.123901,1206.736328 
	C1008.631287,1186.893799 1025.656250,1170.379028 1045.172852,1169.777588 
	C1063.038574,1169.227173 1078.981567,1181.618408 1083.576782,1199.034180 
	C1087.008789,1212.041016 1082.123413,1227.252075 1071.810059,1235.699951 
z"/>
</svg>