<svg version="1.1" id="Layer_1" xmlns="http://www.w3.org/2000/svg" xmlns:xlink="http://www.w3.org/1999/xlink" x="0px" y="0px"
	 width="100%" viewBox="0 0 1954 1954" enable-background="new 0 0 1954 1954" xml:space="preserve">
<path fill="#F50007" opacity="1.000000" stroke="none" 
	d="
M0.999999,1937.000000 
	C1.000000,1890.637329 1.000000,1844.274536 1.344649,1797.364868 
	C2.100415,1796.308838 2.647740,1795.859863 2.902660,1795.281982 
	C8.631330,1782.291626 18.883253,1776.889404 32.738445,1776.961792 
	C58.235561,1777.095093 83.733864,1777.000000 109.231674,1777.000000 
	C112.355003,1777.000000 115.478333,1777.000000 118.788406,1777.000000 
	C118.788406,1481.186401 118.788406,1185.804932 118.788406,890.000000 
	C116.962242,890.000000 115.339279,890.043457 113.719238,889.993042 
	C103.312187,889.669312 92.749908,890.326233 82.538261,888.736450 
	C69.493767,886.705444 59.839699,873.832642 59.916073,860.766235 
	C60.147888,821.104309 60.420155,781.433655 59.801758,741.780029 
	C59.539192,724.943481 73.707344,710.916748 90.671974,710.933350 
	C216.494370,711.056396 342.316956,711.000000 468.139465,711.000000 
	C470.054932,711.000000 471.970367,711.000000 473.633331,711.000000 
	C473.633331,533.223572 473.633331,356.168091 473.633331,179.000000 
	C454.439514,179.000000 435.608215,178.757950 416.785950,179.067612 
	C397.716278,179.381363 385.188751,166.188095 385.070557,147.177963 
	C384.833221,109.016052 384.951324,70.851463 385.077942,32.688496 
	C385.090118,29.014843 385.905670,25.270164 386.841125,21.687130 
	C389.622131,11.035126 397.549377,5.238371 407.000000,1.000000 
	C787.362732,1.000000 1167.725464,1.000000 1548.662109,1.354423 
	C1561.865845,5.027514 1570.846191,17.151484 1570.922974,30.389721 
	C1571.142212,68.220573 1571.026733,106.053574 1570.956909,143.885574 
	C1570.950195,147.465973 1570.368408,151.048386 1570.001343,154.624496 
	C1568.595093,168.325348 1555.212280,179.113968 1541.545532,179.028152 
	C1523.380005,178.914078 1505.213501,179.000000 1487.047363,179.000000 
	C1485.447998,179.000000 1483.848633,179.000000 1482.310791,179.000000 
	C1482.310791,356.651245 1482.310791,533.713318 1482.310791,711.000000 
	C1484.598389,711.000000 1486.580200,711.000000 1488.562012,711.000000 
	C1612.224731,711.000000 1735.887451,710.989319 1859.550171,711.042175 
	C1864.128662,711.044128 1868.732422,711.465027 1873.280396,712.039062 
	C1884.269043,713.426025 1896.147339,726.822205 1896.088867,737.892029 
	C1895.867798,779.722900 1896.007568,821.555542 1895.971680,863.387573 
	C1895.970337,864.987915 1895.712646,866.630676 1895.301636,868.181396 
	C1891.778809,881.469849 1878.892700,889.942627 1865.684692,889.993042 
	C1856.239624,890.029114 1846.794312,890.000000 1837.258057,890.000000 
	C1837.258057,1185.884033 1837.258057,1481.276611 1837.258057,1777.000000 
	C1839.145752,1777.000000 1840.779175,1777.000000 1842.412598,1777.000000 
	C1870.411743,1777.000000 1898.412354,1776.827393 1926.409058,1777.094482 
	C1936.094727,1777.186768 1944.395630,1781.011597 1949.927979,1789.468506 
	C1951.737427,1792.234497 1953.315918,1795.151855 1955.000000,1798.000000 
	C1955.000000,1843.696045 1955.000000,1889.392090 1954.655396,1935.635132 
	C1950.176758,1945.300171 1943.301025,1951.458984 1934.000000,1955.000000 
	C1295.970581,1955.000000 657.941284,1955.000000 19.452063,1954.626221 
	C12.245268,1949.720093 5.615076,1945.080322 2.419625,1937.097900 
	C2.343043,1936.906494 1.490565,1937.025757 0.999999,1937.000000 
M1422.000000,1596.500000 
	C1422.000000,1124.097168 1422.000000,651.694458 1422.000000,179.360046 
	C1372.645874,179.360046 1323.923096,179.360046 1275.000000,179.360046 
	C1275.000000,181.872375 1275.000000,184.027618 1275.000000,186.182861 
	C1275.000000,346.840912 1275.011597,507.498932 1274.957886,668.156982 
	C1274.955688,674.581970 1274.524170,681.023254 1273.962402,687.428040 
	C1272.812012,700.545654 1259.974365,711.989990 1246.517212,711.990967 
	C1067.526855,712.004456 888.536438,712.011597 709.546082,711.910828 
	C706.230774,711.908997 702.703430,711.072815 699.638000,709.771118 
	C685.984680,703.973328 681.072449,692.477356 681.064087,678.678955 
	C680.964722,514.354492 681.000000,350.030029 681.000000,185.705521 
	C681.000000,183.594620 681.000000,181.483719 681.000000,179.314667 
	C631.737000,179.314667 583.014526,179.314667 534.331909,179.314667 
	C534.331909,712.000000 534.331909,1244.370605 534.331909,1776.622803 
	C573.721558,1776.622803 612.778198,1776.622803 651.759888,1776.622803 
	C651.759888,1638.977661 651.759888,1501.709839 651.759888,1364.000000 
	C646.072021,1364.000000 640.610535,1364.130005 635.158020,1363.964111 
	C629.559448,1363.793823 623.971680,1363.100220 618.375549,1363.050659 
	C606.832397,1362.948364 592.921021,1350.227051 592.960205,1335.930420 
	C593.072876,1294.766357 593.014526,1253.601562 592.991943,1212.437134 
	C592.984253,1198.415161 605.856934,1185.081543 620.273499,1185.075073 
	C858.760620,1184.969482 1097.247803,1184.958252 1335.734863,1185.103638 
	C1350.084717,1185.112427 1362.950928,1197.619995 1362.976196,1212.445801 
	C1363.045410,1253.276855 1362.778564,1294.109985 1363.129028,1334.938110 
	C1363.240601,1347.930420 1353.045410,1359.133301 1343.352295,1361.914307 
	C1339.167725,1363.114868 1334.716309,1363.760010 1330.360474,1363.910400 
	C1321.622437,1364.212036 1312.866699,1364.000000 1304.253418,1364.000000 
	C1304.253418,1502.049072 1304.253418,1639.316895 1304.253418,1776.701416 
	C1343.563599,1776.701416 1382.619629,1776.701416 1422.000000,1776.701416 
	C1422.000000,1716.768921 1422.000000,1657.134399 1422.000000,1596.500000 
M1638.500000,1777.000000 
	C1684.584106,1777.000000 1730.668213,1777.000000 1776.697021,1777.000000 
	C1776.697021,1480.999878 1776.697021,1185.644531 1776.697021,890.322388 
	C1678.345703,890.322388 1580.297729,890.322388 1482.302979,890.322388 
	C1482.302979,1186.000244 1482.302979,1481.355591 1482.302979,1777.000000 
	C1534.237061,1777.000000 1585.868530,1777.000000 1638.500000,1777.000000 
M179.000000,1700.500000 
	C179.000000,1725.920776 179.000000,1751.341431 179.000000,1776.654297 
	C277.701111,1776.654297 375.749084,1776.654297 473.673584,1776.654297 
	C473.673584,1480.953003 473.673584,1185.597534 473.673584,890.345764 
	C375.298798,890.345764 277.250824,890.345764 179.000000,890.345764 
	C179.000000,1160.294312 179.000000,1429.897217 179.000000,1700.500000 
M1214.000000,290.500000 
	C1214.000000,253.413544 1214.000000,216.327087 1214.000000,179.315826 
	C1056.326660,179.315826 899.285156,179.315826 742.315796,179.315826 
	C742.315796,337.006683 742.315796,494.381500 742.315796,651.684204 
	C899.673340,651.684204 1056.714844,651.684204 1214.000000,651.684204 
	C1214.000000,531.412354 1214.000000,411.456177 1214.000000,290.500000 
M958.500000,1895.000000 
	C1270.556641,1895.000000 1582.613281,1895.000000 1894.570068,1895.000000 
	C1894.570068,1875.180176 1894.570068,1856.280151 1894.570068,1837.369873 
	C1283.262695,1837.369873 672.385132,1837.369873 61.341518,1837.369873 
	C61.341518,1856.640015 61.341518,1875.538818 61.341518,1895.000000 
	C360.288452,1895.000000 658.894226,1895.000000 958.500000,1895.000000 
M833.500000,1364.000000 
	C793.080811,1364.000000 752.661560,1364.000000 712.298706,1364.000000 
	C712.298706,1501.988159 712.298706,1639.364502 712.298706,1776.694336 
	C790.983704,1776.694336 869.369568,1776.694336 947.701294,1776.694336 
	C947.701294,1639.011841 947.701294,1501.635498 947.701294,1364.000000 
	C909.768799,1364.000000 872.134399,1364.000000 833.500000,1364.000000 
M1244.000000,1378.504639 
	C1244.000000,1373.742432 1244.000000,1368.980225 1244.000000,1364.319824 
	C1164.988281,1364.319824 1086.602295,1364.319824 1008.312866,1364.319824 
	C1008.312866,1502.016357 1008.312866,1639.392822 1008.312866,1776.680054 
	C1087.012085,1776.680054 1165.398071,1776.680054 1244.000000,1776.680054 
	C1244.000000,1644.074707 1244.000000,1511.789062 1244.000000,1378.504639 
M1095.500000,61.000000 
	C879.086426,61.000000 662.672852,61.000000 446.306793,61.000000 
	C446.306793,80.716751 446.306793,99.641975 446.306793,118.605072 
	C801.322510,118.605072 1156.031250,118.605072 1510.693237,118.605072 
	C1510.693237,99.283287 1510.693237,80.358047 1510.693237,61.000000 
	C1372.424683,61.000000 1234.462280,61.000000 1095.500000,61.000000 
M717.500000,1245.000000 
	C696.077026,1245.000000 674.654053,1245.000000 653.389160,1245.000000 
	C653.389160,1264.745361 653.389160,1283.804199 653.389160,1302.746216 
	C870.047363,1302.746216 1086.316406,1302.746216 1302.699219,1302.746216 
	C1302.699219,1283.433838 1302.699219,1264.376587 1302.699219,1245.000000 
	C1107.765869,1245.000000 913.132935,1245.000000 717.500000,1245.000000 
M358.500000,830.000000 
	C396.915131,830.000000 435.330261,830.000000 473.693237,830.000000 
	C473.693237,809.949829 473.693237,790.691345 473.693237,771.395020 
	C355.677094,771.395020 237.968155,771.395020 120.306854,771.395020 
	C120.306854,791.050232 120.306854,810.308716 120.306854,830.000000 
	C199.575272,830.000000 278.537628,830.000000 358.500000,830.000000 
M1740.500000,771.000000 
	C1654.419312,771.000000 1568.338501,771.000000 1482.306641,771.000000 
	C1482.306641,791.049927 1482.306641,810.308411 1482.306641,829.605103 
	C1600.322754,829.605103 1718.031616,829.605103 1835.693359,829.605103 
	C1835.693359,809.950073 1835.693359,790.691589 1835.693359,771.000000 
	C1804.092285,771.000000 1772.796143,771.000000 1740.500000,771.000000 
z"/>
<path fill="#FFFFFF" opacity="1.000000" stroke="none" 
	d="
M406.531342,1.000000 
	C397.549377,5.238371 389.622131,11.035126 386.841125,21.687130 
	C385.905670,25.270164 385.090118,29.014843 385.077942,32.688496 
	C384.951324,70.851463 384.833221,109.016052 385.070557,147.177963 
	C385.188751,166.188095 397.716278,179.381363 416.785950,179.067612 
	C435.608215,178.757950 454.439514,179.000000 473.633331,179.000000 
	C473.633331,356.168091 473.633331,533.223572 473.633331,711.000000 
	C471.970367,711.000000 470.054932,711.000000 468.139465,711.000000 
	C342.316956,711.000000 216.494370,711.056396 90.671974,710.933350 
	C73.707344,710.916748 59.539192,724.943481 59.801758,741.780029 
	C60.420155,781.433655 60.147888,821.104309 59.916073,860.766235 
	C59.839699,873.832642 69.493767,886.705444 82.538261,888.736450 
	C92.749908,890.326233 103.312187,889.669312 113.719238,889.993042 
	C115.339279,890.043457 116.962242,890.000000 118.788406,890.000000 
	C118.788406,1185.804932 118.788406,1481.186401 118.788406,1777.000000 
	C115.478333,1777.000000 112.355003,1777.000000 109.231674,1777.000000 
	C83.733864,1777.000000 58.235561,1777.095093 32.738445,1776.961792 
	C18.883253,1776.889404 8.631330,1782.291626 2.902660,1795.281982 
	C2.647740,1795.859863 2.100415,1796.308838 1.344649,1796.908936 
	C1.000000,1198.452026 1.000000,599.904114 1.000000,1.000000 
	C136.020691,1.000000 271.041687,1.000000 406.531342,1.000000 
z"/>
<path fill="#FFFFFF" opacity="1.000000" stroke="none" 
	d="
M1955.000000,1797.531372 
	C1953.315918,1795.151855 1951.737427,1792.234497 1949.927979,1789.468506 
	C1944.395630,1781.011597 1936.094727,1777.186768 1926.409058,1777.094482 
	C1898.412354,1776.827393 1870.411743,1777.000000 1842.412598,1777.000000 
	C1840.779175,1777.000000 1839.145752,1777.000000 1837.258057,1777.000000 
	C1837.258057,1481.276611 1837.258057,1185.884033 1837.258057,890.000000 
	C1846.794312,890.000000 1856.239624,890.029114 1865.684692,889.993042 
	C1878.892700,889.942627 1891.778809,881.469849 1895.301636,868.181396 
	C1895.712646,866.630676 1895.970337,864.987915 1895.971680,863.387573 
	C1896.007568,821.555542 1895.867798,779.722900 1896.088867,737.892029 
	C1896.147339,726.822205 1884.269043,713.426025 1873.280396,712.039062 
	C1868.732422,711.465027 1864.128662,711.044128 1859.550171,711.042175 
	C1735.887451,710.989319 1612.224731,711.000000 1488.562012,711.000000 
	C1486.580200,711.000000 1484.598389,711.000000 1482.310791,711.000000 
	C1482.310791,533.713318 1482.310791,356.651245 1482.310791,179.000000 
	C1483.848633,179.000000 1485.447998,179.000000 1487.047363,179.000000 
	C1505.213501,179.000000 1523.380005,178.914078 1541.545532,179.028152 
	C1555.212280,179.113968 1568.595093,168.325348 1570.001343,154.624496 
	C1570.368408,151.048386 1570.950195,147.465973 1570.956909,143.885574 
	C1571.026733,106.053574 1571.142212,68.220573 1570.922974,30.389721 
	C1570.846191,17.151484 1561.865845,5.027514 1549.118164,1.354423 
	C1684.306519,1.000000 1819.613037,1.000000 1955.000000,1.000000 
	C1955.000000,599.687561 1955.000000,1198.375122 1955.000000,1797.531372 
z"/>
<path fill="#FFFFFF" opacity="1.000000" stroke="none" 
	d="
M1934.468872,1955.000000 
	C1943.301025,1951.458984 1950.176758,1945.300171 1954.655396,1936.091064 
	C1955.000000,1942.263184 1955.000000,1948.526245 1955.000000,1955.000000 
	C1948.314087,1955.000000 1941.625854,1955.000000 1934.468872,1955.000000 
z"/>
<path fill="#FFFFFF" opacity="1.000000" stroke="none" 
	d="
M0.999999,1937.469727 
	C1.490565,1937.025757 2.343043,1936.906494 2.419625,1937.097900 
	C5.615076,1945.080322 12.245268,1949.720093 18.996113,1954.626221 
	C13.074274,1955.000000 7.148548,1955.000000 1.000000,1955.000000 
	C1.000000,1949.315063 1.000000,1943.627319 0.999999,1937.469727 
z"/>
<path fill="#FDCCCD" opacity="1.000000" stroke="none" 
	d="
M1422.000000,1597.000000 
	C1422.000000,1657.134399 1422.000000,1716.768921 1422.000000,1776.701416 
	C1382.619629,1776.701416 1343.563599,1776.701416 1304.253418,1776.701416 
	C1304.253418,1639.316895 1304.253418,1502.049072 1304.253418,1364.000000 
	C1312.866699,1364.000000 1321.622437,1364.212036 1330.360474,1363.910400 
	C1334.716309,1363.760010 1339.167725,1363.114868 1343.352295,1361.914307 
	C1353.045410,1359.133301 1363.240601,1347.930420 1363.129028,1334.938110 
	C1362.778564,1294.109985 1363.045410,1253.276855 1362.976196,1212.445801 
	C1362.950928,1197.619995 1350.084717,1185.112427 1335.734863,1185.103638 
	C1097.247803,1184.958252 858.760620,1184.969482 620.273499,1185.075073 
	C605.856934,1185.081543 592.984253,1198.415161 592.991943,1212.437134 
	C593.014526,1253.601562 593.072876,1294.766357 592.960205,1335.930420 
	C592.921021,1350.227051 606.832397,1362.948364 618.375549,1363.050659 
	C623.971680,1363.100220 629.559448,1363.793823 635.158020,1363.964111 
	C640.610535,1364.130005 646.072021,1364.000000 651.759888,1364.000000 
	C651.759888,1501.709839 651.759888,1638.977661 651.759888,1776.622803 
	C612.778198,1776.622803 573.721558,1776.622803 534.331909,1776.622803 
	C534.331909,1244.370605 534.331909,712.000000 534.331909,179.314667 
	C583.014526,179.314667 631.737000,179.314667 681.000000,179.314667 
	C681.000000,181.483719 681.000000,183.594620 681.000000,185.705521 
	C681.000000,350.030029 680.964722,514.354492 681.064087,678.678955 
	C681.072449,692.477356 685.984680,703.973328 699.638000,709.771118 
	C702.703430,711.072815 706.230774,711.908997 709.546082,711.910828 
	C888.536438,712.011597 1067.526855,712.004456 1246.517212,711.990967 
	C1259.974365,711.989990 1272.812012,700.545654 1273.962402,687.428040 
	C1274.524170,681.023254 1274.955688,674.581970 1274.957886,668.156982 
	C1275.011597,507.498932 1275.000000,346.840912 1275.000000,186.182861 
	C1275.000000,184.027618 1275.000000,181.872375 1275.000000,179.360046 
	C1323.923096,179.360046 1372.645874,179.360046 1422.000000,179.360046 
	C1422.000000,651.694458 1422.000000,1124.097168 1422.000000,1597.000000 
M593.000000,997.500000 
	C593.000000,1031.329224 592.988892,1065.158447 593.031433,1098.987671 
	C593.033630,1100.753662 593.402161,1102.537109 593.752869,1104.281982 
	C596.552307,1118.210449 610.272034,1127.032959 624.694641,1127.030273 
	C858.501770,1126.987671 1092.308960,1127.005615 1326.116089,1126.958130 
	C1330.704346,1126.957153 1335.337891,1126.629028 1339.871948,1125.938477 
	C1351.898560,1124.106812 1363.145996,1111.172607 1363.120850,1099.227783 
	C1362.908691,998.739502 1363.003296,898.250549 1362.975952,797.761841 
	C1362.975464,795.811096 1362.910645,793.774902 1362.374634,791.923523 
	C1358.455200,778.380432 1346.594849,770.019409 1331.605347,770.017761 
	C1097.631592,769.992371 863.657776,769.994751 629.683960,770.041382 
	C625.428955,770.042236 621.160217,770.539734 616.921875,771.017883 
	C605.182190,772.342102 592.917236,784.519043 592.943970,798.522278 
	C593.069763,864.514648 593.000000,930.507385 593.000000,997.500000 
z"/>
<path fill="#FDE1D6" opacity="1.000000" stroke="none" 
	d="
M1638.000000,1777.000000 
	C1585.868530,1777.000000 1534.237061,1777.000000 1482.302979,1777.000000 
	C1482.302979,1481.355591 1482.302979,1186.000244 1482.302979,890.322388 
	C1580.297729,890.322388 1678.345703,890.322388 1776.697021,890.322388 
	C1776.697021,1185.644531 1776.697021,1480.999878 1776.697021,1777.000000 
	C1730.668213,1777.000000 1684.584106,1777.000000 1638.000000,1777.000000 
M1659.000000,1349.495239 
	C1659.000000,1354.249878 1659.000000,1359.004517 1659.000000,1363.679199 
	C1679.345215,1363.679199 1699.047729,1363.679199 1718.679688,1363.679199 
	C1718.679688,1343.321533 1718.679688,1323.286011 1718.679688,1303.320557 
	C1698.655029,1303.320557 1678.952515,1303.320557 1659.000000,1303.320557 
	C1659.000000,1318.592041 1659.000000,1333.544189 1659.000000,1349.495239 
M1600.000000,1350.491211 
	C1600.000000,1334.753906 1600.000000,1319.016479 1600.000000,1303.304688 
	C1579.687622,1303.304688 1559.985229,1303.304688 1540.304565,1303.304688 
	C1540.304565,1323.646240 1540.304565,1343.681641 1540.304565,1363.694946 
	C1560.313110,1363.694946 1580.015503,1363.694946 1600.000000,1363.694946 
	C1600.000000,1359.424316 1600.000000,1355.455933 1600.000000,1350.491211 
M1678.500366,1127.000000 
	C1691.908569,1127.000000 1705.316772,1127.000000 1718.694946,1127.000000 
	C1718.694946,1106.352295 1718.694946,1086.317139 1718.694946,1066.305176 
	C1698.686157,1066.305176 1678.983887,1066.305176 1659.304688,1066.305176 
	C1659.304688,1086.647095 1659.304688,1106.682251 1659.304688,1127.000000 
	C1665.570801,1127.000000 1671.535645,1127.000000 1678.500366,1127.000000 
M1540.000000,1076.526367 
	C1540.000000,1093.261108 1540.000000,1109.995728 1540.000000,1126.689697 
	C1560.322876,1126.689697 1580.025757,1126.689697 1599.689087,1126.689697 
	C1599.689087,1106.341797 1599.689087,1086.305908 1599.689087,1066.312256 
	C1579.673584,1066.312256 1559.970581,1066.312256 1540.000000,1066.312256 
	C1540.000000,1069.593994 1540.000000,1072.566162 1540.000000,1076.526367 
M1577.500000,1185.000000 
	C1565.090332,1185.000000 1552.680664,1185.000000 1540.306885,1185.000000 
	C1540.306885,1205.317871 1540.306885,1225.019897 1540.306885,1244.693237 
	C1560.317505,1244.693237 1580.019409,1244.693237 1599.693359,1244.693237 
	C1599.693359,1224.682861 1599.693359,1204.980713 1599.693359,1185.000000 
	C1592.426636,1185.000000 1585.463257,1185.000000 1577.500000,1185.000000 
M1718.998413,1716.286987 
	C1718.998413,1697.237915 1718.998413,1678.188843 1718.998413,1659.376343 
	C1698.546753,1659.376343 1678.840942,1659.376343 1659.379883,1659.376343 
	C1659.379883,1679.460205 1659.379883,1699.166138 1659.379883,1718.999390 
	C1678.390381,1718.999390 1697.021484,1719.029541 1715.651978,1718.924561 
	C1716.766479,1718.918335 1717.874878,1717.831299 1718.998413,1716.286987 
M1540.000122,1715.322388 
	C1539.379517,1718.602051 1541.047363,1719.092529 1543.920288,1719.059814 
	C1556.230957,1718.919067 1568.544312,1718.999878 1580.856689,1719.000000 
	C1587.123291,1719.000000 1593.389893,1719.000000 1599.727661,1719.000000 
	C1599.727661,1698.756226 1599.727661,1679.052612 1599.727661,1659.275146 
	C1579.750488,1659.275146 1560.046875,1659.275146 1540.000000,1659.275146 
	C1540.000000,1677.817627 1540.000000,1696.087036 1540.000122,1715.322388 
M1674.503662,1600.000000 
	C1689.242676,1600.000000 1703.981812,1600.000000 1718.696045,1600.000000 
	C1718.696045,1579.688477 1718.696045,1559.986328 1718.696045,1540.303955 
	C1698.688477,1540.303955 1678.986450,1540.303955 1659.303955,1540.303955 
	C1659.303955,1560.311401 1659.303955,1580.013550 1659.303955,1600.000000 
	C1664.238403,1600.000000 1668.871826,1600.000000 1674.503662,1600.000000 
M1600.000000,1589.473633 
	C1600.000000,1573.072021 1600.000000,1556.670288 1600.000000,1540.310425 
	C1579.676636,1540.310425 1559.973877,1540.310425 1540.311279,1540.310425 
	C1540.311279,1560.325195 1540.311279,1580.028076 1540.311279,1599.687744 
	C1560.327026,1599.687744 1580.029785,1599.687744 1600.000000,1599.687744 
	C1600.000000,1596.406006 1600.000000,1593.433838 1600.000000,1589.473633 
M1701.498779,1422.000000 
	C1687.425171,1422.000000 1673.351562,1422.000000 1659.304199,1422.000000 
	C1659.304199,1442.312256 1659.304199,1462.014282 1659.304199,1481.695801 
	C1679.312134,1481.695801 1699.014160,1481.695801 1718.696045,1481.695801 
	C1718.696045,1461.688110 1718.696045,1441.986206 1718.696045,1422.000000 
	C1713.095825,1422.000000 1707.796875,1422.000000 1701.498779,1422.000000 
M1573.500000,1482.000000 
	C1582.249146,1482.000000 1590.998291,1482.000000 1599.685913,1482.000000 
	C1599.685913,1461.667725 1599.685913,1441.965698 1599.685913,1422.313965 
	C1579.668091,1422.313965 1559.965942,1422.313965 1540.313721,1422.313965 
	C1540.313721,1442.331665 1540.313721,1462.033691 1540.313721,1482.000000 
	C1551.250366,1482.000000 1561.875244,1482.000000 1573.500000,1482.000000 
M1540.000000,964.502014 
	C1540.000000,978.908325 1540.000000,993.314697 1540.000000,1007.695984 
	C1560.311768,1007.695984 1580.013794,1007.695984 1599.696045,1007.695984 
	C1599.696045,987.688354 1599.696045,967.986328 1599.696045,948.303955 
	C1579.688354,948.303955 1559.986206,948.303955 1540.000000,948.303955 
	C1540.000000,953.571411 1540.000000,958.537537 1540.000000,964.502014 
M1705.491211,948.000000 
	C1690.086914,948.000000 1674.682495,948.000000 1659.304810,948.000000 
	C1659.304810,968.312988 1659.304810,988.015137 1659.304810,1007.695068 
	C1679.313354,1007.695068 1699.015625,1007.695068 1718.694824,1007.695068 
	C1718.694824,987.686340 1718.694824,967.984253 1718.694824,948.000000 
	C1714.424194,948.000000 1710.455933,948.000000 1705.491211,948.000000 
M1719.000000,1215.500000 
	C1719.000000,1205.419800 1719.000000,1195.339600 1719.000000,1185.311523 
	C1698.672974,1185.311523 1678.970947,1185.311523 1659.311279,1185.311523 
	C1659.311279,1205.326660 1659.311279,1225.028687 1659.311279,1244.688843 
	C1679.326416,1244.688843 1699.028442,1244.688843 1719.000000,1244.688843 
	C1719.000000,1235.086426 1719.000000,1225.793213 1719.000000,1215.500000 
z"/>
<path fill="#FDE1D6" opacity="1.000000" stroke="none" 
	d="
M179.000000,1700.000000 
	C179.000000,1429.897217 179.000000,1160.294312 179.000000,890.345764 
	C277.250824,890.345764 375.298798,890.345764 473.673584,890.345764 
	C473.673584,1185.597534 473.673584,1480.953003 473.673584,1776.654297 
	C375.749084,1776.654297 277.701111,1776.654297 179.000000,1776.654297 
	C179.000000,1751.341431 179.000000,1725.920776 179.000000,1700.000000 
M357.910736,1007.978394 
	C376.945068,1007.930054 395.979370,1007.881714 415.529663,1007.902466 
	C415.630890,1007.607971 415.732117,1007.313538 415.978333,1006.089355 
	C415.929993,987.054993 415.881653,968.020691 415.902374,948.470337 
	C415.607910,948.369141 415.313477,948.267883 414.089264,948.021606 
	C395.054932,948.069946 376.020630,948.118286 356.470337,948.097534 
	C356.369110,948.392029 356.267883,948.686462 356.021637,949.910645 
	C356.069977,968.945007 356.118317,987.979309 356.097626,1007.529663 
	C356.392059,1007.630920 356.686493,1007.732178 357.910736,1007.978394 
M298.000000,1073.569336 
	C298.000000,1071.139160 298.000000,1068.708984 298.000000,1066.303955 
	C277.357239,1066.303955 257.320831,1066.303955 237.305420,1066.303955 
	C237.305420,1086.645752 237.305420,1106.682251 237.305420,1126.693115 
	C257.648804,1126.693115 277.685242,1126.693115 298.000000,1126.693115 
	C298.000000,1109.108765 298.000000,1091.829712 298.000000,1073.569336 
M248.519196,1303.000000 
	C244.758301,1303.000000 240.997406,1303.000000 237.317947,1303.000000 
	C237.317947,1323.672485 237.317947,1343.708374 237.317947,1363.681641 
	C257.673462,1363.681641 277.709412,1363.681641 297.681152,1363.681641 
	C297.681152,1343.325684 297.681152,1323.289795 297.681152,1303.000000 
	C281.413239,1303.000000 265.462830,1303.000000 248.519196,1303.000000 
M298.000000,1670.519287 
	C298.000000,1666.758423 298.000000,1662.997559 298.000000,1659.317505 
	C277.327911,1659.317505 257.292267,1659.317505 237.318298,1659.317505 
	C237.318298,1679.339478 237.318298,1699.042358 237.318298,1718.681641 
	C257.673950,1718.681641 277.709686,1718.681641 298.000000,1718.681641 
	C298.000000,1702.747192 298.000000,1687.129761 298.000000,1670.519287 
M283.494720,1540.000000 
	C268.089905,1540.000000 252.685089,1540.000000 237.304077,1540.000000 
	C237.304077,1560.311157 237.304077,1580.013550 237.304077,1599.696045 
	C257.644989,1599.696045 277.680298,1599.696045 297.695618,1599.696045 
	C297.695618,1579.688232 297.695618,1559.985840 297.695618,1540.000000 
	C293.094452,1540.000000 288.792847,1540.000000 283.494720,1540.000000 
M298.000000,1433.519287 
	C298.000000,1429.758423 298.000000,1425.997559 298.000000,1422.317505 
	C277.327911,1422.317505 257.292267,1422.317505 237.318298,1422.317505 
	C237.318298,1442.339478 237.318298,1462.042358 237.318298,1481.681641 
	C257.673950,1481.681641 277.709686,1481.681641 298.000000,1481.681641 
	C298.000000,1465.747192 298.000000,1450.129761 298.000000,1433.519287 
M416.000000,1357.411011 
	C416.000000,1339.349731 416.000000,1321.288574 416.000000,1303.332520 
	C395.634094,1303.332520 375.929840,1303.332520 356.334473,1303.332520 
	C356.334473,1323.703979 356.334473,1343.741211 356.334473,1363.662476 
	C376.374390,1363.662476 396.078156,1363.662476 416.000000,1363.662476 
	C416.000000,1361.678711 416.000000,1360.031494 416.000000,1357.411011 
M237.000000,987.499878 
	C237.000000,994.253174 237.000000,1001.006531 237.000000,1007.682251 
	C257.673462,1007.682251 277.708771,1007.682251 297.682068,1007.682251 
	C297.682068,987.660400 297.682068,967.958008 297.682068,948.317444 
	C277.327271,948.317444 257.292023,948.317444 237.000000,948.317444 
	C237.000000,961.255432 237.000000,973.877625 237.000000,987.499878 
M298.000000,1225.499634 
	C298.000000,1212.091431 298.000000,1198.683228 298.000000,1185.305054 
	C277.352295,1185.305054 257.317169,1185.305054 237.305237,1185.305054 
	C237.305237,1205.313965 237.305237,1225.016235 237.305237,1244.695190 
	C257.647125,1244.695190 277.682251,1244.695190 298.000000,1244.695190 
	C298.000000,1238.429199 298.000000,1232.464355 298.000000,1225.499634 
M382.500000,1127.000000 
	C393.578613,1127.000000 404.657227,1127.000000 415.690582,1127.000000 
	C415.690582,1106.343506 415.690582,1086.308228 415.690582,1066.309570 
	C395.677338,1066.309570 375.975098,1066.309570 356.309082,1066.309570 
	C356.309082,1086.655884 356.309082,1106.691040 356.309082,1127.000000 
	C364.910339,1127.000000 373.205170,1127.000000 382.500000,1127.000000 
M384.500000,1659.000000 
	C375.085449,1659.000000 365.670868,1659.000000 356.312805,1659.000000 
	C356.312805,1679.329712 356.312805,1699.031860 356.312805,1718.687378 
	C376.329315,1718.687378 396.031372,1718.687378 415.687500,1718.687378 
	C415.687500,1698.671021 415.687500,1678.968994 415.687500,1659.000000 
	C405.418030,1659.000000 395.459015,1659.000000 384.500000,1659.000000 
M367.519165,1540.000000 
	C363.758362,1540.000000 359.997559,1540.000000 356.317810,1540.000000 
	C356.317810,1560.338989 356.317810,1580.041626 356.317810,1599.681763 
	C376.339905,1599.681763 396.042511,1599.681763 415.681305,1599.681763 
	C415.681305,1579.659180 415.681305,1559.956543 415.681305,1540.000000 
	C399.746796,1540.000000 384.129578,1540.000000 367.519165,1540.000000 
M356.000000,1451.500000 
	C356.000000,1461.580200 356.000000,1471.660400 356.000000,1481.688477 
	C376.326996,1481.688477 396.029022,1481.688477 415.688660,1481.688477 
	C415.688660,1461.673340 415.688660,1441.971313 415.688660,1422.311157 
	C395.673615,1422.311157 375.971497,1422.311157 356.000000,1422.311157 
	C356.000000,1431.913574 356.000000,1441.206787 356.000000,1451.500000 
M356.000000,1236.451782 
	C356.000000,1239.216675 356.000000,1241.981567 356.000000,1244.690186 
	C376.322388,1244.690186 396.025055,1244.690186 415.689514,1244.690186 
	C415.689514,1224.676270 415.689514,1204.973633 415.689514,1185.311279 
	C395.674774,1185.311279 375.972168,1185.311279 356.000000,1185.311279 
	C356.000000,1202.234497 356.000000,1218.848145 356.000000,1236.451782 
z"/>
<path fill="#FDFDD1" opacity="1.000000" stroke="none" 
	d="
M1214.000000,291.000000 
	C1214.000000,411.456177 1214.000000,531.412354 1214.000000,651.684204 
	C1056.714844,651.684204 899.673340,651.684204 742.315796,651.684204 
	C742.315796,494.381500 742.315796,337.006683 742.315796,179.315826 
	C899.285156,179.315826 1056.326660,179.315826 1214.000000,179.315826 
	C1214.000000,216.327087 1214.000000,253.413544 1214.000000,291.000000 
M1129.057251,504.977997 
	C1129.999268,504.694763 1130.923706,504.266510 1131.885986,504.150085 
	C1145.783203,502.468445 1156.349243,488.002380 1156.180298,474.848419 
	C1155.677612,435.695831 1155.495117,396.523346 1156.217407,357.377594 
	C1156.567871,338.376068 1140.607178,325.655426 1124.725586,325.931519 
	C1107.400879,326.232727 1090.066895,326.000000 1072.736938,326.000000 
	C1070.969116,326.000000 1069.201294,326.000000 1067.000000,326.000000 
	C1067.000000,323.519043 1067.000000,321.719452 1067.000000,319.919830 
	C1067.000000,301.756683 1066.995850,283.593567 1067.001953,265.430420 
	C1067.004395,258.331909 1064.341553,252.352753 1059.642700,247.108032 
	C1052.971436,239.661819 1044.307983,237.069992 1034.768921,237.041138 
	C1000.275940,236.936813 965.782410,236.953400 931.289368,237.044601 
	C925.347351,237.060303 919.387939,237.464462 913.469666,238.033188 
	C900.499207,239.279587 889.023926,251.999283 889.006348,264.962006 
	C888.981323,283.458374 889.006348,301.954803 888.989685,320.451202 
	C888.988098,322.208527 888.842896,323.965759 888.751953,326.000488 
	C868.869446,326.000488 849.553162,325.805725 830.242615,326.055878 
	C811.342224,326.300751 799.834351,341.165436 799.924011,356.541321 
	C800.152405,395.699005 800.218933,434.860718 799.902100,474.017181 
	C799.756714,491.992767 813.881104,505.211456 831.273315,505.037933 
	C848.601562,504.864990 865.932861,505.000000 883.262817,505.000000 
	C885.030701,505.000000 886.798584,505.000000 889.000000,505.000000 
	C889.000000,507.480713 889.000000,509.280334 889.000000,511.079926 
	C889.000000,529.409668 888.737793,547.745850 889.185913,566.064636 
	C889.296753,570.595398 890.930176,575.524109 893.224548,579.480713 
	C899.001465,589.442505 908.482117,593.887146 919.726074,593.937195 
	C957.051331,594.103394 994.377991,594.028015 1031.703857,593.957153 
	C1035.477661,593.949951 1039.283569,593.560303 1043.017578,592.980896 
	C1056.883667,590.829041 1066.993896,579.020325 1066.998535,565.159180 
	C1067.004639,546.996033 1067.000000,528.832947 1067.000000,510.669800 
	C1067.000000,508.908508 1067.000000,507.147247 1067.000000,504.995422 
	C1087.865601,504.995422 1108.001099,504.995422 1129.057251,504.977997 
z"/>
<path fill="#F9666A" opacity="1.000000" stroke="none" 
	d="
M958.000000,1895.000000 
	C658.894226,1895.000000 360.288452,1895.000000 61.341518,1895.000000 
	C61.341518,1875.538818 61.341518,1856.640015 61.341518,1837.369873 
	C672.385132,1837.369873 1283.262695,1837.369873 1894.570068,1837.369873 
	C1894.570068,1856.280151 1894.570068,1875.180176 1894.570068,1895.000000 
	C1582.613281,1895.000000 1270.556641,1895.000000 958.000000,1895.000000 
z"/>
<path fill="#D8FDEE" opacity="1.000000" stroke="none" 
	d="
M834.000000,1364.000000 
	C872.134399,1364.000000 909.768799,1364.000000 947.701294,1364.000000 
	C947.701294,1501.635498 947.701294,1639.011841 947.701294,1776.694336 
	C869.369568,1776.694336 790.983704,1776.694336 712.298706,1776.694336 
	C712.298706,1639.364502 712.298706,1501.988159 712.298706,1364.000000 
	C752.661560,1364.000000 793.080811,1364.000000 834.000000,1364.000000 
z"/>
<path fill="#D8FDEE" opacity="1.000000" stroke="none" 
	d="
M1244.000000,1379.004150 
	C1244.000000,1511.789062 1244.000000,1644.074707 1244.000000,1776.680054 
	C1165.398071,1776.680054 1087.012085,1776.680054 1008.312866,1776.680054 
	C1008.312866,1639.392822 1008.312866,1502.016357 1008.312866,1364.319824 
	C1086.602295,1364.319824 1164.988281,1364.319824 1244.000000,1364.319824 
	C1244.000000,1368.980225 1244.000000,1373.742432 1244.000000,1379.004150 
z"/>
<path fill="#FB999C" opacity="1.000000" stroke="none" 
	d="
M1096.000000,61.000000 
	C1234.462280,61.000000 1372.424683,61.000000 1510.693237,61.000000 
	C1510.693237,80.358047 1510.693237,99.283287 1510.693237,118.605072 
	C1156.031250,118.605072 801.322510,118.605072 446.306793,118.605072 
	C446.306793,99.641975 446.306793,80.716751 446.306793,61.000000 
	C662.672852,61.000000 879.086426,61.000000 1096.000000,61.000000 
z"/>
<path fill="#FDCCCD" opacity="1.000000" stroke="none" 
	d="
M718.000000,1245.000000 
	C913.132935,1245.000000 1107.765869,1245.000000 1302.699219,1245.000000 
	C1302.699219,1264.376587 1302.699219,1283.433838 1302.699219,1302.746216 
	C1086.316406,1302.746216 870.047363,1302.746216 653.389160,1302.746216 
	C653.389160,1283.804199 653.389160,1264.745361 653.389160,1245.000000 
	C674.654053,1245.000000 696.077026,1245.000000 718.000000,1245.000000 
z"/>
<path fill="#FB999C" opacity="1.000000" stroke="none" 
	d="
M358.000000,830.000000 
	C278.537628,830.000000 199.575272,830.000000 120.306854,830.000000 
	C120.306854,810.308716 120.306854,791.050232 120.306854,771.395020 
	C237.968155,771.395020 355.677094,771.395020 473.693237,771.395020 
	C473.693237,790.691345 473.693237,809.949829 473.693237,830.000000 
	C435.330261,830.000000 396.915131,830.000000 358.000000,830.000000 
z"/>
<path fill="#FB999C" opacity="1.000000" stroke="none" 
	d="
M1741.000000,771.000000 
	C1772.796143,771.000000 1804.092285,771.000000 1835.693359,771.000000 
	C1835.693359,790.691589 1835.693359,809.950073 1835.693359,829.605103 
	C1718.031616,829.605103 1600.322754,829.605103 1482.306641,829.605103 
	C1482.306641,810.308411 1482.306641,791.049927 1482.306641,771.000000 
	C1568.338501,771.000000 1654.419312,771.000000 1741.000000,771.000000 
z"/>
<path fill="#F50007" opacity="1.000000" stroke="none" 
	d="
M593.000000,997.000000 
	C593.000000,930.507385 593.069763,864.514648 592.943970,798.522278 
	C592.917236,784.519043 605.182190,772.342102 616.921875,771.017883 
	C621.160217,770.539734 625.428955,770.042236 629.683960,770.041382 
	C863.657776,769.994751 1097.631592,769.992371 1331.605347,770.017761 
	C1346.594849,770.019409 1358.455200,778.380432 1362.374634,791.923523 
	C1362.910645,793.774902 1362.975464,795.811096 1362.975952,797.761841 
	C1363.003296,898.250549 1362.908691,998.739502 1363.120850,1099.227783 
	C1363.145996,1111.172607 1351.898560,1124.106812 1339.871948,1125.938477 
	C1335.337891,1126.629028 1330.704346,1126.957153 1326.116089,1126.958130 
	C1092.308960,1127.005615 858.501770,1126.987671 624.694641,1127.030273 
	C610.272034,1127.032959 596.552307,1118.210449 593.752869,1104.281982 
	C593.402161,1102.537109 593.033630,1100.753662 593.031433,1098.987671 
	C592.988892,1065.158447 593.000000,1031.329224 593.000000,997.000000 
M1126.000000,892.500000 
	C1126.000000,872.077393 1126.000000,851.654785 1126.000000,831.386841 
	C1086.258911,831.386841 1047.202026,831.386841 1008.253235,831.386841 
	C1008.253235,909.710876 1008.253235,987.647766 1008.253235,1065.701416 
	C1047.563232,1065.701416 1086.619385,1065.701416 1126.000000,1065.701416 
	C1126.000000,1008.102356 1126.000000,950.801208 1126.000000,892.500000 
M831.000000,1006.500000 
	C831.000000,1026.256104 831.000000,1046.012329 831.000000,1065.613037 
	C870.407898,1065.613037 909.131409,1065.613037 947.746704,1065.613037 
	C947.746704,987.288940 947.746704,909.352051 947.746704,831.298584 
	C908.770020,831.298584 870.047241,831.298584 831.000000,831.298584 
	C831.000000,889.564331 831.000000,947.532166 831.000000,1006.500000 
M1303.000000,1057.448120 
	C1303.000000,982.032837 1303.000000,906.617493 1303.000000,831.228760 
	C1263.675659,831.228760 1225.069824,831.228760 1186.274048,831.228760 
	C1186.274048,909.513672 1186.274048,987.569763 1186.274048,1065.679199 
	C1225.272461,1065.679199 1263.995850,1065.679199 1303.000000,1065.679199 
	C1303.000000,1063.050171 1303.000000,1060.739502 1303.000000,1057.448120 
M653.000000,846.503662 
	C653.000000,919.588989 653.000000,992.674316 653.000000,1065.614502 
	C692.404907,1065.614502 731.128418,1065.614502 769.747986,1065.614502 
	C769.747986,987.291687 769.747986,909.354675 769.747986,831.297363 
	C730.772461,831.297363 692.049622,831.297363 653.402344,831.297363 
	C653.226196,831.896851 653.060364,832.201782 653.058105,832.507874 
	C653.025696,836.840271 653.015564,841.172791 653.000000,846.503662 
z"/>
<path fill="#F50007" opacity="1.000000" stroke="none" 
	d="
M1659.000000,1348.995850 
	C1659.000000,1333.544189 1659.000000,1318.592041 1659.000000,1303.320557 
	C1678.952515,1303.320557 1698.655029,1303.320557 1718.679688,1303.320557 
	C1718.679688,1323.286011 1718.679688,1343.321533 1718.679688,1363.679199 
	C1699.047729,1363.679199 1679.345215,1363.679199 1659.000000,1363.679199 
	C1659.000000,1359.004517 1659.000000,1354.249878 1659.000000,1348.995850 
z"/>
<path fill="#F50007" opacity="1.000000" stroke="none" 
	d="
M1600.000000,1350.989380 
	C1600.000000,1355.455933 1600.000000,1359.424316 1600.000000,1363.694946 
	C1580.015503,1363.694946 1560.313110,1363.694946 1540.304565,1363.694946 
	C1540.304565,1343.681641 1540.304565,1323.646240 1540.304565,1303.304688 
	C1559.985229,1303.304688 1579.687622,1303.304688 1600.000000,1303.304688 
	C1600.000000,1319.016479 1600.000000,1334.753906 1600.000000,1350.989380 
z"/>
<path fill="#F50007" opacity="1.000000" stroke="none" 
	d="
M1678.000488,1127.000000 
	C1671.535645,1127.000000 1665.570801,1127.000000 1659.304688,1127.000000 
	C1659.304688,1106.682251 1659.304688,1086.647095 1659.304688,1066.305176 
	C1678.983887,1066.305176 1698.686157,1066.305176 1718.694946,1066.305176 
	C1718.694946,1086.317139 1718.694946,1106.352295 1718.694946,1127.000000 
	C1705.316772,1127.000000 1691.908569,1127.000000 1678.000488,1127.000000 
z"/>
<path fill="#F50007" opacity="1.000000" stroke="none" 
	d="
M1540.000000,1076.032349 
	C1540.000000,1072.566162 1540.000000,1069.593994 1540.000000,1066.312256 
	C1559.970581,1066.312256 1579.673584,1066.312256 1599.689087,1066.312256 
	C1599.689087,1086.305908 1599.689087,1106.341797 1599.689087,1126.689697 
	C1580.025757,1126.689697 1560.322876,1126.689697 1540.000000,1126.689697 
	C1540.000000,1109.995728 1540.000000,1093.261108 1540.000000,1076.032349 
z"/>
<path fill="#F50007" opacity="1.000000" stroke="none" 
	d="
M1578.000000,1185.000000 
	C1585.463257,1185.000000 1592.426636,1185.000000 1599.693359,1185.000000 
	C1599.693359,1204.980713 1599.693359,1224.682861 1599.693359,1244.693237 
	C1580.019409,1244.693237 1560.317505,1244.693237 1540.306885,1244.693237 
	C1540.306885,1225.019897 1540.306885,1205.317871 1540.306885,1185.000000 
	C1552.680664,1185.000000 1565.090332,1185.000000 1578.000000,1185.000000 
z"/>
<path fill="#F50007" opacity="1.000000" stroke="none" 
	d="
M1718.992310,1716.767090 
	C1717.874878,1717.831299 1716.766479,1718.918335 1715.651978,1718.924561 
	C1697.021484,1719.029541 1678.390381,1718.999390 1659.379883,1718.999390 
	C1659.379883,1699.166138 1659.379883,1679.460205 1659.379883,1659.376343 
	C1678.840942,1659.376343 1698.546753,1659.376343 1718.998413,1659.376343 
	C1718.998413,1678.188843 1718.998413,1697.237915 1718.992310,1716.767090 
z"/>
<path fill="#F50007" opacity="1.000000" stroke="none" 
	d="
M1540.000000,1714.839355 
	C1540.000000,1696.087036 1540.000000,1677.817627 1540.000000,1659.275146 
	C1560.046875,1659.275146 1579.750488,1659.275146 1599.727661,1659.275146 
	C1599.727661,1679.052612 1599.727661,1698.756226 1599.727661,1719.000000 
	C1593.389893,1719.000000 1587.123291,1719.000000 1580.856689,1719.000000 
	C1568.544312,1718.999878 1556.230957,1718.919067 1543.920288,1719.059814 
	C1541.047363,1719.092529 1539.379517,1718.602051 1540.000000,1714.839355 
z"/>
<path fill="#F50007" opacity="1.000000" stroke="none" 
	d="
M1674.004395,1600.000000 
	C1668.871826,1600.000000 1664.238403,1600.000000 1659.303955,1600.000000 
	C1659.303955,1580.013550 1659.303955,1560.311401 1659.303955,1540.303955 
	C1678.986450,1540.303955 1698.688477,1540.303955 1718.696045,1540.303955 
	C1718.696045,1559.986328 1718.696045,1579.688477 1718.696045,1600.000000 
	C1703.981812,1600.000000 1689.242676,1600.000000 1674.004395,1600.000000 
z"/>
<path fill="#F50007" opacity="1.000000" stroke="none" 
	d="
M1600.000000,1589.967651 
	C1600.000000,1593.433838 1600.000000,1596.406006 1600.000000,1599.687744 
	C1580.029785,1599.687744 1560.327026,1599.687744 1540.311279,1599.687744 
	C1540.311279,1580.028076 1540.311279,1560.325195 1540.311279,1540.310425 
	C1559.973877,1540.310425 1579.676636,1540.310425 1600.000000,1540.310425 
	C1600.000000,1556.670288 1600.000000,1573.072021 1600.000000,1589.967651 
z"/>
<path fill="#F50007" opacity="1.000000" stroke="none" 
	d="
M1701.998413,1422.000000 
	C1707.796875,1422.000000 1713.095825,1422.000000 1718.696045,1422.000000 
	C1718.696045,1441.986206 1718.696045,1461.688110 1718.696045,1481.695801 
	C1699.014160,1481.695801 1679.312134,1481.695801 1659.304199,1481.695801 
	C1659.304199,1462.014282 1659.304199,1442.312256 1659.304199,1422.000000 
	C1673.351562,1422.000000 1687.425171,1422.000000 1701.998413,1422.000000 
z"/>
<path fill="#F50007" opacity="1.000000" stroke="none" 
	d="
M1573.000000,1482.000000 
	C1561.875244,1482.000000 1551.250366,1482.000000 1540.313721,1482.000000 
	C1540.313721,1462.033691 1540.313721,1442.331665 1540.313721,1422.313965 
	C1559.965942,1422.313965 1579.668091,1422.313965 1599.685913,1422.313965 
	C1599.685913,1441.965698 1599.685913,1461.667725 1599.685913,1482.000000 
	C1590.998291,1482.000000 1582.249146,1482.000000 1573.000000,1482.000000 
z"/>
<path fill="#F50007" opacity="1.000000" stroke="none" 
	d="
M1540.000000,964.002808 
	C1540.000000,958.537537 1540.000000,953.571411 1540.000000,948.303955 
	C1559.986206,948.303955 1579.688354,948.303955 1599.696045,948.303955 
	C1599.696045,967.986328 1599.696045,987.688354 1599.696045,1007.695984 
	C1580.013794,1007.695984 1560.311768,1007.695984 1540.000000,1007.695984 
	C1540.000000,993.314697 1540.000000,978.908325 1540.000000,964.002808 
z"/>
<path fill="#F50007" opacity="1.000000" stroke="none" 
	d="
M1705.989380,948.000000 
	C1710.455933,948.000000 1714.424194,948.000000 1718.694824,948.000000 
	C1718.694824,967.984253 1718.694824,987.686340 1718.694824,1007.695068 
	C1699.015625,1007.695068 1679.313354,1007.695068 1659.304810,1007.695068 
	C1659.304810,988.015137 1659.304810,968.312988 1659.304810,948.000000 
	C1674.682495,948.000000 1690.086914,948.000000 1705.989380,948.000000 
z"/>
<path fill="#F50007" opacity="1.000000" stroke="none" 
	d="
M1719.000000,1216.000000 
	C1719.000000,1225.793213 1719.000000,1235.086426 1719.000000,1244.688843 
	C1699.028442,1244.688843 1679.326416,1244.688843 1659.311279,1244.688843 
	C1659.311279,1225.028687 1659.311279,1205.326660 1659.311279,1185.311523 
	C1678.970947,1185.311523 1698.672974,1185.311523 1719.000000,1185.311523 
	C1719.000000,1195.339600 1719.000000,1205.419800 1719.000000,1216.000000 
z"/>
<path fill="#F50007" opacity="1.000000" stroke="none" 
	d="
M298.000000,1074.060059 
	C298.000000,1091.829712 298.000000,1109.108765 298.000000,1126.693115 
	C277.685242,1126.693115 257.648804,1126.693115 237.305420,1126.693115 
	C237.305420,1106.682251 237.305420,1086.645752 237.305420,1066.303955 
	C257.320831,1066.303955 277.357239,1066.303955 298.000000,1066.303955 
	C298.000000,1068.708984 298.000000,1071.139160 298.000000,1074.060059 
z"/>
<path fill="#F50007" opacity="1.000000" stroke="none" 
	d="
M249.015793,1303.000000 
	C265.462830,1303.000000 281.413239,1303.000000 297.681152,1303.000000 
	C297.681152,1323.289795 297.681152,1343.325684 297.681152,1363.681641 
	C277.709412,1363.681641 257.673462,1363.681641 237.317947,1363.681641 
	C237.317947,1343.708374 237.317947,1323.672485 237.317947,1303.000000 
	C240.997406,1303.000000 244.758301,1303.000000 249.015793,1303.000000 
z"/>
<path fill="#F50007" opacity="1.000000" stroke="none" 
	d="
M298.000000,1671.015869 
	C298.000000,1687.129761 298.000000,1702.747192 298.000000,1718.681641 
	C277.709686,1718.681641 257.673950,1718.681641 237.318298,1718.681641 
	C237.318298,1699.042358 237.318298,1679.339478 237.318298,1659.317505 
	C257.292267,1659.317505 277.327911,1659.317505 298.000000,1659.317505 
	C298.000000,1662.997559 298.000000,1666.758423 298.000000,1671.015869 
z"/>
<path fill="#F50007" opacity="1.000000" stroke="none" 
	d="
M283.992981,1540.000000 
	C288.792847,1540.000000 293.094452,1540.000000 297.695618,1540.000000 
	C297.695618,1559.985840 297.695618,1579.688232 297.695618,1599.696045 
	C277.680298,1599.696045 257.644989,1599.696045 237.304077,1599.696045 
	C237.304077,1580.013550 237.304077,1560.311157 237.304077,1540.000000 
	C252.685089,1540.000000 268.089905,1540.000000 283.992981,1540.000000 
z"/>
<path fill="#F50007" opacity="1.000000" stroke="none" 
	d="
M298.000000,1434.015869 
	C298.000000,1450.129761 298.000000,1465.747192 298.000000,1481.681641 
	C277.709686,1481.681641 257.673950,1481.681641 237.318298,1481.681641 
	C237.318298,1462.042358 237.318298,1442.339478 237.318298,1422.317505 
	C257.292267,1422.317505 277.327911,1422.317505 298.000000,1422.317505 
	C298.000000,1425.997559 298.000000,1429.758423 298.000000,1434.015869 
z"/>
<path fill="#F50007" opacity="1.000000" stroke="none" 
	d="
M416.000000,1357.897583 
	C416.000000,1360.031494 416.000000,1361.678711 416.000000,1363.662476 
	C396.078156,1363.662476 376.374390,1363.662476 356.334473,1363.662476 
	C356.334473,1343.741211 356.334473,1323.703979 356.334473,1303.332520 
	C375.929840,1303.332520 395.634094,1303.332520 416.000000,1303.332520 
	C416.000000,1321.288574 416.000000,1339.349731 416.000000,1357.897583 
z"/>
<path fill="#F50007" opacity="1.000000" stroke="none" 
	d="
M237.000000,986.999878 
	C237.000000,973.877625 237.000000,961.255432 237.000000,948.317444 
	C257.292023,948.317444 277.327271,948.317444 297.682068,948.317444 
	C297.682068,967.958008 297.682068,987.660400 297.682068,1007.682251 
	C277.708771,1007.682251 257.673462,1007.682251 237.000000,1007.682251 
	C237.000000,1001.006531 237.000000,994.253174 237.000000,986.999878 
z"/>
<path fill="#F50007" opacity="1.000000" stroke="none" 
	d="
M298.000000,1225.999512 
	C298.000000,1232.464355 298.000000,1238.429199 298.000000,1244.695190 
	C277.682251,1244.695190 257.647125,1244.695190 237.305237,1244.695190 
	C237.305237,1225.016235 237.305237,1205.313965 237.305237,1185.305054 
	C257.317169,1185.305054 277.352295,1185.305054 298.000000,1185.305054 
	C298.000000,1198.683228 298.000000,1212.091431 298.000000,1225.999512 
z"/>
<path fill="#F50007" opacity="1.000000" stroke="none" 
	d="
M382.000000,1127.000000 
	C373.205170,1127.000000 364.910339,1127.000000 356.309082,1127.000000 
	C356.309082,1106.691040 356.309082,1086.655884 356.309082,1066.309570 
	C375.975098,1066.309570 395.677338,1066.309570 415.690582,1066.309570 
	C415.690582,1086.308228 415.690582,1106.343506 415.690582,1127.000000 
	C404.657227,1127.000000 393.578613,1127.000000 382.000000,1127.000000 
z"/>
<path fill="#F50007" opacity="1.000000" stroke="none" 
	d="
M385.000000,1659.000000 
	C395.459015,1659.000000 405.418030,1659.000000 415.687500,1659.000000 
	C415.687500,1678.968994 415.687500,1698.671021 415.687500,1718.687378 
	C396.031372,1718.687378 376.329315,1718.687378 356.312805,1718.687378 
	C356.312805,1699.031860 356.312805,1679.329712 356.312805,1659.000000 
	C365.670868,1659.000000 375.085449,1659.000000 385.000000,1659.000000 
z"/>
<path fill="#F50007" opacity="1.000000" stroke="none" 
	d="
M368.015778,1540.000000 
	C384.129578,1540.000000 399.746796,1540.000000 415.681305,1540.000000 
	C415.681305,1559.956543 415.681305,1579.659180 415.681305,1599.681763 
	C396.042511,1599.681763 376.339905,1599.681763 356.317810,1599.681763 
	C356.317810,1580.041626 356.317810,1560.338989 356.317810,1540.000000 
	C359.997559,1540.000000 363.758362,1540.000000 368.015778,1540.000000 
z"/>
<path fill="#F50007" opacity="1.000000" stroke="none" 
	d="
M356.000000,1451.000000 
	C356.000000,1441.206787 356.000000,1431.913574 356.000000,1422.311157 
	C375.971497,1422.311157 395.673615,1422.311157 415.688660,1422.311157 
	C415.688660,1441.971313 415.688660,1461.673340 415.688660,1481.688477 
	C396.029022,1481.688477 376.326996,1481.688477 356.000000,1481.688477 
	C356.000000,1471.660400 356.000000,1461.580200 356.000000,1451.000000 
z"/>
<path fill="#F50007" opacity="1.000000" stroke="none" 
	d="
M356.000000,1235.956787 
	C356.000000,1218.848145 356.000000,1202.234497 356.000000,1185.311279 
	C375.972168,1185.311279 395.674774,1185.311279 415.689514,1185.311279 
	C415.689514,1204.973633 415.689514,1224.676270 415.689514,1244.690186 
	C396.025055,1244.690186 376.322388,1244.690186 356.000000,1244.690186 
	C356.000000,1241.981567 356.000000,1239.216675 356.000000,1235.956787 
z"/>
<path fill="#F50007" opacity="1.000000" stroke="none" 
	d="
M356.986298,948.166626 
	C376.020630,948.118286 395.054932,948.069946 414.662811,948.255981 
	C415.403809,948.693665 415.602814,948.859009 415.833344,948.986328 
	C415.881653,968.020691 415.929993,987.054993 415.743958,1006.662842 
	C415.306274,1007.403748 415.140961,1007.602783 415.013702,1007.833374 
	C395.979370,1007.881714 376.945068,1007.930054 357.337189,1007.744019 
	C356.596191,1007.306335 356.397186,1007.140991 356.166626,1007.013672 
	C356.118317,987.979309 356.069977,968.945007 356.256042,949.337158 
	C356.693726,948.596252 356.859039,948.397217 356.986298,948.166626 
z"/>
<path fill="#F50007" opacity="1.000000" stroke="none" 
	d="
M415.867859,948.728333 
	C415.602814,948.859009 415.403809,948.693665 415.127686,948.328491 
	C415.313477,948.267883 415.607910,948.369141 415.867859,948.728333 
z"/>
<path fill="#F50007" opacity="1.000000" stroke="none" 
	d="
M356.728333,948.132080 
	C356.859039,948.397217 356.693726,948.596252 356.328552,948.872314 
	C356.267883,948.686462 356.369110,948.392029 356.728333,948.132080 
z"/>
<path fill="#F50007" opacity="1.000000" stroke="none" 
	d="
M356.132141,1007.271667 
	C356.397186,1007.140991 356.596191,1007.306335 356.872314,1007.671509 
	C356.686493,1007.732178 356.392059,1007.630920 356.132141,1007.271667 
z"/>
<path fill="#F50007" opacity="1.000000" stroke="none" 
	d="
M415.271667,1007.867920 
	C415.140961,1007.602783 415.306274,1007.403748 415.671448,1007.127686 
	C415.732117,1007.313538 415.630890,1007.607971 415.271667,1007.867920 
z"/>
<path fill="#F9666A" opacity="1.000000" stroke="none" 
	d="
M1128.596924,504.986694 
	C1108.001099,504.995422 1087.865601,504.995422 1067.000000,504.995422 
	C1067.000000,507.147247 1067.000000,508.908508 1067.000000,510.669800 
	C1067.000000,528.832947 1067.004639,546.996033 1066.998535,565.159180 
	C1066.993896,579.020325 1056.883667,590.829041 1043.017578,592.980896 
	C1039.283569,593.560303 1035.477661,593.949951 1031.703857,593.957153 
	C994.377991,594.028015 957.051331,594.103394 919.726074,593.937195 
	C908.482117,593.887146 899.001465,589.442505 893.224548,579.480713 
	C890.930176,575.524109 889.296753,570.595398 889.185913,566.064636 
	C888.737793,547.745850 889.000000,529.409668 889.000000,511.079926 
	C889.000000,509.280334 889.000000,507.480713 889.000000,505.000000 
	C886.798584,505.000000 885.030701,505.000000 883.262817,505.000000 
	C865.932861,505.000000 848.601562,504.864990 831.273315,505.037933 
	C813.881104,505.211456 799.756714,491.992767 799.902100,474.017181 
	C800.218933,434.860718 800.152405,395.699005 799.924011,356.541321 
	C799.834351,341.165436 811.342224,326.300751 830.242615,326.055878 
	C849.553162,325.805725 868.869446,326.000488 888.751953,326.000488 
	C888.842896,323.965759 888.988098,322.208527 888.989685,320.451202 
	C889.006348,301.954803 888.981323,283.458374 889.006348,264.962006 
	C889.023926,251.999283 900.499207,239.279587 913.469666,238.033188 
	C919.387939,237.464462 925.347351,237.060303 931.289368,237.044601 
	C965.782410,236.953400 1000.275940,236.936813 1034.768921,237.041138 
	C1044.307983,237.069992 1052.971436,239.661819 1059.642700,247.108032 
	C1064.341553,252.352753 1067.004395,258.331909 1067.001953,265.430420 
	C1066.995850,283.593567 1067.000000,301.756683 1067.000000,319.919830 
	C1067.000000,321.719452 1067.000000,323.519043 1067.000000,326.000000 
	C1069.201294,326.000000 1070.969116,326.000000 1072.736938,326.000000 
	C1090.066895,326.000000 1107.400879,326.232727 1124.725586,325.931519 
	C1140.607178,325.655426 1156.567871,338.376068 1156.217407,357.377594 
	C1155.495117,396.523346 1155.677612,435.695831 1156.180298,474.848419 
	C1156.349243,488.002380 1145.783203,502.468445 1131.885986,504.150085 
	C1130.923706,504.266510 1129.999268,504.694763 1128.596924,504.986694 
z"/>
<path fill="#EECCCD" opacity="1.000000" stroke="none" 
	d="
M1126.000000,893.000000 
	C1126.000000,950.801208 1126.000000,1008.102356 1126.000000,1065.701416 
	C1086.619385,1065.701416 1047.563232,1065.701416 1008.253235,1065.701416 
	C1008.253235,987.647766 1008.253235,909.710876 1008.253235,831.386841 
	C1047.202026,831.386841 1086.258911,831.386841 1126.000000,831.386841 
	C1126.000000,851.654785 1126.000000,872.077393 1126.000000,893.000000 
z"/>
<path fill="#EECCCD" opacity="1.000000" stroke="none" 
	d="
M831.000000,1006.000000 
	C831.000000,947.532166 831.000000,889.564331 831.000000,831.298584 
	C870.047241,831.298584 908.770020,831.298584 947.746704,831.298584 
	C947.746704,909.352051 947.746704,987.288940 947.746704,1065.613037 
	C909.131409,1065.613037 870.407898,1065.613037 831.000000,1065.613037 
	C831.000000,1046.012329 831.000000,1026.256104 831.000000,1006.000000 
z"/>
<path fill="#EECCCD" opacity="1.000000" stroke="none" 
	d="
M1303.000000,1057.938477 
	C1303.000000,1060.739502 1303.000000,1063.050171 1303.000000,1065.679199 
	C1263.995850,1065.679199 1225.272461,1065.679199 1186.274048,1065.679199 
	C1186.274048,987.569763 1186.274048,909.513672 1186.274048,831.228760 
	C1225.069824,831.228760 1263.675659,831.228760 1303.000000,831.228760 
	C1303.000000,906.617493 1303.000000,982.032837 1303.000000,1057.938477 
z"/>
<path fill="#EECCCD" opacity="1.000000" stroke="none" 
	d="
M653.000000,846.004517 
	C653.015564,841.172791 653.025696,836.840271 653.058105,832.507874 
	C653.060364,832.201782 653.226196,831.896851 653.402344,831.297363 
	C692.049622,831.297363 730.772461,831.297363 769.747986,831.297363 
	C769.747986,909.354675 769.747986,987.291687 769.747986,1065.614502 
	C731.128418,1065.614502 692.404907,1065.614502 653.000000,1065.614502 
	C653.000000,992.674316 653.000000,919.588989 653.000000,846.004517 
z"/>
</svg>