<svg version="1.1" id="Layer_1" xmlns="http://www.w3.org/2000/svg" xmlns:xlink="http://www.w3.org/1999/xlink" x="0px" y="0px"
	 width="100%" viewBox="0 0 1960 1618" enable-background="new 0 0 1960 1618" xml:space="preserve">
<path fill="#EF3A24" opacity="1.000000" stroke="none" 
	d="
M1.000000,197.000000 
	C1.000000,196.555557 1.000000,196.111115 1.376116,195.200897 
	C2.167517,193.720703 2.803721,192.739243 2.960871,191.686295 
	C3.755209,186.364059 3.969913,180.914215 5.217625,175.707947 
	C10.438231,153.924210 17.356594,132.802124 28.318213,113.040482 
	C38.381596,94.898163 50.651978,78.471184 65.044487,63.728207 
	C72.791191,55.792862 81.642418,48.834465 90.508766,42.112564 
	C116.550591,22.369303 145.838043,9.838533 177.987137,3.998638 
	C183.652710,2.969484 189.328781,1.998073 195.000000,0.999999 
	C581.364258,1.000000 967.728516,1.000000 1354.728027,1.382205 
	C1363.588745,3.012268 1371.912964,3.811296 1380.020386,5.595811 
	C1400.740356,10.156487 1420.405762,17.654400 1438.762817,28.362892 
	C1452.334229,36.279709 1465.352905,45.028473 1476.562500,56.136864 
	C1483.785034,63.294361 1490.819946,70.659676 1497.632690,78.208290 
	C1509.392944,91.238663 1518.622681,106.077454 1526.132080,121.818222 
	C1531.340698,132.736359 1535.322754,144.284271 1539.258911,155.754639 
	C1545.609985,174.261856 1548.777344,193.556915 1548.835938,212.983353 
	C1549.177002,326.297974 1549.012573,439.614105 1548.550049,552.953735 
	C1519.384155,552.962585 1490.687378,552.947449 1461.980347,552.700195 
	C1461.970215,552.468079 1461.833374,552.022644 1461.902588,551.557129 
	C1461.981079,470.056061 1461.990967,389.020538 1461.992798,307.985046 
	C1461.992798,306.990173 1461.888794,305.995331 1461.902344,304.605347 
	C1461.971069,302.655029 1461.971069,301.099823 1461.971069,298.650513 
	C1232.513672,436.675781 1003.807983,574.248840 774.959778,711.907593 
	C546.296143,574.329956 317.502319,436.674011 88.166664,298.692078 
	C88.166664,300.825500 88.166664,302.412994 88.097351,304.464569 
	C88.018921,305.594849 88.001823,306.261017 88.001823,306.927216 
	C88.000435,572.789062 87.999977,838.650879 88.006905,1104.512695 
	C88.006943,1106.008423 88.111122,1107.504028 88.108337,1109.385742 
	C88.422226,1111.514526 88.794449,1113.257568 89.099792,1115.331543 
	C89.077499,1116.108276 89.122086,1116.553955 89.112350,1117.406128 
	C92.368134,1129.332642 95.025604,1141.093750 99.163879,1152.308228 
	C103.694984,1164.587280 110.756798,1175.616699 120.027054,1185.341064 
	C120.280525,1185.856934 120.543350,1186.015015 120.939552,1186.379883 
	C122.315277,1188.183350 123.636444,1189.648926 125.092010,1191.417480 
	C128.135910,1194.183960 131.045395,1196.647705 134.073441,1199.397583 
	C135.113861,1200.494019 136.035736,1201.304199 137.085312,1202.409790 
	C138.126968,1203.173828 139.040924,1203.642578 140.095551,1204.421143 
	C150.199219,1212.810669 161.440704,1218.701416 173.461624,1222.859253 
	C181.028854,1225.476807 189.037628,1226.817871 196.949951,1228.837036 
	C197.418625,1228.888794 197.785645,1228.835205 198.441818,1228.984497 
	C199.820450,1229.402710 200.909912,1229.618042 202.429871,1229.902588 
	C204.892029,1230.018433 206.923676,1230.065186 209.122772,1230.414185 
	C210.193298,1230.755371 211.096359,1230.794434 212.463562,1230.902588 
	C213.593979,1230.981079 214.260223,1230.998413 214.926483,1230.998413 
	C541.793518,1230.999634 868.660583,1231.000122 1195.527588,1230.993164 
	C1197.023438,1230.993164 1198.519287,1230.888916 1200.239380,1230.901855 
	C1200.463623,1230.970215 1200.932251,1230.990479 1200.953369,1231.459229 
	C1200.959717,1261.291748 1200.944702,1290.655273 1200.465576,1320.010742 
	C875.043884,1320.001587 550.086121,1320.020386 225.128433,1319.916260 
	C214.104843,1319.912720 203.070221,1318.820801 192.060913,1317.974121 
	C174.433502,1316.618164 157.472946,1312.227661 141.007797,1305.935913 
	C113.368118,1295.373779 88.958054,1279.595947 67.759140,1259.059082 
	C60.104752,1251.643799 53.155365,1243.393921 46.616135,1234.957642 
	C34.725594,1219.617554 25.099209,1202.948120 17.812399,1184.830322 
	C11.227122,1168.456787 6.303101,1151.770752 3.886281,1134.296631 
	C3.447667,1131.125366 1.988191,1128.095215 0.999999,1125.000000 
	C1.000000,1124.555542 1.000000,1124.111206 1.367056,1123.175049 
	C1.489407,1120.455566 1.244701,1118.227783 0.999997,1116.000000 
	C1.000000,812.302429 1.000000,508.604828 1.367037,204.295288 
	C1.489383,201.455551 1.244692,199.227768 1.000000,197.000000 
M94.980675,179.461838 
	C93.715347,183.833801 92.102898,188.147980 91.360619,192.607010 
	C91.075523,194.319611 92.238823,197.140900 93.661835,198.119003 
	C99.594658,202.196945 105.852135,205.807999 112.036446,209.513657 
	C134.381180,222.902695 156.772751,236.213760 179.093323,249.642914 
	C204.501465,264.929718 229.830078,280.348694 255.235016,295.640869 
	C277.551300,309.073883 299.946625,322.375549 322.268066,335.800049 
	C347.537476,350.997528 372.752991,366.284546 398.011383,381.500427 
	C421.024384,395.363708 444.011353,409.271515 467.112518,422.986694 
	C478.923218,429.998810 491.107361,436.386566 502.857086,443.495544 
	C519.106262,453.326904 535.013306,463.722656 551.232788,473.604462 
	C574.455200,487.752960 597.830078,501.651031 621.135071,515.664124 
	C647.108765,531.281860 673.086060,546.893555 699.044861,562.536133 
	C722.617065,576.740601 746.213745,590.905701 769.678650,605.285645 
	C773.513611,607.635803 776.436157,607.692932 780.293091,605.316345 
	C800.374451,592.942566 820.597290,580.797363 840.810608,568.638855 
	C863.273926,555.127075 885.799988,541.719482 908.262390,528.206360 
	C933.529846,513.005737 958.748535,497.724213 984.003845,482.503387 
	C1004.910095,469.903595 1025.840088,457.343048 1046.757080,444.760986 
	C1071.886108,429.645172 1097.000244,414.504150 1122.144043,399.412964 
	C1144.478027,386.008240 1166.867798,372.696228 1189.189453,359.271210 
	C1214.458008,344.073975 1239.667969,328.779572 1264.922363,313.558868 
	C1285.828979,300.958527 1306.766602,288.410004 1327.683838,275.827301 
	C1352.812256,260.711487 1377.937988,245.591217 1403.056519,230.458908 
	C1420.736938,219.807571 1438.351929,209.045670 1456.129761,198.559616 
	C1458.886719,196.933380 1459.369751,195.168823 1458.769165,192.506302 
	C1451.564941,160.565262 1434.730957,134.561966 1408.974487,114.724419 
	C1386.573364,97.471207 1360.554443,89.098419 1332.365601,89.088295 
	C962.742004,88.955505 593.118408,88.987007 223.494827,89.082443 
	C215.118103,89.084610 206.689560,89.927345 198.374542,91.043564 
	C168.569077,95.044716 144.029175,108.938385 123.555984,130.806061 
	C110.497841,144.753632 101.453072,160.871246 94.980675,179.461838 
z"/>
<path fill="#FFFFFF" opacity="1.000000" stroke="none" 
	d="
M0.999999,1125.468628 
	C1.988191,1128.095215 3.447667,1131.125366 3.886281,1134.296631 
	C6.303101,1151.770752 11.227122,1168.456787 17.812399,1184.830322 
	C25.099209,1202.948120 34.725594,1219.617554 46.616135,1234.957642 
	C53.155365,1243.393921 60.104752,1251.643799 67.759140,1259.059082 
	C88.958054,1279.595947 113.368118,1295.373779 141.007797,1305.935913 
	C157.472946,1312.227661 174.433502,1316.618164 192.060913,1317.974121 
	C203.070221,1318.820801 214.104843,1319.912720 225.128433,1319.916260 
	C550.086121,1320.020386 875.043884,1320.001587 1200.492798,1320.478271 
	C1200.989380,1393.937988 1200.971436,1466.921997 1201.044434,1539.905884 
	C1201.050293,1545.682861 1201.075195,1551.574585 1202.136108,1557.216553 
	C1207.407959,1585.254028 1222.243896,1605.796753 1249.522461,1616.306641 
	C1250.833130,1616.811523 1251.847656,1618.084595 1253.000000,1619.000000 
	C835.771240,1619.000000 418.542419,1619.000000 1.000000,1619.000000 
	C1.000000,1454.645874 1.000000,1290.291626 0.999999,1125.468628 
z"/>
<path fill="#FFFFFF" opacity="1.000000" stroke="none" 
	d="
M1549.018921,552.929749 
	C1549.012573,439.614105 1549.177002,326.297974 1548.835938,212.983353 
	C1548.777344,193.556915 1545.609985,174.261856 1539.258911,155.754639 
	C1535.322754,144.284271 1531.340698,132.736359 1526.132080,121.818222 
	C1518.622681,106.077454 1509.392944,91.238663 1497.632690,78.208290 
	C1490.819946,70.659676 1483.785034,63.294361 1476.562500,56.136864 
	C1465.352905,45.028473 1452.334229,36.279709 1438.762817,28.362892 
	C1420.405762,17.654400 1400.740356,10.156487 1380.020386,5.595811 
	C1371.912964,3.811296 1363.588745,3.012268 1355.181641,1.382205 
	C1556.934082,1.000000 1758.868286,1.000000 1961.000000,1.000000 
	C1961.000000,245.687531 1961.000000,490.375092 1960.689575,735.382202 
	C1959.442627,734.159058 1958.731201,732.409790 1957.534912,731.105530 
	C1945.219116,717.678894 1932.851685,704.299500 1920.443848,690.957825 
	C1910.509277,680.275635 1900.513062,669.650696 1890.519287,659.023865 
	C1874.387939,641.870728 1858.270142,624.704773 1842.079102,607.608032 
	C1833.399902,598.443176 1824.554565,589.435852 1815.832275,580.311401 
	C1809.987305,574.196899 1803.727173,568.387817 1798.576050,561.728027 
	C1793.880859,555.657837 1788.467163,552.928711 1780.891968,552.936584 
	C1703.601074,553.016846 1626.309937,552.953125 1549.018921,552.929749 
z"/>
<path fill="#C8867E" opacity="1.000000" stroke="none" 
	d="
M1548.550049,552.953735 
	C1626.309937,552.953125 1703.601074,553.016846 1780.891968,552.936584 
	C1788.467163,552.928711 1793.880859,555.657837 1798.576050,561.728027 
	C1803.727173,568.387817 1809.987305,574.196899 1815.832275,580.311401 
	C1824.554565,589.435852 1833.399902,598.443176 1842.079102,607.608032 
	C1858.270142,624.704773 1874.387939,641.870728 1890.519287,659.023865 
	C1900.513062,669.650696 1910.509277,680.275635 1920.443848,690.957825 
	C1932.851685,704.299500 1945.219116,717.678894 1957.534912,731.105530 
	C1958.731201,732.409790 1959.442627,734.159058 1960.689575,735.850830 
	C1961.000000,1009.687561 1961.000000,1283.375122 1960.664551,1557.736450 
	C1956.763794,1578.736084 1947.540039,1595.827881 1930.055542,1607.230347 
	C1922.400635,1612.222290 1913.393188,1615.140137 1905.000000,1619.000000 
	C1687.979126,1619.000000 1470.958130,1619.000000 1253.468628,1619.000000 
	C1251.847656,1618.084595 1250.833130,1616.811523 1249.522461,1616.306641 
	C1222.243896,1605.796753 1207.407959,1585.254028 1202.136108,1557.216553 
	C1201.075195,1551.574585 1201.050293,1545.682861 1201.044434,1539.905884 
	C1200.971436,1466.921997 1200.989380,1393.937988 1200.956787,1320.486572 
	C1200.944702,1290.655273 1200.959717,1261.291748 1200.952759,1231.217896 
	C1200.930908,1230.507690 1200.833740,1230.034790 1200.890137,1229.567017 
	C1200.964355,1226.766602 1200.997681,1224.434082 1200.997803,1222.101440 
	C1201.000122,1024.473877 1200.953491,826.846252 1201.161865,629.218933 
	C1201.170654,620.924011 1202.976196,612.491577 1204.955566,604.369568 
	C1208.261230,590.805237 1216.626343,580.069641 1226.331299,569.966980 
	C1227.775146,568.897766 1228.929199,567.976013 1230.049805,567.035278 
	C1230.016235,567.016235 1230.052856,567.084106 1230.338623,566.945557 
	C1231.526367,566.051025 1232.428467,565.295044 1233.398438,564.528198 
	C1233.466187,564.517334 1233.463867,564.380005 1233.758789,564.312439 
	C1234.808716,563.675781 1235.563965,563.106689 1236.395752,562.532349 
	C1236.472290,562.527100 1236.482300,562.373779 1236.811035,562.291382 
	C1240.444214,560.506653 1243.748657,558.804321 1247.444458,557.059204 
	C1257.996460,553.534668 1268.465088,552.888855 1279.142944,552.926819 
	C1326.614990,553.095581 1374.088135,553.011719 1421.560791,552.992310 
	C1434.717407,552.986938 1447.873901,552.889160 1461.268066,552.882446 
	C1461.505493,552.931274 1461.990479,552.932373 1461.990479,552.932373 
	C1490.687378,552.947449 1519.384155,552.962585 1548.550049,552.953735 
M1250.370850,596.209351 
	C1249.209839,597.125854 1248.048828,598.042358 1246.323730,599.275696 
	C1245.515503,600.499329 1244.707275,601.723022 1243.381714,603.224365 
	C1242.879028,603.819031 1242.376465,604.413635 1241.370728,605.523193 
	C1238.112549,612.042542 1234.934326,618.449402 1234.936157,626.133301 
	C1235.011230,933.059082 1234.992432,1239.984863 1235.089844,1546.910645 
	C1235.090942,1550.609375 1236.443604,1554.307617 1237.108276,1558.589478 
	C1237.372192,1559.077515 1237.636108,1559.565674 1238.032837,1560.763550 
	C1238.874512,1562.540161 1239.549683,1564.421265 1240.586792,1566.075439 
	C1245.095215,1573.266113 1250.429688,1579.491821 1259.649902,1581.810791 
	C1260.429932,1582.152222 1261.210083,1582.493530 1262.711304,1583.224365 
	C1267.272705,1583.816162 1271.833496,1584.918457 1276.395630,1584.924194 
	C1358.800415,1585.028198 1441.205444,1585.000854 1523.610352,1584.993896 
	C1525.439819,1584.993774 1527.269409,1584.904541 1530.017334,1584.963623 
	C1574.315796,1584.927124 1618.614258,1584.890503 1663.856934,1584.946899 
	C1681.937744,1584.916870 1700.018433,1584.886841 1719.017822,1584.963623 
	C1735.309448,1584.928711 1751.600952,1584.893677 1768.839600,1584.948486 
	C1803.287231,1584.965698 1837.735352,1585.071289 1872.182495,1584.952271 
	C1884.360718,1584.910156 1896.970093,1586.914185 1908.129883,1579.397095 
	C1908.456665,1579.278198 1908.783447,1579.159302 1909.670288,1578.731689 
	C1911.125977,1577.526611 1912.581787,1576.321411 1914.656616,1574.987671 
	C1915.383057,1574.325073 1916.109375,1573.662598 1917.189697,1572.409668 
	C1924.160645,1565.343384 1927.915894,1556.680908 1927.919678,1546.925415 
	C1928.020508,1289.262207 1928.001831,1031.598877 1927.963501,773.935669 
	C1927.963257,771.988037 1927.411621,770.040466 1927.738770,767.537415 
	C1927.738770,765.143494 1927.738770,762.749573 1927.738770,760.145081 
	C1915.192749,760.145081 1903.142456,760.145081 1890.147217,760.052795 
	C1867.115479,759.667908 1844.083618,759.283081 1820.574097,758.369568 
	C1818.052856,757.634705 1815.531494,756.899841 1812.432129,755.860352 
	C1811.638672,755.539490 1810.845093,755.218628 1809.695679,754.433655 
	C1809.132935,754.344177 1808.570312,754.254700 1807.384521,753.789795 
	C1804.960449,752.846069 1802.536255,751.902405 1799.761963,750.376587 
	C1797.905151,749.042297 1796.048340,747.708008 1794.413818,745.715088 
	C1784.594971,737.158569 1777.311279,726.739014 1771.868164,714.236816 
	C1770.312744,710.287720 1768.757324,706.338684 1767.630615,701.845581 
	C1767.417236,698.430481 1767.027588,695.015930 1767.017578,691.600281 
	C1766.920410,658.398560 1766.886597,625.196655 1766.854492,591.259888 
	C1765.239624,590.561707 1763.624634,589.863525 1761.262573,588.760620 
	C1758.816162,588.507080 1756.369751,588.032166 1753.923340,588.031616 
	C1595.112915,587.996582 1436.302612,587.999329 1277.492188,588.006836 
	C1275.328125,588.006958 1273.164062,588.109741 1270.442871,588.260376 
	C1269.965210,588.562195 1269.487671,588.864075 1268.179077,589.061523 
	C1266.786011,589.095764 1265.393066,589.130005 1263.310669,589.338074 
	C1259.181641,591.541809 1255.052490,593.745544 1250.988647,595.987061 
	C1250.988647,595.987061 1250.951172,595.921814 1250.370850,596.209351 
M1800.000122,680.464111 
	C1800.336304,684.899719 1800.380493,689.380676 1801.060181,693.763000 
	C1803.733398,711.000488 1820.277100,724.987854 1837.774658,724.997437 
	C1857.919434,725.008484 1878.064209,725.000000 1898.208984,725.000000 
	C1899.899414,725.000000 1901.589844,725.000000 1904.436157,725.000000 
	C1869.205444,687.471680 1834.979126,651.013245 1800.000000,613.752869 
	C1800.000000,636.534241 1800.000000,658.004089 1800.000122,680.464111 
z"/>
<path fill="#FFFFFF" opacity="1.000000" stroke="none" 
	d="
M194.531342,0.999999 
	C189.328781,1.998073 183.652710,2.969484 177.987137,3.998638 
	C145.838043,9.838533 116.550591,22.369303 90.508766,42.112564 
	C81.642418,48.834465 72.791191,55.792862 65.044487,63.728207 
	C50.651978,78.471184 38.381596,94.898163 28.318213,113.040482 
	C17.356594,132.802124 10.438231,153.924210 5.217625,175.707947 
	C3.969913,180.914215 3.755209,186.364059 2.960871,191.686295 
	C2.803721,192.739243 2.167517,193.720703 1.376116,194.867554 
	C1.000000,130.406296 1.000000,65.812607 1.000000,1.000000 
	C65.354065,1.000000 129.708374,1.000000 194.531342,0.999999 
z"/>
<path fill="#FFFFFF" opacity="1.000000" stroke="none" 
	d="
M1905.468628,1619.000000 
	C1913.393188,1615.140137 1922.400635,1612.222290 1930.055542,1607.230347 
	C1947.540039,1595.827881 1956.763794,1578.736084 1960.664551,1558.205078 
	C1961.000000,1578.256958 1961.000000,1598.514038 1961.000000,1619.000000 
	C1942.646362,1619.000000 1924.291870,1619.000000 1905.468628,1619.000000 
z"/>
<path fill="#FFFFFF" opacity="1.000000" stroke="none" 
	d="
M1.000000,197.437439 
	C1.244692,199.227768 1.489383,201.455551 1.367037,203.841660 
	C1.000000,201.958298 1.000000,199.916580 1.000000,197.437439 
z"/>
<path fill="#FFFFFF" opacity="1.000000" stroke="none" 
	d="
M0.999997,1116.437500 
	C1.244701,1118.227783 1.489407,1120.455566 1.367056,1122.841675 
	C1.000000,1120.958252 1.000000,1118.916626 0.999997,1116.437500 
z"/>
<path fill="#FCDDEB" opacity="1.000000" stroke="none" 
	d="
M1461.030518,552.833679 
	C1447.873901,552.889160 1434.717407,552.986938 1421.560791,552.992310 
	C1374.088135,553.011719 1326.614990,553.095581 1279.142944,552.926819 
	C1268.465088,552.888855 1257.996460,553.534668 1247.176636,556.857056 
	C1242.201782,556.873596 1238.275513,557.738098 1236.482300,562.373779 
	C1236.482300,562.373779 1236.472290,562.527100 1236.039551,562.418701 
	C1234.892456,563.000183 1234.178101,563.690063 1233.463867,564.380005 
	C1233.463867,564.380005 1233.466187,564.517334 1233.032959,564.416626 
	C1231.750732,565.238708 1230.901855,566.161438 1230.052979,567.084106 
	C1230.052856,567.084106 1230.016235,567.016235 1229.668701,567.033875 
	C1228.227905,568.072449 1227.134766,569.093445 1226.041504,570.114441 
	C1216.626343,580.069641 1208.261230,590.805237 1204.955566,604.369568 
	C1202.976196,612.491577 1201.170654,620.924011 1201.161865,629.218933 
	C1200.953491,826.846252 1201.000122,1024.473877 1200.997803,1222.101440 
	C1200.997681,1224.434082 1200.964355,1226.766602 1200.740479,1229.686035 
	C1200.342163,1230.442139 1200.169067,1230.629028 1200.015137,1230.833374 
	C1198.519287,1230.888916 1197.023438,1230.993164 1195.527588,1230.993164 
	C868.660583,1231.000122 541.793518,1230.999634 214.926483,1230.998413 
	C214.260223,1230.998413 213.593979,1230.981079 212.352814,1230.636230 
	C210.837021,1230.237793 209.896164,1230.174927 208.955307,1230.111938 
	C206.923676,1230.065186 204.892029,1230.018433 202.240021,1229.583252 
	C200.463989,1229.057007 199.308319,1228.919189 198.152649,1228.781494 
	C197.785645,1228.835205 197.418625,1228.888794 196.635742,1228.404053 
	C195.933090,1227.698486 195.665894,1227.451294 195.356720,1227.375488 
	C176.213562,1222.681763 158.170914,1215.531860 142.175507,1203.736816 
	C141.755615,1203.427246 140.709152,1203.967407 139.954880,1204.111450 
	C139.040924,1203.642578 138.126968,1203.173828 137.085205,1202.051025 
	C136.758240,1199.581909 136.810852,1197.436157 133.954880,1199.111450 
	C131.045395,1196.647705 128.135910,1194.183960 125.097221,1191.009277 
	C125.227600,1187.324707 124.014320,1185.764282 120.884995,1186.041992 
	C120.543350,1186.015015 120.280525,1185.856934 120.032684,1184.939941 
	C117.925140,1180.470459 116.204781,1176.410278 113.781296,1172.825562 
	C103.693344,1157.903687 98.250183,1141.075195 93.889244,1123.901367 
	C93.035355,1120.538574 92.790405,1117.947510 89.166664,1116.999756 
	C89.122086,1116.553955 89.077499,1116.108276 89.456429,1115.317871 
	C90.817818,1114.292236 91.755684,1113.610962 92.693542,1112.929688 
	C91.184578,1111.619751 89.675621,1110.309692 88.166664,1108.999756 
	C88.111122,1107.504028 88.006943,1106.008423 88.006905,1104.512695 
	C87.999977,838.650879 88.000435,572.789062 88.001823,306.927216 
	C88.001823,306.261017 88.018921,305.594849 88.458809,304.493164 
	C90.872505,304.889435 92.995293,305.489075 94.817818,306.587128 
	C136.035141,331.419769 177.204376,356.332245 218.414429,381.176971 
	C259.054321,405.678009 299.727966,430.122986 340.389160,454.588745 
	C419.286469,502.061127 498.178711,549.541931 577.085815,596.998108 
	C641.153137,635.529419 705.277832,673.965515 769.245911,712.660828 
	C774.585999,715.891235 778.511780,715.723999 783.649841,712.482483 
	C800.074036,702.120972 816.751648,692.158081 833.403320,682.161011 
	C861.012024,665.585632 888.708923,649.157043 916.308716,632.566833 
	C944.762695,615.463257 973.122375,598.202698 1001.564880,581.079956 
	C1033.421021,561.902161 1065.333130,542.817566 1097.203735,523.663574 
	C1126.369141,506.135254 1155.505737,488.558868 1184.665771,471.021606 
	C1213.258301,453.825684 1241.881958,436.681641 1270.459351,419.460785 
	C1298.752441,402.411285 1326.979004,385.251129 1355.282471,368.219055 
	C1383.157715,351.444763 1411.073975,334.738342 1439.014404,318.072906 
	C1446.541748,313.583130 1454.222900,309.350952 1461.833496,305.000488 
	C1461.888794,305.995331 1461.992798,306.990173 1461.992798,307.985046 
	C1461.990967,389.020538 1461.981079,470.056061 1461.755127,551.678284 
	C1461.349365,552.437012 1461.180176,552.626587 1461.030518,552.833679 
z"/>
<path fill="#FAD4BB" opacity="1.000000" stroke="none" 
	d="
M94.997452,179.057922 
	C101.453072,160.871246 110.497841,144.753632 123.555984,130.806061 
	C144.029175,108.938385 168.569077,95.044716 198.374542,91.043564 
	C206.689560,89.927345 215.118103,89.084610 223.494827,89.082443 
	C593.118408,88.987007 962.742004,88.955505 1332.365601,89.088295 
	C1360.554443,89.098419 1386.573364,97.471207 1408.974487,114.724419 
	C1434.730957,134.561966 1451.564941,160.565262 1458.769165,192.506302 
	C1459.369751,195.168823 1458.886719,196.933380 1456.129761,198.559616 
	C1438.351929,209.045670 1420.736938,219.807571 1403.056519,230.458908 
	C1377.937988,245.591217 1352.812256,260.711487 1327.683838,275.827301 
	C1306.766602,288.410004 1285.828979,300.958527 1264.922363,313.558868 
	C1239.667969,328.779572 1214.458008,344.073975 1189.189453,359.271210 
	C1166.867798,372.696228 1144.478027,386.008240 1122.144043,399.412964 
	C1097.000244,414.504150 1071.886108,429.645172 1046.757080,444.760986 
	C1025.840088,457.343048 1004.910095,469.903595 984.003845,482.503387 
	C958.748535,497.724213 933.529846,513.005737 908.262390,528.206360 
	C885.799988,541.719482 863.273926,555.127075 840.810608,568.638855 
	C820.597290,580.797363 800.374451,592.942566 780.293091,605.316345 
	C776.436157,607.692932 773.513611,607.635803 769.678650,605.285645 
	C746.213745,590.905701 722.617065,576.740601 699.044861,562.536133 
	C673.086060,546.893555 647.108765,531.281860 621.135071,515.664124 
	C597.830078,501.651031 574.455200,487.752960 551.232788,473.604462 
	C535.013306,463.722656 519.106262,453.326904 502.857086,443.495544 
	C491.107361,436.386566 478.923218,429.998810 467.112518,422.986694 
	C444.011353,409.271515 421.024384,395.363708 398.011383,381.500427 
	C372.752991,366.284546 347.537476,350.997528 322.268066,335.800049 
	C299.946625,322.375549 277.551300,309.073883 255.235016,295.640869 
	C229.830078,280.348694 204.501465,264.929718 179.093323,249.642914 
	C156.772751,236.213760 134.381180,222.902695 112.036446,209.513657 
	C105.852135,205.807999 99.594658,202.196945 93.661835,198.119003 
	C92.238823,197.140900 91.075523,194.319611 91.360619,192.607010 
	C92.102898,188.147980 93.715347,183.833801 94.997452,179.057922 
z"/>
<path fill="#FCDDEB" opacity="1.000000" stroke="none" 
	d="
M1461.902222,304.605347 
	C1454.222900,309.350952 1446.541748,313.583130 1439.014404,318.072906 
	C1411.073975,334.738342 1383.157715,351.444763 1355.282471,368.219055 
	C1326.979004,385.251129 1298.752441,402.411285 1270.459351,419.460785 
	C1241.881958,436.681641 1213.258301,453.825684 1184.665771,471.021606 
	C1155.505737,488.558868 1126.369141,506.135254 1097.203735,523.663574 
	C1065.333130,542.817566 1033.421021,561.902161 1001.564880,581.079956 
	C973.122375,598.202698 944.762695,615.463257 916.308716,632.566833 
	C888.708923,649.157043 861.012024,665.585632 833.403320,682.161011 
	C816.751648,692.158081 800.074036,702.120972 783.649841,712.482483 
	C778.511780,715.723999 774.585999,715.891235 769.245911,712.660828 
	C705.277832,673.965515 641.153137,635.529419 577.085815,596.998108 
	C498.178711,549.541931 419.286469,502.061127 340.389160,454.588745 
	C299.727966,430.122986 259.054321,405.678009 218.414429,381.176971 
	C177.204376,356.332245 136.035141,331.419769 94.817818,306.587128 
	C92.995293,305.489075 90.872505,304.889435 88.528122,304.029053 
	C88.166664,302.412994 88.166664,300.825500 88.166664,298.692078 
	C317.502319,436.674011 546.296143,574.329956 774.959778,711.907593 
	C1003.807983,574.248840 1232.513672,436.675781 1461.971069,298.650513 
	C1461.971069,301.099823 1461.971069,302.655029 1461.902222,304.605347 
z"/>
<path fill="#FCDDEB" opacity="1.000000" stroke="none" 
	d="
M89.112350,1117.406128 
	C92.790405,1117.947510 93.035355,1120.538574 93.889244,1123.901367 
	C98.250183,1141.075195 103.693344,1157.903687 113.781296,1172.825562 
	C116.204781,1176.410278 117.925140,1180.470459 119.963219,1184.713257 
	C110.756798,1175.616699 103.694984,1164.587280 99.163879,1152.308228 
	C95.025604,1141.093750 92.368134,1129.332642 89.112350,1117.406128 
z"/>
<path fill="#FCDDEB" opacity="1.000000" stroke="none" 
	d="
M140.095551,1204.421143 
	C140.709152,1203.967407 141.755615,1203.427246 142.175507,1203.736816 
	C158.170914,1215.531860 176.213562,1222.681763 195.356720,1227.375488 
	C195.665894,1227.451294 195.933090,1227.698486 196.534088,1228.298584 
	C189.037628,1226.817871 181.028854,1225.476807 173.461624,1222.859253 
	C161.440704,1218.701416 150.199219,1212.810669 140.095551,1204.421143 
z"/>
<path fill="#FCDDEB" opacity="1.000000" stroke="none" 
	d="
M88.108337,1109.385742 
	C89.675621,1110.309692 91.184578,1111.619751 92.693542,1112.929688 
	C91.755684,1113.610962 90.817818,1114.292236 89.523308,1114.986938 
	C88.794449,1113.257568 88.422226,1111.514526 88.108337,1109.385742 
z"/>
<path fill="#FCDDEB" opacity="1.000000" stroke="none" 
	d="
M120.939552,1186.379883 
	C124.014320,1185.764282 125.227600,1187.324707 124.962822,1190.706299 
	C123.636444,1189.648926 122.315277,1188.183350 120.939552,1186.379883 
z"/>
<path fill="#FCDDEB" opacity="1.000000" stroke="none" 
	d="
M134.073425,1199.397583 
	C136.810852,1197.436157 136.758240,1199.581909 136.957520,1201.755737 
	C136.035736,1201.304199 135.113861,1200.494019 134.073425,1199.397583 
z"/>
<path fill="#FCDDEB" opacity="1.000000" stroke="none" 
	d="
M209.122772,1230.414185 
	C209.896164,1230.174927 210.837021,1230.237793 211.888641,1230.567017 
	C211.096359,1230.794434 210.193298,1230.755371 209.122772,1230.414185 
z"/>
<path fill="#FCDDEB" opacity="1.000000" stroke="none" 
	d="
M198.441833,1228.984375 
	C199.308319,1228.919189 200.463989,1229.057007 201.809509,1229.514160 
	C200.909912,1229.618042 199.820450,1229.402710 198.441833,1228.984375 
z"/>
<path fill="#FCDDEB" opacity="1.000000" stroke="none" 
	d="
M1461.268066,552.882446 
	C1461.180176,552.626587 1461.349365,552.437012 1461.685791,552.143799 
	C1461.833374,552.022644 1461.970215,552.468079 1461.980347,552.700195 
	C1461.990479,552.932373 1461.505493,552.931274 1461.268066,552.882446 
z"/>
<path fill="#FCDDEB" opacity="1.000000" stroke="none" 
	d="
M1200.239380,1230.901855 
	C1200.169067,1230.629028 1200.342163,1230.442139 1200.683960,1230.153809 
	C1200.833740,1230.034790 1200.930908,1230.507690 1200.931641,1230.749023 
	C1200.932251,1230.990479 1200.463623,1230.970215 1200.239380,1230.901855 
z"/>
<path fill="#FCD8D3" opacity="1.000000" stroke="none" 
	d="
M1243.899048,602.946655 
	C1244.707275,601.723022 1245.515503,600.499329 1246.986816,599.115845 
	C1248.750366,597.944641 1249.850708,596.933228 1250.951172,595.921814 
	C1250.951172,595.921814 1250.988647,595.987061 1251.353271,595.972900 
	C1256.403076,594.762573 1261.409424,594.146790 1264.000000,589.164185 
	C1265.393066,589.130005 1266.786011,589.095764 1268.688232,589.341003 
	C1269.798218,589.135132 1270.399048,588.649841 1271.000000,588.164551 
	C1273.164062,588.109741 1275.328125,588.006958 1277.492188,588.006836 
	C1436.302612,587.999329 1595.112915,587.996582 1753.923340,588.031616 
	C1756.369751,588.032166 1758.816162,588.507080 1761.764038,589.253357 
	C1763.788574,590.495667 1765.311768,591.245239 1766.834839,591.994812 
	C1766.886597,625.196655 1766.920410,658.398560 1767.017578,691.600281 
	C1767.027588,695.015930 1767.417236,698.430481 1767.394531,702.548584 
	C1768.717163,707.164795 1770.276001,711.078003 1771.834961,714.991211 
	C1777.311279,726.739014 1784.594971,737.158569 1794.320557,746.455627 
	C1794.587402,750.955200 1797.250977,751.111511 1800.112183,750.958679 
	C1802.536255,751.902405 1804.960449,752.846069 1807.775146,754.206421 
	C1808.794434,754.714600 1809.423096,754.806152 1810.051636,754.897766 
	C1810.845093,755.218628 1811.638672,755.539490 1812.859497,756.312012 
	C1815.875244,757.475159 1818.463501,758.186707 1821.051880,758.898254 
	C1844.083618,759.283081 1867.115479,759.667908 1890.824951,760.362915 
	C1893.005981,761.147583 1894.509399,761.622192 1896.128418,762.385437 
	C1896.940430,763.073425 1897.636963,763.472839 1898.723511,763.842529 
	C1900.412476,763.908081 1901.711304,764.003296 1903.082031,764.330200 
	C1903.780640,764.689514 1904.407471,764.817078 1905.444336,764.959595 
	C1912.942139,766.013977 1920.029785,767.053467 1927.117554,768.092896 
	C1927.411621,770.040466 1927.963257,771.988037 1927.963501,773.935669 
	C1928.001831,1031.598877 1928.020508,1289.262207 1927.919678,1546.925415 
	C1927.915894,1556.680908 1924.160645,1565.343384 1916.691162,1572.741455 
	C1915.474243,1573.754272 1914.755981,1574.435425 1914.037598,1575.116455 
	C1912.581787,1576.321411 1911.125977,1577.526611 1909.084961,1578.883545 
	C1908.296631,1579.036987 1908.093384,1579.038696 1907.890015,1579.040405 
	C1896.970093,1586.914185 1884.360718,1584.910156 1872.182495,1584.952271 
	C1837.735352,1585.071289 1803.287231,1584.965698 1768.030151,1584.690186 
	C1753.391846,1583.968750 1739.565063,1583.402832 1725.732422,1583.135254 
	C1723.200073,1583.086304 1720.644287,1584.251953 1718.099243,1584.856812 
	C1700.018433,1584.886841 1681.937744,1584.916870 1663.262329,1584.713013 
	C1662.468628,1584.253296 1662.241089,1584.061279 1661.848633,1583.592407 
	C1658.250854,1581.837280 1654.796265,1580.376953 1651.326416,1578.953125 
	C1648.076172,1577.619385 1645.841675,1578.432129 1644.652832,1582.231812 
	C1632.578125,1585.293335 1629.395264,1584.891113 1625.818237,1579.768921 
	C1630.392212,1579.281372 1634.828735,1578.808594 1639.265137,1578.335693 
	C1639.360229,1577.809448 1639.455322,1577.283203 1639.550293,1576.756836 
	C1637.754639,1575.915649 1635.958862,1575.074463 1633.877930,1573.983154 
	C1629.952271,1572.531860 1626.311523,1571.330811 1622.276611,1570.156738 
	C1619.952637,1569.749390 1617.997437,1569.404663 1616.097534,1568.864990 
	C1608.445190,1566.691406 1600.810181,1564.457642 1592.959106,1562.046875 
	C1592.197144,1561.729492 1591.644653,1561.611084 1591.092285,1561.492676 
	C1591.080078,1562.009399 1591.067871,1562.526123 1591.215820,1563.313721 
	C1592.264648,1564.084106 1593.153320,1564.583740 1594.170410,1565.245972 
	C1594.483643,1565.615723 1594.689819,1565.798828 1595.133545,1566.175781 
	C1595.913940,1566.623535 1596.477905,1566.853394 1597.170410,1567.245850 
	C1597.483643,1567.615723 1597.689819,1567.798828 1598.133545,1568.175903 
	C1598.913940,1568.623535 1599.477905,1568.853394 1600.170410,1569.245972 
	C1600.483643,1569.615723 1600.689819,1569.798828 1601.133545,1570.175903 
	C1601.913940,1570.623535 1602.477905,1570.853516 1603.170410,1571.245972 
	C1603.483643,1571.615723 1603.689819,1571.798828 1604.145874,1572.204590 
	C1605.597046,1572.995117 1606.819458,1573.539185 1608.170410,1574.245972 
	C1608.483643,1574.615723 1608.689819,1574.798828 1609.148193,1575.206299 
	C1611.664673,1576.875488 1613.950195,1578.296509 1616.135498,1579.843506 
	C1616.035278,1579.969604 1615.834106,1580.220825 1615.463135,1580.380615 
	C1608.610107,1580.693604 1602.127441,1580.992554 1595.645996,1580.966919 
	C1585.183105,1580.925415 1574.991943,1580.268188 1565.790771,1573.895996 
	C1562.733643,1571.778687 1561.830200,1570.327148 1562.312134,1566.954834 
	C1563.057007,1561.744507 1561.391846,1560.043335 1556.075684,1560.013184 
	C1548.080078,1559.968018 1540.080811,1559.861328 1532.088379,1560.028320 
	C1514.073120,1560.404541 1496.065674,1560.311646 1479.213989,1552.883545 
	C1473.752686,1550.476440 1469.034790,1546.382690 1463.983154,1542.688721 
	C1463.992920,1541.577393 1463.996460,1540.837646 1464.459473,1540.074219 
	C1472.151489,1540.425171 1479.414062,1540.510986 1486.608765,1541.253174 
	C1494.203003,1542.036377 1501.725952,1543.491943 1509.291992,1544.570068 
	C1520.439575,1546.158447 1531.693115,1547.186768 1542.725952,1549.349121 
	C1554.924805,1551.740112 1566.925903,1555.140625 1579.112183,1558.367676 
	C1580.140869,1558.755859 1581.070435,1558.877930 1582.235840,1558.924072 
	C1582.314331,1558.232178 1582.157104,1557.616089 1581.730713,1557.004395 
	C1581.282227,1557.012695 1581.102783,1557.016724 1580.618530,1556.863770 
	C1575.204956,1553.772217 1570.096191,1550.837769 1564.871582,1547.614746 
	C1564.059448,1546.926636 1563.363037,1546.527222 1562.329468,1546.141235 
	C1561.323242,1546.070923 1560.654175,1545.987061 1559.848633,1545.592285 
	C1548.365967,1541.900635 1537.019775,1538.519653 1525.238770,1535.166748 
	C1511.792847,1533.609619 1498.817505,1531.510254 1485.759521,1530.607056 
	C1475.901855,1529.925171 1465.938477,1530.773315 1456.020264,1531.219971 
	C1456.019531,1531.686279 1456.020752,1531.872803 1456.173096,1532.374512 
	C1459.998413,1539.124023 1459.549805,1540.662476 1453.835693,1540.971436 
	C1434.947021,1541.993164 1416.048828,1542.855591 1397.170044,1544.034424 
	C1384.427612,1544.830078 1371.711060,1546.044800 1358.985107,1547.097534 
	C1356.111450,1547.335083 1354.344482,1548.432495 1354.919434,1551.857422 
	C1355.263672,1553.908081 1354.982666,1556.063721 1354.982666,1557.614990 
	C1360.074097,1558.290771 1364.737427,1559.369751 1369.418091,1559.450928 
	C1389.286377,1559.795776 1409.159790,1559.842407 1429.031250,1560.007324 
	C1430.194702,1560.016968 1431.359375,1560.082520 1432.520020,1560.168457 
	C1442.668945,1560.919556 1452.807129,1561.887695 1462.968262,1562.380737 
	C1472.838623,1562.859497 1482.736938,1562.735352 1492.614014,1563.110840 
	C1497.673828,1563.303223 1502.715942,1563.990112 1507.762817,1564.488159 
	C1513.250610,1565.029785 1518.737061,1565.587891 1524.219238,1566.183594 
	C1528.586792,1566.657959 1532.967041,1567.072021 1537.305664,1567.744629 
	C1542.473389,1568.545654 1547.569214,1569.916382 1552.757080,1570.454346 
	C1559.257812,1571.128418 1561.054321,1572.513428 1561.754028,1579.170410 
	C1561.384277,1579.483643 1561.201172,1579.689819 1560.577637,1579.937012 
	C1549.775269,1581.590210 1539.437012,1583.223511 1529.098877,1584.856689 
	C1527.269409,1584.904541 1525.439819,1584.993774 1523.610352,1584.993896 
	C1441.205444,1585.000854 1358.800415,1585.028198 1276.395630,1584.924194 
	C1271.833496,1584.918457 1267.272705,1583.816162 1262.200684,1582.735352 
	C1260.920166,1581.891724 1260.150391,1581.537231 1259.380493,1581.182617 
	C1250.429688,1579.491821 1245.095215,1573.266113 1240.586792,1566.075439 
	C1239.549683,1564.421265 1238.874512,1562.540161 1238.114990,1560.221436 
	C1237.853149,1559.121582 1237.509155,1558.563843 1237.165283,1558.006104 
	C1236.443604,1554.307617 1235.090942,1550.609375 1235.089844,1546.910645 
	C1234.992432,1239.984863 1235.011230,933.059082 1234.936157,626.133301 
	C1234.934326,618.449402 1238.112549,612.042542 1241.924072,605.246094 
	C1242.951294,604.294861 1243.425171,603.620789 1243.899048,602.946655 
M1674.658203,927.882385 
	C1675.380127,927.045471 1676.102051,926.208557 1676.758911,924.634827 
	C1677.505737,920.752441 1678.893311,916.871582 1678.903076,912.987366 
	C1679.043701,856.532166 1678.938477,800.076355 1679.056030,743.621033 
	C1679.077393,733.361267 1672.191895,724.826233 1660.129517,724.855042 
	C1555.046143,725.106079 1449.961914,724.986938 1344.877930,725.046753 
	C1340.601074,725.049194 1336.324463,725.737610 1331.699219,725.595642 
	C1329.252441,724.482117 1329.252441,724.482117 1328.710327,728.692749 
	C1322.924316,733.340393 1322.035767,739.890320 1322.029297,746.621033 
	C1321.977051,801.017212 1322.042725,855.413513 1321.956909,909.809570 
	C1321.942993,918.641479 1324.297363,926.096008 1332.165039,931.623474 
	C1332.793579,931.714600 1333.422241,931.805725 1334.979736,931.962769 
	C1442.828857,931.975159 1550.677856,931.986572 1658.526978,932.006958 
	C1661.021118,932.007446 1663.515381,932.110657 1666.253906,932.690613 
	C1667.725708,932.023499 1669.197510,931.356323 1670.672119,930.630066 
	C1670.672119,930.630066 1670.729492,930.615479 1671.462402,930.748352 
	C1672.291870,929.806396 1673.121338,928.864380 1673.987793,927.986694 
	C1673.987793,927.986694 1673.922485,927.951294 1674.658203,927.882385 
M1755.658081,1271.882202 
	C1756.380005,1271.045288 1757.101929,1270.208252 1757.756104,1268.643677 
	C1758.469971,1263.779663 1759.183838,1258.915649 1760.195068,1253.678467 
	C1759.851807,1253.121094 1759.508545,1252.563599 1758.827515,1251.389038 
	C1755.589600,1244.441040 1750.617188,1240.891968 1742.472290,1240.900513 
	C1608.213501,1241.040527 1473.954590,1240.985840 1339.695801,1241.085205 
	C1336.500610,1241.087524 1333.306641,1242.360962 1329.355835,1243.026978 
	C1325.804321,1243.199707 1325.804321,1243.199707 1326.683105,1246.226318 
	C1325.400635,1249.484131 1324.118164,1252.742065 1322.221313,1256.068481 
	C1319.957886,1256.760498 1319.574097,1257.701172 1322.163086,1259.726562 
	C1324.185425,1270.729126 1331.114624,1276.218750 1343.100586,1276.191162 
	C1475.239136,1275.886963 1607.378784,1275.999146 1739.518066,1276.007080 
	C1742.015259,1276.007202 1744.512329,1276.110718 1747.253784,1276.690552 
	C1748.725586,1276.023560 1750.197510,1275.356445 1751.671997,1274.630249 
	C1751.671997,1274.630249 1751.729492,1274.615601 1752.462402,1274.748535 
	C1753.291870,1273.806396 1754.121460,1272.864380 1754.987915,1271.986572 
	C1754.987915,1271.986572 1754.922485,1271.951416 1755.658081,1271.882202 
M1838.767944,1095.607178 
	C1843.415405,1080.909546 1836.802979,1068.663818 1819.259033,1068.717041 
	C1660.022705,1069.199585 1500.784424,1068.999512 1341.546631,1069.004150 
	C1339.048950,1069.004150 1336.551392,1069.066650 1333.464111,1068.670288 
	C1329.949463,1067.195801 1328.986694,1069.000122 1328.710571,1072.692383 
	C1326.752319,1076.461548 1324.793945,1080.230835 1322.221313,1084.068481 
	C1319.957886,1084.760498 1319.574097,1085.701172 1322.199707,1087.670044 
	C1324.970825,1100.554565 1331.871460,1104.183228 1344.049072,1104.164185 
	C1502.871338,1103.916748 1661.694214,1103.999390 1820.516846,1104.007080 
	C1823.014404,1104.007202 1825.511841,1104.110718 1828.249634,1104.692749 
	C1831.792969,1105.885376 1833.515869,1104.346558 1834.212402,1100.392212 
	C1834.770752,1099.914429 1835.329102,1099.436768 1836.628052,1098.887573 
	C1837.360596,1098.049194 1838.093262,1097.210815 1838.767944,1095.607178 
M1827.264160,1448.701172 
	C1830.864136,1449.832031 1833.289673,1448.901367 1834.212402,1444.392212 
	C1834.770874,1443.914551 1835.329224,1443.436890 1836.628052,1442.887573 
	C1837.360718,1442.049194 1838.093262,1441.210938 1838.570312,1439.605591 
	C1838.717896,1438.956299 1838.823486,1438.294189 1839.019409,1437.659790 
	C1843.520508,1423.077148 1834.576904,1412.694458 1820.265137,1412.732788 
	C1661.662231,1413.157349 1503.057739,1412.991577 1344.453735,1413.043701 
	C1340.006470,1413.045166 1335.559448,1413.694214 1330.347290,1414.044800 
	C1329.245117,1415.067261 1328.143066,1416.089844 1326.703613,1417.693848 
	C1325.414307,1421.129272 1324.125000,1424.564575 1322.221313,1428.068481 
	C1319.957886,1428.760498 1319.574097,1429.701172 1322.199707,1431.670044 
	C1324.970825,1444.554565 1331.871338,1448.183228 1344.049072,1448.164185 
	C1502.538086,1447.916626 1661.027588,1447.999268 1819.516968,1448.006958 
	C1822.014526,1448.007080 1824.511963,1448.110596 1827.264160,1448.701172 
z"/>
<path fill="#FFFFFF" opacity="1.000000" stroke="none" 
	d="
M1800.000000,679.968994 
	C1800.000000,658.004089 1800.000000,636.534241 1800.000000,613.752869 
	C1834.979126,651.013245 1869.205444,687.471680 1904.436157,725.000000 
	C1901.589844,725.000000 1899.899414,725.000000 1898.208984,725.000000 
	C1878.064209,725.000000 1857.919434,725.008484 1837.774658,724.997437 
	C1820.277100,724.987854 1803.733398,711.000488 1801.060181,693.763000 
	C1800.380493,689.380676 1800.336304,684.899719 1800.000000,679.968994 
z"/>
<path fill="#FFFFFF" opacity="1.000000" stroke="none" 
	d="
M1603.041870,1571.083374 
	C1602.477905,1570.853516 1601.913940,1570.623535 1601.026855,1569.994751 
	C1600.526367,1569.369141 1600.305786,1569.198364 1600.041870,1569.083374 
	C1599.477905,1568.853394 1598.913940,1568.623535 1598.026855,1567.994751 
	C1597.526367,1567.369141 1597.305786,1567.198364 1597.041870,1567.083252 
	C1596.477905,1566.853394 1595.913940,1566.623535 1595.026855,1565.994629 
	C1594.526367,1565.369141 1594.305786,1565.198364 1594.041870,1565.083374 
	C1593.153320,1564.583740 1592.264648,1564.084106 1591.494019,1563.256104 
	C1592.130859,1562.700562 1592.649780,1562.473389 1593.168701,1562.246094 
	C1600.810181,1564.457642 1608.445190,1566.691406 1616.097534,1568.864990 
	C1617.997437,1569.404663 1619.952637,1569.749390 1622.468506,1570.462769 
	C1626.757446,1571.905640 1630.460205,1573.069458 1634.163086,1574.233276 
	C1635.958862,1575.074463 1637.754639,1575.915649 1639.550293,1576.756836 
	C1639.455322,1577.283203 1639.360229,1577.809448 1639.265137,1578.335693 
	C1634.828735,1578.808594 1630.392212,1579.281372 1625.818237,1579.768921 
	C1629.395264,1584.891113 1632.578125,1585.293335 1645.005493,1582.157227 
	C1648.637695,1581.830078 1651.610962,1581.451904 1654.502563,1581.784668 
	C1657.044312,1582.077271 1659.494507,1583.165894 1661.985107,1583.903076 
	C1662.241089,1584.061279 1662.468628,1584.253296 1662.790283,1584.666504 
	C1618.614258,1584.890503 1574.315796,1584.927124 1529.558105,1584.910156 
	C1539.437012,1583.223511 1549.775269,1581.590210 1560.758789,1579.830322 
	C1561.630859,1579.526367 1561.801636,1579.305786 1561.916626,1579.041870 
	C1561.054321,1572.513428 1559.257812,1571.128418 1552.757080,1570.454346 
	C1547.569214,1569.916382 1542.473389,1568.545654 1537.305664,1567.744629 
	C1532.967041,1567.072021 1528.586792,1566.657959 1524.219238,1566.183594 
	C1518.737061,1565.587891 1513.250610,1565.029785 1507.762817,1564.488159 
	C1502.715942,1563.990112 1497.673828,1563.303223 1492.614014,1563.110840 
	C1482.736938,1562.735352 1472.838623,1562.859497 1462.968262,1562.380737 
	C1452.807129,1561.887695 1442.668945,1560.919556 1432.520020,1560.168457 
	C1431.359375,1560.082520 1430.194702,1560.016968 1429.031250,1560.007324 
	C1409.159790,1559.842407 1389.286377,1559.795776 1369.418091,1559.450928 
	C1364.737427,1559.369751 1360.074097,1558.290771 1354.982666,1557.614990 
	C1354.982666,1556.063721 1355.263672,1553.908081 1354.919434,1551.857422 
	C1354.344482,1548.432495 1356.111450,1547.335083 1358.985107,1547.097534 
	C1371.711060,1546.044800 1384.427612,1544.830078 1397.170044,1544.034424 
	C1416.048828,1542.855591 1434.947021,1541.993164 1453.835693,1540.971436 
	C1459.549805,1540.662476 1459.998413,1539.124023 1456.283447,1532.249756 
	C1456.390869,1531.477539 1456.317383,1531.187744 1456.022095,1530.940308 
	C1465.938477,1530.773315 1475.901855,1529.925171 1485.759521,1530.607056 
	C1498.817505,1531.510254 1511.792847,1533.609619 1525.444214,1535.476074 
	C1537.384888,1539.139282 1548.684937,1542.521240 1559.985107,1545.903076 
	C1560.654175,1545.987061 1561.323242,1546.070923 1562.484863,1546.413696 
	C1563.647461,1547.082886 1564.317383,1547.493164 1564.987305,1547.903442 
	C1570.096191,1550.837769 1575.204956,1553.772217 1580.434814,1557.075195 
	C1580.041626,1557.662964 1579.527344,1557.882202 1579.013062,1558.101562 
	C1566.925903,1555.140625 1554.924805,1551.740112 1542.725952,1549.349121 
	C1531.693115,1547.186768 1520.439575,1546.158447 1509.291992,1544.570068 
	C1501.725952,1543.491943 1494.203003,1542.036377 1486.608765,1541.253174 
	C1479.414062,1540.510986 1472.151489,1540.425171 1464.184082,1540.118530 
	C1463.625244,1541.144409 1463.801147,1542.102417 1463.977051,1543.060425 
	C1469.034790,1546.382690 1473.752686,1550.476440 1479.213989,1552.883545 
	C1496.065674,1560.311646 1514.073120,1560.404541 1532.088379,1560.028320 
	C1540.080811,1559.861328 1548.080078,1559.968018 1556.075684,1560.013184 
	C1561.391846,1560.043335 1563.057007,1561.744507 1562.312134,1566.954834 
	C1561.830200,1570.327148 1562.733643,1571.778687 1565.790771,1573.895996 
	C1574.991943,1580.268188 1585.183105,1580.925415 1595.645996,1580.966919 
	C1602.127441,1580.992554 1608.610107,1580.693604 1615.662354,1580.510986 
	C1616.682251,1580.527222 1617.132324,1580.572998 1617.582275,1580.618652 
	C1617.133423,1580.318359 1616.684570,1580.017944 1616.235718,1579.717529 
	C1613.950195,1578.296509 1611.664673,1576.875488 1609.041382,1575.025146 
	C1608.526367,1574.369141 1608.305786,1574.198364 1608.041870,1574.083374 
	C1606.819458,1573.539185 1605.597046,1572.995117 1604.039062,1572.023438 
	C1603.526367,1571.369141 1603.305786,1571.198364 1603.041870,1571.083374 
z"/>
<path fill="#FFFFFF" opacity="1.000000" stroke="none" 
	d="
M1927.428223,767.815186 
	C1920.029785,767.053467 1912.942139,766.013977 1905.235840,764.767456 
	C1904.081665,764.406494 1903.545898,764.252502 1903.010132,764.098511 
	C1901.711304,764.003296 1900.412476,763.908081 1898.568115,763.570190 
	C1897.352661,762.917175 1896.682617,762.507019 1896.012695,762.096802 
	C1894.509399,761.622192 1893.005981,761.147583 1891.297363,760.409058 
	C1903.142456,760.145081 1915.192749,760.145081 1927.738770,760.145081 
	C1927.738770,762.749573 1927.738770,765.143494 1927.428223,767.815186 
z"/>
<path fill="#FFFFFF" opacity="1.000000" stroke="none" 
	d="
M1718.558594,1584.910156 
	C1720.644287,1584.251953 1723.200073,1583.086304 1725.732422,1583.135254 
	C1739.565063,1583.402832 1753.391846,1583.968750 1767.556641,1584.645264 
	C1751.600952,1584.893677 1735.309448,1584.928711 1718.558594,1584.910156 
z"/>
<path fill="#FCD8D3" opacity="1.000000" stroke="none" 
	d="
M1263.655273,589.251099 
	C1261.409424,594.146790 1256.403076,594.762573 1251.320557,595.954041 
	C1255.052490,593.745544 1259.181641,591.541809 1263.655273,589.251099 
z"/>
<path fill="#FCDDEB" opacity="1.000000" stroke="none" 
	d="
M1236.811035,562.291382 
	C1238.275513,557.738098 1242.201782,556.873596 1246.785400,556.899902 
	C1243.748657,558.804321 1240.444214,560.506653 1236.811035,562.291382 
z"/>
<path fill="#FCD8D3" opacity="1.000000" stroke="none" 
	d="
M1771.851562,714.614014 
	C1770.276001,711.078003 1768.717163,707.164795 1767.180054,702.820618 
	C1768.757324,706.338684 1770.312744,710.287720 1771.851562,714.614014 
z"/>
<path fill="#FCD8D3" opacity="1.000000" stroke="none" 
	d="
M1820.812988,758.633911 
	C1818.463501,758.186707 1815.875244,757.475159 1813.148560,756.464355 
	C1815.531494,756.899841 1818.052856,757.634705 1820.812988,758.633911 
z"/>
<path fill="#FCD8D3" opacity="1.000000" stroke="none" 
	d="
M1799.937012,750.667603 
	C1797.250977,751.111511 1794.587402,750.955200 1794.209351,746.784912 
	C1796.048340,747.708008 1797.905151,749.042297 1799.937012,750.667603 
z"/>
<path fill="#FCD8D3" opacity="1.000000" stroke="none" 
	d="
M1766.844727,591.627319 
	C1765.311768,591.245239 1763.788574,590.495667 1762.137695,589.455688 
	C1763.624634,589.863525 1765.239624,590.561707 1766.844727,591.627319 
z"/>
<path fill="#FCD8D3" opacity="1.000000" stroke="none" 
	d="
M1250.661011,596.065552 
	C1249.850708,596.933228 1248.750366,597.944641 1247.268799,598.957520 
	C1248.048828,598.042358 1249.209839,597.125854 1250.661011,596.065552 
z"/>
<path fill="#FCDDEB" opacity="1.000000" stroke="none" 
	d="
M1226.331299,569.966980 
	C1227.134766,569.093445 1228.227905,568.072449 1229.702271,567.052856 
	C1228.929199,567.976013 1227.775146,568.897766 1226.331299,569.966980 
z"/>
<path fill="#FCDDEB" opacity="1.000000" stroke="none" 
	d="
M1230.338623,566.945557 
	C1230.901855,566.161438 1231.750732,565.238708 1232.965088,564.427551 
	C1232.428467,565.295044 1231.526367,566.051025 1230.338623,566.945557 
z"/>
<path fill="#FCDDEB" opacity="1.000000" stroke="none" 
	d="
M1233.758789,564.312378 
	C1234.178101,563.690063 1234.892456,563.000183 1235.962891,562.423950 
	C1235.563965,563.106689 1234.808716,563.675781 1233.758789,564.312378 
z"/>
<path fill="#FCD8D3" opacity="1.000000" stroke="none" 
	d="
M1914.347168,1575.052124 
	C1914.755981,1574.435425 1915.474243,1573.754272 1916.514160,1573.036621 
	C1916.109375,1573.662598 1915.383057,1574.325073 1914.347168,1575.052124 
z"/>
<path fill="#FCD8D3" opacity="1.000000" stroke="none" 
	d="
M1270.721436,588.212463 
	C1270.399048,588.649841 1269.798218,589.135132 1269.103638,589.393188 
	C1269.487671,588.864075 1269.965210,588.562195 1270.721436,588.212463 
z"/>
<path fill="#FCD8D3" opacity="1.000000" stroke="none" 
	d="
M1243.640381,603.085510 
	C1243.425171,603.620789 1242.951294,604.294861 1242.175659,604.988647 
	C1242.376465,604.413635 1242.879028,603.819031 1243.640381,603.085510 
z"/>
<path fill="#FCD8D3" opacity="1.000000" stroke="none" 
	d="
M1237.136719,1558.297852 
	C1237.509155,1558.563843 1237.853149,1559.121582 1238.048584,1559.866455 
	C1237.636108,1559.565674 1237.372192,1559.077515 1237.136719,1558.297852 
z"/>
<path fill="#FCD8D3" opacity="1.000000" stroke="none" 
	d="
M1259.515137,1581.496704 
	C1260.150391,1581.537231 1260.920166,1581.891724 1261.840088,1582.540649 
	C1261.210083,1582.493530 1260.429932,1582.152222 1259.515137,1581.496704 
z"/>
<path fill="#FCD8D3" opacity="1.000000" stroke="none" 
	d="
M1809.873657,754.665710 
	C1809.423096,754.806152 1808.794434,754.714600 1808.086670,754.394165 
	C1808.570312,754.254700 1809.132935,754.344177 1809.873657,754.665710 
z"/>
<path fill="#FCD8D3" opacity="1.000000" stroke="none" 
	d="
M1908.010010,1579.218750 
	C1908.093384,1579.038696 1908.296631,1579.036987 1908.804932,1579.037842 
	C1908.783447,1579.159302 1908.456665,1579.278198 1908.010010,1579.218750 
z"/>
<path fill="#C8867E" opacity="1.000000" stroke="none" 
	d="
M1332.006348,931.165344 
	C1324.297363,926.096008 1321.942993,918.641479 1321.956909,909.809570 
	C1322.042725,855.413513 1321.977051,801.017212 1322.029297,746.621033 
	C1322.035767,739.890320 1322.924316,733.340393 1329.148682,728.261963 
	C1330.407349,727.256226 1331.227539,726.681274 1332.047729,726.106323 
	C1336.324463,725.737610 1340.601074,725.049194 1344.877930,725.046753 
	C1449.961914,724.986938 1555.046143,725.106079 1660.129517,724.855042 
	C1672.191895,724.826233 1679.077393,733.361267 1679.056030,743.621033 
	C1678.938477,800.076355 1679.043701,856.532166 1678.903076,912.987366 
	C1678.893311,916.871582 1677.505737,920.752441 1676.477905,925.117859 
	C1675.438843,926.384338 1674.680664,927.167847 1673.922485,927.951294 
	C1673.922485,927.951294 1673.987793,927.986694 1673.682861,928.096924 
	C1672.495239,929.009949 1671.612305,929.812744 1670.729492,930.615479 
	C1670.729492,930.615479 1670.672119,930.630066 1670.327759,930.701538 
	C1668.658813,931.237366 1667.334106,931.701660 1666.009521,932.165955 
	C1663.515381,932.110657 1661.021118,932.007446 1658.526978,932.006958 
	C1550.677856,931.986572 1442.828857,931.975159 1334.337158,931.697876 
	C1333.131714,931.343811 1332.569092,931.254578 1332.006348,931.165344 
M1356.000000,856.500000 
	C1356.000122,868.164673 1356.196899,879.834412 1355.899902,891.491516 
	C1355.786987,895.925476 1357.144409,897.096191 1361.527954,897.090515 
	C1454.512329,896.970337 1547.496826,896.969910 1640.481201,897.091309 
	C1644.879639,897.097046 1646.111450,895.890503 1646.094727,891.484558 
	C1645.935425,849.492188 1645.934692,807.498718 1646.095703,765.506348 
	C1646.112671,761.085327 1644.855591,759.903931 1640.472046,759.909546 
	C1547.487671,760.029785 1454.503296,760.030090 1361.518921,759.908691 
	C1357.120605,759.902954 1355.876343,761.107849 1355.903564,765.515625 
	C1356.088379,795.509460 1356.000122,825.505005 1356.000000,856.500000 
z"/>
<path fill="#C8867E" opacity="1.000000" stroke="none" 
	d="
M1322.835693,1428.000000 
	C1324.125000,1424.564575 1325.414307,1421.129272 1327.160767,1417.251953 
	C1328.782715,1415.887207 1329.947510,1414.964233 1331.112305,1414.041260 
	C1335.559448,1413.694214 1340.006470,1413.045166 1344.453735,1413.043701 
	C1503.057739,1412.991577 1661.662231,1413.157349 1820.265137,1412.732788 
	C1834.576904,1412.694458 1843.520508,1423.077148 1839.019409,1437.659790 
	C1838.823486,1438.294189 1838.717896,1438.956299 1838.382446,1440.104492 
	C1837.425537,1441.388672 1836.656494,1442.173828 1835.887451,1442.958984 
	C1835.329224,1443.436890 1834.770874,1443.914551 1833.777100,1444.804688 
	C1831.230957,1446.200195 1829.120239,1447.182983 1827.009521,1448.165771 
	C1824.511963,1448.110596 1822.014526,1448.007080 1819.516968,1448.006958 
	C1661.027588,1447.999268 1502.538086,1447.916626 1344.049072,1448.164185 
	C1331.871338,1448.183228 1324.970825,1444.554565 1322.093018,1431.021484 
	C1322.269409,1429.582031 1322.552612,1428.791016 1322.835693,1428.000000 
z"/>
<path fill="#C8867E" opacity="1.000000" stroke="none" 
	d="
M1322.835693,1084.000000 
	C1324.793945,1080.230835 1326.752319,1076.461548 1329.168945,1072.248047 
	C1331.102905,1070.902588 1332.578247,1070.001221 1334.053711,1069.099976 
	C1336.551392,1069.066650 1339.048950,1069.004150 1341.546631,1069.004150 
	C1500.784424,1068.999512 1660.022705,1069.199585 1819.259033,1068.717041 
	C1836.802979,1068.663818 1843.415405,1080.909546 1838.481201,1096.105347 
	C1837.425537,1097.388672 1836.656494,1098.173828 1835.887451,1098.958984 
	C1835.329102,1099.436768 1834.770752,1099.914429 1833.784912,1100.799438 
	C1831.574829,1102.193115 1829.792114,1103.179565 1828.009399,1104.166016 
	C1825.511841,1104.110718 1823.014404,1104.007202 1820.516846,1104.007080 
	C1661.694214,1103.999390 1502.871338,1103.916748 1344.049072,1104.164185 
	C1331.871460,1104.183228 1324.970825,1100.554565 1322.092896,1087.021484 
	C1322.269287,1085.582031 1322.552490,1084.791016 1322.835693,1084.000000 
z"/>
<path fill="#C8867E" opacity="1.000000" stroke="none" 
	d="
M1747.009521,1276.166016 
	C1744.512329,1276.110718 1742.015259,1276.007202 1739.518066,1276.007080 
	C1607.378784,1275.999146 1475.239136,1275.886963 1343.100586,1276.191162 
	C1331.114624,1276.218750 1324.185425,1270.729126 1322.074585,1259.049805 
	C1322.269287,1257.582031 1322.552490,1256.791016 1322.835693,1256.000000 
	C1324.118164,1252.742065 1325.400635,1249.484131 1326.977661,1245.715088 
	C1328.218872,1244.483032 1329.165527,1243.762329 1330.112183,1243.041504 
	C1333.306641,1242.360962 1336.500610,1241.087524 1339.695801,1241.085205 
	C1473.954590,1240.985840 1608.213501,1241.040527 1742.472290,1240.900513 
	C1750.617188,1240.891968 1755.589600,1244.441040 1758.967651,1251.989014 
	C1759.371094,1253.076538 1759.634399,1253.564087 1759.897705,1254.051636 
	C1759.183838,1258.915649 1758.469971,1263.779663 1757.476318,1269.122070 
	C1756.438599,1270.384155 1755.680542,1271.167725 1754.922363,1271.951416 
	C1754.922485,1271.951416 1754.987915,1271.986572 1754.682983,1272.096924 
	C1753.495239,1273.010010 1752.612305,1273.812744 1751.729492,1274.615601 
	C1751.729492,1274.615601 1751.671997,1274.630249 1751.327637,1274.701660 
	C1749.658813,1275.237183 1748.334106,1275.701538 1747.009521,1276.166016 
z"/>
<path fill="#FCD8D3" opacity="1.000000" stroke="none" 
	d="
M1559.848633,1545.592285 
	C1548.684937,1542.521240 1537.384888,1539.139282 1525.879150,1535.448120 
	C1537.019775,1538.519653 1548.365967,1541.900635 1559.848633,1545.592285 
z"/>
<path fill="#FCD8D3" opacity="1.000000" stroke="none" 
	d="
M1661.848633,1583.592407 
	C1659.494507,1583.165894 1657.044312,1582.077271 1654.502563,1581.784668 
	C1651.610962,1581.451904 1648.637695,1581.830078 1645.347168,1581.973755 
	C1645.841675,1578.432129 1648.076172,1577.619385 1651.326416,1578.953125 
	C1654.796265,1580.376953 1658.250854,1581.837280 1661.848633,1583.592407 
z"/>
<path fill="#FCD8D3" opacity="1.000000" stroke="none" 
	d="
M1633.877930,1573.983154 
	C1630.460205,1573.069458 1626.757446,1571.905640 1622.862671,1570.435791 
	C1626.311523,1571.330811 1629.952271,1572.531860 1633.877930,1573.983154 
z"/>
<path fill="#FCD8D3" opacity="1.000000" stroke="none" 
	d="
M1827.136841,1448.433472 
	C1829.120239,1447.182983 1831.230957,1446.200195 1833.650391,1445.052490 
	C1833.289673,1448.901367 1830.864136,1449.832031 1827.136841,1448.433472 
z"/>
<path fill="#FCD8D3" opacity="1.000000" stroke="none" 
	d="
M1828.129517,1104.429321 
	C1829.792114,1103.179565 1831.574829,1102.193115 1833.658203,1101.047119 
	C1833.515869,1104.346558 1831.792969,1105.885376 1828.129517,1104.429321 
z"/>
<path fill="#FCD8D3" opacity="1.000000" stroke="none" 
	d="
M1333.758911,1068.885132 
	C1332.578247,1070.001221 1331.102905,1070.902588 1329.334473,1071.958008 
	C1328.986694,1069.000122 1329.949463,1067.195801 1333.758911,1068.885132 
z"/>
<path fill="#FCD8D3" opacity="1.000000" stroke="none" 
	d="
M1747.131592,1276.428223 
	C1748.334106,1275.701538 1749.658813,1275.237183 1751.326416,1274.731201 
	C1750.197510,1275.356445 1748.725586,1276.023560 1747.131592,1276.428223 
z"/>
<path fill="#FCD8D3" opacity="1.000000" stroke="none" 
	d="
M1666.131714,932.428284 
	C1667.334106,931.701660 1668.658813,931.237366 1670.326416,930.731079 
	C1669.197510,931.356323 1667.725708,932.023499 1666.131714,932.428284 
z"/>
<path fill="#FCD8D3" opacity="1.000000" stroke="none" 
	d="
M1331.873535,725.850952 
	C1331.227539,726.681274 1330.407349,727.256226 1329.314453,727.971497 
	C1329.252441,724.482117 1329.252441,724.482117 1331.873535,725.850952 
z"/>
<path fill="#FCD8D3" opacity="1.000000" stroke="none" 
	d="
M1329.734009,1243.034180 
	C1329.165527,1243.762329 1328.218872,1244.483032 1327.015625,1245.351562 
	C1325.804321,1243.199707 1325.804321,1243.199707 1329.734009,1243.034180 
z"/>
<path fill="#FCD8D3" opacity="1.000000" stroke="none" 
	d="
M1330.729736,1414.042969 
	C1329.947510,1414.964233 1328.782715,1415.887207 1327.329468,1416.961182 
	C1328.143066,1416.089844 1329.245117,1415.067261 1330.729736,1414.042969 
z"/>
<path fill="#FCD8D3" opacity="1.000000" stroke="none" 
	d="
M1322.528564,1084.034180 
	C1322.552490,1084.791016 1322.269287,1085.582031 1321.910400,1086.682373 
	C1319.574097,1085.701172 1319.957886,1084.760498 1322.528564,1084.034180 
z"/>
<path fill="#FCD8D3" opacity="1.000000" stroke="none" 
	d="
M1322.528564,1428.034180 
	C1322.552612,1428.791016 1322.269409,1429.582031 1321.910400,1430.682373 
	C1319.574097,1429.701172 1319.957886,1428.760498 1322.528564,1428.034180 
z"/>
<path fill="#FCD8D3" opacity="1.000000" stroke="none" 
	d="
M1752.095947,1274.682129 
	C1752.612305,1273.812744 1753.495239,1273.010010 1754.664551,1272.064697 
	C1754.121460,1272.864380 1753.291870,1273.806396 1752.095947,1274.682129 
z"/>
<path fill="#FCD8D3" opacity="1.000000" stroke="none" 
	d="
M1322.528564,1256.034180 
	C1322.552490,1256.791016 1322.269287,1257.582031 1321.910400,1258.682373 
	C1319.574097,1257.701172 1319.957886,1256.760498 1322.528564,1256.034180 
z"/>
<path fill="#FCD8D3" opacity="1.000000" stroke="none" 
	d="
M1671.095947,930.681885 
	C1671.612305,929.812744 1672.495239,929.009949 1673.664429,928.064819 
	C1673.121338,928.864380 1672.291870,929.806396 1671.095947,930.681885 
z"/>
<path fill="#FCD8D3" opacity="1.000000" stroke="none" 
	d="
M1579.112183,1558.367676 
	C1579.527344,1557.882202 1580.041626,1557.662964 1580.739746,1557.232300 
	C1581.102783,1557.016724 1581.282227,1557.012695 1581.730835,1557.337646 
	C1582.000000,1558.111084 1582.000000,1558.555542 1582.000000,1559.000000 
	C1581.070435,1558.877930 1580.140869,1558.755859 1579.112183,1558.367676 
z"/>
<path fill="#FCD8D3" opacity="1.000000" stroke="none" 
	d="
M1592.959106,1562.046997 
	C1592.649780,1562.473389 1592.130859,1562.700562 1591.333740,1562.985352 
	C1591.067871,1562.526123 1591.080078,1562.009399 1591.092285,1561.492676 
	C1591.644653,1561.611084 1592.197144,1561.729492 1592.959106,1562.046997 
z"/>
<path fill="#FCD8D3" opacity="1.000000" stroke="none" 
	d="
M1463.983154,1542.688721 
	C1463.801147,1542.102417 1463.625244,1541.144409 1463.724609,1540.142090 
	C1463.996460,1540.837646 1463.992920,1541.577393 1463.983154,1542.688721 
z"/>
<path fill="#FCD8D3" opacity="1.000000" stroke="none" 
	d="
M1755.290283,1271.916748 
	C1755.680542,1271.167725 1756.438599,1270.384155 1757.510254,1269.485840 
	C1757.101929,1270.208252 1756.380005,1271.045288 1755.290283,1271.916748 
z"/>
<path fill="#FCD8D3" opacity="1.000000" stroke="none" 
	d="
M1674.290283,927.916870 
	C1674.680664,927.167847 1675.438843,926.384338 1676.510498,925.486267 
	C1676.102051,926.208557 1675.380127,927.045471 1674.290283,927.916870 
z"/>
<path fill="#FCD8D3" opacity="1.000000" stroke="none" 
	d="
M1836.257812,1442.923340 
	C1836.656494,1442.173828 1837.425537,1441.388672 1838.510254,1440.488037 
	C1838.093262,1441.210938 1837.360718,1442.049194 1836.257812,1442.923340 
z"/>
<path fill="#FCD8D3" opacity="1.000000" stroke="none" 
	d="
M1836.257812,1098.923340 
	C1836.656494,1098.173828 1837.425537,1097.388672 1838.510254,1096.488037 
	C1838.093262,1097.210815 1837.360596,1098.049194 1836.257812,1098.923340 
z"/>
<path fill="#FCD8D3" opacity="1.000000" stroke="none" 
	d="
M1896.128418,762.385498 
	C1896.682617,762.507019 1897.352661,762.917175 1898.177979,763.599792 
	C1897.636963,763.472839 1896.940430,763.073425 1896.128418,762.385498 
z"/>
<path fill="#FCD8D3" opacity="1.000000" stroke="none" 
	d="
M1903.082031,764.330200 
	C1903.545898,764.252502 1904.081665,764.406494 1904.825928,764.752563 
	C1904.407471,764.817078 1903.780640,764.689514 1903.082031,764.330200 
z"/>
<path fill="#FCD8D3" opacity="1.000000" stroke="none" 
	d="
M1332.085693,931.394409 
	C1332.569092,931.254578 1333.131714,931.343811 1333.872559,931.664917 
	C1333.422241,931.805725 1332.793579,931.714600 1332.085693,931.394409 
z"/>
<path fill="#FCD8D3" opacity="1.000000" stroke="none" 
	d="
M1582.235840,1558.924072 
	C1582.000000,1558.555542 1582.000000,1558.111084 1582.000000,1557.333252 
	C1582.157104,1557.616089 1582.314331,1558.232178 1582.235840,1558.924072 
z"/>
<path fill="#FCD8D3" opacity="1.000000" stroke="none" 
	d="
M1564.871582,1547.614746 
	C1564.317383,1547.493164 1563.647461,1547.082886 1562.822021,1546.400146 
	C1563.363037,1546.527222 1564.059448,1546.926636 1564.871582,1547.614746 
z"/>
<path fill="#FCD8D3" opacity="1.000000" stroke="none" 
	d="
M1760.046387,1253.864990 
	C1759.634399,1253.564087 1759.371094,1253.076538 1759.136475,1252.297607 
	C1759.508545,1252.563599 1759.851807,1253.121094 1760.046387,1253.864990 
z"/>
<path fill="#FCD8D3" opacity="1.000000" stroke="none" 
	d="
M1561.754028,1579.170410 
	C1561.801636,1579.305786 1561.630859,1579.526367 1561.223022,1579.810303 
	C1561.201172,1579.689819 1561.384277,1579.483643 1561.754028,1579.170410 
z"/>
<path fill="#FCD8D3" opacity="1.000000" stroke="none" 
	d="
M1600.170410,1569.245972 
	C1600.305786,1569.198364 1600.526367,1569.369141 1600.810303,1569.776978 
	C1600.689819,1569.798828 1600.483643,1569.615723 1600.170410,1569.245972 
z"/>
<path fill="#FCD8D3" opacity="1.000000" stroke="none" 
	d="
M1608.170410,1574.245972 
	C1608.305786,1574.198364 1608.526367,1574.369141 1608.810303,1574.776978 
	C1608.689819,1574.798828 1608.483643,1574.615723 1608.170410,1574.245972 
z"/>
<path fill="#FCD8D3" opacity="1.000000" stroke="none" 
	d="
M1603.170410,1571.245972 
	C1603.305786,1571.198364 1603.526367,1571.369141 1603.810303,1571.776978 
	C1603.689819,1571.798828 1603.483643,1571.615723 1603.170410,1571.245972 
z"/>
<path fill="#FCD8D3" opacity="1.000000" stroke="none" 
	d="
M1597.170410,1567.245972 
	C1597.305786,1567.198364 1597.526367,1567.369141 1597.810303,1567.776978 
	C1597.689819,1567.798828 1597.483643,1567.615723 1597.170410,1567.245972 
z"/>
<path fill="#FCD8D3" opacity="1.000000" stroke="none" 
	d="
M1594.170410,1565.245972 
	C1594.305786,1565.198364 1594.526367,1565.369141 1594.810303,1565.776978 
	C1594.689819,1565.798828 1594.483643,1565.615723 1594.170410,1565.245972 
z"/>
<path fill="#FCD8D3" opacity="1.000000" stroke="none" 
	d="
M1456.020264,1531.219971 
	C1456.317383,1531.187744 1456.390869,1531.477539 1456.132324,1531.934570 
	C1456.020752,1531.872803 1456.019531,1531.686279 1456.020264,1531.219971 
z"/>
<path fill="#FCD8D3" opacity="1.000000" stroke="none" 
	d="
M1616.135498,1579.843506 
	C1616.684570,1580.017944 1617.133423,1580.318359 1617.582275,1580.618652 
	C1617.132324,1580.572998 1616.682251,1580.527222 1616.033203,1580.351074 
	C1615.834106,1580.220825 1616.035278,1579.969604 1616.135498,1579.843506 
z"/>
<path fill="#FCD8D3" opacity="1.000000" stroke="none" 
	d="
M1356.000000,856.000000 
	C1356.000122,825.505005 1356.088379,795.509460 1355.903564,765.515625 
	C1355.876343,761.107849 1357.120605,759.902954 1361.518921,759.908691 
	C1454.503296,760.030090 1547.487671,760.029785 1640.472046,759.909546 
	C1644.855591,759.903931 1646.112671,761.085327 1646.095703,765.506348 
	C1645.934692,807.498718 1645.935425,849.492188 1646.094727,891.484558 
	C1646.111450,895.890503 1644.879639,897.097046 1640.481201,897.091309 
	C1547.496826,896.969910 1454.512329,896.970337 1361.527954,897.090515 
	C1357.144409,897.096191 1355.786987,895.925476 1355.899902,891.491516 
	C1356.196899,879.834412 1356.000122,868.164673 1356.000000,856.000000 
z"/>
</svg>