<svg version="1.1" id="Layer_1" xmlns="http://www.w3.org/2000/svg" xmlns:xlink="http://www.w3.org/1999/xlink" x="0px" y="0px"
	 width="100%" viewBox="0 0 2083 2019" enable-background="new 0 0 2083 2019" xml:space="preserve">
<path fill="#FFFFFF" opacity="1.000000" stroke="none" 
	d="
M2086.000000,870.000000 
	C2086.000000,1253.889282 2086.000000,1637.778564 2086.000000,2022.000000 
	C1493.281738,2022.000000 900.563354,2022.000000 307.465637,2021.428345 
	C327.369202,2017.961914 347.689423,2015.303467 367.925079,2012.109131 
	C390.138580,2008.602661 412.300354,2004.748413 434.436432,2000.776611 
	C456.909973,1996.744385 479.310944,1992.309448 501.768646,1988.186768 
	C526.820740,1983.587769 551.919922,1979.244629 576.962280,1974.594238 
	C594.862732,1971.269897 612.637085,1967.226562 630.588257,1964.226074 
	C650.491089,1960.899414 670.504395,1958.187134 690.519836,1955.595703 
	C706.916382,1953.472656 723.356812,1950.754761 739.829956,1950.331665 
	C789.375854,1949.059448 838.949280,1948.900024 888.507874,1948.061768 
	C913.087280,1947.645996 937.657715,1946.695435 962.231934,1945.979126 
	C963.228577,1945.950195 964.223938,1945.853271 965.218323,1945.769775 
	C979.729980,1944.551270 994.231384,1943.189331 1008.755859,1942.150757 
	C1021.657837,1941.228149 1034.592407,1940.769775 1047.499023,1939.903320 
	C1055.759521,1939.348633 1064.003418,1938.503540 1072.239868,1937.645752 
	C1083.092773,1936.515259 1093.922363,1935.158569 1104.777832,1934.055298 
	C1119.931519,1932.515625 1135.118286,1931.288574 1150.256470,1929.616089 
	C1165.373657,1927.946289 1180.447754,1925.886719 1195.541992,1924.007935 
	C1208.017334,1922.455200 1220.507568,1921.013794 1232.967407,1919.345703 
	C1245.425537,1917.677856 1257.847534,1915.743286 1270.297485,1914.012207 
	C1281.769897,1912.417114 1293.261719,1910.961670 1304.739258,1909.401489 
	C1332.262085,1905.660156 1359.689453,1900.824951 1387.328857,1898.441772 
	C1414.151245,1896.128540 1441.188965,1897.806519 1467.734009,1902.559326 
	C1491.491211,1906.813110 1514.976196,1912.592529 1538.571167,1917.744751 
	C1547.623535,1919.721436 1556.594727,1922.110718 1565.696167,1923.814209 
	C1586.180176,1927.647949 1606.659058,1931.591553 1627.261230,1934.684204 
	C1643.276733,1937.088379 1659.440796,1938.980469 1675.603760,1939.764648 
	C1687.460327,1940.340088 1699.416748,1938.625732 1711.337769,1938.158936 
	C1727.039795,1937.543945 1742.010620,1934.120239 1756.877441,1928.898438 
	C1786.055664,1918.649902 1809.301270,1900.809082 1827.823242,1876.432007 
	C1839.167114,1861.501831 1847.199219,1844.743652 1854.321411,1827.490845 
	C1866.843018,1797.158203 1876.330322,1766.200317 1874.000244,1732.814209 
	C1873.141479,1720.509277 1870.580811,1708.541138 1865.626709,1697.167725 
	C1854.845337,1672.416260 1835.480835,1656.141357 1812.110718,1644.333862 
	C1804.264404,1640.369385 1795.288208,1638.641113 1786.681396,1635.104126 
	C1786.664795,1632.213257 1786.795288,1630.108887 1787.290283,1627.733398 
	C1788.022949,1626.904907 1788.068237,1626.322510 1787.741211,1624.796753 
	C1787.686768,1621.544067 1787.677124,1619.209595 1787.677124,1616.875244 
	C1787.676392,1431.555542 1787.687988,1246.235962 1787.661865,1060.916260 
	C1787.658569,1037.213257 1778.825317,1017.745056 1759.733765,1003.169312 
	C1745.462646,992.273804 1731.371094,981.142944 1717.217529,970.093933 
	C1628.657715,900.959778 1540.135132,831.777771 1451.536011,762.693970 
	C1385.744385,711.394043 1319.839844,660.239075 1254.015991,608.980469 
	C1214.415039,578.142334 1175.346313,546.596863 1135.187866,516.504089 
	C1080.192139,475.292938 1004.655884,477.026642 950.480957,519.461121 
	C933.208923,532.990051 915.932373,546.513489 898.620850,559.991882 
	C818.101624,622.682434 737.538147,685.316101 657.049622,748.045898 
	C548.507751,832.639465 440.047729,917.338257 331.482788,1001.902222 
	C312.068665,1017.024414 302.244751,1036.406982 302.260345,1061.182739 
	C302.376740,1246.169067 302.222382,1431.155640 302.533386,1616.141479 
	C302.556030,1629.614380 304.957489,1643.190918 307.325531,1656.528809 
	C311.615051,1680.689941 322.126007,1702.515259 333.937927,1724.186157 
	C330.605347,1726.348999 327.737030,1728.037476 324.731110,1729.428223 
	C309.383820,1736.529419 293.793152,1743.139404 278.688538,1750.720093 
	C263.193573,1758.496460 249.342392,1768.882935 236.498657,1780.520874 
	C218.649292,1796.694702 203.448700,1815.037109 191.228485,1835.864746 
	C178.602783,1857.383423 170.386230,1880.407227 168.217178,1905.244385 
	C166.622055,1923.509521 167.646393,1941.897827 172.457809,1959.632935 
	C176.284729,1973.738770 181.906235,1987.185059 192.679657,1998.000610 
	C204.481155,2009.848267 218.739899,2015.733276 234.920029,2018.183838 
	C239.370590,2018.857910 243.644821,2020.696045 247.999985,2022.000000 
	C166.049652,2022.000000 84.099304,2022.000000 2.000000,2022.000000 
	C2.000000,1639.281738 2.000000,1256.563354 2.551841,872.917725 
	C3.830068,872.090515 4.556454,872.190674 5.445570,873.121582 
	C11.689568,918.922668 31.943012,956.331177 65.572357,986.668274 
	C101.321083,1018.917358 143.699554,1034.014282 191.350037,1033.852295 
	C234.788025,1033.704590 273.300720,1018.693604 307.263641,991.746887 
	C333.033417,971.300720 358.814178,950.867554 384.688629,930.554199 
	C475.120422,859.558716 565.606262,788.632080 656.049438,717.651062 
	C721.663086,666.156555 787.235779,614.609924 852.837708,563.100464 
	C898.842590,526.978333 944.418091,490.288086 991.046753,454.989502 
	C1019.656433,433.331604 1051.857056,430.588470 1084.195312,446.291382 
	C1096.861084,452.441650 1108.128418,461.791779 1119.336182,470.573395 
	C1192.053833,527.549622 1264.531982,584.831360 1337.181763,641.894470 
	C1407.480957,697.111267 1477.935791,752.129883 1548.242432,807.337341 
	C1628.210938,870.131653 1707.727783,933.508240 1788.156006,995.707214 
	C1831.084351,1028.905762 1880.352417,1040.221313 1933.969971,1030.761963 
	C1977.548218,1023.073853 2013.853760,1002.054443 2042.302612,968.368835 
	C2066.188232,940.086548 2081.243164,907.572693 2084.698975,870.135864 
	C2085.135498,870.122620 2086.000000,870.000000 2086.000000,870.000000 
z"/>
<path fill="#FFFFFF" opacity="1.000000" stroke="none" 
	d="
M2.000000,826.000000 
	C2.000000,551.460999 2.000000,276.921997 2.000000,2.000000 
	C340.714722,2.000000 679.429626,2.000000 1019.078491,2.438052 
	C1020.012451,2.876105 1019.886169,3.743156 1019.025391,3.859480 
	C1016.178833,4.132715 1014.176880,4.178351 1012.209534,4.462879 
	C968.972412,10.715846 931.208679,28.958004 897.094971,55.902508 
	C796.680298,135.214584 696.087036,214.300919 595.472168,293.359192 
	C495.638885,371.803375 395.676941,450.083923 295.804321,528.478149 
	C223.118942,585.531860 150.619446,642.823364 77.768890,699.665161 
	C46.694355,723.911194 24.435549,754.152283 12.442919,791.648743 
	C8.844602,802.899353 6.983320,814.705505 3.749156,826.152527 
	C2.781362,826.031982 2.390681,826.015991 2.000000,826.000000 
z"/>
<path fill="#B42D1D" opacity="1.000000" stroke="none" 
	d="
M4.326264,826.257141 
	C6.983320,814.705505 8.844602,802.899353 12.442919,791.648743 
	C24.435549,754.152283 46.694355,723.911194 77.768890,699.665161 
	C150.619446,642.823364 223.118942,585.531860 295.804321,528.478149 
	C395.676941,450.083923 495.638885,371.803375 595.472168,293.359192 
	C696.087036,214.300919 796.680298,135.214584 897.094971,55.902508 
	C931.208679,28.958004 968.972412,10.715846 1012.209534,4.462879 
	C1014.176880,4.178351 1016.178833,4.132715 1019.843323,3.976720 
	C1025.014648,3.318425 1028.507324,2.659214 1032.000000,2.000002 
	C1040.049072,2.000000 1048.098145,2.000000 1057.452026,2.709168 
	C1062.542480,3.526629 1066.328125,3.634923 1070.974609,3.859582 
	C1073.820312,4.132610 1075.822754,4.171209 1077.787598,4.463294 
	C1119.541382,10.670144 1156.556274,27.478022 1189.661255,53.590893 
	C1278.894287,123.977226 1368.300293,194.144302 1457.655273,264.376068 
	C1464.578613,269.817810 1471.638794,275.085327 1479.949829,281.438568 
	C1480.126953,277.444763 1480.306152,275.260559 1480.308228,273.076172 
	C1480.329102,250.749939 1480.267334,228.423538 1480.333740,206.097488 
	C1480.438721,170.774963 1510.556763,140.150452 1545.666016,140.053101 
	C1604.313599,139.890488 1662.961914,139.990005 1721.609985,140.025620 
	C1732.462036,140.032211 1742.697021,142.847534 1752.097900,148.137741 
	C1776.026733,161.603485 1787.540161,182.659424 1787.595337,209.682755 
	C1787.802856,311.316711 1787.719604,412.951385 1787.576538,514.585571 
	C1787.567993,520.676514 1788.965332,524.664856 1794.187500,528.735535 
	C1862.854980,582.261353 1931.213623,636.183228 1999.730225,689.903015 
	C2019.118286,705.103943 2038.298096,720.397705 2052.317139,741.141968 
	C2070.102539,767.459167 2082.494629,795.676697 2084.139648,828.686279 
	C2084.677734,833.679626 2085.338867,837.839844 2086.000000,842.000000 
	C2086.000000,846.083313 2086.000000,850.166687 2085.458496,855.711975 
	C2084.698730,861.498962 2084.480469,865.824036 2084.262207,870.149048 
	C2081.243164,907.572693 2066.188232,940.086548 2042.302612,968.368835 
	C2013.853760,1002.054443 1977.548218,1023.073853 1933.969971,1030.761963 
	C1880.352417,1040.221313 1831.084351,1028.905762 1788.156006,995.707214 
	C1707.727783,933.508240 1628.210938,870.131653 1548.242432,807.337341 
	C1477.935791,752.129883 1407.480957,697.111267 1337.181763,641.894470 
	C1264.531982,584.831360 1192.053833,527.549622 1119.336182,470.573395 
	C1108.128418,461.791779 1096.861084,452.441650 1084.195312,446.291382 
	C1051.857056,430.588470 1019.656433,433.331604 991.046753,454.989502 
	C944.418091,490.288086 898.842590,526.978333 852.837708,563.100464 
	C787.235779,614.609924 721.663086,666.156555 656.049438,717.651062 
	C565.606262,788.632080 475.120422,859.558716 384.688629,930.554199 
	C358.814178,950.867554 333.033417,971.300720 307.263641,991.746887 
	C273.300720,1018.693604 234.788025,1033.704590 191.350037,1033.852295 
	C143.699554,1034.014282 101.321083,1018.917358 65.572357,986.668274 
	C31.943012,956.331177 11.689568,918.922668 5.450660,872.374329 
	C4.195346,867.197510 3.097673,863.598755 2.000000,860.000000 
	C2.000000,853.277405 2.000000,846.554871 2.739722,838.600952 
	C3.761716,833.665527 4.043988,829.961304 4.326264,826.257141 
M1533.847656,348.999573 
	C1533.847656,362.749115 1533.847656,376.498657 1533.847656,392.221771 
	C1522.563232,383.405426 1513.158081,376.095490 1503.793457,368.733917 
	C1475.301270,346.335938 1446.855469,323.878601 1418.332886,301.519409 
	C1391.901855,280.799835 1365.358887,260.222992 1338.931152,239.499283 
	C1308.316040,215.492065 1277.767212,191.400452 1247.200317,167.331863 
	C1217.414062,143.877899 1187.548950,120.522575 1157.884888,96.914940 
	C1117.377197,64.677612 1071.926514,50.285618 1020.131653,57.656925 
	C989.789001,61.975231 962.503845,73.402847 938.391113,92.222298 
	C906.676331,116.974869 875.177795,142.004272 843.505493,166.811417 
	C792.988708,206.378403 742.348816,245.788193 691.865540,285.397797 
	C637.710449,327.888275 583.692932,370.553986 529.584839,413.104370 
	C473.647736,457.093079 417.658691,501.015747 361.721252,545.004028 
	C320.425568,577.478210 279.199493,610.041077 237.899902,642.510315 
	C194.772461,676.416626 151.354294,709.958313 108.510345,744.218506 
	C71.121849,774.116333 53.572422,812.941650 57.730709,861.277039 
	C60.715527,895.972046 75.976860,924.771301 101.295670,947.280518 
	C129.114273,972.012146 162.325394,983.735840 200.386978,980.240601 
	C226.415833,977.850342 249.421539,968.722107 269.967804,952.995789 
	C285.551697,941.067688 300.907898,928.841492 316.331818,916.705322 
	C354.231354,886.884399 392.065063,856.979675 430.012878,827.220276 
	C465.334961,799.520203 500.845398,772.059998 536.136475,744.320557 
	C578.748352,710.826904 621.152466,677.068970 663.764221,643.575073 
	C708.728333,608.232117 753.879822,573.127563 798.860291,537.805420 
	C849.867493,497.750610 900.847778,457.660767 951.701904,417.411926 
	C985.846802,390.387665 1024.157959,379.454407 1067.424316,385.781250 
	C1090.663940,389.179596 1111.858521,397.539093 1130.397461,411.706879 
	C1161.569946,435.529633 1192.284912,459.952789 1223.114136,484.222626 
	C1262.306152,515.075989 1301.362915,546.101196 1340.584961,576.916260 
	C1375.882080,604.647705 1411.376831,632.127747 1446.687744,659.841553 
	C1488.812134,692.902649 1530.792480,726.146973 1572.912231,759.213745 
	C1608.228882,786.939636 1643.716919,814.447144 1679.018921,842.191528 
	C1723.997559,877.540771 1768.899658,912.987488 1813.768066,948.476685 
	C1843.344971,971.870972 1876.134521,984.460693 1914.505493,980.113159 
	C1947.316040,976.395691 1975.565796,962.938416 1997.436401,938.669983 
	C2022.828491,910.494019 2035.674927,877.221619 2032.340088,838.332397 
	C2030.139526,812.670288 2021.409668,789.984497 2006.495972,769.244019 
	C1995.601807,754.093567 1980.734009,743.386536 1966.377563,732.094116 
	C1931.356201,704.547241 1896.164062,677.217163 1861.135498,649.679260 
	C1821.659180,618.644836 1782.402710,587.328796 1742.747437,556.525879 
	C1736.607300,551.756531 1733.953979,547.086487 1733.973633,539.179321 
	C1734.239380,431.849976 1734.152466,324.519775 1734.151489,217.189774 
	C1734.151367,214.189896 1734.685791,211.055389 1733.989746,208.224915 
	C1733.158325,204.843719 1731.675903,201.451691 1729.744995,198.550629 
	C1726.613281,193.845596 1721.547607,193.671112 1716.352173,193.679031 
	C1661.354004,193.762939 1606.355713,193.730896 1551.357422,193.732819 
	C1550.024292,193.732864 1548.684204,193.672272 1547.359131,193.782028 
	C1539.151611,194.461823 1534.550293,198.946899 1533.900879,207.006622 
	C1533.714111,209.325455 1533.849121,211.670792 1533.848999,214.003983 
	C1533.847290,258.335938 1533.847412,302.667877 1533.847656,348.999573 
z"/>
<path fill="#FFFFFF" opacity="1.000000" stroke="none" 
	d="
M2084.262695,827.853149 
	C2082.494629,795.676697 2070.102539,767.459167 2052.317139,741.141968 
	C2038.298096,720.397705 2019.118286,705.103943 1999.730225,689.903015 
	C1931.213623,636.183228 1862.854980,582.261353 1794.187500,528.735535 
	C1788.965332,524.664856 1787.567993,520.676514 1787.576538,514.585571 
	C1787.719604,412.951385 1787.802856,311.316711 1787.595337,209.682755 
	C1787.540161,182.659424 1776.026733,161.603485 1752.097900,148.137741 
	C1742.697021,142.847534 1732.462036,140.032211 1721.609985,140.025620 
	C1662.961914,139.990005 1604.313599,139.890488 1545.666016,140.053101 
	C1510.556763,140.150452 1480.438721,170.774963 1480.333740,206.097488 
	C1480.267334,228.423538 1480.329102,250.749939 1480.308228,273.076172 
	C1480.306152,275.260559 1480.126953,277.444763 1479.949829,281.438568 
	C1471.638794,275.085327 1464.578613,269.817810 1457.655273,264.376068 
	C1368.300293,194.144302 1278.894287,123.977226 1189.661255,53.590893 
	C1156.556274,27.478022 1119.541382,10.670144 1077.787598,4.463294 
	C1075.822754,4.171209 1073.820312,4.132610 1070.910889,3.426071 
	C1069.986572,2.876194 1070.000000,2.000000 1070.000000,2.000000 
	C1408.505737,2.000000 1747.011597,2.000000 2086.000000,2.000000 
	C2086.000000,276.708252 2086.000000,551.416809 2085.567627,827.002930 
	C2085.135254,827.880432 2084.262695,827.853149 2084.262695,827.853149 
z"/>
<path fill="#FCD2CC" opacity="1.000000" stroke="none" 
	d="
M1786.828369,1635.890747 
	C1795.288208,1638.641113 1804.264404,1640.369385 1812.110718,1644.333862 
	C1835.480835,1656.141357 1854.845337,1672.416260 1865.626709,1697.167725 
	C1870.580811,1708.541138 1873.141479,1720.509277 1874.000244,1732.814209 
	C1876.330322,1766.200317 1866.843018,1797.158203 1854.321411,1827.490845 
	C1847.199219,1844.743652 1839.167114,1861.501831 1827.823242,1876.432007 
	C1809.301270,1900.809082 1786.055664,1918.649902 1756.877441,1928.898438 
	C1742.010620,1934.120239 1727.039795,1937.543945 1711.337769,1938.158936 
	C1699.416748,1938.625732 1687.460327,1940.340088 1675.603760,1939.764648 
	C1659.440796,1938.980469 1643.276733,1937.088379 1627.261230,1934.684204 
	C1606.659058,1931.591553 1586.180176,1927.647949 1565.696167,1923.814209 
	C1556.594727,1922.110718 1547.623535,1919.721436 1538.571167,1917.744751 
	C1514.976196,1912.592529 1491.491211,1906.813110 1467.734009,1902.559326 
	C1441.188965,1897.806519 1414.151245,1896.128540 1387.328857,1898.441772 
	C1359.689453,1900.824951 1332.262085,1905.660156 1304.739258,1909.401489 
	C1293.261719,1910.961670 1281.769897,1912.417114 1270.297485,1914.012207 
	C1257.847534,1915.743286 1245.425537,1917.677856 1232.967407,1919.345703 
	C1220.507568,1921.013794 1208.017334,1922.455200 1195.541992,1924.007935 
	C1180.447754,1925.886719 1165.373657,1927.946289 1150.256470,1929.616089 
	C1135.118286,1931.288574 1119.931519,1932.515625 1104.777832,1934.055298 
	C1093.922363,1935.158569 1083.092773,1936.515259 1072.239868,1937.645752 
	C1064.003418,1938.503540 1055.759521,1939.348633 1047.499023,1939.903320 
	C1034.592407,1940.769775 1021.657837,1941.228149 1008.755859,1942.150757 
	C994.231384,1943.189331 979.729980,1944.551270 965.218323,1945.769775 
	C964.223938,1945.853271 963.228577,1945.950195 962.231934,1945.979126 
	C937.657715,1946.695435 913.087280,1947.645996 888.507874,1948.061768 
	C838.949280,1948.900024 789.375854,1949.059448 739.829956,1950.331665 
	C723.356812,1950.754761 706.916382,1953.472656 690.519836,1955.595703 
	C670.504395,1958.187134 650.491089,1960.899414 630.588257,1964.226074 
	C612.637085,1967.226562 594.862732,1971.269897 576.962280,1974.594238 
	C551.919922,1979.244629 526.820740,1983.587769 501.768646,1988.186768 
	C479.310944,1992.309448 456.909973,1996.744385 434.436432,2000.776611 
	C412.300354,2004.748413 390.138580,2008.602661 367.925079,2012.109131 
	C347.689423,2015.303467 327.369202,2017.961914 306.543152,2021.428345 
	C287.291534,2022.000000 268.583099,2022.000000 248.937302,2022.000000 
	C243.644821,2020.696045 239.370590,2018.857910 234.920029,2018.183838 
	C218.739899,2015.733276 204.481155,2009.848267 192.679657,1998.000610 
	C181.906235,1987.185059 176.284729,1973.738770 172.457809,1959.632935 
	C167.646393,1941.897827 166.622055,1923.509521 168.217178,1905.244385 
	C170.386230,1880.407227 178.602783,1857.383423 191.228485,1835.864746 
	C203.448700,1815.037109 218.649292,1796.694702 236.498657,1780.520874 
	C249.342392,1768.882935 263.193573,1758.496460 278.688538,1750.720093 
	C293.793152,1743.139404 309.383820,1736.529419 324.731110,1729.428223 
	C327.737030,1728.037476 330.605347,1726.348999 334.514923,1724.553589 
	C345.485687,1740.114014 357.397614,1754.224854 371.480408,1766.611572 
	C409.672577,1800.203979 454.169312,1818.636719 504.905121,1819.026733 
	C605.760193,1819.801880 706.625549,1819.194336 807.486511,1819.309326 
	C827.100891,1819.331665 846.714355,1820.040649 866.454956,1813.666382 
	C877.503540,1814.728882 887.502808,1815.678345 897.955627,1814.870605 
	C920.910706,1813.096924 943.285828,1808.461670 965.839050,1804.571655 
	C985.476318,1801.184570 1005.109009,1798.016602 1025.161011,1797.905151 
	C1048.102417,1797.777710 1071.038940,1796.554443 1093.979492,1796.484863 
	C1121.628784,1796.400879 1149.046265,1793.878418 1176.353149,1789.939819 
	C1182.497681,1789.053589 1188.461304,1786.912842 1195.094482,1785.703491 
	C1212.262573,1810.581543 1235.625000,1819.656616 1264.815918,1819.491699 
	C1370.672852,1818.893555 1476.535889,1819.424072 1582.394897,1819.052246 
	C1596.235352,1819.003540 1610.291870,1817.268433 1623.859497,1814.445801 
	C1667.472900,1805.372803 1704.177124,1783.877930 1734.229980,1750.896362 
	C1751.693359,1731.730835 1765.441284,1710.210938 1773.827026,1685.797363 
	C1779.395264,1669.585815 1782.577881,1652.554810 1786.828369,1635.890747 
z"/>
<path fill="#E5AFA8" opacity="1.000000" stroke="none" 
	d="
M2084.139648,828.686279 
	C2084.262695,827.853149 2085.135254,827.880432 2085.567627,827.940186 
	C2086.000000,832.083313 2086.000000,836.166687 2086.000000,841.125000 
	C2085.338867,837.839844 2084.677734,833.679626 2084.139648,828.686279 
z"/>
<path fill="#E0AFA8" opacity="1.000000" stroke="none" 
	d="
M2084.698730,870.135864 
	C2084.480469,865.824036 2084.698730,861.498962 2085.458496,856.586975 
	C2086.000000,860.083313 2086.000000,864.166687 2086.000000,869.125000 
	C2086.000000,870.000000 2085.135498,870.122620 2084.698730,870.135864 
z"/>
<path fill="#E5BEB9" opacity="1.000000" stroke="none" 
	d="
M2.000000,860.856934 
	C3.097673,863.598755 4.195346,867.197510 5.287930,871.543579 
	C4.556454,872.190674 3.830068,872.090515 2.551841,871.995239 
	C2.000000,868.571289 2.000000,865.142578 2.000000,860.856934 
z"/>
<path fill="#E7B9B3" opacity="1.000000" stroke="none" 
	d="
M3.749152,826.152527 
	C4.043988,829.961304 3.761716,833.665527 2.739722,837.684814 
	C2.000000,834.571289 2.000000,831.142578 2.000000,826.856934 
	C2.390681,826.015991 2.781362,826.031982 3.749152,826.152527 
z"/>
<path fill="#E6BBB6" opacity="1.000000" stroke="none" 
	d="
M1069.143066,2.000000 
	C1070.000000,2.000000 1069.986572,2.876194 1070.050171,3.309705 
	C1066.328125,3.634923 1062.542480,3.526629 1058.378418,2.709168 
	C1061.428711,2.000000 1064.857422,2.000000 1069.143066,2.000000 
z"/>
<path fill="#E6BBB6" opacity="1.000000" stroke="none" 
	d="
M1031.143066,2.000002 
	C1028.507324,2.659214 1025.014648,3.318425 1020.704102,3.860396 
	C1019.886169,3.743156 1020.012451,2.876105 1020.006226,2.438052 
	C1023.428711,2.000000 1026.857422,2.000000 1031.143066,2.000002 
z"/>
<path fill="#B42D1C" opacity="1.000000" stroke="none" 
	d="
M865.603394,1813.327148 
	C846.714355,1820.040649 827.100891,1819.331665 807.486511,1819.309326 
	C706.625549,1819.194336 605.760193,1819.801880 504.905121,1819.026733 
	C454.169312,1818.636719 409.672577,1800.203979 371.480408,1766.611572 
	C357.397614,1754.224854 345.485687,1740.114014 334.915771,1723.941895 
	C322.126007,1702.515259 311.615051,1680.689941 307.325531,1656.528809 
	C304.957489,1643.190918 302.556030,1629.614380 302.533386,1616.141479 
	C302.222382,1431.155640 302.376740,1246.169067 302.260345,1061.182739 
	C302.244751,1036.406982 312.068665,1017.024414 331.482788,1001.902222 
	C440.047729,917.338257 548.507751,832.639465 657.049622,748.045898 
	C737.538147,685.316101 818.101624,622.682434 898.620850,559.991882 
	C915.932373,546.513489 933.208923,532.990051 950.480957,519.461121 
	C1004.655884,477.026642 1080.192139,475.292938 1135.187866,516.504089 
	C1175.346313,546.596863 1214.415039,578.142334 1254.015991,608.980469 
	C1319.839844,660.239075 1385.744385,711.394043 1451.536011,762.693970 
	C1540.135132,831.777771 1628.657715,900.959778 1717.217529,970.093933 
	C1731.371094,981.142944 1745.462646,992.273804 1759.733765,1003.169312 
	C1778.825317,1017.745056 1787.658569,1037.213257 1787.661865,1060.916260 
	C1787.687988,1246.235962 1787.676392,1431.555542 1787.677124,1616.875244 
	C1787.677124,1619.209595 1787.686768,1621.544067 1787.391846,1625.085693 
	C1786.660522,1626.827026 1786.605103,1627.397583 1786.925781,1628.004639 
	C1786.795288,1630.108887 1786.664795,1632.213257 1786.681274,1635.104126 
	C1782.577881,1652.554810 1779.395264,1669.585815 1773.827026,1685.797363 
	C1765.441284,1710.210938 1751.693359,1731.730835 1734.229980,1750.896362 
	C1704.177124,1783.877930 1667.472900,1805.372803 1623.859497,1814.445801 
	C1610.291870,1817.268433 1596.235352,1819.003540 1582.394897,1819.052246 
	C1476.535889,1819.424072 1370.672852,1818.893555 1264.815918,1819.491699 
	C1235.625000,1819.656616 1212.262573,1810.581543 1194.993774,1784.973877 
	C1188.024902,1769.287354 1186.074951,1753.983154 1186.088989,1738.174316 
	C1186.201782,1611.512085 1186.157471,1484.849976 1186.131226,1358.187744 
	C1186.130249,1353.527832 1186.332886,1348.781982 1185.569946,1344.221802 
	C1180.202759,1312.141113 1167.031250,1284.043091 1142.947021,1261.546509 
	C1105.941284,1226.979980 1062.637573,1214.647339 1013.173889,1225.314575 
	C981.028076,1232.246948 954.767822,1249.639526 934.456726,1275.026245 
	C914.883179,1299.490967 903.730652,1327.526733 903.776978,1359.591675 
	C903.952148,1480.920532 903.894043,1602.249634 903.774597,1723.578613 
	C903.762817,1735.511597 902.972778,1747.460571 902.116089,1759.371460 
	C901.024963,1774.542847 895.021423,1787.750122 884.115906,1798.320801 
	C878.434387,1803.827881 871.804749,1808.356567 865.603394,1813.327148 
M624.067505,1722.999756 
	C624.067505,1729.998413 623.819153,1737.008301 624.136597,1743.992554 
	C624.461365,1751.137085 622.612366,1758.500610 625.503235,1765.374512 
	C626.948425,1765.627808 627.927368,1765.949097 628.906494,1765.949829 
	C697.564148,1765.994507 766.221802,1766.049194 834.879333,1765.988037 
	C843.092468,1765.980713 849.007812,1760.206543 849.919739,1751.767334 
	C850.276001,1748.470337 850.054443,1745.108154 850.054565,1741.775757 
	C850.058777,1614.458252 850.076050,1487.140625 850.039734,1359.823120 
	C850.033875,1339.355103 853.756714,1319.407593 860.401672,1300.284424 
	C873.260010,1263.280273 895.267639,1232.494385 926.481689,1208.488281 
	C959.714111,1182.930054 997.715881,1170.612793 1039.140625,1168.198853 
	C1047.000366,1167.740967 1054.965820,1169.500000 1062.899414,1169.831665 
	C1086.205688,1170.805908 1107.984131,1177.573486 1128.831299,1187.448853 
	C1165.027588,1204.595459 1193.311401,1230.671509 1213.466431,1265.212036 
	C1230.701660,1294.748535 1239.863892,1326.796021 1239.895508,1361.103516 
	C1240.012085,1487.754395 1239.941772,1614.405396 1239.942139,1741.056396 
	C1239.942139,1743.722656 1239.863281,1746.392212 1239.965210,1749.054688 
	C1240.397583,1760.344238 1246.136841,1766.018799 1257.400757,1766.024048 
	C1331.058228,1766.058105 1404.715820,1766.049805 1478.373291,1766.011230 
	C1481.247070,1766.009766 1484.120728,1765.558716 1487.932495,1765.238281 
	C1487.932495,1760.903320 1488.000366,1757.308716 1487.921631,1753.717163 
	C1487.316528,1726.130127 1486.456543,1698.546753 1486.099609,1670.956787 
	C1484.910278,1579.050049 1486.602905,1487.146973 1484.485596,1395.214233 
	C1482.116577,1292.346436 1485.357422,1189.387695 1482.053711,1086.495239 
	C1481.929443,1082.624634 1481.736572,1078.756104 1481.535767,1073.926147 
	C1477.250488,1073.926147 1473.986572,1073.817871 1470.731812,1073.943604 
	C1447.151733,1074.855225 1423.589722,1073.793823 1399.941895,1075.511230 
	C1368.474487,1077.796265 1336.804932,1075.331909 1305.195312,1077.668091 
	C1276.704834,1079.773438 1248.068237,1077.413818 1219.429321,1079.556274 
	C1188.630737,1081.860474 1157.628174,1079.334839 1126.678101,1081.643555 
	C1097.528076,1083.818115 1068.217651,1081.408691 1038.915527,1083.567993 
	C1008.113281,1085.837891 977.112671,1083.321899 946.163513,1085.647583 
	C917.346680,1087.813232 888.371399,1085.556641 859.400940,1087.545776 
	C826.259216,1089.821655 792.923096,1089.296387 759.669861,1089.902100 
	C749.674255,1090.084229 739.670837,1089.841919 729.675476,1090.030151 
	C696.755554,1090.650024 663.837524,1091.368286 630.919678,1092.090088 
	C629.009033,1092.131836 627.106445,1092.541016 624.067688,1092.920654 
	C624.067688,1302.589966 624.067688,1511.794922 624.067505,1722.999756 
M1324.916260,732.046265 
	C1314.412476,723.927979 1303.902832,715.817200 1293.406128,707.689880 
	C1271.879272,691.022217 1250.323242,674.392029 1228.846191,657.660522 
	C1204.754028,638.891907 1180.726929,620.039612 1156.688721,601.201904 
	C1140.224365,588.299561 1123.787231,575.362610 1107.341675,562.436401 
	C1088.957153,547.985962 1067.997192,540.103210 1044.699951,540.233948 
	C1021.441162,540.364380 1000.537598,548.214722 982.170166,562.792358 
	C960.848083,579.715088 939.277161,596.323853 917.840149,613.102051 
	C880.454529,642.362732 843.142029,671.717163 805.696228,700.900513 
	C780.298828,720.694031 754.673584,740.194946 729.244324,759.947998 
	C696.473694,785.403687 663.845764,811.043396 631.027344,836.437134 
	C626.130615,840.226135 623.919495,844.368835 623.940857,850.745483 
	C624.151001,913.409546 624.057678,976.074585 624.100464,1038.739380 
	C624.102417,1041.598511 624.579956,1044.457397 624.898193,1048.011963 
	C630.074829,1048.011963 634.366272,1048.123047 638.650391,1047.993042 
	C658.907410,1047.378784 679.162292,1046.692383 699.418274,1046.043823 
	C726.335510,1045.181763 753.234192,1046.419922 780.212463,1044.427612 
	C811.348267,1042.128052 842.687622,1044.609741 873.970886,1042.316040 
	C902.794922,1040.202759 931.773010,1042.541626 960.742615,1040.391602 
	C991.216309,1038.130127 1021.881836,1040.609619 1052.505371,1038.340698 
	C1081.989014,1036.156250 1111.641724,1038.594116 1141.273926,1036.371460 
	C1171.416138,1034.110718 1201.744263,1036.621216 1232.039185,1034.357666 
	C1261.851074,1032.130249 1291.836792,1034.084106 1321.803955,1032.444824 
	C1363.304932,1030.174683 1404.958374,1030.676514 1446.547241,1030.035645 
	C1455.544922,1029.897095 1464.546509,1030.008057 1473.544189,1029.871094 
	C1476.091309,1029.832397 1478.631348,1029.322876 1481.391235,1029.004150 
	C1481.655884,1026.416016 1482.028687,1024.471069 1482.028442,1022.526062 
	C1482.019409,968.861450 1481.922852,915.196838 1482.010742,861.532410 
	C1482.019165,856.351074 1480.358032,852.955750 1476.052734,849.887756 
	C1466.054688,842.763000 1456.423096,835.117188 1446.740356,827.557983 
	C1422.929321,808.969116 1399.175415,790.307068 1375.394043,771.680298 
	C1358.926880,758.782410 1342.452148,745.894226 1324.916260,732.046265 
M468.612183,963.668579 
	C460.730591,969.753723 452.835083,975.820923 444.969910,981.927246 
	C418.489349,1002.486023 392.033020,1023.076050 365.536346,1043.614136 
	C358.843933,1048.801636 355.692017,1054.812500 355.707672,1063.977905 
	C356.021606,1247.623413 355.998932,1431.269531 355.871033,1614.915527 
	C355.854950,1638.012329 361.142120,1659.756714 371.327484,1680.202393 
	C381.338928,1700.298828 394.886932,1717.714478 412.667969,1731.891846 
	C439.557312,1753.331665 469.771118,1765.389282 504.228516,1765.972900 
	C525.886536,1766.339722 547.555847,1766.064453 569.219971,1766.016968 
	C572.449585,1766.009888 575.678467,1765.671631 578.764832,1765.494629 
	C579.322510,1763.824951 579.897217,1762.907837 579.897461,1761.990479 
	C579.976013,1469.691162 580.015808,1177.391724 580.036499,885.092407 
	C580.036621,883.445923 579.776978,881.797180 579.588989,880.155151 
	C579.556335,879.869751 579.321289,879.561523 579.095581,879.356689 
	C578.856750,879.140015 578.517395,879.034119 577.784729,878.651611 
	C576.923096,879.154236 575.745850,879.673157 574.761963,880.440002 
	C554.340088,896.356750 533.912170,912.265991 513.545349,928.252869 
	C498.919403,939.733459 484.380798,951.325195 468.612183,963.668579 
M1624.927612,966.055237 
	C1621.033325,962.950256 1617.166626,959.809814 1613.240112,956.746094 
	C1586.551270,935.921021 1559.865723,915.091675 1533.117432,894.343140 
	C1531.296997,892.931030 1528.974854,892.166016 1525.941895,890.618225 
	C1525.941895,895.858826 1525.895630,899.511169 1525.948730,903.162048 
	C1527.072510,980.394775 1525.309204,1057.621460 1527.553589,1134.883057 
	C1530.260620,1228.065063 1526.821167,1321.331665 1529.591064,1414.579590 
	C1531.470215,1477.841675 1529.798096,1541.203857 1530.139038,1604.518921 
	C1530.416870,1656.096924 1531.317871,1707.671753 1531.983032,1759.247437 
	C1532.007690,1761.151611 1532.461182,1763.050293 1532.794678,1765.549438 
	C1536.534546,1765.729492 1539.782471,1766.010010 1543.031372,1766.020874 
	C1557.693970,1766.069336 1572.357300,1765.986572 1587.019775,1766.055176 
	C1603.887207,1766.134155 1620.003418,1762.106567 1635.480713,1756.052124 
	C1660.628540,1746.214355 1682.150146,1731.187622 1699.294556,1709.908447 
	C1721.562988,1682.269409 1733.984985,1651.121948 1734.006470,1615.534546 
	C1734.117432,1431.914917 1733.963013,1248.295044 1734.307373,1064.676025 
	C1734.326904,1054.253052 1730.365356,1047.832886 1722.616821,1042.245728 
	C1715.084351,1036.814453 1707.798340,1031.036865 1700.478027,1025.316772 
	C1675.632690,1005.902527 1650.819946,986.446350 1624.927612,966.055237 
z"/>
<path fill="#FCD2CC" opacity="1.000000" stroke="none" 
	d="
M1787.290283,1627.733398 
	C1786.605103,1627.397583 1786.660522,1626.827026 1787.441162,1626.004150 
	C1788.068237,1626.322510 1788.022949,1626.904907 1787.290283,1627.733398 
z"/>
<path fill="#FE7866" opacity="1.000000" stroke="none" 
	d="
M1533.847412,347.999695 
	C1533.847412,302.667877 1533.847290,258.335938 1533.848999,214.003983 
	C1533.849121,211.670792 1533.714111,209.325455 1533.900879,207.006622 
	C1534.550293,198.946899 1539.151611,194.461823 1547.359131,193.782028 
	C1548.684204,193.672272 1550.024292,193.732864 1551.357422,193.732819 
	C1606.355713,193.730896 1661.354004,193.762939 1716.352173,193.679031 
	C1721.547607,193.671112 1726.613281,193.845596 1729.744995,198.550629 
	C1731.675903,201.451691 1733.158325,204.843719 1733.989746,208.224915 
	C1734.685791,211.055389 1734.151367,214.189896 1734.151489,217.189774 
	C1734.152466,324.519775 1734.239380,431.849976 1733.973633,539.179321 
	C1733.953979,547.086487 1736.607300,551.756531 1742.747437,556.525879 
	C1782.402710,587.328796 1821.659180,618.644836 1861.135498,649.679260 
	C1896.164062,677.217163 1931.356201,704.547241 1966.377563,732.094116 
	C1980.734009,743.386536 1995.601807,754.093567 2006.495972,769.244019 
	C2021.409668,789.984497 2030.139526,812.670288 2032.340088,838.332397 
	C2035.674927,877.221619 2022.828491,910.494019 1997.436401,938.669983 
	C1975.565796,962.938416 1947.316040,976.395691 1914.505493,980.113159 
	C1876.134521,984.460693 1843.344971,971.870972 1813.768066,948.476685 
	C1768.899658,912.987488 1723.997559,877.540771 1679.018921,842.191528 
	C1643.716919,814.447144 1608.228882,786.939636 1572.912231,759.213745 
	C1530.792480,726.146973 1488.812134,692.902649 1446.687744,659.841553 
	C1411.376831,632.127747 1375.882080,604.647705 1340.584961,576.916260 
	C1301.362915,546.101196 1262.306152,515.075989 1223.114136,484.222626 
	C1192.284912,459.952789 1161.569946,435.529633 1130.397461,411.706879 
	C1111.858521,397.539093 1090.663940,389.179596 1067.424316,385.781250 
	C1024.157959,379.454407 985.846802,390.387665 951.701904,417.411926 
	C900.847778,457.660767 849.867493,497.750610 798.860291,537.805420 
	C753.879822,573.127563 708.728333,608.232117 663.764221,643.575073 
	C621.152466,677.068970 578.748352,710.826904 536.136475,744.320557 
	C500.845398,772.059998 465.334961,799.520203 430.012878,827.220276 
	C392.065063,856.979675 354.231354,886.884399 316.331818,916.705322 
	C300.907898,928.841492 285.551697,941.067688 269.967804,952.995789 
	C249.421539,968.722107 226.415833,977.850342 200.386978,980.240601 
	C162.325394,983.735840 129.114273,972.012146 101.295670,947.280518 
	C75.976860,924.771301 60.715527,895.972046 57.730709,861.277039 
	C53.572422,812.941650 71.121849,774.116333 108.510345,744.218506 
	C151.354294,709.958313 194.772461,676.416626 237.899902,642.510315 
	C279.199493,610.041077 320.425568,577.478210 361.721252,545.004028 
	C417.658691,501.015747 473.647736,457.093079 529.584839,413.104370 
	C583.692932,370.553986 637.710449,327.888275 691.865540,285.397797 
	C742.348816,245.788193 792.988708,206.378403 843.505493,166.811417 
	C875.177795,142.004272 906.676331,116.974869 938.391113,92.222298 
	C962.503845,73.402847 989.789001,61.975231 1020.131653,57.656925 
	C1071.926514,50.285618 1117.377197,64.677612 1157.884888,96.914940 
	C1187.548950,120.522575 1217.414062,143.877899 1247.200317,167.331863 
	C1277.767212,191.400452 1308.316040,215.492065 1338.931152,239.499283 
	C1365.358887,260.222992 1391.901855,280.799835 1418.332886,301.519409 
	C1446.855469,323.878601 1475.301270,346.335938 1503.793457,368.733917 
	C1513.158081,376.095490 1522.563232,383.405426 1533.847656,392.221771 
	C1533.847656,376.498657 1533.847656,362.749115 1533.847412,347.999695 
M1391.078125,429.947693 
	C1390.056641,429.088959 1389.073975,428.178375 1388.007935,427.378876 
	C1319.331543,375.867096 1250.635620,324.381378 1181.970215,272.854767 
	C1135.751831,238.172333 1089.576050,203.433319 1042.784058,168.270889 
	C749.277344,381.541718 455.519470,594.995117 161.329529,808.762451 
	C170.491379,821.281250 178.827072,832.671204 187.556900,844.599731 
	C472.914764,637.255127 757.328491,430.596619 1042.321411,223.517242 
	C1181.280029,327.923340 1319.814331,432.013336 1458.351562,536.099548 
	C1596.863525,640.166687 1735.378296,744.230042 1874.660522,848.872620 
	C1883.724121,836.702515 1892.162720,825.371277 1901.094604,813.377869 
	C1891.469116,806.100647 1882.774780,799.497864 1874.049561,792.935791 
	C1818.488892,751.148499 1762.937500,709.348694 1707.352295,667.594116 
	C1639.790771,616.843567 1572.185547,566.151245 1504.625122,515.399170 
	C1467.131592,487.233551 1429.690918,458.997589 1391.078125,429.947693 
z"/>
<path fill="#FE7866" opacity="1.000000" stroke="none" 
	d="
M866.454956,1813.666382 
	C871.804749,1808.356567 878.434387,1803.827881 884.115906,1798.320801 
	C895.021423,1787.750122 901.024963,1774.542847 902.116089,1759.371460 
	C902.972778,1747.460571 903.762817,1735.511597 903.774597,1723.578613 
	C903.894043,1602.249634 903.952148,1480.920532 903.776978,1359.591675 
	C903.730652,1327.526733 914.883179,1299.490967 934.456726,1275.026245 
	C954.767822,1249.639526 981.028076,1232.246948 1013.173889,1225.314575 
	C1062.637573,1214.647339 1105.941284,1226.979980 1142.947021,1261.546509 
	C1167.031250,1284.043091 1180.202759,1312.141113 1185.569946,1344.221802 
	C1186.332886,1348.781982 1186.130249,1353.527832 1186.131226,1358.187744 
	C1186.157471,1484.849976 1186.201782,1611.512085 1186.088989,1738.174316 
	C1186.074951,1753.983154 1188.024902,1769.287354 1194.407715,1784.619873 
	C1188.461304,1786.912842 1182.497681,1789.053589 1176.353149,1789.939819 
	C1149.046265,1793.878418 1121.628784,1796.400879 1093.979492,1796.484863 
	C1071.038940,1796.554443 1048.102417,1797.777710 1025.161011,1797.905151 
	C1005.109009,1798.016602 985.476318,1801.184570 965.839050,1804.571655 
	C943.285828,1808.461670 920.910706,1813.096924 897.955627,1814.870605 
	C887.502808,1815.678345 877.503540,1814.728882 866.454956,1813.666382 
z"/>
<path fill="#F44933" opacity="1.000000" stroke="none" 
	d="
M624.067627,1721.999878 
	C624.067688,1511.794922 624.067688,1302.589966 624.067688,1092.920654 
	C627.106445,1092.541016 629.009033,1092.131836 630.919678,1092.090088 
	C663.837524,1091.368286 696.755554,1090.650024 729.675476,1090.030151 
	C739.670837,1089.841919 749.674255,1090.084229 759.669861,1089.902100 
	C792.923096,1089.296387 826.259216,1089.821655 859.400940,1087.545776 
	C888.371399,1085.556641 917.346680,1087.813232 946.163513,1085.647583 
	C977.112671,1083.321899 1008.113281,1085.837891 1038.915527,1083.567993 
	C1068.217651,1081.408691 1097.528076,1083.818115 1126.678101,1081.643555 
	C1157.628174,1079.334839 1188.630737,1081.860474 1219.429321,1079.556274 
	C1248.068237,1077.413818 1276.704834,1079.773438 1305.195312,1077.668091 
	C1336.804932,1075.331909 1368.474487,1077.796265 1399.941895,1075.511230 
	C1423.589722,1073.793823 1447.151733,1074.855225 1470.731812,1073.943604 
	C1473.986572,1073.817871 1477.250488,1073.926147 1481.535767,1073.926147 
	C1481.736572,1078.756104 1481.929443,1082.624634 1482.053711,1086.495239 
	C1485.357422,1189.387695 1482.116577,1292.346436 1484.485596,1395.214233 
	C1486.602905,1487.146973 1484.910278,1579.050049 1486.099609,1670.956787 
	C1486.456543,1698.546753 1487.316528,1726.130127 1487.921631,1753.717163 
	C1488.000366,1757.308716 1487.932495,1760.903320 1487.932495,1765.238281 
	C1484.120728,1765.558716 1481.247070,1766.009766 1478.373291,1766.011230 
	C1404.715820,1766.049805 1331.058228,1766.058105 1257.400757,1766.024048 
	C1246.136841,1766.018799 1240.397583,1760.344238 1239.965210,1749.054688 
	C1239.863281,1746.392212 1239.942139,1743.722656 1239.942139,1741.056396 
	C1239.941772,1614.405396 1240.012085,1487.754395 1239.895508,1361.103516 
	C1239.863892,1326.796021 1230.701660,1294.748535 1213.466431,1265.212036 
	C1193.311401,1230.671509 1165.027588,1204.595459 1128.831299,1187.448853 
	C1107.984131,1177.573486 1086.205688,1170.805908 1062.899414,1169.831665 
	C1054.965820,1169.500000 1047.000366,1167.740967 1039.140625,1168.198853 
	C997.715881,1170.612793 959.714111,1182.930054 926.481689,1208.488281 
	C895.267639,1232.494385 873.260010,1263.280273 860.401672,1300.284424 
	C853.756714,1319.407593 850.033875,1339.355103 850.039734,1359.823120 
	C850.076050,1487.140625 850.058777,1614.458252 850.054565,1741.775757 
	C850.054443,1745.108154 850.276001,1748.470337 849.919739,1751.767334 
	C849.007812,1760.206543 843.092468,1765.980713 834.879333,1765.988037 
	C766.221802,1766.049194 697.564148,1765.994507 628.906494,1765.949829 
	C627.927368,1765.949097 626.948425,1765.627808 625.503235,1765.374512 
	C622.612366,1758.500610 624.461365,1751.137085 624.136597,1743.992554 
	C623.819153,1737.008301 624.067505,1729.998413 624.067627,1721.999878 
z"/>
<path fill="#F44933" opacity="1.000000" stroke="none" 
	d="
M1325.448486,732.523987 
	C1342.452148,745.894226 1358.926880,758.782410 1375.394043,771.680298 
	C1399.175415,790.307068 1422.929321,808.969116 1446.740356,827.557983 
	C1456.423096,835.117188 1466.054688,842.763000 1476.052734,849.887756 
	C1480.358032,852.955750 1482.019165,856.351074 1482.010742,861.532410 
	C1481.922852,915.196838 1482.019409,968.861450 1482.028442,1022.526062 
	C1482.028687,1024.471069 1481.655884,1026.416016 1481.391235,1029.004150 
	C1478.631348,1029.322876 1476.091309,1029.832397 1473.544189,1029.871094 
	C1464.546509,1030.008057 1455.544922,1029.897095 1446.547241,1030.035645 
	C1404.958374,1030.676514 1363.304932,1030.174683 1321.803955,1032.444824 
	C1291.836792,1034.084106 1261.851074,1032.130249 1232.039185,1034.357666 
	C1201.744263,1036.621216 1171.416138,1034.110718 1141.273926,1036.371460 
	C1111.641724,1038.594116 1081.989014,1036.156250 1052.505371,1038.340698 
	C1021.881836,1040.609619 991.216309,1038.130127 960.742615,1040.391602 
	C931.773010,1042.541626 902.794922,1040.202759 873.970886,1042.316040 
	C842.687622,1044.609741 811.348267,1042.128052 780.212463,1044.427612 
	C753.234192,1046.419922 726.335510,1045.181763 699.418274,1046.043823 
	C679.162292,1046.692383 658.907410,1047.378784 638.650391,1047.993042 
	C634.366272,1048.123047 630.074829,1048.011963 624.898193,1048.011963 
	C624.579956,1044.457397 624.102417,1041.598511 624.100464,1038.739380 
	C624.057678,976.074585 624.151001,913.409546 623.940857,850.745483 
	C623.919495,844.368835 626.130615,840.226135 631.027344,836.437134 
	C663.845764,811.043396 696.473694,785.403687 729.244324,759.947998 
	C754.673584,740.194946 780.298828,720.694031 805.696228,700.900513 
	C843.142029,671.717163 880.454529,642.362732 917.840149,613.102051 
	C939.277161,596.323853 960.848083,579.715088 982.170166,562.792358 
	C1000.537598,548.214722 1021.441162,540.364380 1044.699951,540.233948 
	C1067.997192,540.103210 1088.957153,547.985962 1107.341675,562.436401 
	C1123.787231,575.362610 1140.224365,588.299561 1156.688721,601.201904 
	C1180.726929,620.039612 1204.754028,638.891907 1228.846191,657.660522 
	C1250.323242,674.392029 1271.879272,691.022217 1293.406128,707.689880 
	C1303.902832,715.817200 1314.412476,723.927979 1325.448486,732.523987 
M1039.187988,944.000000 
	C1056.231323,944.120178 1072.928833,941.720886 1089.147827,936.532593 
	C1129.211792,923.716614 1158.464233,898.162903 1177.676025,860.881592 
	C1193.988892,829.225525 1198.306030,795.714417 1191.213379,761.135742 
	C1183.186035,721.999634 1161.845093,690.698120 1129.733032,667.387634 
	C1104.033569,648.732056 1074.151978,640.809692 1042.704102,640.321899 
	C1030.291626,640.129456 1017.603149,642.510925 1005.422974,645.357422 
	C966.989136,654.339478 937.706543,676.703186 915.834167,709.143982 
	C894.055786,741.445251 886.653748,777.315918 892.498718,815.365356 
	C898.243835,852.764343 916.282898,883.806763 945.277344,908.630920 
	C971.908020,931.431152 1002.975647,941.727417 1039.187988,944.000000 
z"/>
<path fill="#F44933" opacity="1.000000" stroke="none" 
	d="
M469.207703,963.267944 
	C484.380798,951.325195 498.919403,939.733459 513.545349,928.252869 
	C533.912170,912.265991 554.340088,896.356750 574.761963,880.440002 
	C575.745850,879.673157 576.923096,879.154236 577.784729,878.651611 
	C578.517395,879.034119 578.856750,879.140015 579.095581,879.356689 
	C579.321289,879.561523 579.556335,879.869751 579.588989,880.155151 
	C579.776978,881.797180 580.036621,883.445923 580.036499,885.092407 
	C580.015808,1177.391724 579.976013,1469.691162 579.897461,1761.990479 
	C579.897217,1762.907837 579.322510,1763.824951 578.764832,1765.494629 
	C575.678467,1765.671631 572.449585,1766.009888 569.219971,1766.016968 
	C547.555847,1766.064453 525.886536,1766.339722 504.228516,1765.972900 
	C469.771118,1765.389282 439.557312,1753.331665 412.667969,1731.891846 
	C394.886932,1717.714478 381.338928,1700.298828 371.327484,1680.202393 
	C361.142120,1659.756714 355.854950,1638.012329 355.871033,1614.915527 
	C355.998932,1431.269531 356.021606,1247.623413 355.707672,1063.977905 
	C355.692017,1054.812500 358.843933,1048.801636 365.536346,1043.614136 
	C392.033020,1023.076050 418.489349,1002.486023 444.969910,981.927246 
	C452.835083,975.820923 460.730591,969.753723 469.207703,963.267944 
z"/>
<path fill="#F44933" opacity="1.000000" stroke="none" 
	d="
M1625.461182,966.530701 
	C1650.819946,986.446350 1675.632690,1005.902527 1700.478027,1025.316772 
	C1707.798340,1031.036865 1715.084351,1036.814453 1722.616821,1042.245728 
	C1730.365356,1047.832886 1734.326904,1054.253052 1734.307373,1064.676025 
	C1733.963013,1248.295044 1734.117432,1431.914917 1734.006470,1615.534546 
	C1733.984985,1651.121948 1721.562988,1682.269409 1699.294556,1709.908447 
	C1682.150146,1731.187622 1660.628540,1746.214355 1635.480713,1756.052124 
	C1620.003418,1762.106567 1603.887207,1766.134155 1587.019775,1766.055176 
	C1572.357300,1765.986572 1557.693970,1766.069336 1543.031372,1766.020874 
	C1539.782471,1766.010010 1536.534546,1765.729492 1532.794678,1765.549438 
	C1532.461182,1763.050293 1532.007690,1761.151611 1531.983032,1759.247437 
	C1531.317871,1707.671753 1530.416870,1656.096924 1530.139038,1604.518921 
	C1529.798096,1541.203857 1531.470215,1477.841675 1529.591064,1414.579590 
	C1526.821167,1321.331665 1530.260620,1228.065063 1527.553589,1134.883057 
	C1525.309204,1057.621460 1527.072510,980.394775 1525.948730,903.162048 
	C1525.895630,899.511169 1525.941895,895.858826 1525.941895,890.618225 
	C1528.974854,892.166016 1531.296997,892.931030 1533.117432,894.343140 
	C1559.865723,915.091675 1586.551270,935.921021 1613.240112,956.746094 
	C1617.166626,959.809814 1621.033325,962.950256 1625.461182,966.530701 
z"/>
<path fill="#B42D1C" opacity="1.000000" stroke="none" 
	d="
M1391.652222,430.370514 
	C1429.690918,458.997589 1467.131592,487.233551 1504.625122,515.399170 
	C1572.185547,566.151245 1639.790771,616.843567 1707.352295,667.594116 
	C1762.937500,709.348694 1818.488892,751.148499 1874.049561,792.935791 
	C1882.774780,799.497864 1891.469116,806.100647 1901.094604,813.377869 
	C1892.162720,825.371277 1883.724121,836.702515 1874.660522,848.872620 
	C1735.378296,744.230042 1596.863525,640.166687 1458.351562,536.099548 
	C1319.814331,432.013336 1181.280029,327.923340 1042.321411,223.517242 
	C757.328491,430.596619 472.914764,637.255127 187.556900,844.599731 
	C178.827072,832.671204 170.491379,821.281250 161.329529,808.762451 
	C455.519470,594.995117 749.277344,381.541718 1042.784058,168.270889 
	C1089.576050,203.433319 1135.751831,238.172333 1181.970215,272.854767 
	C1250.635620,324.381378 1319.331543,375.867096 1388.007935,427.378876 
	C1389.073975,428.178375 1390.056641,429.088959 1391.652222,430.370514 
z"/>
<path fill="#F77766" opacity="1.000000" stroke="none" 
	d="
M1038.248169,944.000000 
	C1002.975647,941.727417 971.908020,931.431152 945.277344,908.630920 
	C916.282898,883.806763 898.243835,852.764343 892.498718,815.365356 
	C886.653748,777.315918 894.055786,741.445251 915.834167,709.143982 
	C937.706543,676.703186 966.989136,654.339478 1005.422974,645.357422 
	C1017.603149,642.510925 1030.291626,640.129456 1042.704102,640.321899 
	C1074.151978,640.809692 1104.033569,648.732056 1129.733032,667.387634 
	C1161.845093,690.698120 1183.186035,721.999634 1191.213379,761.135742 
	C1198.306030,795.714417 1193.988892,829.225525 1177.676025,860.881592 
	C1158.464233,898.162903 1129.211792,923.716614 1089.147827,936.532593 
	C1072.928833,941.720886 1056.231323,944.120178 1038.248169,944.000000 
z"/>
</svg>