<?xml version="1.0" encoding="utf-8"?>
<!-- Generator: Adobe Illustrator 16.0.0, SVG Export Plug-In . SVG Version: 6.00 Build 0)  -->
<!DOCTYPE svg PUBLIC "-//W3C//DTD SVG 1.1//EN" "http://www.w3.org/Graphics/SVG/1.1/DTD/svg11.dtd">
<svg version="1.1" id="Twotone" xmlns="http://www.w3.org/2000/svg" xmlns:xlink="http://www.w3.org/1999/xlink" x="0px" y="0px"
	 width="512px" height="512px" viewBox="0 0 512 512" enable-background="new 0 0 512 512" xml:space="preserve">
<g id="Stroke_copy">
	<path fill="#F9B1B0" d="M256,24L24,160h464L256,24z M256,96c-8.837,0-16-7.164-16-16s7.163-16,16-16c8.836,0,16,7.164,16,16
		S264.836,96,256,96z"/>
	<path fill="#EF3D3A" d="M24,456h464v32H24V456z"/>
	<path fill="#F9B1B0" d="M72,424H48v32h416v-16H88C79.163,440,72,432.837,72,424z"/>
	<path fill="#F26461" d="M72,392h96v32H72V392z"/>
	<path fill="#F26461" d="M72,192h96v32H72V192z"/>
	<path fill="#EF3D3A" d="M48,160h416v32H48V160z"/>
	<g>
		<path fill="#F26461" d="M208,392h96v32h-96V392z"/>
		<path fill="#F26461" d="M208,192h96v32h-96V192z"/>
		<path fill="#F26461" d="M344,392h96v32h-96V392z"/>
		<path fill="#F26461" d="M344,192h96v32h-96V192z"/>
	</g>
	<path fill="#F9B1B0" d="M408,248h16v-24h-64v168h64v-16c-17.674,0-32-14.327-32-32v-80C392,255.164,399.163,248,408,248z"/>
	<path fill="#F9B1B0" d="M272,248h16v-24h-64v168h64v-16c-17.674,0-32-14.327-32-32v-80C256,255.164,263.163,248,272,248z"/>
	<path fill="#F9B1B0" d="M136,248h16v-24H88v168h64v-16c-17.674,0-32-14.327-32-32v-80C120,255.164,127.163,248,136,248z"/>
	<path fill="#B32E2B" d="M359.733,97.115l-100.96-46.534c-2.06-0.948-4.287-0.948-6.347,0l-99.731,46.534
		c-4.083,1.909-6.836,7.23-6.838,13.222v23.266c0,7.708,4.493,13.954,10.035,13.954h200.686c5.542,0,10.033-6.247,10.033-13.954
		v-23.245C366.611,104.343,363.837,99.008,359.733,97.115z"/>
</g>
<g id="Stroke_Close_copy">
	<path fill="#B32E2B" d="M488,448h-16v-24c0-4.418-3.582-8-8-8h-16v-24c0-4.418-3.582-8-8-8h-8V232h8c4.418,0,8-3.582,8-8v-24h16
		c4.418,0,8-3.582,8-8v-24h16c4.418-0.001,7.998-3.584,7.997-8.002c-0.001-2.823-1.489-5.437-3.918-6.877l-231.999-136
		c-2.476-1.429-5.525-1.429-8,0l-232,136c-3.801,2.253-5.056,7.161-2.803,10.961c1.412,2.381,3.955,3.864,6.723,3.919h16v24
		c0,4.418,3.581,8,8,8h16v24c0,4.418,3.581,8,8,8h8v152h-8c-4.419,0-8,3.582-8,8v24H48c-4.419,0-8,3.582-8,8v24H24
		c-4.419,0-8,3.582-8,8v32c0,4.418,3.581,8,8,8h464c4.418,0,8-3.582,8-8v-32C496,451.582,492.418,448,488,448z M312,416v-24
		c0-4.418-3.582-8-8-8h-8V232h8c4.418,0,8-3.582,8-8v-24h24v24c0,4.418,3.581,8,8,8h8v152h-8c-4.419,0-8,3.582-8,8v24H312z M176,416
		v-24c0-4.418-3.582-8-8-8h-8V232h8c4.418,0,8-3.582,8-8v-24h24v24c0,4.418,3.581,8,8,8h8v152h-8c-4.419,0-8,3.582-8,8v24H176z
		 M144,232v152h-16V232H144z M280,384h-16V232h16V384z M232,384V232h16v152H232z M216,216v-16h80v16H216z M216,400h80v16h-80V400z
		 M368,384V232h16v152H368z M352,400h80v16h-80V400z M416,384h-16V232h16V384z M432,216h-80v-16h80V216z M256,33.28L458.56,152
		H53.44L256,33.28z M56,168h400v16H56V168z M160,200v16H80v-16H160z M96,232h16v152H96V232z M80,400h80v16H80V400z M56,432h400v16
		H56V432z M480,480H32v-16h448V480z"/>
	<path fill="#EF3D3A" d="M256,104c13.255,0,24-10.745,24-24s-10.745-24-24-24s-24,10.745-24,24S242.745,104,256,104z M256,72
		c4.418,0,8,3.582,8,8s-3.582,8-8,8c-4.419,0-8-3.582-8-8S251.581,72,256,72z"/>
	<path fill="#EF3D3A" d="M352,120H160c-4.419,0-8,3.582-8,8s3.581,8,8,8h192c4.418,0,8-3.582,8-8S356.418,120,352,120z"/>
</g>
</svg>
