<?xml version="1.0" encoding="utf-8"?>
<!-- Generator: Adobe Illustrator 16.0.0, SVG Export Plug-In . SVG Version: 6.00 Build 0)  -->
<!DOCTYPE svg PUBLIC "-//W3C//DTD SVG 1.1//EN" "http://www.w3.org/Graphics/SVG/1.1/DTD/svg11.dtd">
<svg version="1.1" xmlns="http://www.w3.org/2000/svg" xmlns:xlink="http://www.w3.org/1999/xlink" x="0px" y="0px" width="480px"
	 height="480px" viewBox="0 0 480 480" enable-background="new 0 0 480 480" xml:space="preserve">
<g id="Layer_1" display="none">
	<g>
		<path display="inline" fill="#79BD9A" d="M328,8c-66.273,0-120,53.727-120,120c0,38.48,18.078,51.121,46.237,55.039
			c-4.108-9.832-6.229-20.383-6.237-31.039v-48h160v48c-0.009,10.656-2.13,21.207-6.238,31.039C429.922,179.121,448,166.48,448,128
			C448,61.727,394.274,8,328,8z"/>
		<path display="inline" fill="#CFF09E" d="M304,228.32c7.762,2.453,15.858,3.691,24,3.68c5.371-0.004,10.729-0.543,16-1.602
			c-15.121-3.051-29.021-10.445-40-21.277V228.32z"/>
		<path display="inline" fill="#CFF09E" d="M248,104v48c0.008,11.008,2.266,21.898,6.641,32H280c2.418,0,4.819,0.379,7.121,1.121
			C282.43,174.707,280,163.418,280,152v-16h128v-32H248z"/>
		<path display="inline" fill="#CFF09E" d="M364,232h-60v42.559c7.487,3.603,15.69,5.461,24,5.441
			c26.922,0.008,50.039-19.145,55.039-45.602C376.813,232.828,370.422,232.023,364,232z"/>
		<path display="inline" fill="#CFF09E" d="M328,232c-8.142,0.012-16.238-1.227-24-3.68v13.602c4.405,3.922,10.102,6.086,16,6.078
			h16c12.742,0.02,23.276-9.918,24-22.641C349.899,229.734,339.008,231.992,328,232z"/>
		<path display="inline" fill="#A8DBA8" d="M16,440h448c4.418,0,8,3.582,8,8v16c0,4.418-3.582,8-8,8H16c-4.418,0-8-3.582-8-8v-16
			C8,443.582,11.582,440,16,440z"/>
		<path display="inline" fill="#CFF09E" d="M80,408h176c4.418,0,8,3.582,8,8v16c0,4.418-3.582,8-8,8H80c-4.418,0-8-3.582-8-8v-16
			C72,411.582,75.582,408,80,408z"/>
		<path display="inline" fill="#CFF09E" d="M152,328v-8c-0.039-5.605,1.395-11.125,4.16-16c-16.16,1.953-28.277,15.723-28.16,32v72
			h80v-16.48C175.992,387.488,151.989,360.262,152,328z"/>
		<path display="inline" fill="#CFF09E" d="M128,336c-0.008-7.023,2.301-13.855,6.559-19.441C92.887,305.105,64.004,267.219,64,224
			v-40h-8c-13.254,0-24,10.746-24,24v128c0,13.254,10.746,24,24,24h72V336z"/>
		<path display="inline" fill="#CFF09E" d="M203.68,320c2.82,4.863,4.309,10.379,4.32,16v24h72c13.254,0,24-10.746,24-24v-16H203.68
			z"/>
		<path display="inline" fill="#79BD9A" d="M320,392h104c4.418,0,8,3.582,8,8v32c0,4.418-3.582,8-8,8H320c-8.836,0-16-7.164-16-16
			v-16C304,399.164,311.164,392,320,392z"/>
		<path display="inline" fill="#79BD9A" d="M360,344h104c4.418,0,8,3.582,8,8v32c0,4.418-3.582,8-8,8H360c-8.836,0-16-7.164-16-16
			v-16C344,351.164,351.164,344,360,344z"/>
		<path display="inline" fill="#CFF09E" d="M424,344h40c4.418,0,8,3.582,8,8v32c0,4.418-3.582,8-8,8h-40V344z"/>
		<path display="inline" fill="#CFF09E" d="M320,392h48v48h-48c-8.836,0-16-7.164-16-16v-16C304,399.164,311.164,392,320,392z"/>
		<g display="inline">
			<path fill="#3B8686" d="M304,144c0,4.418-3.582,8-8,8s-8-3.582-8-8s3.582-8,8-8S304,139.582,304,144z"/>
			<path fill="#3B8686" d="M368,144c0,4.418-3.582,8-8,8s-8-3.582-8-8s3.582-8,8-8S368,139.582,368,144z"/>
			<path fill="#3B8686" d="M320,58.32c18.559-6.465,39.108,0.941,49.28,17.758c1.41,2.383,3.953,3.867,6.72,3.922
				c1.457-0.023,2.887-0.406,4.16-1.121c3.77-2.281,4.987-7.18,2.719-10.957c-14.103-23.359-42.642-33.641-68.398-24.641
				c-4.151,1.523-6.285,6.125-4.762,10.277C311.246,57.715,315.848,59.844,320,58.32z"/>
			<path fill="#3B8686" d="M472,464H8c-4.418,0-8,3.582-8,8s3.582,8,8,8h464c4.418,0,8-3.582,8-8S476.418,464,472,464z"/>
			<path fill="#3B8686" d="M224,240c4.418,0,8-3.582,8-8s-3.582-8-8-8H120c-4.418,0-8,3.582-8,8s3.582,8,8,8H224z"/>
			<path fill="#3B8686" d="M184,256h-24c-4.418,0-8,3.582-8,8s3.582,8,8,8h24c4.418,0,8-3.582,8-8S188.418,256,184,256z"/>
			<path fill="#3B8686" d="M472,400c4.418,0,8-3.582,8-8s-3.582-8-8-8h-40v-32h40c4.418,0,8-3.582,8-8s-3.582-8-8-8h-20v-24
				c-0.052-40.488-27.72-75.715-67.039-85.359c-2.563-0.641-5.121-1.121-8-1.52c12.996-8.715,23.414-20.762,30.159-34.883
				C429.281,186.32,456,174.719,456,128C456,57.309,398.692,0,328,0c-70.692,0-128,57.309-128,128c0,24,7.121,38.801,17.039,48H56
				c-17.672,0-32,14.328-32,32v128c0,17.672,14.328,32,32,32h64v32H88c-13.254,0-24,10.746-24,24v8H8c-4.418,0-8,3.582-8,8
				s3.582,8,8,8h464c4.418,0,8-3.582,8-8s-3.582-8-8-8h-32v-32H472z M400,152c0.25,21.98-9.668,42.848-26.871,56.531
				C355.926,222.219,333.364,227.188,312,222v-14c0-17.672-14.328-32-32-32h-19.763c-2.801-7.691-4.233-15.813-4.237-24v-40h144V152
				z M373.039,240.641C366.074,259.492,348.098,272.008,328,272c-5.457,0-10.867-0.949-16-2.801V240h52
				c2.94,0.031,5.879,0.215,8.801,0.559L373.039,240.641z M216,128c0-61.855,50.145-112,112-112c61.854,0,112,50.145,112,112
				c0,28-9.841,39.281-26.48,44.32c1.641-6.648,2.473-13.473,2.48-20.32v-48c0-4.418-3.582-8-8-8H248c-4.418,0-8,3.582-8,8v48
				c0.02,6.848,0.852,13.668,2.479,20.32C225.84,167.281,216,156,216,128z M56,352c-8.836,0-16-7.164-16-16V208
				c0-8.836,7.164-16,16-16h224c8.836,0,16,7.164,16,16v128c0,8.836-7.164,16-16,16h-64v-16c0-22.09-17.91-40-40-40h-16
				c-22.09,0-40,17.91-40,40v16H56z M200,336v64h-64v-64c0-13.254,10.746-24,24-24h16C189.254,312,200,322.746,200,336z M256,432H80
				v-8c0-4.418,3.582-8,8-8h160c4.418,0,8,3.582,8,8V432z M297.442,432H272v-8c0-13.254-10.746-24-24-24h-32v-32h64
				c17.672,0,32-14.328,32-32v-50.078c5.223,1.375,10.602,2.07,16,2.078c27.449-0.043,51.813-17.586,60.559-43.602
				C417.008,254.723,435.965,281.734,436,312v24h-76c-13.254,0-24,10.746-24,24v16c0.022,2.73,0.508,5.434,1.44,8H320
				c-13.254,0-24,10.746-24,24v16C296.024,426.73,296.508,429.434,297.442,432z M360,432h-40c-4.418,0-8-3.582-8-8v-16
				c0-4.418,3.582-8,8-8h40V432z M352,376v-16c0-4.418,3.582-8,8-8h56v32h-56C355.582,384,352,380.418,352,376z M424,432h-48v-32h48
				V432z"/>
		</g>
		<path display="inline" fill="#A8DBA8" d="M364,232h-60v104c0,13.254-10.746,24-24,24h-76v112h240V312
			C444,267.816,408.184,232,364,232z"/>
	</g>
	<g>
		<path display="inline" fill="#FEFED1" d="M118.5,464.5c-8.566,4.095-20.129,6.263-29.858,6.965
			c-22.763,1.642-36.64-26.577-59.019-26.97C15.969,430.087,1.5,417.827,1.504,397.21c0.005-30.712-0.051-58.524,4.977-88.751
			c6.281-37.761,6.055-76.314,10.358-114.29c1.309-11.545-1.536-18.256-3.488-29.964c-3.006-18.034-0.473-36.063,2.276-53.789
			c3.138-20.235,5.021-44.583,20.934-60.288c6.199-6.118,7.813-5.141,15.065-5.636c13.138-0.897,26.188-2.029,39.333-3.079
			c17.19-1.372,30.04-7.719,46.812-12.244c34.043-9.184,68.81-10.243,103.728-10.625c20.463-0.224,40.652-5.958,61.101-5.089
			c14.345,0.609,21.893,5.749,33.867,10.634c24.543,10.011,51.535,8.598,63.36,35.281c12.4,27.977,26.157,55.935,33.413,85.782
			c7.362,30.291,11.686,66.935,28.181,93.9c5.275,8.625,6.014,8.878,7.079,17.702c1.712,14.157,1.027,29.773,0.996,44.038
			c-0.042,19.784,0.878,39.769,0,59.535c-0.821,18.539-10.411,32.986-18.224,49.838c-3.509,7.566-13.211,42.615-23.013,47.104
			c-10.888,4.984-38.149-3.541-48.653-5.645c-13.583-2.721-26.624-8.151-40.206-9.114c-17.161-1.218-32.373-1.009-49.164-5.844
			c-16.825-4.845-32.903-6.524-50.822-7.032c-18.927-0.536-49.406-5.959-64.752,8.915c-5.178,5.019-2.456,8.035-10.998,10.857
			c-4.07,1.346-9.04,0.898-13.383,2.275c-10.688,3.39-29.034,9.578-37.78,15.816"/>
		<path display="inline" fill="#FCD3D3" d="M314.878,21.722c2.101-15.4,28.973-10.299,38.558-4.524
			c11.258,6.778,18.938,19.609,22.057,31.249c4.512,16.841,9.236,48.965-10.779,54.934c-16.569,4.942-47.771,5.431-57.564-9.925
			c-11.497-18.023-4.196-58.525,10.408-74.163"/>
		<path display="inline" fill="#FCCEEE" d="M33.711,100.077c0-14.267-7.36-51.333,11.28-54.917
			c-3.675,0.87-7.749,0.385-11.174,1.114c3.802-10.918,16.362-6.983,20.957-1.396c4.997,6.077,5.604,16.805,6.887,24.03
			c5.094,28.703,5.904,58.62,9.262,87.791c3.385,29.424,4.179,61.12,4.097,90.492c-0.054,19.535-0.078,39.086-10.579,55.918
			c-46.266,17.543-32.471-67.103-33.687-83.333c-1.677-22.387-2.945-45.053-2.945-67.827c0-17.602,6.657-36.478,4.426-53.119"/>
		<path display="inline" fill="#FCD3D3" d="M296.067,449.111c17.117-41.962,69.589-72.501,118.284-80.38
			c18.803-3.042,43.089-2.866,47.723,17.149c3.937,16.995-8.207,37.343-22.407,47.469c-9.785,6.979-17.174,5.44-28.103,7.233
			c-10.965,1.801-17.403,7.821-27.193,11.953c-11.654,4.918-22.696,2.308-34.782,3.867c-9.375,1.209-20.448,6.352-30.83,3.728
			c-4.707-1.189-16.613-8.73-18.674-13.451"/>
		<circle display="inline" fill="#FCD3D3" cx="86.985" cy="383.475" r="75.175"/>
		<g display="inline">
			<path fill="#D73216" d="M266.424,165.007c0-1.565-0.832-2.87-2.218-3.479c-1.016,2.347-1.568,4.956-1.663,7.479
				C264.761,168.92,266.424,167.179,266.424,165.007z"/>
			<path fill="#D73216" d="M273.818,185.701c-1.017,0-1.938,0.349-2.679,0.871l6.009,5.654c0.648-0.695,0.925-1.565,0.925-2.436
				C278.07,187.527,276.223,185.701,273.818,185.701z"/>
			<path fill="#D73216" d="M425.067,202.427c-1.531-0.661-3.22-1.063-4.998-1.123h-33.294c-0.898-0.182-1.822-0.288-2.775-0.288
				h-0.026l-47.251,0.088l-42.517-40.167c-5.134-4.843-13.475-4.854-18.607-0.033c-0.096,0.09-0.124,0.215-0.217,0.31
				c-0.485-0.182-1.007-0.301-1.567-0.301c-2.401,0-4.436,1.827-4.436,4.089c0,1.626,1.071,3,2.557,3.66
				c-0.311,3.498,0.792,7.074,3.629,9.755l8.114,7.665c-1.506,0.643-2.561,2.05-2.561,3.71c0,2.259,1.94,4.088,4.346,4.088
				c1.691,0,3.22-0.992,3.923-2.406l32.563,30.763c2.465,2.329,5.825,3.641,9.321,3.641h0.026l29.104-0.054v88.086h0.035v97.621
				c0,6.838,5.894,12.382,13.159,12.382c7.264,0,13.157-5.544,13.157-12.382V313.91h19.735v97.621
				c0,6.838,5.894,12.382,13.156,12.382c7.268,0,13.159-5.544,13.159-12.382L432.8,300.867c0-0.11-0.033-0.219-0.036-0.332v-68.079
				c7.483,5.436,12.367,13.805,12.367,23.312v38.135c0,6.838,5.893,12.383,13.156,12.383c7.267,0,13.158-5.545,13.158-12.383
				v-38.135c0-26.247-19.942-48.128-46.381-53.342L425.067,202.427z"/>
			<path fill="#D73216" d="M426.189,160.877c0,15.384-13.254,27.857-29.606,27.857c-16.348,0-29.603-12.473-29.603-27.857
				c0-15.388,13.253-27.86,29.603-27.86C412.935,133.017,426.189,145.488,426.189,160.877"/>
			<path fill="#D73216" d="M29.131,304.327H167.21V41.249H29.131V304.327z M37.818,48.471h120.701v248.644H37.818V48.471z"/>
			<path fill="#D73216" d="M50.991,76.035h94.36V58.989h-94.36V76.035z M136.391,63.426c2.401,0,4.345,1.826,4.345,4.089
				c0,2.26-1.939,4.088-4.345,4.088c-2.402,0-4.345-1.826-4.345-4.088C132.046,65.252,133.987,63.426,136.391,63.426z
				 M124.744,63.426c2.401,0,4.345,1.826,4.345,4.089c0,2.26-1.941,4.088-4.345,4.088c-2.401,0-4.346-1.826-4.346-4.088
				C120.403,65.252,122.344,63.426,124.744,63.426z M113.102,63.426c2.402,0,4.346,1.826,4.346,4.089c0,2.26-1.94,4.088-4.346,4.088
				c-2.4,0-4.344-1.826-4.344-4.088C108.758,65.252,110.697,63.426,113.102,63.426z M55.706,63.077h40.667v8.873H55.706V63.077z"/>
			<path fill="#D73216" d="M50.991,123.869h94.36v-17.048h-94.36V123.869z M136.391,111.256c2.401,0,4.345,1.826,4.345,4.089
				c0,2.26-1.939,4.089-4.345,4.089c-2.402,0-4.345-1.827-4.345-4.089C132.046,113.083,133.987,111.256,136.391,111.256z
				 M124.744,111.256c2.401,0,4.345,1.826,4.345,4.089c0,2.26-1.941,4.089-4.345,4.089c-2.401,0-4.346-1.827-4.346-4.089
				C120.403,113.083,122.344,111.256,124.744,111.256z M113.102,111.256c2.402,0,4.346,1.826,4.346,4.089
				c0,2.26-1.94,4.089-4.346,4.089c-2.4,0-4.344-1.827-4.344-4.089C108.758,113.083,110.697,111.256,113.102,111.256z
				 M55.706,110.911h40.667v8.872H55.706V110.911z"/>
			<path fill="#D73216" d="M50.991,148.686h94.36v-17.047h-94.36V148.686z M136.391,136.077c2.401,0,4.345,1.826,4.345,4.09
				c0,2.259-1.939,4.088-4.345,4.088c-2.402,0-4.345-1.827-4.345-4.088C132.046,137.902,133.987,136.077,136.391,136.077z
				 M124.744,136.077c2.401,0,4.345,1.826,4.345,4.09c0,2.259-1.941,4.088-4.345,4.088c-2.401,0-4.346-1.827-4.346-4.088
				C120.403,137.902,122.344,136.077,124.744,136.077z M113.102,136.077c2.402,0,4.346,1.826,4.346,4.09
				c0,2.259-1.94,4.088-4.346,4.088c-2.4,0-4.344-1.827-4.344-4.088C108.758,137.902,110.697,136.077,113.102,136.077z
				 M55.706,135.728h40.667v8.873H55.706V135.728z"/>
			<path fill="#D73216" d="M50.991,173.51h94.36v-17.046h-94.36V173.51z M136.391,160.898c2.401,0,4.345,1.827,4.345,4.089
				c0,2.26-1.939,4.089-4.345,4.089c-2.402,0-4.345-1.826-4.345-4.089C132.046,162.727,133.987,160.898,136.391,160.898z
				 M124.744,160.898c2.401,0,4.345,1.827,4.345,4.089c0,2.26-1.941,4.089-4.345,4.089c-2.401,0-4.346-1.826-4.346-4.089
				C120.403,162.727,122.344,160.898,124.744,160.898z M113.102,160.898c2.402,0,4.346,1.827,4.346,4.089
				c0,2.26-1.94,4.089-4.346,4.089c-2.4,0-4.344-1.826-4.344-4.089C108.758,162.727,110.697,160.898,113.102,160.898z
				 M55.706,160.552h40.667v8.872H55.706V160.552z"/>
			<path fill="#D73216" d="M50.991,198.335h94.36v-17.047h-94.36V198.335z M136.391,185.726c2.401,0,4.345,1.826,4.345,4.089
				c0,2.259-1.939,4.088-4.345,4.088c-2.402,0-4.345-1.826-4.345-4.088C132.046,187.552,133.987,185.726,136.391,185.726z
				 M124.744,185.726c2.401,0,4.345,1.826,4.345,4.089c0,2.259-1.941,4.088-4.345,4.088c-2.401,0-4.346-1.826-4.346-4.088
				C120.403,187.552,122.344,185.726,124.744,185.726z M113.102,185.726c2.402,0,4.346,1.826,4.346,4.089
				c0,2.259-1.94,4.088-4.346,4.088c-2.4,0-4.344-1.826-4.344-4.088C108.758,187.552,110.697,185.726,113.102,185.726z
				 M55.706,185.377h40.667v8.872H55.706V185.377z"/>
			<path fill="#D73216" d="M50.991,223.159h94.36v-17.046h-94.36V223.159z M136.391,210.547c2.401,0,4.345,1.826,4.345,4.089
				c0,2.261-1.939,4.089-4.345,4.089c-2.402,0-4.345-1.825-4.345-4.089C132.046,212.373,133.987,210.547,136.391,210.547z
				 M124.744,210.547c2.401,0,4.345,1.826,4.345,4.089c0,2.261-1.941,4.089-4.345,4.089c-2.401,0-4.346-1.825-4.346-4.089
				C120.403,212.373,122.344,210.547,124.744,210.547z M113.102,210.547c2.402,0,4.346,1.826,4.346,4.089
				c0,2.261-1.94,4.089-4.346,4.089c-2.4,0-4.344-1.825-4.344-4.089C108.758,212.373,110.697,210.547,113.102,210.547z
				 M55.706,210.201h40.667v8.873H55.706V210.201z"/>
			<path fill="#D73216" d="M50.991,262.83h94.36v-17.045h-94.36V262.83z M136.391,250.223c2.401,0,4.345,1.826,4.345,4.088
				c0,2.26-1.939,4.09-4.345,4.09c-2.402,0-4.345-1.827-4.345-4.09C132.046,252.049,133.987,250.223,136.391,250.223z
				 M124.744,250.223c2.401,0,4.345,1.826,4.345,4.088c0,2.26-1.941,4.09-4.345,4.09c-2.401,0-4.346-1.827-4.346-4.09
				C120.403,252.049,122.344,250.223,124.744,250.223z M113.102,250.223c2.402,0,4.346,1.826,4.346,4.088
				c0,2.26-1.94,4.09-4.346,4.09c-2.4,0-4.344-1.827-4.344-4.09C108.758,252.049,110.697,250.223,113.102,250.223z M55.706,249.872
				h40.667v8.873H55.706V249.872z"/>
			<path fill="#D73216" d="M50.991,289.473h94.36v-17.047h-94.36V289.473z M136.391,276.864c2.401,0,4.345,1.825,4.345,4.089
				c0,2.258-1.939,4.087-4.345,4.087c-2.402,0-4.345-1.823-4.345-4.087S133.987,276.864,136.391,276.864z M124.744,276.864
				c2.401,0,4.345,1.825,4.345,4.089c0,2.258-1.941,4.087-4.345,4.087c-2.401,0-4.346-1.823-4.346-4.087
				C120.403,278.689,122.344,276.864,124.744,276.864z M113.102,276.864c2.402,0,4.346,1.825,4.346,4.089
				c0,2.258-1.94,4.087-4.346,4.087c-2.4,0-4.344-1.823-4.344-4.087S110.697,276.864,113.102,276.864z M55.706,276.516h40.667v8.873
				H55.706V276.516z"/>
			<path fill="#D73216" d="M307.552,221.008v76.098H186.851V48.463h120.701v112.801l8.688,8.174V41.247H178.16v263.077H316.24
				v-75.226c-0.276-0.173-0.555-0.434-0.833-0.695L307.552,221.008z"/>
			<path fill="#D73216" d="M294.423,58.989h-94.45v17.046h94.45V58.989z M245.442,71.948h-40.758v-8.872h40.758V71.948z
				 M262.167,71.6c-2.402,0-4.438-1.826-4.438-4.088c0-2.26,2.034-4.089,4.438-4.089c2.4,0,4.252,1.826,4.252,4.089
				C266.419,69.775,264.572,71.6,262.167,71.6z M273.814,71.6c-2.401,0-4.437-1.826-4.437-4.088c0-2.26,2.034-4.089,4.437-4.089
				c2.4,0,4.251,1.826,4.251,4.089C278.065,69.775,276.219,71.6,273.814,71.6z M285.46,71.6c-2.401,0-4.347-1.826-4.347-4.088
				c0-2.26,1.939-4.089,4.347-4.089c2.311,0,4.343,1.826,4.343,4.089C289.801,69.774,287.771,71.6,285.46,71.6z"/>
			<path fill="#D73216" d="M294.423,106.825h-94.45v17.046h94.45V106.825z M245.442,119.782h-40.758v-8.872h40.758V119.782z
				 M262.167,119.434c-2.402,0-4.438-1.827-4.438-4.088c0-2.261,2.034-4.089,4.438-4.089c2.4,0,4.252,1.826,4.252,4.089
				C266.419,117.608,264.572,119.434,262.167,119.434z M273.814,119.434c-2.401,0-4.437-1.827-4.437-4.088
				c0-2.261,2.034-4.089,4.437-4.089c2.4,0,4.251,1.826,4.251,4.089C278.065,117.608,276.219,119.434,273.814,119.434z
				 M285.46,119.434c-2.401,0-4.347-1.827-4.347-4.088c0-2.261,1.939-4.089,4.347-4.089c2.311,0,4.343,1.826,4.343,4.089
				C289.801,117.608,287.771,119.434,285.46,119.434z"/>
			<path fill="#D73216" d="M287.128,148.655h7.301v-17.047h-94.451v17.047H287.128z M245.446,144.569h-40.757v-8.873h40.757V144.569
				z M262.172,144.22c-2.4,0-4.436-1.826-4.436-4.089c0-2.26,2.034-4.089,4.436-4.089c2.402,0,4.252,1.827,4.252,4.089
				C266.424,142.394,264.576,144.22,262.172,144.22z M273.819,144.22c-2.4,0-4.435-1.826-4.435-4.089
				c0-2.26,2.033-4.089,4.435-4.089c2.402,0,4.252,1.827,4.252,4.089C278.071,142.394,276.224,144.22,273.819,144.22z
				 M281.12,140.131c0-2.26,1.938-4.089,4.345-4.089c2.311,0,4.345,1.827,4.345,4.089c0,2.26-2.034,4.089-4.345,4.089
				C283.06,144.22,281.12,142.394,281.12,140.131z"/>
			<path fill="#D73216" d="M199.973,156.481v17.047h62.939c-0.371-1.478-0.462-3.045-0.371-4.523
				c-0.093,0.089-0.277,0.089-0.372,0.089c-2.399,0-4.435-1.826-4.435-4.089c0-2.26,2.034-4.089,4.435-4.089
				c0.739,0,1.48,0.173,2.035,0.607c0.831-1.738,1.846-3.479,3.235-5.044h-67.47L199.973,156.481z M245.444,169.44h-40.757v-8.872
				h40.757V169.44z"/>
			<path fill="#D73216" d="M269.378,189.785c0-1.303,0.738-2.52,1.758-3.218l-2.125-2c-1.108-1.043-2.033-2.086-2.864-3.305h-66.174
				v17.046h83.549l-6.374-6.087c-0.647,1.043-1.849,1.653-3.325,1.653c-2.405,0-4.439-1.826-4.439-4.089H269.378z M245.442,194.22
				h-40.758v-8.873h40.758V194.22z M262.167,193.875c-2.401,0-4.437-1.826-4.437-4.089c0-2.259,2.034-4.088,4.437-4.088
				s4.252,1.826,4.252,4.088C266.419,192.048,264.573,193.875,262.167,193.875z"/>
			<path fill="#D73216" d="M294.423,208.577v-2.436h-94.45v17.047h94.45V208.577z M245.442,219.102h-40.758v-8.872h40.758V219.102z
				 M262.167,218.753c-2.402,0-4.438-1.826-4.438-4.088c0-2.26,2.034-4.088,4.438-4.088c2.4,0,4.252,1.825,4.252,4.088
				S264.572,218.753,262.167,218.753z M273.814,218.753c-2.401,0-4.437-1.826-4.437-4.088c0-2.26,2.034-4.088,4.437-4.088
				c2.4,0,4.251,1.825,4.251,4.088S276.219,218.753,273.814,218.753z M285.46,218.753c-2.401,0-4.347-1.826-4.347-4.088
				c0-2.26,1.939-4.088,4.347-4.088c2.311,0,4.343,1.825,4.343,4.088C289.801,216.928,287.771,218.753,285.46,218.753z"/>
			<path fill="#D73216" d="M294.423,245.793h-94.45v17.048h94.45V245.793z M245.442,258.753h-40.758v-8.872h40.758V258.753z
				 M262.167,258.402c-2.402,0-4.438-1.825-4.438-4.086c0-2.262,2.034-4.092,4.438-4.092c2.4,0,4.252,1.827,4.252,4.092
				C266.419,256.577,264.572,258.402,262.167,258.402z M273.814,258.402c-2.401,0-4.437-1.825-4.437-4.086
				c0-2.262,2.034-4.092,4.437-4.092c2.4,0,4.251,1.827,4.251,4.092C278.065,256.577,276.219,258.402,273.814,258.402z
				 M285.46,258.402c-2.401,0-4.347-1.825-4.347-4.086c0-2.262,1.939-4.092,4.347-4.092c2.311,0,4.343,1.827,4.343,4.092
				C289.801,256.577,287.771,258.402,285.46,258.402z"/>
			<path fill="#D73216" d="M199.973,289.459h94.45v-17.05h-94.45V289.459z M285.462,276.85c2.311,0,4.344,1.822,4.344,4.086
				c0,2.263-2.033,4.092-4.344,4.092c-2.402,0-4.346-1.827-4.346-4.092C281.116,278.672,283.058,276.85,285.462,276.85z
				 M273.817,276.85c2.399,0,4.252,1.822,4.252,4.086c0,2.263-1.849,4.092-4.252,4.092c-2.401,0-4.437-1.827-4.437-4.092
				C269.38,278.672,271.414,276.85,273.817,276.85z M262.169,276.85c2.4,0,4.253,1.822,4.253,4.086c0,2.263-1.848,4.092-4.253,4.092
				c-2.4,0-4.435-1.827-4.435-4.092C257.735,278.672,259.769,276.85,262.169,276.85z M204.686,276.499h40.757v8.871h-40.757V276.499
				z"/>
		</g>
		<path display="inline" fill="#EE2424" d="M405.492,4.491h-88.854c-5.893,0-11.543,2.34-15.708,6.506
			c-4.167,4.166-6.507,9.816-6.507,15.709v59.238v-0.002c0,5.893,2.34,11.543,6.507,15.709c4.165,4.165,9.815,6.506,15.708,6.506
			h88.854c5.894,0,11.543-2.341,15.707-6.506c4.168-4.166,6.508-9.816,6.508-15.709V26.708c0-5.893-2.34-11.543-6.508-15.709
			c-4.164-4.166-9.813-6.506-15.707-6.506V4.491z M338.851,26.706c2.947,0,5.772,1.17,7.855,3.252
			c2.082,2.083,3.252,4.908,3.252,7.854c0,2.945-1.17,5.771-3.252,7.853c-2.083,2.084-4.908,3.254-7.855,3.254
			c-2.945,0-5.77-1.17-7.853-3.254c-2.083-2.082-3.254-4.907-3.254-7.853s1.171-5.772,3.254-7.854S335.906,26.706,338.851,26.706
			L338.851,26.706z M361.066,78.538c0,1.963-0.778,3.848-2.17,5.236c-1.388,1.388-3.271,2.168-5.233,2.168h-29.619
			c-1.965,0-3.849-0.78-5.235-2.168c-1.39-1.389-2.169-3.273-2.169-5.236v-7.404c0-3.93,1.562-7.695,4.337-10.473
			c2.778-2.777,6.544-4.338,10.472-4.338h14.812h-0.002c3.93,0,7.695,1.561,10.473,4.338c2.778,2.777,4.338,6.543,4.338,10.473
			v7.404H361.066z M409.198,63.727h-29.619c-2.044,0-3.701-1.657-3.701-3.701c0-2.046,1.657-3.703,3.701-3.703h29.619
			c2.044,0,3.702,1.657,3.702,3.703C412.9,62.07,411.24,63.727,409.198,63.727z M409.198,48.917H379.58l-0.002,0.001
			c-2.044,0-3.701-1.658-3.701-3.703c0-2.044,1.657-3.703,3.701-3.703h29.619c2.044,0,3.702,1.659,3.702,3.703
			C412.9,47.26,411.24,48.918,409.198,48.917L409.198,48.917z M409.198,34.108H379.58h-0.002c-2.044,0-3.701-1.656-3.701-3.702
			c0-2.044,1.657-3.702,3.701-3.702h29.619c2.044,0,3.702,1.658,3.702,3.702C412.9,32.452,411.24,34.108,409.198,34.108
			L409.198,34.108z"/>
		<g display="inline">
			<path fill="#EE2424" d="M100.951,310.471c0-7.381-6.033-13.386-13.449-13.386s-13.449,6.005-13.449,13.386
				c0,7.382,6.033,13.387,13.449,13.387S100.951,317.853,100.951,310.471z M78.278,310.471c0-5.052,4.139-9.16,9.226-9.16
				c5.086,0,9.225,4.108,9.225,9.16c0,5.055-4.138,9.161-9.225,9.161C82.415,319.632,78.278,315.522,78.278,310.471z"/>
			<path fill="#EE2424" d="M137.762,317.882h-0.04c-3.572,0-6.926,1.389-9.446,3.908c-2.529,2.528-3.918,5.898-3.907,9.484
				c0.009,3.579,1.412,6.951,3.951,9.489c2.539,2.539,5.909,3.943,9.492,3.953h0.038c3.572,0,6.926-1.387,9.445-3.908
				c2.53-2.527,3.919-5.897,3.908-9.484c-0.012-3.581-1.415-6.952-3.952-9.491C144.714,319.297,141.344,317.893,137.762,317.882
				L137.762,317.882z M144.311,337.824c-1.729,1.729-4.042,2.682-6.484,2.67c-2.457-0.006-4.771-0.972-6.516-2.714
				c-1.745-1.745-2.708-4.06-2.714-6.517c-0.007-2.452,0.94-4.756,2.67-6.483c1.724-1.724,4.017-2.67,6.458-2.67h0.025
				c2.458,0.007,4.771,0.971,6.516,2.714c1.743,1.745,2.709,4.058,2.715,6.516C146.988,333.792,146.039,336.095,144.311,337.824
				L144.311,337.824z"/>
			<path fill="#EE2424" d="M172.004,381.586c0-7.417-6.005-13.449-13.386-13.449c-7.383,0-13.388,6.032-13.388,13.449
				s6.005,13.45,13.389,13.45C165.999,395.036,172.004,389.003,172.004,381.586L172.004,381.586z M149.456,381.586
				c0-5.087,4.109-9.225,9.161-9.225s9.16,4.138,9.16,9.225s-4.108,9.226-9.16,9.226
				C153.567,390.812,149.456,386.673,149.456,381.586z"/>
			<path fill="#EE2424" d="M137.724,445.29h0.04c3.581-0.01,6.953-1.414,9.491-3.952c2.539-2.539,3.941-5.909,3.953-9.491
				c0.01-3.586-1.378-6.955-3.908-9.485c-2.529-2.527-5.821-3.925-9.484-3.906c-3.581,0.008-6.952,1.412-9.49,3.951
				c-2.539,2.539-3.943,5.909-3.952,9.492c-0.011,3.584,1.378,6.952,3.907,9.482C130.798,443.902,134.152,445.29,137.724,445.29
				L137.724,445.29z M131.311,425.394c1.745-1.743,4.06-2.708,6.516-2.714h0.025c2.443,0,4.736,0.947,6.459,2.67
				c1.729,1.729,2.677,4.032,2.67,6.485c-0.008,2.458-0.972,4.771-2.715,6.516c-1.744,1.744-4.058,2.709-6.516,2.716h-0.025
				c-2.442,0-4.736-0.947-6.458-2.671c-1.729-1.729-2.677-4.031-2.67-6.484C128.603,429.452,129.567,427.139,131.311,425.394
				L131.311,425.394z"/>
			<path fill="#EE2424" d="M74.054,452.702c0,7.382,6.033,13.387,13.449,13.387s13.449-6.005,13.449-13.387
				c0-7.38-6.033-13.385-13.449-13.385S74.054,445.322,74.054,452.702z M96.728,452.702c0,5.053-4.138,9.162-9.225,9.162
				s-9.226-4.109-9.226-9.162s4.139-9.16,9.226-9.16S96.728,447.651,96.728,452.702z"/>
			<path fill="#EE2424" d="M37.243,445.29h0.04c3.571,0,6.926-1.388,9.445-3.908c2.53-2.527,3.918-5.897,3.908-9.482
				c-0.009-3.581-1.413-6.952-3.953-9.491c-2.539-2.539-5.909-3.943-9.491-3.952c-3.493,0.034-6.954,1.378-9.483,3.907
				c-2.53,2.528-3.918,5.898-3.908,9.485c0.01,3.58,1.415,6.952,3.953,9.491C30.291,443.876,33.661,445.28,37.243,445.29
				L37.243,445.29z M30.695,425.349c1.724-1.723,4.017-2.67,6.459-2.67h0.026c2.457,0.006,4.771,0.972,6.515,2.714
				c1.745,1.745,2.708,4.059,2.715,6.516c0.007,2.454-0.94,4.757-2.671,6.484c-1.723,1.724-4.016,2.671-6.459,2.671h-0.024
				c-2.458-0.008-4.771-0.973-6.517-2.715c-1.742-1.744-2.708-4.059-2.714-6.516C28.018,429.38,28.967,427.077,30.695,425.349
				L30.695,425.349z"/>
			<path fill="#EE2424" d="M16.386,395.034c7.381,0,13.388-6.032,13.388-13.449c0-7.416-6.005-13.449-13.388-13.449
				C9.005,368.136,3,374.169,3,381.585C3,389.002,9.005,395.034,16.386,395.034L16.386,395.034z M16.386,372.36
				c5.053,0,9.161,4.139,9.161,9.225c0,5.087-4.11,9.225-9.161,9.225s-9.161-4.138-9.161-9.225
				C7.225,376.499,11.335,372.36,16.386,372.36L16.386,372.36z"/>
			<path fill="#EE2424" d="M37.153,344.719h0.039c3.581-0.009,6.953-1.413,9.491-3.952c2.539-2.539,3.943-5.908,3.953-9.491
				c0.01-3.584-1.378-6.953-3.908-9.483c-2.52-2.521-5.874-3.907-9.444-3.907h-0.04c-3.581,0.01-6.952,1.414-9.491,3.951
				c-2.539,2.539-3.941,5.91-3.952,9.492c-0.01,3.586,1.378,6.955,3.908,9.484C30.229,343.333,33.581,344.719,37.153,344.719
				L37.153,344.719z M30.738,324.822c1.745-1.743,4.06-2.708,6.518-2.714h0.024c2.443,0,4.736,0.946,6.458,2.67
				c1.729,1.729,2.677,4.03,2.671,6.483c-0.007,2.457-0.972,4.771-2.715,6.517c-1.744,1.744-4.058,2.709-6.515,2.715h-0.026
				c-2.442,0-4.735-0.948-6.459-2.671c-1.729-1.729-2.677-4.032-2.67-6.485C28.03,328.881,28.995,326.567,30.738,324.822
				L30.738,324.822z"/>
			<path fill="#EE2424" d="M52.91,321.553c0.349,0,0.7-0.085,1.026-0.269c4.382-2.445,9.042-4.41,13.85-5.842
				c1.118-0.334,1.755-1.511,1.422-2.628c-0.333-1.122-1.515-1.753-2.627-1.423c-5.104,1.52-10.052,3.606-14.704,6.204
				c-1.021,0.568-1.384,1.854-0.815,2.873C51.449,321.163,52.169,321.553,52.91,321.553L52.91,321.553z"/>
			<path fill="#EE2424" d="M120.145,320.794c0.32,0.174,0.665,0.256,1.004,0.256c0.751,0,1.479-0.4,1.859-1.106
				c0.556-1.025,0.174-2.31-0.853-2.863c-4.678-2.533-9.651-4.553-14.781-6.011c-1.123-0.315-2.29,0.335-2.608,1.456
				c-0.318,1.123,0.333,2.29,1.456,2.607C111.053,316.505,115.739,318.41,120.145,320.794L120.145,320.794z"/>
			<path fill="#EE2424" d="M148.355,344.885c-1.02,0.569-1.384,1.854-0.813,2.874c2.445,4.382,4.41,9.041,5.843,13.849
				c0.271,0.918,1.114,1.511,2.023,1.511c0.199,0,0.401-0.029,0.603-0.089c1.118-0.332,1.755-1.509,1.422-2.627
				c-1.52-5.104-3.606-10.052-6.204-14.703C150.661,344.679,149.373,344.314,148.355,344.885L148.355,344.885z"/>
			<path fill="#EE2424" d="M151.746,415.976c2.532-4.681,4.555-9.653,6.011-14.781c0.318-1.123-0.333-2.29-1.456-2.608
				c-1.12-0.318-2.288,0.334-2.608,1.456c-1.371,4.831-3.275,9.515-5.66,13.924c-0.557,1.026-0.175,2.311,0.852,2.863
				c0.32,0.174,0.665,0.255,1.004,0.255C150.637,417.081,151.365,416.681,151.746,415.976L151.746,415.976z"/>
			<path fill="#EE2424" d="M121.07,441.359c-4.383,2.445-9.042,4.409-13.849,5.843c-1.118,0.333-1.755,1.51-1.422,2.627
				c0.271,0.918,1.114,1.512,2.022,1.512c0.2,0,0.402-0.03,0.604-0.089c5.104-1.52,10.052-3.606,14.704-6.204
				c1.02-0.567,1.384-1.854,0.814-2.873C123.374,441.155,122.09,440.79,121.07,441.359L121.07,441.359z"/>
			<path fill="#EE2424" d="M54.861,441.851c-1.025-0.555-2.308-0.175-2.862,0.853c-0.557,1.024-0.174,2.309,0.852,2.863
				c4.68,2.531,9.654,4.555,14.782,6.01c0.193,0.055,0.388,0.082,0.578,0.082c0.921,0,1.767-0.607,2.031-1.537
				c0.317-1.123-0.333-2.291-1.456-2.609C63.952,446.142,59.268,444.235,54.861,441.851L54.861,441.851z"/>
			<path fill="#EE2424" d="M26.651,417.759c1.021-0.567,1.385-1.854,0.815-2.873c-2.446-4.382-4.41-9.042-5.843-13.849
				c-0.334-1.12-1.516-1.758-2.627-1.422c-1.119,0.333-1.755,1.509-1.422,2.628c1.52,5.104,3.606,10.051,6.203,14.703
				c0.389,0.691,1.105,1.083,1.847,1.083C25.971,418.028,26.323,417.942,26.651,417.759L26.651,417.759z"/>
			<path fill="#EE2424" d="M23.26,346.669c-2.533,4.68-4.555,9.653-6.011,14.781c-0.318,1.123,0.333,2.291,1.456,2.608
				c0.192,0.055,0.387,0.08,0.578,0.08c0.921,0,1.767-0.606,2.029-1.537c1.372-4.829,3.277-9.515,5.662-13.924
				c0.556-1.024,0.174-2.309-0.852-2.862C25.096,345.259,23.813,345.644,23.26,346.669L23.26,346.669z"/>
			<path fill="#EE2424" d="M87.503,338.075c-23.992,0-43.511,19.518-43.511,43.511s19.517,43.511,43.511,43.511
				c11.678,0,22.273-4.647,30.097-12.164c0.128-0.1,0.249-0.195,0.351-0.317c8.05-7.9,13.062-18.886,13.062-31.026
				c0-23.991-19.517-43.511-43.51-43.511L87.503,338.075z M87.503,342.3c21.662,0,39.285,17.623,39.285,39.286
				c0,9.974-3.768,19.062-9.911,25.997c-5.813-10.709-17.014-17.481-29.373-17.481c-12.323,0-23.562,6.777-29.377,17.477
				c-6.143-6.937-9.907-16.021-9.907-25.991c0-21.661,17.623-39.286,39.286-39.286L87.503,342.3L87.503,342.3z M61.26,410.731
				c4.885-9.998,15.047-16.407,26.243-16.407c11.229,0,21.358,6.396,26.246,16.404c-6.966,6.279-16.152,10.14-26.246,10.14
				C77.41,420.868,68.224,417.009,61.26,410.731z"/>
			<path fill="#EE2424" d="M87.503,383.698c9.202,0,16.688-7.486,16.688-16.688c0-9.203-7.484-16.688-16.688-16.688
				s-16.688,7.485-16.688,16.688C70.815,376.212,78.301,383.698,87.503,383.698z M87.503,354.546c6.873,0,12.463,5.59,12.463,12.463
				s-5.591,12.464-12.463,12.464c-6.874,0-12.464-5.591-12.464-12.464S80.63,354.546,87.503,354.546z"/>
		</g>
	</g>
	<radialGradient id="SVGID_1_" cx="238.7502" cy="243.25" r="236.75" gradientUnits="userSpaceOnUse">
		<stop  offset="0.4032" style="stop-color:#FFBA37"/>
		<stop  offset="1" style="stop-color:#FFFFFF"/>
	</radialGradient>
	<circle display="inline" fill="url(#SVGID_1_)" cx="238.75" cy="243.25" r="236.75"/>
	<path display="inline" fill="#FFEECD" d="M417.5,163.5c-25.173-25.347-34.143-72.988-38.048-107.136
		c-1.538-13.443-7.079-25.526,6.281-31.131c12.055-5.058,15.356-3.517,22.444,3.545c26.305,26.206,16.112,63.357,20.326,96.662
		c1.814,14.348,4.613,26.556-7.004,36.06"/>
	<path display="inline" fill="#FFEECD" d="M47.5,258.5c-18.924-32.769-23.892-85.063-21.161-122.669
		c1.688-23.24,10.14-45.44,17.36-67.418c2.724-8.291,9.451-38.995,22.095-39.054c22.689-0.105,14.199,93.622,13.681,106.369
		c-1.063,26.183-5.367,53.413-9.749,79.319c-1.025,6.061-1.256,14.035-5.226,18.453"/>
	<path display="inline" fill="#FFEECD" d="M353.5,464.5c-9.168-26.721,17.843-66.497,26.848-90.425
		c5.771-15.336,10.478-33.779,28.058-37.872c7.95-1.852,15.874-2.694,19.114,3.161c3.749,6.774-0.646,22.245-1.952,29.736
		c-3.767,21.623-9.222,43.041-18.016,63.2c-4.401,10.09-8.886,24.532-20.797,28.242c-7.23,2.252-14.044-0.774-21.255-1.043"/>
	<path display="inline" fill="#FFEECD" d="M93.5,441.5c-2.907,5.443-10.324-2.313-13.71-5.886
		c-13.678-14.432-19.981-38.161-25.21-56.915c-2.397-8.598-6.009-29.825,6.079-34.272c12.832-4.722,14.137,24.834,15.77,34.426
		c4.138,24.299,16.68,47.83,17.071,72.647"/>
	<path display="inline" fill="#CCFFB9" stroke="#FF7E50" stroke-width="2" stroke-miterlimit="10" d="M447.079,289.92
		c13.265,0,25.58,12.529,25.58,27.006c0,10.966-5.782,20.355-11.547,27.052c-3.738,4.306-7.936,8.114-12.434,10.972
		c0.469,4.848,2.184,12.072,5.596,19.145c0.864-1.855,1.876-3.653,2.842-3.82c1.74,0.09,4.695,5.15,4.041,7.195
		c-0.462,1.219-2.621,1.039-4.663,0.711c4.161,7.073,10.065,13.54,18.164,17.012c0.687,0.303,1.035,1.201,0.732,1.887
		c-0.302,0.687-1.201,1.035-1.887,0.733c-9.172-3.932-15.633-11.287-20.029-19.101c-1.736,1.453-3.842,3.104-4.974,2.178
		c-1.809-1.479-1.493-5.5-0.666-7.685c0.351-0.929,1.554-0.644,2.931,0.088c-2.984-6.771-4.548-13.35-4.975-18.167
		c-4.94-2.988-9.49-7.396-12.746-11.148c-5.764-6.695-11.546-16.086-11.546-27.053c0-14.477,12.316-27.006,25.58-27.006V289.92z"/>
	<path display="inline" fill="#FFA7F1" stroke="#626EFF" stroke-width="2" stroke-miterlimit="10" d="M443.318,150.499
		c13.265,0,25.58,12.529,25.58,27.006c0,10.966-5.782,20.355-11.547,27.052c-3.738,4.306-7.936,8.114-12.434,10.972
		c0.469,4.848,2.184,12.072,5.596,19.145c0.864-1.855,1.876-3.653,2.842-3.82c1.74,0.09,4.695,5.15,4.041,7.195
		c-0.462,1.219-2.621,1.039-4.663,0.711c4.161,7.073,10.065,13.54,18.164,17.012c0.687,0.303,1.035,1.201,0.732,1.887
		c-0.302,0.687-1.201,1.035-1.887,0.733c-9.172-3.932-15.633-11.287-20.029-19.101c-1.736,1.453-3.842,3.104-4.974,2.178
		c-1.809-1.479-1.493-5.5-0.666-7.685c0.351-0.929,1.554-0.644,2.931,0.088c-2.984-6.771-4.548-13.35-4.975-18.167
		c-4.94-2.988-9.49-7.396-12.746-11.148c-5.764-6.695-11.546-16.086-11.546-27.053c0-14.477,12.316-27.006,25.58-27.006V150.499z"/>
	<path display="inline" fill="#A3FBFF" stroke="#4EFF15" stroke-width="1.9436" stroke-miterlimit="10" d="M30.841,82.491
		c-12.527,0-24.158,12.529-24.158,27.006c0,10.966,5.461,20.355,10.905,27.052c3.531,4.306,7.495,8.114,11.742,10.972
		c-0.442,4.848-2.062,12.072-5.284,19.145c-0.816-1.855-1.772-3.653-2.684-3.82c-1.644,0.09-4.434,5.15-3.816,7.195
		c0.436,1.219,2.475,1.039,4.403,0.711c-3.93,7.073-9.505,13.54-17.154,17.012c-0.648,0.303-0.978,1.201-0.692,1.887
		c0.285,0.687,1.135,1.036,1.782,0.733c8.662-3.932,14.763-11.287,18.916-19.101c1.64,1.453,3.628,3.104,4.697,2.178
		c1.708-1.479,1.41-5.5,0.629-7.685c-0.331-0.929-1.467-0.644-2.768,0.088c2.818-6.771,4.295-13.35,4.698-18.167
		c4.666-2.988,8.962-7.396,12.037-11.148c5.443-6.695,10.904-16.086,10.904-27.053c0-14.477-11.631-27.006-24.158-27.006V82.491z"/>
	<path display="inline" fill="#ED1C24" d="M270.155,305.882c-12.189-9.318-20.73-21.979-30.572-33.446
		c-4.882-5.684-9.257-12.427-12.843-18.979c-7.916-14.423-15.995-33.386-2.254-47.304c8.687-8.809,17.959-8.877,28.333-0.107
		c7.276,6.134,12.614,14.006,18.706,21.192c2.904,2.896,11.809,11.616,10.17,3.55c-0.936-4.612-4.131-15.64-3.869-22.848
		c0.348-9.221,0.211-12.144,3.648-20.945c3.205-8.249,9.719-14.965,16.23-20.719c8.119-7.165,16.242-14.315,24.318-21.527
		c14.713-13.138,27.428-27.662,38.436-44.041c4.936-7.337,10.662-15.758,11.463-24.83c0.541-6.35-3.016-17.151-8.834-20.744
		c-8.826-5.446-18.131-1.005-25.637,4.591c-3.047,2.265-5.65,5.129-8.332,7.843c-6.967,7.097-13.551,14.584-20.826,21.347
		c-17.506,16.292-37.529,29.08-59.803,37.819c-42.224,16.548-87.79,20.339-131.913,29.126c-17.704,3.525-64.113,8.371-85.984,9.232
		c-19.412,0.761-27.629,33.957,8.389,36.279c42.643,2.75,79.003,3.026,106.503,3.833c6.289,0.187,10.826,2.872,12.237,9.743
		c3.374,16.365,4.501,18.243,4.728,34.916c0.154,11.034-2.265,22.328-1.439,33.287c0.37,4.795,3.521,3.123,6.102,2.563
		c14.233-3.102,35.82,4.462,44.959,15.892c9.354,11.697,12.061,29.456,6.314,43.361c-0.549,1.339-4.038,5.766-2.696,6.91
		c2.552,2.161,10.327-4.447,12.603-5.854c6.706-4.2,13.408-8.32,19.611-13.256c10.111-8.045,20.445-14.301,32.945-0.736
		c-1.277-7.348,0.35-12.844-1.6-18.146c-3.037-2.667-6.061-5.338-9.086-8.005L270.155,305.882z M232.31,352.059
		c-7.61,5.686-16.651,10.597-25.704,13.479c-34.255,10.916-70.418-2.258-101.524-16.521c-3.762-1.734-7.635-2.542-10.963-0.715
		c-3.676,2.039-2.419,6.418-2.021,9.827c0.592,5.119,2.958,9.599,6.62,13.242c13.059,12.973,27.88,23.354,44.873,30.57
		c7.872,3.344,5.352,17.304,5.41,23.88c0.107,14.869,0.441,29.763,0.89,44.647c8.163,0.714,46.524,3.927,77.046-3.776
		c0.119-19.348,0.348-38.703-0.04-58.043c-0.201-9.555,4.293-14.886,10.514-19.44c28.153-20.626,36.212-35.957,35.179-49.322
		c-1.627-21.415-34.209,7.606-40.283,12.173H232.31z M440.365,191.153c-9.932-5.463-12.904-4.95-18.475,4.667
		c-5.863,10.127-10.799,20.795-16.703,30.896c-13.813,23.663-31.035,43.324-59.959,48.363c-4.916,0.854-10.375,0.876-15.346,0.621
		c-6.443-0.323-13.4-2.021-19.359-4.404c-23.096-9.236-37.418-31.259-53.201-49.185c-2.502-2.847-4.882-5.819-7.581-8.482
		c-4.512-4.477-9.509-7.168-15.776-4.688c-6.139,2.43-9.354,7.456-9.979,13.898c-0.523,5.435,1.649,11.013,3.586,15.974
		c4.189,10.587,10.873,20.519,17.901,29.41c2.793,3.524,5.683,6.978,8.637,10.373c5.376,6.171,10.999,12.13,16.767,17.941
		c5.273,5.309,10.621,11.568,16.832,15.829c3.047,2.079,7.002,3.155,7.215,7.492c0.926,18.059,2.014,36.111,2.742,54.163
		c0.938,22.55,2.311,45.06,4.221,67.53c15.977-7.997,31.107-17.507,45.334-28.246c0.104-0.561,0.129-1.116,0.24-1.666
		c0.139,0.402,0.211,0.833,0.33,1.235c15.891-12.072,30.604-25.73,43.861-40.817c-0.273-16.785-0.816-33.588-1.438-50.376
		c-0.262-6.885,1.268-11.961,6.33-16.925c17.631-17.259,32.656-36.463,40.627-60.305c4.293-12.876,6.59-26.179,7.527-39.679
		C445.039,199.809,443.102,195.289,440.365,191.153L440.365,191.153z M332.227,194.025c-16.785-0.334-36.959,15.978-34.166,35.558
		c2.785,19.449,15.309,35.557,34.166,35.557c18.873,0,34.166-15.923,34.166-35.557C366.389,209.941,354.094,194.456,332.227,194.025
		z M146.528,81.879c2.786,24.71,20.157,45.027,45.017,45.027c24.875,0,45.032-20.156,45.032-45.027
		c0-24.873-23.723-47.666-48.589-47.666C163.126,34.213,143.642,56.386,146.528,81.879z M178.842,358.588
		c17.033-1.285,30.928-14.147,30.928-31.597c0-17.455-13.838-31.603-30.928-31.603c-17.076,0-31.603,7.302-32.995,28.483
		C144.691,341.285,157.23,360.227,178.842,358.588L178.842,358.588z M253.556,64.171c10.825-0.818,19.646-8.996,19.646-20.09
		c0-11.084-8.795-20.081-19.646-20.081c-10.852,0-20.091,4.641-20.974,18.102C231.835,53.18,239.818,65.219,253.556,64.171z
		 M241.344,69.86c1.023,3.905,1.626,7.926,1.626,12.007c0,10.338-3.098,19.958-8.371,28.035c0.032,3.604,0.061,8.923,0.104,15.022
		c3.837-1.292,7.657-2.667,11.429-4.142c13.446-5.266,26.153-12.14,38.036-20.511c-0.021-1.622-0.033-3.101-0.063-4.274
		c-0.117-6.077,2.1-10.643,6.684-12.366c5.367-2.006,7.719-6.346,11.311-9.756c5.84-5.528,11.703-13.099,11.049-21.588
		c-1.033-13.615-21.752,4.842-25.611,7.736c-4.842,3.622-10.574,6.737-16.342,8.572c-9.834,3.13-19.917,3.044-29.85,1.267
		L241.344,69.86z"/>
	<path display="inline" fill="#B2151B" d="M143.625,260.035c-1.113,0.785-1.38,2.327-0.593,3.443
		c1.534,2.174,1.582,5.125,0.116,7.346c-0.751,1.143-0.437,2.674,0.703,3.424c0.418,0.275,0.889,0.408,1.356,0.408
		c0.803,0,1.591-0.391,2.065-1.109c2.573-3.902,2.49-9.094-0.205-12.912C146.281,259.518,144.739,259.252,143.625,260.035
		L143.625,260.035z"/>
	<path display="inline" fill="#ED1C24" d="M149.483,247.734c-5.211-3.434-11.535-4.396-17.413-2.768
		c-0.964-3.014-2.618-5.78-4.916-8.101c-3.805-3.779-8.818-5.854-14.178-5.854c-5.163,0-9.806,3.902-12.819,6.816
		c-2.988-2.914-7.632-6.816-12.819-6.816c-5.36,0-10.374,2.075-14.178,5.854c-2.297,2.322-3.976,5.087-4.916,8.126
		c-5.878-1.629-12.202-0.691-17.413,2.742c-9.806,6.471-12.498,19.734-6.052,29.54c3.261,4.915,10.448,11.509,17.487,16.079
		c4.743,3.063,10.794,6.125,16.031,6.125c1.062,0,2.075-0.123,3.063-0.395l15.338,33.715c-0.148,0.074-0.297,0.148-0.445,0.248
		l-11.855-4.273c-0.124-0.05-0.271-0.1-0.42-0.123c-2.149-0.347-4.347,0.246-6.028,1.654c-1.655,1.408-2.618,3.482-2.618,5.656
		v8.843c0,2.173,0.964,4.249,2.643,5.657c1.334,1.135,3.038,1.753,4.767,1.753c0.42,0,0.84-0.05,1.235-0.124
		c0.148-0.023,0.296-0.049,0.42-0.1l11.88-4.272c0.444,0.271,0.914,0.47,1.408,0.642v11.436c0,1.383,1.111,2.471,2.47,2.471
		c1.359,0,2.47-1.088,2.47-2.471v-11.436c0.494-0.173,0.964-0.37,1.408-0.642l11.879,4.272c0.124,0.051,0.271,0.074,0.42,0.1
		c0.395,0.074,0.814,0.124,1.235,0.124c1.729,0,3.434-0.618,4.767-1.753c1.679-1.408,2.643-3.482,2.643-5.657v-8.843
		c0-2.173-0.964-4.248-2.618-5.656c-1.68-1.408-3.878-2-6.027-1.654c-0.148,0.023-0.297,0.073-0.42,0.123l-11.855,4.273
		c-0.147-0.1-0.296-0.174-0.444-0.248l15.338-33.715c0.988,0.271,2,0.395,3.063,0.395c5.261,0,11.288-3.063,16.03-6.125
		c7.039-4.57,14.226-11.164,17.487-16.079C161.98,267.47,159.288,254.205,149.483,247.734L149.483,247.734z M80.127,243.238
		c1.779-1.778,4.026-2.717,6.545-2.717c1.358,0,2.47,1.087,2.47,2.47c0,1.358-1.112,2.47-2.47,2.47c-1.185,0-2.223,0.42-3.063,1.26
		s-1.259,1.877-1.259,3.063c0,1.359-1.111,2.471-2.47,2.471c-1.359,0-2.47-1.111-2.47-2.471
		C77.41,247.264,78.348,244.992,80.127,243.238L80.127,243.238z M81.239,293.775c-2.865,1.876-8.942,0.172-16.277-4.57
		c-7.311-4.717-13.585-10.941-16.055-14.646c-4.964-7.558-2.89-17.734,4.643-22.699c4.125-2.717,9.188-3.408,13.807-1.977
		c-0.024,0.371-0.049,0.766-0.049,1.162c0,5.359,2.075,10.373,5.854,14.152l9.879,9.88C84.991,284.61,84.325,291.749,81.239,293.775
		L81.239,293.775z M85.585,296.467c3.359-3.605,3.829-9.83,3.334-15.512l8.768,8.769v33.32L85.585,296.467z M100.157,343.863
		c-1.729,0-3.161-1.555-3.161-3.481s1.432-3.482,3.161-3.482s3.161,1.556,3.161,3.482S101.886,343.863,100.157,343.863z
		 M102.627,323.043v-33.32l8.769-8.769c-0.494,5.681-0.024,11.905,3.334,15.511L102.627,323.043z M151.408,274.555
		c-2.47,3.705-8.744,9.93-16.055,14.647c-7.335,4.742-13.412,6.472-16.277,4.569c-3.088-2.025-3.755-9.163-1.803-18.697l9.88-9.881
		c3.754-3.754,5.854-8.792,5.854-14.178c0-0.395-0.024-0.765-0.05-1.16c4.643-1.408,9.683-0.717,13.808,2
		C154.298,256.821,156.372,266.998,151.408,274.555L151.408,274.555z"/>
	<path display="inline" fill="#B2151B" d="M56.689,258.322c-1.116-0.781-2.657-0.521-3.444,0.596
		c-2.695,3.818-2.778,9.008-0.205,12.912c0.474,0.72,1.263,1.109,2.065,1.109c0.466,0,0.938-0.133,1.356-0.407
		c1.139-0.751,1.452-2.282,0.703-3.424c-1.464-2.219-1.418-5.173,0.116-7.346C58.07,260.65,57.806,259.109,56.689,258.322
		L56.689,258.322z"/>
</g>
<g id="Layer_2">
	
		<image overflow="visible" width="2083" height="2019" xlink:href="beranda.png"  transform="matrix(0.2241 0 0 0.2241 6.0007 13.0806)">
	</image>
</g>
</svg>
