<svg height="512" viewBox="0 0 64 64" width="512" xmlns="http://www.w3.org/2000/svg"><path d="m49 3h-34a4 4 0 0 0 -4 4v50a4 4 0 0 0 4 4h34a4 4 0 0 0 4-4v-50a4 4 0 0 0 -4-4zm0 44a2 2 0 0 1 -2 2h-30a2 2 0 0 1 -2-2v-38a2 2 0 0 1 2-2h30a2 2 0 0 1 2 2z" fill="#a8dba8"/><circle cx="32" cy="55" fill="#79bd9a" r="2"/><path d="m44 15-3-3-3 3v-8h6z" fill="#79bd9a"/><path d="m35 43a14 14 0 0 1 -14-14v-22h-4a2 2 0 0 0 -2 2v38a2 2 0 0 0 2 2h30a2 2 0 0 0 2-2v-4z" fill="#cff09e"/><g fill="#3b8686"><path d="m49 2h-34a5 5 0 0 0 -5 5v50a5 5 0 0 0 5 5h34a5 5 0 0 0 5-5v-50a5 5 0 0 0 -5-5zm3 55a3 3 0 0 1 -3 3h-34a3 3 0 0 1 -3-3v-50a3 3 0 0 1 3-3h34a3 3 0 0 1 3 3z"/><path d="m47 6h-30a3 3 0 0 0 -3 3v38a3 3 0 0 0 3 3h30a3 3 0 0 0 3-3v-38a3 3 0 0 0 -3-3zm-4 2v4.59l-1.29-1.3a1 1 0 0 0 -1.42 0l-1.29 1.3v-4.59zm5 39a1 1 0 0 1 -1 1h-30a1 1 0 0 1 -1-1v-38a1 1 0 0 1 1-1h20v7a1 1 0 0 0 .62.92 1 1 0 0 0 1.09-.21l2.29-2.3 2.29 2.3a1 1 0 0 0 .71.29.84.84 0 0 0 .38-.08 1 1 0 0 0 .62-.92v-7h2a1 1 0 0 1 1 1z"/><path d="m32 52a3 3 0 1 0 3 3 3 3 0 0 0 -3-3zm0 4a1 1 0 1 1 1-1 1 1 0 0 1 -1 1z"/><circle cx="38" cy="55" r="1"/><circle cx="42" cy="55" r="1"/><circle cx="22" cy="55" r="1"/><circle cx="26" cy="55" r="1"/><path d="m20 21h6a1 1 0 0 0 0-2h-5v-2h5a1 1 0 0 0 0-2h-5v-2h5a1 1 0 0 0 0-2h-6a1 1 0 0 0 -1 1v8a1 1 0 0 0 1 1z"/><path d="m44 19h-12a1 1 0 0 0 0 2h12a1 1 0 0 0 0-2z"/><path d="m44 23h-24a1 1 0 0 0 0 2h24a1 1 0 0 0 0-2z"/><path d="m44 27h-24a1 1 0 0 0 0 2h24a1 1 0 0 0 0-2z"/><path d="m44 31h-24a1 1 0 0 0 0 2h24a1 1 0 0 0 0-2z"/><path d="m44 35h-24a1 1 0 0 0 0 2h24a1 1 0 0 0 0-2z"/><path d="m44 39h-24a1 1 0 0 0 0 2h24a1 1 0 0 0 0-2z"/><path d="m38 43h-18a1 1 0 0 0 0 2h18a1 1 0 0 0 0-2z"/></g></svg>