<?xml version="1.0" encoding="utf-8"?>
<!-- Generator: Adobe Illustrator 16.0.0, SVG Export Plug-In . SVG Version: 6.00 Build 0)  -->
<!DOCTYPE svg PUBLIC "-//W3C//DTD SVG 1.1//EN" "http://www.w3.org/Graphics/SVG/1.1/DTD/svg11.dtd">
<svg version="1.1" id="Layer_1" xmlns="http://www.w3.org/2000/svg" xmlns:xlink="http://www.w3.org/1999/xlink" x="0px" y="0px"
	 width="480px" height="480px" viewBox="0 0 480 480" enable-background="new 0 0 480 480" xml:space="preserve">
<g display="none">
	<path display="inline" fill="#79BD9A" d="M328,8c-66.273,0-120,53.727-120,120c0,38.48,18.078,51.121,46.238,55.039
		c-4.109-9.832-6.23-20.383-6.238-31.039v-48h160v48c-0.008,10.656-2.129,21.207-6.238,31.039C429.922,179.121,448,166.48,448,128
		C448,61.727,394.274,8,328,8z"/>
	<path display="inline" fill="#CFF09E" d="M304,228.32c7.762,2.453,15.859,3.691,24,3.68c5.371-0.004,10.73-0.543,16-1.602
		c-15.121-3.051-29.02-10.445-40-21.277V228.32z"/>
	<path display="inline" fill="#CFF09E" d="M248,104v48c0.008,11.008,2.266,21.898,6.641,32H280c2.418,0,4.82,0.379,7.121,1.121
		C282.43,174.707,280,163.418,280,152v-16h128v-32H248z"/>
	<path display="inline" fill="#CFF09E" d="M364,232h-60v42.559c7.488,3.602,15.691,5.461,24,5.441
		c26.922,0.008,50.039-19.145,55.039-45.602C376.813,232.828,370.422,232.023,364,232z"/>
	<path display="inline" fill="#CFF09E" d="M328,232c-8.141,0.012-16.238-1.227-24-3.68v13.602c4.406,3.922,10.102,6.086,16,6.078h16
		c12.742,0.02,23.277-9.918,24-22.641C349.899,229.734,339.008,231.992,328,232z"/>
	<path display="inline" fill="#A8DBA8" d="M16,440h448c4.418,0,8,3.582,8,8v16c0,4.418-3.582,8-8,8H16c-4.418,0-8-3.582-8-8v-16
		C8,443.582,11.582,440,16,440z"/>
	<path display="inline" fill="#CFF09E" d="M80,408h176c4.418,0,8,3.582,8,8v16c0,4.418-3.582,8-8,8H80c-4.418,0-8-3.582-8-8v-16
		C72,411.582,75.582,408,80,408z"/>
	<path display="inline" fill="#CFF09E" d="M152,328v-8c-0.039-5.605,1.395-11.125,4.16-16c-16.16,1.953-28.277,15.723-28.16,32v72
		h80v-16.48C175.992,387.488,151.989,360.262,152,328z"/>
	<path display="inline" fill="#CFF09E" d="M128,336c-0.008-7.023,2.301-13.855,6.559-19.441C92.887,305.105,64.004,267.219,64,224
		v-40h-8c-13.254,0-24,10.746-24,24v128c0,13.254,10.746,24,24,24h72V336z"/>
	<path display="inline" fill="#CFF09E" d="M203.68,320c2.82,4.863,4.309,10.379,4.32,16v24h72c13.254,0,24-10.746,24-24v-16H203.68z
		"/>
	<path display="inline" fill="#79BD9A" d="M320,392h104c4.418,0,8,3.582,8,8v32c0,4.418-3.582,8-8,8H320c-8.836,0-16-7.164-16-16
		v-16C304,399.164,311.164,392,320,392z"/>
	<path display="inline" fill="#79BD9A" d="M360,344h104c4.418,0,8,3.582,8,8v32c0,4.418-3.582,8-8,8H360c-8.836,0-16-7.164-16-16
		v-16C344,351.164,351.164,344,360,344z"/>
	<path display="inline" fill="#CFF09E" d="M424,344h40c4.418,0,8,3.582,8,8v32c0,4.418-3.582,8-8,8h-40V344z"/>
	<path display="inline" fill="#CFF09E" d="M320,392h48v48h-48c-8.836,0-16-7.164-16-16v-16C304,399.164,311.164,392,320,392z"/>
	<g display="inline">
		<path fill="#3B8686" d="M304,144c0,4.418-3.582,8-8,8s-8-3.582-8-8s3.582-8,8-8S304,139.582,304,144z"/>
		<path fill="#3B8686" d="M368,144c0,4.418-3.582,8-8,8s-8-3.582-8-8s3.582-8,8-8S368,139.582,368,144z"/>
		<path fill="#3B8686" d="M320,58.32c18.559-6.465,39.109,0.941,49.281,17.758c1.41,2.383,3.953,3.867,6.719,3.922
			c1.457-0.023,2.887-0.406,4.16-1.121c3.77-2.281,4.988-7.18,2.719-10.957c-14.102-23.359-42.641-33.641-68.398-24.641
			c-4.152,1.523-6.285,6.125-4.762,10.277C311.246,57.715,315.848,59.844,320,58.32z"/>
		<path fill="#3B8686" d="M472,464H8c-4.418,0-8,3.582-8,8s3.582,8,8,8h464c4.418,0,8-3.582,8-8S476.418,464,472,464z"/>
		<path fill="#3B8686" d="M224,240c4.418,0,8-3.582,8-8s-3.582-8-8-8H120c-4.418,0-8,3.582-8,8s3.582,8,8,8H224z"/>
		<path fill="#3B8686" d="M184,256h-24c-4.418,0-8,3.582-8,8s3.582,8,8,8h24c4.418,0,8-3.582,8-8S188.418,256,184,256z"/>
		<path fill="#3B8686" d="M472,400c4.418,0,8-3.582,8-8s-3.582-8-8-8h-40v-32h40c4.418,0,8-3.582,8-8s-3.582-8-8-8h-20v-24
			c-0.051-40.488-27.719-75.715-67.039-85.359c-2.563-0.641-5.121-1.121-8-1.52c12.996-8.715,23.414-20.762,30.16-34.883
			C429.281,186.32,456,174.719,456,128C456,57.309,398.692,0,328,0S200,57.309,200,128c0,24,7.121,38.801,17.039,48H56
			c-17.672,0-32,14.328-32,32v128c0,17.672,14.328,32,32,32h64v32H88c-13.254,0-24,10.746-24,24v8H8c-4.418,0-8,3.582-8,8
			s3.582,8,8,8h464c4.418,0,8-3.582,8-8s-3.582-8-8-8h-32v-32H472z M400,152c0.25,21.98-9.668,42.848-26.871,56.531
			C355.926,222.219,333.364,227.188,312,222v-14c0-17.672-14.328-32-32-32h-19.762c-2.801-7.691-4.234-15.813-4.238-24v-40h144V152z
			 M373.039,240.641C366.074,259.492,348.098,272.008,328,272c-5.457,0-10.867-0.949-16-2.801V240h52
			c2.941,0.031,5.879,0.215,8.801,0.559L373.039,240.641z M216,128c0-61.855,50.145-112,112-112s112,50.145,112,112
			c0,28-9.84,39.281-26.48,44.32c1.641-6.648,2.473-13.473,2.48-20.32v-48c0-4.418-3.582-8-8-8H248c-4.418,0-8,3.582-8,8v48
			c0.02,6.848,0.852,13.668,2.48,20.32C225.84,167.281,216,156,216,128z M56,352c-8.836,0-16-7.164-16-16V208
			c0-8.836,7.164-16,16-16h224c8.836,0,16,7.164,16,16v128c0,8.836-7.164,16-16,16h-64v-16c0-22.09-17.91-40-40-40h-16
			c-22.09,0-40,17.91-40,40v16H56z M200,336v64h-64v-64c0-13.254,10.746-24,24-24h16C189.254,312,200,322.746,200,336z M256,432H80
			v-8c0-4.418,3.582-8,8-8h160c4.418,0,8,3.582,8,8V432z M297.442,432H272v-8c0-13.254-10.746-24-24-24h-32v-32h64
			c17.672,0,32-14.328,32-32v-50.078c5.223,1.375,10.602,2.07,16,2.078c27.449-0.043,51.813-17.586,60.559-43.602
			C417.008,254.723,435.965,281.734,436,312v24h-76c-13.254,0-24,10.746-24,24v16c0.023,2.73,0.508,5.434,1.441,8H320
			c-13.254,0-24,10.746-24,24v16C296.024,426.73,296.508,429.434,297.442,432z M360,432h-40c-4.418,0-8-3.582-8-8v-16
			c0-4.418,3.582-8,8-8h40V432z M352,376v-16c0-4.418,3.582-8,8-8h56v32h-56C355.582,384,352,380.418,352,376z M424,432h-48v-32h48
			V432z"/>
	</g>
	<path display="inline" fill="#A8DBA8" d="M364,232h-60v104c0,13.254-10.746,24-24,24h-76v112h240V312
		C444,267.816,408.184,232,364,232z"/>
</g>
<g display="none">
	<path display="inline" fill="#FEFED1" d="M118.5,464.5c-8.566,4.095-20.129,6.263-29.858,6.965
		c-22.763,1.641-36.64-26.577-59.019-26.97C15.969,430.087,1.5,417.827,1.504,397.21c0.005-30.712-0.051-58.524,4.977-88.751
		c6.281-37.761,6.054-76.314,10.358-114.29c1.309-11.545-1.536-18.256-3.488-29.964c-3.006-18.034-0.473-36.063,2.276-53.789
		c3.138-20.235,5.021-44.583,20.934-60.288c6.199-6.118,7.813-5.141,15.065-5.636c13.138-0.897,26.188-2.029,39.333-3.079
		c17.191-1.372,30.04-7.719,46.812-12.244c34.043-9.184,68.809-10.243,103.727-10.625c20.463-0.224,40.653-5.958,61.101-5.089
		c14.345,0.609,21.892,5.749,33.867,10.634c24.543,10.011,51.535,8.598,63.361,35.281c12.4,27.977,26.157,55.935,33.413,85.782
		c7.362,30.291,11.685,66.935,28.18,93.9c5.276,8.625,6.014,8.877,7.08,17.702c1.711,14.157,1.027,29.774,0.996,44.038
		c-0.042,19.784,0.878,39.769,0,59.535c-0.822,18.539-10.412,32.987-18.224,49.838c-3.509,7.566-13.211,42.615-23.013,47.104
		c-10.887,4.984-38.149-3.541-48.653-5.645c-13.583-2.721-26.624-8.151-40.206-9.114c-17.161-1.218-32.373-1.009-49.164-5.844
		c-16.826-4.845-32.904-6.524-50.823-7.032c-18.926-0.536-49.406-5.959-64.752,8.915c-5.177,5.018-2.456,8.035-10.998,10.857
		c-4.07,1.346-9.04,0.899-13.382,2.276c-10.688,3.389-29.035,9.578-37.781,15.816"/>
	<path display="inline" fill="#FCD3D3" d="M314.878,21.722c2.101-15.4,28.973-10.299,38.558-4.524
		c11.258,6.778,18.937,19.609,22.056,31.249c4.512,16.841,9.237,48.965-10.779,54.934c-16.569,4.942-47.77,5.431-57.564-9.925
		c-11.497-18.023-4.197-58.525,10.408-74.163"/>
	<path display="inline" fill="#FCCEEE" d="M33.711,100.077c0-14.267-7.36-51.333,11.28-54.917c-3.674,0.87-7.749,0.385-11.173,1.114
		c3.801-10.918,16.362-6.983,20.957-1.396c4.997,6.077,5.604,16.805,6.886,24.03c5.094,28.703,5.905,58.62,9.262,87.791
		c3.385,29.424,4.179,61.12,4.097,90.492c-0.054,19.536-0.078,39.086-10.579,55.919c-46.266,17.542-32.471-67.103-33.687-83.334
		c-1.677-22.387-2.945-45.053-2.945-67.827c0-17.602,6.657-36.478,4.426-53.119"/>
	<path display="inline" fill="#FCD3D3" d="M296.067,449.111c17.117-41.962,69.589-72.501,118.284-80.38
		c18.803-3.042,43.089-2.866,47.723,17.15c3.936,16.995-8.207,37.343-22.407,47.469c-9.786,6.978-17.174,5.44-28.103,7.233
		c-10.965,1.801-17.404,7.821-27.194,11.953c-11.654,4.918-22.696,2.308-34.782,3.867c-9.375,1.209-20.448,6.352-30.83,3.728
		c-4.707-1.19-16.613-8.731-18.674-13.451"/>
	<circle display="inline" fill="#FCD3D3" cx="86.985" cy="383.475" r="75.175"/>
	<g display="inline">
		<path fill="#D73216" d="M266.424,165.007c0-1.565-0.832-2.87-2.218-3.479c-1.015,2.347-1.568,4.956-1.663,7.479
			C264.761,168.92,266.424,167.179,266.424,165.007z"/>
		<path fill="#D73216" d="M273.818,185.701c-1.017,0-1.938,0.349-2.679,0.871l6.009,5.654c0.648-0.695,0.925-1.565,0.925-2.436
			C278.07,187.527,276.223,185.701,273.818,185.701z"/>
		<path fill="#D73216" d="M425.067,202.427c-1.531-0.661-3.22-1.063-4.998-1.123h-33.294c-0.899-0.182-1.823-0.288-2.776-0.288
			h-0.026l-47.251,0.088l-42.517-40.167c-5.133-4.843-13.474-4.854-18.607-0.033c-0.096,0.09-0.124,0.215-0.217,0.31
			c-0.485-0.182-1.007-0.301-1.567-0.301c-2.402,0-4.436,1.827-4.436,4.089c0,1.626,1.071,3,2.557,3.66
			c-0.311,3.498,0.792,7.074,3.629,9.755l8.114,7.665c-1.506,0.643-2.561,2.05-2.561,3.71c0,2.259,1.941,4.088,4.346,4.088
			c1.692,0,3.22-0.992,3.923-2.406l32.563,30.763c2.465,2.329,5.826,3.641,9.322,3.641h0.026l29.105-0.054v88.086h0.035v97.621
			c0,6.838,5.893,12.382,13.159,12.382c7.264,0,13.157-5.544,13.157-12.382v-97.621h19.736v97.621
			c0,6.838,5.893,12.382,13.156,12.382c7.268,0,13.159-5.544,13.159-12.382L432.8,300.867c0-0.11-0.033-0.218-0.036-0.332v-68.079
			c7.484,5.436,12.367,13.805,12.367,23.312v38.135c0,6.837,5.893,12.382,13.157,12.382c7.266,0,13.158-5.545,13.158-12.382v-38.135
			c0-26.247-19.943-48.129-46.381-53.342L425.067,202.427z"/>
		<path fill="#D73216" d="M426.189,160.877c0,15.384-13.254,27.857-29.606,27.857c-16.348,0-29.603-12.473-29.603-27.857
			c0-15.388,13.253-27.86,29.603-27.86C412.935,133.017,426.189,145.488,426.189,160.877"/>
		<path fill="#D73216" d="M29.131,304.327H167.21V41.249H29.131V304.327z M37.818,48.471h120.701v248.644H37.818V48.471z"/>
		<path fill="#D73216" d="M50.991,76.035h94.361V58.989H50.991V76.035z M136.391,63.426c2.401,0,4.345,1.826,4.345,4.089
			c0,2.26-1.94,4.088-4.345,4.088c-2.402,0-4.345-1.826-4.345-4.088C132.046,65.252,133.987,63.426,136.391,63.426z M124.744,63.426
			c2.402,0,4.345,1.826,4.345,4.089c0,2.26-1.941,4.088-4.345,4.088c-2.401,0-4.345-1.826-4.345-4.088
			C120.403,65.252,122.344,63.426,124.744,63.426z M113.102,63.426c2.402,0,4.346,1.826,4.346,4.089c0,2.26-1.941,4.088-4.346,4.088
			c-2.401,0-4.344-1.826-4.344-4.088C108.758,65.252,110.697,63.426,113.102,63.426z M55.706,63.077h40.667v8.873H55.706V63.077z"/>
		<path fill="#D73216" d="M50.991,123.869h94.361v-17.048H50.991V123.869z M136.391,111.256c2.401,0,4.345,1.826,4.345,4.089
			c0,2.26-1.94,4.089-4.345,4.089c-2.402,0-4.345-1.827-4.345-4.089C132.046,113.083,133.987,111.256,136.391,111.256z
			 M124.744,111.256c2.402,0,4.345,1.826,4.345,4.089c0,2.26-1.941,4.089-4.345,4.089c-2.401,0-4.345-1.827-4.345-4.089
			C120.403,113.083,122.344,111.256,124.744,111.256z M113.102,111.256c2.402,0,4.346,1.826,4.346,4.089
			c0,2.26-1.941,4.089-4.346,4.089c-2.401,0-4.344-1.827-4.344-4.089C108.758,113.083,110.697,111.256,113.102,111.256z
			 M55.706,110.911h40.667v8.872H55.706V110.911z"/>
		<path fill="#D73216" d="M50.991,148.686h94.361v-17.047H50.991V148.686z M136.391,136.077c2.401,0,4.345,1.826,4.345,4.09
			c0,2.259-1.94,4.088-4.345,4.088c-2.402,0-4.345-1.827-4.345-4.088C132.046,137.902,133.987,136.077,136.391,136.077z
			 M124.744,136.077c2.402,0,4.345,1.826,4.345,4.09c0,2.259-1.941,4.088-4.345,4.088c-2.401,0-4.345-1.827-4.345-4.088
			C120.403,137.902,122.344,136.077,124.744,136.077z M113.102,136.077c2.402,0,4.346,1.826,4.346,4.09
			c0,2.259-1.941,4.088-4.346,4.088c-2.401,0-4.344-1.827-4.344-4.088C108.758,137.902,110.697,136.077,113.102,136.077z
			 M55.706,135.728h40.667v8.873H55.706V135.728z"/>
		<path fill="#D73216" d="M50.991,173.51h94.361v-17.046H50.991V173.51z M136.391,160.898c2.401,0,4.345,1.827,4.345,4.089
			c0,2.26-1.94,4.089-4.345,4.089c-2.402,0-4.345-1.826-4.345-4.089C132.046,162.727,133.987,160.898,136.391,160.898z
			 M124.744,160.898c2.402,0,4.345,1.827,4.345,4.089c0,2.26-1.941,4.089-4.345,4.089c-2.401,0-4.345-1.826-4.345-4.089
			C120.403,162.727,122.344,160.898,124.744,160.898z M113.102,160.898c2.402,0,4.346,1.827,4.346,4.089
			c0,2.26-1.941,4.089-4.346,4.089c-2.401,0-4.344-1.826-4.344-4.089C108.758,162.727,110.697,160.898,113.102,160.898z
			 M55.706,160.552h40.667v8.872H55.706V160.552z"/>
		<path fill="#D73216" d="M50.991,198.335h94.361v-17.047H50.991V198.335z M136.391,185.726c2.401,0,4.345,1.826,4.345,4.089
			c0,2.259-1.94,4.088-4.345,4.088c-2.402,0-4.345-1.826-4.345-4.088C132.046,187.552,133.987,185.726,136.391,185.726z
			 M124.744,185.726c2.402,0,4.345,1.826,4.345,4.089c0,2.259-1.941,4.088-4.345,4.088c-2.401,0-4.345-1.826-4.345-4.088
			C120.403,187.552,122.344,185.726,124.744,185.726z M113.102,185.726c2.402,0,4.346,1.826,4.346,4.089
			c0,2.259-1.941,4.088-4.346,4.088c-2.401,0-4.344-1.826-4.344-4.088C108.758,187.552,110.697,185.726,113.102,185.726z
			 M55.706,185.377h40.667v8.872H55.706V185.377z"/>
		<path fill="#D73216" d="M50.991,223.159h94.361v-17.046H50.991V223.159z M136.391,210.547c2.401,0,4.345,1.826,4.345,4.089
			c0,2.261-1.94,4.089-4.345,4.089c-2.402,0-4.345-1.825-4.345-4.089C132.046,212.373,133.987,210.547,136.391,210.547z
			 M124.744,210.547c2.402,0,4.345,1.826,4.345,4.089c0,2.261-1.941,4.089-4.345,4.089c-2.401,0-4.345-1.825-4.345-4.089
			C120.403,212.373,122.344,210.547,124.744,210.547z M113.102,210.547c2.402,0,4.346,1.826,4.346,4.089
			c0,2.261-1.941,4.089-4.346,4.089c-2.401,0-4.344-1.825-4.344-4.089C108.758,212.373,110.697,210.547,113.102,210.547z
			 M55.706,210.201h40.667v8.873H55.706V210.201z"/>
		<path fill="#D73216" d="M50.991,262.83h94.361v-17.045H50.991V262.83z M136.391,250.222c2.401,0,4.345,1.827,4.345,4.089
			c0,2.26-1.94,4.089-4.345,4.089c-2.402,0-4.345-1.827-4.345-4.089S133.987,250.222,136.391,250.222z M124.744,250.222
			c2.402,0,4.345,1.827,4.345,4.089c0,2.26-1.941,4.089-4.345,4.089c-2.401,0-4.345-1.827-4.345-4.089
			C120.403,252.049,122.344,250.222,124.744,250.222z M113.102,250.222c2.402,0,4.346,1.827,4.346,4.089
			c0,2.26-1.941,4.089-4.346,4.089c-2.401,0-4.344-1.827-4.344-4.089S110.697,250.222,113.102,250.222z M55.706,249.872h40.667
			v8.873H55.706V249.872z"/>
		<path fill="#D73216" d="M50.991,289.473h94.361v-17.047H50.991V289.473z M136.391,276.864c2.401,0,4.345,1.825,4.345,4.089
			c0,2.258-1.94,4.087-4.345,4.087c-2.402,0-4.345-1.823-4.345-4.087S133.987,276.864,136.391,276.864z M124.744,276.864
			c2.402,0,4.345,1.825,4.345,4.089c0,2.258-1.941,4.087-4.345,4.087c-2.401,0-4.345-1.823-4.345-4.087
			C120.403,278.689,122.344,276.864,124.744,276.864z M113.102,276.864c2.402,0,4.346,1.825,4.346,4.089
			c0,2.258-1.941,4.087-4.346,4.087c-2.401,0-4.344-1.823-4.344-4.087S110.697,276.864,113.102,276.864z M55.706,276.516h40.667
			v8.872H55.706V276.516z"/>
		<path fill="#D73216" d="M307.552,221.008v76.097H186.851V48.463h120.701v112.801l8.688,8.174V41.247H178.16v263.077h138.08
			v-75.226c-0.277-0.173-0.555-0.434-0.833-0.695L307.552,221.008z"/>
		<path fill="#D73216" d="M294.423,58.989h-94.45v17.046h94.45V58.989z M245.442,71.948h-40.758v-8.872h40.758V71.948z
			 M262.167,71.6c-2.402,0-4.437-1.826-4.437-4.088c0-2.26,2.034-4.089,4.437-4.089c2.401,0,4.252,1.826,4.252,4.089
			S264.572,71.6,262.167,71.6z M273.814,71.6c-2.402,0-4.437-1.826-4.437-4.088c0-2.26,2.034-4.089,4.437-4.089
			c2.4,0,4.251,1.826,4.251,4.089S276.219,71.6,273.814,71.6z M285.46,71.6c-2.401,0-4.346-1.826-4.346-4.088
			c0-2.26,1.939-4.089,4.346-4.089c2.311,0,4.343,1.826,4.343,4.089C289.801,69.774,287.771,71.6,285.46,71.6z"/>
		<path fill="#D73216" d="M294.423,106.825h-94.45v17.046h94.45V106.825z M245.442,119.782h-40.758v-8.872h40.758V119.782z
			 M262.167,119.434c-2.402,0-4.437-1.827-4.437-4.088c0-2.261,2.034-4.089,4.437-4.089c2.401,0,4.252,1.826,4.252,4.089
			C266.419,117.608,264.572,119.434,262.167,119.434z M273.814,119.434c-2.402,0-4.437-1.827-4.437-4.088
			c0-2.261,2.034-4.089,4.437-4.089c2.4,0,4.251,1.826,4.251,4.089C278.065,117.608,276.219,119.434,273.814,119.434z
			 M285.46,119.434c-2.401,0-4.346-1.827-4.346-4.088c0-2.261,1.939-4.089,4.346-4.089c2.311,0,4.343,1.826,4.343,4.089
			C289.801,117.608,287.771,119.434,285.46,119.434z"/>
		<path fill="#D73216" d="M287.128,148.655h7.301v-17.047h-94.451v17.047H287.128z M245.446,144.569h-40.757v-8.873h40.757V144.569z
			 M262.172,144.22c-2.4,0-4.435-1.826-4.435-4.089c0-2.26,2.034-4.089,4.435-4.089c2.402,0,4.252,1.827,4.252,4.089
			C266.424,142.394,264.576,144.22,262.172,144.22z M273.819,144.22c-2.401,0-4.435-1.826-4.435-4.089
			c0-2.26,2.033-4.089,4.435-4.089s4.252,1.827,4.252,4.089C278.071,142.394,276.224,144.22,273.819,144.22z M281.12,140.131
			c0-2.26,1.939-4.089,4.345-4.089c2.311,0,4.345,1.827,4.345,4.089c0,2.26-2.034,4.089-4.345,4.089
			C283.06,144.22,281.12,142.394,281.12,140.131z"/>
		<path fill="#D73216" d="M199.973,156.481v17.047h62.939c-0.371-1.478-0.462-3.045-0.371-4.523
			c-0.093,0.089-0.277,0.089-0.372,0.089c-2.399,0-4.434-1.826-4.434-4.089c0-2.26,2.034-4.089,4.434-4.089
			c0.739,0,1.481,0.173,2.035,0.607c0.831-1.738,1.846-3.479,3.236-5.044h-67.47L199.973,156.481z M245.444,169.44h-40.757v-8.872
			h40.757V169.44z"/>
		<path fill="#D73216" d="M269.378,189.785c0-1.303,0.738-2.52,1.758-3.218l-2.125-2c-1.108-1.043-2.033-2.086-2.864-3.305h-66.174
			v17.046h83.549l-6.374-6.087c-0.648,1.043-1.849,1.653-3.325,1.653c-2.406,0-4.44-1.826-4.44-4.089H269.378z M245.442,194.22
			h-40.758v-8.873h40.758V194.22z M262.167,193.875c-2.401,0-4.436-1.826-4.436-4.089c0-2.259,2.034-4.088,4.436-4.088
			c2.403,0,4.252,1.826,4.252,4.088C266.419,192.048,264.573,193.875,262.167,193.875z"/>
		<path fill="#D73216" d="M294.423,208.577v-2.436h-94.45v17.047h94.45V208.577z M245.442,219.102h-40.758v-8.872h40.758V219.102z
			 M262.167,218.753c-2.402,0-4.437-1.826-4.437-4.088c0-2.26,2.034-4.088,4.437-4.088c2.401,0,4.252,1.825,4.252,4.088
			C266.419,216.928,264.572,218.753,262.167,218.753z M273.814,218.753c-2.402,0-4.437-1.826-4.437-4.088
			c0-2.26,2.034-4.088,4.437-4.088c2.4,0,4.251,1.825,4.251,4.088C278.065,216.928,276.219,218.753,273.814,218.753z
			 M285.46,218.753c-2.401,0-4.346-1.826-4.346-4.088c0-2.26,1.939-4.088,4.346-4.088c2.311,0,4.343,1.825,4.343,4.088
			C289.801,216.928,287.771,218.753,285.46,218.753z"/>
		<path fill="#D73216" d="M294.423,245.793h-94.45v17.048h94.45V245.793z M245.442,258.753h-40.758v-8.872h40.758V258.753z
			 M262.167,258.403c-2.402,0-4.437-1.826-4.437-4.087c0-2.262,2.034-4.091,4.437-4.091c2.401,0,4.252,1.827,4.252,4.091
			C266.419,256.577,264.572,258.403,262.167,258.403z M273.814,258.403c-2.402,0-4.437-1.826-4.437-4.087
			c0-2.262,2.034-4.091,4.437-4.091c2.4,0,4.251,1.827,4.251,4.091C278.065,256.577,276.219,258.403,273.814,258.403z
			 M285.46,258.403c-2.401,0-4.346-1.826-4.346-4.087c0-2.262,1.939-4.091,4.346-4.091c2.311,0,4.343,1.827,4.343,4.091
			C289.801,256.577,287.771,258.403,285.46,258.403z"/>
		<path fill="#D73216" d="M199.973,289.459h94.45v-17.05h-94.45V289.459z M285.462,276.849c2.311,0,4.344,1.823,4.344,4.087
			c0,2.262-2.033,4.091-4.344,4.091c-2.402,0-4.346-1.827-4.346-4.091S283.058,276.849,285.462,276.849z M273.817,276.849
			c2.399,0,4.252,1.823,4.252,4.087c0,2.262-1.849,4.091-4.252,4.091c-2.402,0-4.437-1.827-4.437-4.091
			S271.414,276.849,273.817,276.849z M262.169,276.849c2.401,0,4.253,1.823,4.253,4.087c0,2.262-1.848,4.091-4.253,4.091
			c-2.4,0-4.434-1.827-4.434-4.091S259.769,276.849,262.169,276.849z M204.686,276.499h40.757v8.871h-40.757V276.499z"/>
	</g>
	<path display="inline" fill="#EE2424" d="M405.493,4.491h-88.855c-5.893,0-11.543,2.34-15.708,6.506
		c-4.167,4.166-6.507,9.816-6.507,15.709v59.238v-0.002c0,5.893,2.34,11.543,6.507,15.709c4.165,4.165,9.815,6.506,15.708,6.506
		h88.855c5.893,0,11.543-2.341,15.707-6.506c4.168-4.166,6.508-9.816,6.508-15.709V26.708c0-5.893-2.34-11.543-6.508-15.709
		c-4.164-4.166-9.814-6.506-15.707-6.506V4.491z M338.851,26.706c2.947,0,5.772,1.17,7.855,3.252
		c2.082,2.083,3.252,4.908,3.252,7.854c0,2.945-1.17,5.771-3.252,7.853c-2.083,2.084-4.908,3.254-7.855,3.254
		c-2.945,0-5.77-1.17-7.853-3.254c-2.083-2.082-3.254-4.907-3.254-7.853c0-2.946,1.171-5.772,3.254-7.854
		S335.906,26.706,338.851,26.706L338.851,26.706z M361.066,78.538c0,1.963-0.779,3.848-2.17,5.236
		c-1.388,1.388-3.271,2.168-5.234,2.168h-29.619c-1.965,0-3.848-0.78-5.235-2.168c-1.39-1.389-2.169-3.273-2.169-5.236v-7.404
		c0-3.93,1.561-7.695,4.337-10.473c2.778-2.777,6.544-4.338,10.472-4.338h14.811h-0.002c3.93,0,7.695,1.561,10.473,4.338
		s4.338,6.543,4.338,10.473V78.538z M409.198,63.727h-29.62c-2.044,0-3.701-1.657-3.701-3.701c0-2.046,1.657-3.703,3.701-3.703
		h29.62c2.044,0,3.702,1.657,3.702,3.703C412.9,62.07,411.241,63.727,409.198,63.727z M409.198,48.917h-29.618l-0.002,0.001
		c-2.044,0-3.701-1.658-3.701-3.703c0-2.044,1.657-3.703,3.701-3.703h29.62c2.044,0,3.702,1.659,3.702,3.703
		C412.9,47.26,411.241,48.918,409.198,48.917L409.198,48.917z M409.198,34.108h-29.618h-0.002c-2.044,0-3.701-1.656-3.701-3.702
		c0-2.044,1.657-3.702,3.701-3.702h29.62c2.044,0,3.702,1.658,3.702,3.702C412.9,32.452,411.241,34.108,409.198,34.108
		L409.198,34.108z"/>
	<g display="inline">
		<path fill="#EE2424" d="M100.951,310.471c0-7.381-6.033-13.386-13.449-13.386s-13.449,6.005-13.449,13.386
			c0,7.382,6.033,13.386,13.449,13.386S100.951,317.853,100.951,310.471z M78.278,310.471c0-5.052,4.138-9.161,9.225-9.161
			c5.086,0,9.225,4.109,9.225,9.161c0,5.054-4.138,9.161-9.225,9.161C82.415,319.632,78.278,315.522,78.278,310.471z"/>
		<path fill="#EE2424" d="M137.762,317.882h-0.04c-3.572,0-6.926,1.389-9.446,3.908c-2.53,2.528-3.918,5.898-3.908,9.484
			c0.009,3.58,1.413,6.952,3.952,9.49c2.539,2.539,5.909,3.943,9.492,3.953h0.038c3.572,0,6.926-1.387,9.445-3.908
			c2.53-2.528,3.919-5.898,3.908-9.485c-0.011-3.581-1.415-6.952-3.952-9.491C144.714,319.297,141.344,317.893,137.762,317.882
			L137.762,317.882z M144.311,337.824c-1.73,1.729-4.042,2.682-6.485,2.67c-2.457-0.006-4.771-0.972-6.515-2.714
			c-1.745-1.745-2.708-4.059-2.714-6.516c-0.007-2.453,0.94-4.756,2.67-6.484c1.723-1.723,4.016-2.67,6.458-2.67h0.025
			c2.458,0.007,4.772,0.971,6.516,2.714c1.743,1.745,2.709,4.058,2.715,6.516C146.988,333.792,146.039,336.095,144.311,337.824
			L144.311,337.824z"/>
		<path fill="#EE2424" d="M172.004,381.586c0-7.417-6.005-13.449-13.386-13.449c-7.382,0-13.387,6.032-13.387,13.449
			s6.005,13.45,13.388,13.45C165.999,395.036,172.004,389.003,172.004,381.586L172.004,381.586z M149.456,381.586
			c0-5.087,4.11-9.225,9.161-9.225c5.052,0,9.161,4.138,9.161,9.225s-4.109,9.226-9.161,9.226
			C153.567,390.812,149.456,386.673,149.456,381.586z"/>
		<path fill="#EE2424" d="M137.724,445.29h0.04c3.581-0.01,6.953-1.414,9.491-3.952c2.539-2.539,3.942-5.909,3.953-9.491
			c0.01-3.586-1.378-6.955-3.908-9.486c-2.529-2.527-5.821-3.925-9.484-3.906c-3.581,0.008-6.952,1.412-9.491,3.951
			s-3.943,5.909-3.952,9.492c-0.01,3.584,1.378,6.953,3.908,9.483C130.798,443.902,134.152,445.29,137.724,445.29L137.724,445.29z
			 M131.311,425.394c1.745-1.744,4.059-2.708,6.515-2.714h0.026c2.443,0,4.736,0.947,6.459,2.67c1.729,1.729,2.677,4.032,2.67,6.485
			c-0.008,2.458-0.972,4.771-2.715,6.516c-1.744,1.744-4.058,2.709-6.516,2.715h-0.025c-2.443,0-4.736-0.947-6.458-2.67
			c-1.729-1.729-2.677-4.032-2.67-6.485C128.603,429.452,129.567,427.139,131.311,425.394L131.311,425.394z"/>
		<path fill="#EE2424" d="M74.054,452.702c0,7.382,6.033,13.387,13.449,13.387s13.449-6.005,13.449-13.387
			c0-7.38-6.033-13.385-13.449-13.385S74.054,445.322,74.054,452.702z M96.728,452.702c0,5.053-4.138,9.162-9.225,9.162
			c-5.087,0-9.225-4.109-9.225-9.162s4.138-9.16,9.225-9.16C92.59,443.542,96.728,447.651,96.728,452.702z"/>
		<path fill="#EE2424" d="M37.243,445.29h0.04c3.572,0,6.926-1.388,9.446-3.908c2.53-2.528,3.918-5.898,3.908-9.483
			c-0.009-3.581-1.413-6.952-3.953-9.491c-2.539-2.539-5.909-3.943-9.491-3.952c-3.494,0.034-6.954,1.378-9.484,3.907
			c-2.53,2.529-3.918,5.899-3.908,9.486c0.01,3.58,1.415,6.952,3.953,9.491C30.291,443.876,33.661,445.28,37.243,445.29
			L37.243,445.29z M30.695,425.349c1.723-1.723,4.016-2.67,6.459-2.67h0.026c2.457,0.006,4.771,0.971,6.515,2.714
			c1.745,1.745,2.708,4.058,2.714,6.515c0.007,2.454-0.94,4.757-2.67,6.485c-1.723,1.723-4.016,2.67-6.459,2.67h-0.025
			c-2.458-0.007-4.771-0.972-6.516-2.714c-1.743-1.745-2.708-4.059-2.714-6.516C28.018,429.38,28.967,427.077,30.695,425.349
			L30.695,425.349z"/>
		<path fill="#EE2424" d="M16.386,395.034c7.381,0,13.388-6.032,13.388-13.449c0-7.416-6.005-13.449-13.388-13.449
			C9.005,368.136,3,374.169,3,381.585C3,389.002,9.005,395.034,16.386,395.034L16.386,395.034z M16.386,372.36
			c5.053,0,9.161,4.139,9.161,9.225c0,5.087-4.11,9.225-9.161,9.225s-9.161-4.138-9.161-9.225
			C7.225,376.499,11.335,372.36,16.386,372.36L16.386,372.36z"/>
		<path fill="#EE2424" d="M37.153,344.719h0.039c3.581-0.009,6.953-1.413,9.491-3.952c2.539-2.539,3.943-5.909,3.953-9.492
			c0.01-3.584-1.378-6.953-3.908-9.483c-2.52-2.521-5.874-3.907-9.445-3.907h-0.04c-3.581,0.01-6.952,1.414-9.491,3.951
			c-2.539,2.539-3.941,5.91-3.952,9.492c-0.01,3.586,1.378,6.955,3.908,9.485C30.229,343.333,33.581,344.719,37.153,344.719
			L37.153,344.719z M30.738,324.822c1.745-1.743,4.059-2.708,6.517-2.714h0.025c2.443,0,4.736,0.947,6.458,2.67
			c1.729,1.729,2.676,4.031,2.67,6.484c-0.006,2.457-0.971,4.771-2.714,6.516c-1.745,1.744-4.058,2.709-6.515,2.715h-0.026
			c-2.443,0-4.736-0.948-6.459-2.671c-1.729-1.728-2.677-4.032-2.67-6.485C28.03,328.881,28.995,326.567,30.738,324.822
			L30.738,324.822z"/>
		<path fill="#EE2424" d="M52.91,321.553c0.349,0,0.701-0.085,1.027-0.269c4.382-2.445,9.042-4.41,13.849-5.842
			c1.119-0.334,1.755-1.51,1.422-2.628c-0.333-1.122-1.514-1.752-2.627-1.422c-5.104,1.519-10.051,3.606-14.704,6.204
			c-1.02,0.568-1.384,1.854-0.815,2.873C51.449,321.163,52.169,321.553,52.91,321.553L52.91,321.553z"/>
		<path fill="#EE2424" d="M120.145,320.794c0.32,0.174,0.665,0.256,1.004,0.256c0.751,0,1.478-0.401,1.859-1.107
			c0.556-1.025,0.174-2.309-0.852-2.863c-4.678-2.533-9.652-4.553-14.782-6.011c-1.123-0.315-2.29,0.335-2.608,1.456
			c-0.318,1.123,0.333,2.29,1.456,2.608C111.053,316.505,115.739,318.41,120.145,320.794L120.145,320.794z"/>
		<path fill="#EE2424" d="M148.355,344.885c-1.02,0.569-1.384,1.854-0.814,2.874c2.446,4.382,4.41,9.041,5.843,13.848
			c0.272,0.918,1.114,1.511,2.023,1.511c0.2,0,0.402-0.029,0.603-0.089c1.118-0.332,1.755-1.508,1.422-2.627
			c-1.52-5.104-3.607-10.051-6.204-14.703C150.661,344.679,149.373,344.314,148.355,344.885L148.355,344.885z"/>
		<path fill="#EE2424" d="M151.746,415.976c2.533-4.681,4.555-9.654,6.011-14.782c0.318-1.123-0.333-2.29-1.456-2.608
			c-1.12-0.318-2.288,0.334-2.608,1.456c-1.371,4.831-3.276,9.515-5.661,13.924c-0.556,1.026-0.174,2.31,0.852,2.863
			c0.32,0.174,0.665,0.255,1.004,0.255C150.637,417.081,151.365,416.681,151.746,415.976L151.746,415.976z"/>
		<path fill="#EE2424" d="M121.07,441.359c-4.383,2.446-9.042,4.41-13.849,5.843c-1.118,0.333-1.755,1.51-1.422,2.627
			c0.272,0.918,1.114,1.512,2.023,1.512c0.2,0,0.402-0.03,0.603-0.089c5.104-1.52,10.052-3.607,14.704-6.204
			c1.02-0.568,1.384-1.855,0.815-2.873C123.374,441.155,122.09,440.79,121.07,441.359L121.07,441.359z"/>
		<path fill="#EE2424" d="M54.861,441.851c-1.026-0.555-2.308-0.175-2.863,0.852c-0.556,1.025-0.174,2.309,0.852,2.863
			c4.68,2.532,9.654,4.555,14.782,6.01c0.193,0.055,0.388,0.082,0.578,0.082c0.921,0,1.767-0.607,2.031-1.537
			c0.318-1.123-0.333-2.291-1.456-2.609C63.952,446.142,59.268,444.235,54.861,441.851L54.861,441.851z"/>
		<path fill="#EE2424" d="M26.651,417.759c1.02-0.568,1.384-1.854,0.815-2.873c-2.446-4.382-4.41-9.042-5.843-13.849
			c-0.334-1.12-1.515-1.758-2.627-1.422c-1.119,0.333-1.755,1.509-1.422,2.628c1.52,5.104,3.607,10.051,6.204,14.703
			c0.388,0.692,1.105,1.083,1.846,1.083C25.971,418.028,26.323,417.942,26.651,417.759L26.651,417.759z"/>
		<path fill="#EE2424" d="M23.26,346.669c-2.533,4.68-4.555,9.653-6.011,14.781c-0.318,1.123,0.333,2.291,1.456,2.609
			c0.193,0.054,0.387,0.08,0.578,0.08c0.921,0,1.767-0.607,2.03-1.537c1.372-4.83,3.277-9.515,5.662-13.924
			c0.556-1.025,0.174-2.309-0.852-2.863C25.096,345.259,23.813,345.644,23.26,346.669L23.26,346.669z"/>
		<path fill="#EE2424" d="M87.503,338.075c-23.992,0-43.511,19.518-43.511,43.511s19.517,43.511,43.511,43.511
			c11.678,0,22.274-4.648,30.097-12.164c0.128-0.1,0.249-0.196,0.35-0.318c8.05-7.9,13.062-18.885,13.062-31.026
			c0-23.991-19.517-43.511-43.51-43.511L87.503,338.075z M87.503,342.3c21.662,0,39.285,17.623,39.285,39.286
			c0,9.974-3.767,19.061-9.911,25.997c-5.813-10.709-17.013-17.481-29.373-17.481c-12.323,0-23.561,6.777-29.377,17.476
			c-6.142-6.936-9.907-16.021-9.907-25.991c0-21.661,17.623-39.286,39.286-39.286H87.503z M61.26,410.731
			c4.885-9.998,15.047-16.407,26.243-16.407c11.229,0,21.359,6.396,26.246,16.405c-6.966,6.279-16.152,10.139-26.246,10.139
			C77.41,420.868,68.224,417.009,61.26,410.731z"/>
		<path fill="#EE2424" d="M87.503,383.698c9.202,0,16.688-7.486,16.688-16.688c0-9.203-7.485-16.689-16.688-16.689
			c-9.203,0-16.688,7.486-16.688,16.688C70.815,376.212,78.301,383.698,87.503,383.698z M87.503,354.546
			c6.873,0,12.463,5.59,12.463,12.463s-5.591,12.464-12.463,12.464c-6.874,0-12.464-5.591-12.464-12.464
			S80.63,354.546,87.503,354.546z"/>
	</g>
</g>
<g>
	<path fill="#EE2424" d="M50.94,376.691v-35h8.75v-17.5h-35v17.5h8.75v35H50.94z"/>
	<path fill="#EE2424" d="M50.94,446.691h17.5v17.5h-17.5V446.691z"/>
	<path fill="#EE2424" d="M82.06,298.271c2.551-5.598,3.875-11.68,3.879-17.832c0-15.629-8.34-30.074-21.875-37.887
		c-13.535-7.816-30.216-7.816-43.75,0c-13.535,7.813-21.875,22.258-21.875,37.887c0.004,6.152,1.328,12.234,3.879,17.832
		c-8.352,1.191-15.996,5.348-21.527,11.715c-5.535,6.367-8.59,14.516-8.602,22.953v52.5c0,3.313,1.871,6.344,4.836,7.828
		l12.664,6.332v82.09c0,2.32,0.922,4.547,2.563,6.188s3.867,2.563,6.188,2.563h87.5c2.32,0,4.547-0.922,6.188-2.563
		s2.563-3.867,2.563-6.188V399.6l12.664-6.332c2.965-1.484,4.836-4.516,4.836-7.828v-52.5c-0.012-8.438-3.066-16.586-8.602-22.953
		C98.056,303.619,90.41,299.463,82.06,298.271L82.06,298.271z M94.689,380.029l-12.664,6.332c-2.965,1.484-4.836,4.516-4.836,7.828
		v78.75h-70v-78.75c0-3.313-1.871-6.344-4.836-7.828l-12.664-6.332v-47.09c0.008-4.641,1.852-9.086,5.133-12.367
		s7.727-5.125,12.367-5.133h12.073c3.648,0,6.915-2.258,8.195-5.672c1.281-3.414,0.309-7.266-2.438-9.668
		c-5.758-4.906-9.078-12.094-9.082-19.66c0-9.379,5.004-18.043,13.125-22.733c8.121-4.688,18.13-4.688,26.25,0
		c8.121,4.691,13.125,13.354,13.125,22.733c-0.004,7.566-3.323,14.754-9.081,19.66c-2.746,2.402-3.72,6.254-2.438,9.668
		c1.281,3.414,4.547,5.672,8.195,5.672h12.073c4.641,0.008,9.086,1.852,12.367,5.133s5.125,7.727,5.133,12.367L94.689,380.029z"/>
	<path fill="#EE2424" d="M234.69,332.941c-13.926,0-27.277,5.531-37.125,15.375c-9.844,9.848-15.375,23.199-15.375,37.125
		s5.531,27.277,15.375,37.125c9.848,9.844,23.199,15.375,37.125,15.375s27.276-5.531,37.125-15.375
		c9.844-9.848,15.375-23.199,15.375-37.125c-0.016-13.918-5.552-27.266-15.396-37.105
		C261.954,338.492,248.607,332.957,234.69,332.941z M234.69,420.441c-9.281,0-18.185-3.688-24.75-10.25
		c-6.563-6.566-10.25-15.469-10.25-24.75s3.688-18.184,10.25-24.75c6.566-6.563,15.469-10.25,24.75-10.25
		c9.28,0,18.184,3.688,24.75,10.25c6.563,6.566,10.25,15.469,10.25,24.75c-0.008,9.281-3.699,18.176-10.263,24.738
		C252.865,416.741,243.97,420.434,234.69,420.441z"/>
	<path fill="#EE2424" d="M333.69,361.052l-16.781-5.555c-0.879-2.402-1.871-4.777-2.957-7.102l7.066-14.875
		c1.363-2.867,1.066-6.246-0.777-8.828c-6.82-9.598-15.203-17.98-24.797-24.806c-2.586-1.84-5.961-2.137-8.828-0.777l-14.887,7.066
		c-2.324-1.086-4.699-2.078-7.102-2.957l-5.555-16.78l0.004-0.004c-1.188-3.578-4.531-5.996-8.305-5.996h-32.164
		c-3.773,0-7.121,2.418-8.305,6l-5.555,16.78c-2.402,0.879-4.777,1.871-7.102,2.957l-14.875-7.066
		c-2.867-1.352-6.242-1.055-8.828,0.777c-9.598,6.82-17.98,15.203-24.806,24.797c-1.84,2.586-2.137,5.961-0.777,8.828l7.066,14.888
		c-1.086,2.324-2.078,4.699-2.957,7.102l-16.78,5.555l-0.004-0.004c-3.578,1.188-5.996,4.531-5.996,8.305v32.164
		c0,3.773,2.418,7.121,6,8.305l16.78,5.555c0.879,2.402,1.871,4.777,2.957,7.102l-7.066,14.875
		c-1.363,2.867-1.066,6.246,0.777,8.828c6.82,9.598,15.203,17.979,24.797,24.805c2.582,1.844,5.961,2.141,8.828,0.777l14.888-7.066
		c2.324,1.086,4.699,2.078,7.102,2.957l5.555,16.781l-0.004,0.004c1.188,3.578,4.531,5.996,8.305,5.996h32.164
		c3.773,0,7.121-2.418,8.305-6l5.555-16.781c2.402-0.879,4.777-1.871,7.102-2.957l14.875,7.066c2.867,1.363,6.246,1.063,8.827-0.777
		c9.599-6.82,17.98-15.203,24.806-24.797c1.84-2.586,2.137-5.961,0.777-8.828l-7.066-14.887c1.086-2.324,2.078-4.699,2.957-7.102
		l16.781-5.555l0.004,0.004c3.577-1.188,5.996-4.531,5.996-8.305v-32.164C339.69,365.583,337.271,362.235,333.69,361.052
		L333.69,361.052z M322.19,395.196l-14.938,4.949c-2.691,0.891-4.785,3.035-5.613,5.75c-1.316,4.281-3.039,8.426-5.145,12.379
		c-1.297,2.445-1.363,5.363-0.18,7.863l6.621,13.938h0.004c-4.027,5.02-8.594,9.586-13.613,13.608l-13.938-6.621
		c-2.5-1.195-5.418-1.129-7.859,0.18c-3.957,2.105-8.102,3.828-12.383,5.145c-2.715,0.828-4.859,2.922-5.75,5.613l-4.949,14.938
		H224.93l-4.949-14.938c-0.891-2.691-3.035-4.785-5.75-5.613c-4.28-1.316-8.426-3.039-12.379-5.145
		c-2.445-1.309-5.363-1.375-7.863-0.18l-13.938,6.621v0.004c-5.02-4.027-9.586-8.594-13.609-13.612l6.621-13.938
		c1.188-2.5,1.121-5.418-0.18-7.859c-2.105-3.957-3.828-8.102-5.145-12.383c-0.828-2.715-2.918-4.859-5.613-5.75l-14.938-4.949
		v-19.516l14.938-4.949c2.691-0.891,4.785-3.035,5.613-5.75c1.316-4.281,3.039-8.426,5.145-12.38
		c1.297-2.445,1.363-5.363,0.18-7.863l-6.621-13.938h-0.004c4.027-5.02,8.594-9.586,13.613-13.609l13.938,6.621
		c2.5,1.184,5.414,1.117,7.859-0.18c3.957-2.105,8.103-3.828,12.384-5.145c2.715-0.828,4.859-2.918,5.75-5.613l4.949-14.938h19.516
		l4.949,14.938c0.891,2.691,3.035,4.785,5.75,5.613c4.281,1.316,8.426,3.039,12.379,5.145c2.449,1.293,5.359,1.359,7.863,0.18
		l13.938-6.621v-0.004c5.02,4.027,9.586,8.594,13.609,13.613l-6.621,13.938c-1.184,2.5-1.117,5.418,0.18,7.859
		c2.105,3.957,3.828,8.102,5.145,12.383c0.828,2.715,2.922,4.859,5.613,5.75l14.938,4.949V395.196z"/>
	<path fill="#EE2424" d="M252.19,175.441h17.5c4.832,0,8.75,3.918,8.75,8.75s-3.918,8.75-8.75,8.75h-35v17.5h17.5v8.75h17.5v-8.75
		c9.379,0,18.043-5.004,22.733-13.125c4.688-8.121,4.688-18.129,0-26.25c-4.691-8.121-13.354-13.125-22.733-13.125h-17.5
		c-4.832,0-8.75-3.918-8.75-8.75s3.918-8.75,8.75-8.75h35v-17.5h-17.5v-8.75h-17.5v8.75c-9.379,0-18.043,5.004-22.734,13.125
		c-4.688,8.121-4.688,18.129,0,26.25C234.147,170.438,242.811,175.441,252.19,175.441z"/>
	<path fill="#EE2424" d="M488.44-34.559h-192.5c-2.32,0-4.548,0.922-6.188,2.563c-1.641,1.641-2.563,3.867-2.563,6.188v105H138.44
		c-2.32,0-4.547,0.922-6.188,2.563s-2.563,3.867-2.563,6.188v157.5c0,2.32,0.922,4.547,2.563,6.188s3.867,2.563,6.188,2.563h350
		c2.32,0,4.547-0.922,6.188-2.563s2.563-3.867,2.563-6.188v-271.25c0-2.32-0.922-4.547-2.563-6.188S490.76-34.559,488.44-34.559z
		 M147.19,96.691h34.117c-1.734,8.398-5.887,16.105-11.949,22.168s-13.771,10.215-22.168,11.949V96.691z M147.19,236.691v-34.117
		c8.398,1.734,16.104,5.887,22.168,11.949c6.063,6.063,10.215,13.77,11.949,22.168H147.19z M374.69,236.691h-34.117
		c1.734-8.398,5.887-16.105,11.948-22.168c6.063-6.063,13.771-10.215,22.169-11.949V236.691z M374.69,184.891
		c-13.063,1.906-25.156,7.977-34.492,17.309c-9.332,9.336-15.402,21.43-17.31,34.492H198.989
		c-1.906-13.062-7.977-25.156-17.309-34.492c-9.336-9.332-21.431-15.402-34.492-17.309v-36.398
		c13.062-1.906,25.155-7.977,34.492-17.309c9.331-9.336,15.401-21.43,17.309-34.492h123.899c1.906,13.062,7.977,25.156,17.31,34.492
		c9.336,9.332,21.43,15.402,34.492,17.309V184.891z M374.69,130.809c-8.398-1.734-16.105-5.887-22.169-11.949
		c-6.063-6.063-10.215-13.77-11.948-22.168h34.117V130.809z M409.69,236.688h-17.5v-52.5h17.5V236.688z M479.69,236.688h-52.5
		v-61.25c0-2.32-0.922-4.547-2.563-6.188s-3.867-2.563-6.188-2.563h-26.25v-78.75c0-2.32-0.922-4.547-2.563-6.188
		s-3.867-2.563-6.188-2.563h-78.75v-96.25h175V236.688z"/>
	<path fill="#EE2424" d="M409.69,0.441h17.5v17.5h-17.5V0.441z"/>
	<path fill="#EE2424" d="M357.19,0.441h17.5v17.5h-17.5V0.441z"/>
	<path fill="#EE2424" d="M322.19,0.441h17.5v17.5h-17.5V0.441z"/>
	<path fill="#EE2424" d="M444.69,0.441h17.5v17.5h-17.5V0.441z"/>
	<path fill="#EE2424" d="M409.69,44.191h17.5v17.5h-17.5V44.191z"/>
	<path fill="#EE2424" d="M444.69,44.191h17.5v17.5h-17.5V44.191z"/>
	<path fill="#EE2424" d="M322.19,44.191h17.5v17.5h-17.5V44.191z"/>
	<path fill="#EE2424" d="M357.19,44.191h17.5v17.5h-17.5V44.191z"/>
	<path fill="#EE2424" d="M409.69,87.941h17.5v17.5h-17.5V87.941z"/>
	<path fill="#EE2424" d="M444.69,87.941h17.5v17.5h-17.5V87.941z"/>
	<path fill="#EE2424" d="M444.69,131.691h17.5v17.5h-17.5V131.691z"/>
	<path fill="#EE2424" d="M409.69,131.691h17.5v17.5h-17.5V131.691z"/>
	<path fill="#EE2424" d="M453.44,271.691h17.5v17.5h-17.5V271.691z"/>
	<path fill="#EE2424" d="M453.44,306.691h17.5v17.5h-17.5V306.691z"/>
	<path fill="#EE2424" d="M453.44,341.691h17.5v17.5h-17.5V341.691z"/>
	<path fill="#EE2424" d="M453.44,376.691h17.5v17.5h-17.5V376.691z"/>
	<path fill="#EE2424" d="M453.44,411.691h17.5v17.5h-17.5V411.691z"/>
	<path fill="#EE2424" d="M418.44,411.691h17.5v17.5h-17.5V411.691z"/>
	<path fill="#EE2424" d="M383.44,411.691h17.5v17.5h-17.5V411.691z"/>
	<path fill="#EE2424" d="M398.379,391.632l-12.375-12.375l-35,35c-1.641,1.641-2.563,3.867-2.563,6.188s0.922,4.547,2.563,6.188
		l35,35l12.375-12.375l-28.816-28.813L398.379,391.632z"/>
	<path fill="#EE2424" d="M-19.06,149.191h17.5v17.5h-17.5V149.191z"/>
	<path fill="#EE2424" d="M-19.06,114.191h17.5v17.5h-17.5V114.191z"/>
	<path fill="#EE2424" d="M-19.06,79.191h17.5v17.5h-17.5V79.191z"/>
	<path fill="#EE2424" d="M-19.06,44.191h17.5v17.5h-17.5V44.191z"/>
	<path fill="#EE2424" d="M15.94,44.191h17.5v17.5h-17.5V44.191z"/>
	<path fill="#EE2424" d="M50.94,44.191h17.5v17.5h-17.5V44.191z"/>
	<path fill="#EE2424" d="M74.629,11.753L62.254,24.128L91.071,52.94L62.258,81.752l12.371,12.375l35-35
		c1.641-1.641,2.563-3.867,2.563-6.188s-0.922-4.547-2.563-6.188L74.629,11.753z"/>
	<path fill="#EE2424" d="M34.499,191.881h17.5v26.25h-17.5V191.881z"/>
	<path fill="#EE2424" d="M79.749,230.501l18.56-18.559l12.375,12.375l-18.56,18.56L79.749,230.501z"/>
	<path fill="#EE2424" d="M-25.249,224.321l12.375-12.375l18.56,18.559l-12.375,12.375L-25.249,224.321z"/>
</g>
</svg>
