<svg height="480pt" viewBox="-24 0 480 480" width="480pt" xmlns="http://www.w3.org/2000/svg"><path d="m392 120h-8v120l-48-48v104c0 8.835938-7.164062 16-16 16h-208c-8.835938 0-16-7.164062-16-16v-32l-48 48v-120c0-17.671875 14.328125-32 32-32h16v-40h-56c-17.671875 0-32 14.328125-32 32v208c0 17.671875 14.328125 32 32 32h352c17.671875 0 32-14.328125 32-32v-208c0-17.671875-14.328125-32-32-32zm0 0" fill="#a8dba8"/><path d="m128 160v-152h-16c-8.835938 0-16 7.164062-16 16v136zm0 0" fill="#cff09e"/><path d="m136 280c-4.417969 0-8-3.582031-8-8v-8h-32v32c0 8.835938 7.164062 16 16 16h208c8.835938 0 16-7.164062 16-16v-16zm0 0" fill="#cff09e"/><path d="m112 8h208c8.835938 0 16 7.164062 16 16v32h-240v-32c0-8.835938 7.164062-16 16-16zm0 0" fill="#a8dba8"/><path d="m112 8h32v48h-48v-32c0-8.835938 7.164062-16 16-16zm0 0" fill="#79bd9a"/><path d="m264 192c-17.671875 0-32-14.328125-32-32v-40h-56c-17.671875 0-32 14.328125-32 32v8h16c17.671875 0 32 14.328125 32 32v40h64c17.671875 0 32-14.328125 32-32v-8zm0 0" fill="#79bd9a"/><path d="m160 240h-64l-24 24v-96h-24v144l48-48h64c17.671875 0 32-14.328125 32-32v-24c0 17.671875-14.328125 32-32 32zm0 0" fill="#cff09e"/><path d="m8 344h416v16c0 17.671875-14.328125 32-32 32h-352c-17.671875 0-32-14.328125-32-32zm0 0" fill="#79bd9a"/><path d="m144 440h144c17.671875 0 32 14.328125 32 32h-208c0-17.671875 14.328125-32 32-32zm0 0" fill="#79bd9a"/><path d="m280 440h-128l16-48h96zm0 0" fill="#79bd9a"/><path d="m264.289062 168c-4.578124 0-8.289062-3.710938-8.289062-8.289062v-63.710938c.015625-2.402344.308594-4.796875.863281-7.136719-14.527343 3.324219-24.835937 16.234375-24.863281 31.136719v40c0 17.671875 14.328125 32 32 32h72l48 48v-48l-24-24zm0 0" fill="#cff09e"/><g fill="#3b8686"><path d="m392 112h-.800781c-3.828125-18.613281-20.199219-31.976562-39.199219-32h-8v-56c0-13.253906-10.746094-24-24-24h-208c-13.253906 0-24 10.746094-24 24v88h-48c-22.082031.027344-39.9726562 17.917969-40 40v208c.0273438 22.082031 17.917969 39.972656 40 40h116.902344l-10.664063 32h-2.238281c-22.082031.027344-39.972656 17.917969-40 40 0 4.417969 3.582031 8 8 8h208c4.417969 0 8-3.582031 8-8-.027344-22.082031-17.917969-39.972656-40-40h-2.238281l-10.664063-32h116.902344c22.082031-.027344 39.972656-17.917969 40-40v-208c-.027344-22.082031-17.917969-39.972656-40-40zm-16 8v100.6875l-34.335938-34.335938c-.738281-.742187-1.617187-1.332031-2.585937-1.726562-.972656-.414062-2.019531-.625-3.078125-.625h-72c-13.253906 0-24-10.746094-24-24v-40c0-13.253906 10.746094-24 24-24h88c13.253906 0 24 10.746094 24 24zm-232 48h16c13.253906 0 24 10.746094 24 24v40c0 13.253906-10.746094 24-24 24h-64c-1.058594 0-2.105469.210938-3.078125.625-.96875.394531-1.847656.984375-2.585937 1.726562l-34.335938 34.335938v-100.6875c0-13.253906 10.746094-24 24-24zm80-24h-16c-4.417969 0-8 3.582031-8 8s3.582031 8 8 8h16c.027344 22.082031 17.917969 39.972656 40 40h16c0 13.253906-10.746094 24-24 24h-56v-16h16c4.417969 0 8-3.582031 8-8s-3.582031-8-8-8h-16c-.027344-22.082031-17.917969-39.972656-40-40h-8c0-13.253906 10.746094-24 24-24h48zm-120 128h56c19-.023438 35.371094-13.386719 39.199219-32h56.800781c22.082031-.027344 39.972656-17.917969 40-40h32v64h-72c-4.417969 0-8 3.582031-8 8s3.582031 8 8 8h72v16c0 4.417969-3.582031 8-8 8h-208c-4.417969 0-8-3.582031-8-8zm160-192c-19 .023438-35.371094 13.386719-39.199219 32h-48.800781c-22.082031.027344-39.972656 17.917969-40 40h-32v-56h64c4.417969 0 8-3.582031 8-8s-3.582031-8-8-8h-64v-16h224v16zm64-56v24h-176v-32h168c4.417969 0 8 3.582031 8 8zm-224 0c0-4.417969 3.582031-8 8-8h24v32h-32zm-64 104h48v24h-8c-22.082031.027344-39.972656 17.917969-40 40v120c0 3.234375 1.949219 6.152344 4.9375 7.390625.96875.40625 2.011719.613281 3.0625.609375 2.121094 0 4.15625-.84375 5.65625-2.34375l34.34375-34.34375v12.6875c0 13.253906 10.746094 24 24 24h208c13.253906 0 24-10.746094 24-24v-84.6875l34.34375 34.34375c1.5 1.5 3.535156 2.34375 5.65625 2.34375 1.050781.003906 2.09375-.203125 3.0625-.609375 2.988281-1.238281 4.9375-4.15625 4.9375-7.390625v-112c13.253906 0 24 10.746094 24 24v184h-400v-184c0-13.253906 10.746094-24 24-24zm270.632812 336h-189.265624c3.402343-9.582031 12.464843-15.988281 22.632812-16h144c10.167969.011719 19.230469 6.417969 22.632812 16zm-41.738281-32h-105.789062l10.664062-32h84.460938zm147.105469-72c0 13.253906-10.746094 24-24 24h-352c-13.253906 0-24-10.746094-24-24v-8h400zm0 0"/><path d="m280 128h40c4.417969 0 8-3.582031 8-8s-3.582031-8-8-8h-40c-4.417969 0-8 3.582031-8 8s3.582031 8 8 8zm0 0"/><path d="m256 160c0 4.417969 3.582031 8 8 8h88c4.417969 0 8-3.582031 8-8s-3.582031-8-8-8h-88c-4.417969 0-8 3.582031-8 8zm0 0"/><path d="m72 192c0 4.417969 3.582031 8 8 8h48c4.417969 0 8-3.582031 8-8s-3.582031-8-8-8h-48c-4.417969 0-8 3.582031-8 8zm0 0"/><path d="m104 232c0 4.417969 3.582031 8 8 8h48c4.417969 0 8-3.582031 8-8s-3.582031-8-8-8h-48c-4.417969 0-8 3.582031-8 8zm0 0"/><path d="m208 280h16c4.417969 0 8-3.582031 8-8s-3.582031-8-8-8h-16c-4.417969 0-8 3.582031-8 8s3.582031 8 8 8zm0 0"/></g></svg>