<svg height="512" viewBox="0 0 64 64" width="512" xmlns="http://www.w3.org/2000/svg"><g id="Twotone"><g id="Color_copy_2" data-name="Color copy 2"><path d="m10 18h44a3 3 0 0 1 3 3v35a0 0 0 0 1 0 0h-50a0 0 0 0 1 0 0v-35a3 3 0 0 1 3-3z" fill="#fff"/><path d="m57 45v11h-50v-35a3 3 0 0 1 3-3h5v2a25 25 0 0 0 25 25z" fill="#cff09e"/><path d="m37 53v3h-10v-3h-24v4a4 4 0 0 0 4 4h50a4 4 0 0 0 4-4v-4z" fill="#a8dba8"/><circle cx="32" cy="41" fill="#79bd9a" r="9"/><circle cx="37" cy="32" fill="#cff09e" r="9"/><circle cx="27" cy="32" fill="#a8dba8" r="9"/><path d="m35.953 32.924a9 9 0 0 1 -3.953 6.558 8.961 8.961 0 0 0 8.953.594 9 9 0 0 0 -5-7.152z" fill="#a8dba8"/><path d="m32 39.482a9 9 0 0 1 -3.953-6.558 9 9 0 0 0 -5 7.152 8.961 8.961 0 0 0 8.953-.594z" fill="#cff09e"/><path d="m28 32a9.1 9.1 0 0 0 .047.924 8.918 8.918 0 0 1 7.906 0 9.1 9.1 0 0 0 .047-.924 8.989 8.989 0 0 0 -4-7.482 8.989 8.989 0 0 0 -4 7.482z" fill="#79bd9a"/><path d="m28.047 32.924a9 9 0 0 0 3.953 6.558 9 9 0 0 0 3.953-6.558 8.918 8.918 0 0 0 -7.906 0z" fill="#fff"/></g><g id="Stroke_close_copy" fill="#3b8686" data-name="Stroke close copy"><path d="m61 52h-3v-31a4 4 0 0 0 -4-4h-44a4 4 0 0 0 -4 4v31h-3a1 1 0 0 0 -1 1v4a5.006 5.006 0 0 0 5 5h50a5.006 5.006 0 0 0 5-5v-4a1 1 0 0 0 -1-1zm-53-31a2 2 0 0 1 2-2h44a2 2 0 0 1 2 2v31h-19a1 1 0 0 0 -1 1v2h-8v-2a1 1 0 0 0 -1-1h-19zm52 36a3 3 0 0 1 -3 3h-50a3 3 0 0 1 -3-3v-3h22v2a1 1 0 0 0 1 1h10a1 1 0 0 0 1-1v-2h22z"/><circle cx="57" cy="57" r="1"/><circle cx="53" cy="57" r="1"/><circle cx="11" cy="57" r="1"/><circle cx="7" cy="57" r="1"/><path d="m42 41c0-.116-.013-.228-.017-.343a9.989 9.989 0 1 0 -9.983-17.304 9.989 9.989 0 1 0 -9.983 17.3c0 .115-.017.227-.017.343a10 10 0 0 0 20 0zm-10-15.235a7.985 7.985 0 0 1 2.972 5.686 10.018 10.018 0 0 0 -5.944 0 7.985 7.985 0 0 1 2.972-5.686zm-2.849 7.769a7.867 7.867 0 0 1 5.7 0 8.006 8.006 0 0 1 -2.851 4.701 8.006 8.006 0 0 1 -2.849-4.701zm1.061 5.788a7.91 7.91 0 0 1 -6.061.144 8.008 8.008 0 0 1 3.182-4.95 10 10 0 0 0 2.879 4.806zm6.455-4.806a8.008 8.008 0 0 1 3.182 4.95 7.91 7.91 0 0 1 -6.061-.144 10 10 0 0 0 2.879-4.806zm.333-10.516a7.991 7.991 0 0 1 4.667 14.484 10.024 10.024 0 0 0 -4.684-6.141c0-.115.017-.227.017-.343a9.965 9.965 0 0 0 -3.212-7.322 7.953 7.953 0 0 1 3.212-.678zm-18 8a7.991 7.991 0 0 1 11.212-7.322 9.965 9.965 0 0 0 -3.212 7.322c0 .116.013.228.017.343a10.022 10.022 0 0 0 -4.684 6.141 7.988 7.988 0 0 1 -3.333-6.484zm5.028 9.549a9.952 9.952 0 0 0 7.972-.9 9.952 9.952 0 0 0 7.972.9 7.99 7.99 0 0 1 -15.944 0z"/><path d="m50 44a1 1 0 0 0 -1 1v3h-3a1 1 0 0 0 0 2h4a1 1 0 0 0 1-1v-4a1 1 0 0 0 -1-1z"/><path d="m46 23h3v3a1 1 0 0 0 2 0v-4a1 1 0 0 0 -1-1h-4a1 1 0 0 0 0 2z"/><path d="m14 27a1 1 0 0 0 1-1v-3h3a1 1 0 0 0 0-2h-4a1 1 0 0 0 -1 1v4a1 1 0 0 0 1 1z"/><path d="m18 48h-3v-3a1 1 0 0 0 -2 0v4a1 1 0 0 0 1 1h4a1 1 0 0 0 0-2z"/></g></g></svg>