<svg height="512" viewBox="0 0 64 64" width="512" xmlns="http://www.w3.org/2000/svg"><g id="Twotone"><g id="Color_copy_2" data-name="Color copy 2"><path d="m45 15h-42v-6l21-6 21 6z" fill="#fff"/><path d="m6 12v-.737l18-5.143 18 5.143v.737z" fill="#cff09e"/><circle cx="24" cy="10" fill="#79bd9a" r="3"/><path d="m3 39h42v4h-42z" fill="#fff"/><path d="m33 35h10v4h-10z" fill="#fff"/><path d="m33 15h10v4h-10z" fill="#fff"/><path d="m34 19h8v16h-8z" fill="#fff"/><path d="m40 23v8a2.006 2.006 0 0 0 2 2v2h-8v-16h8v2a2.006 2.006 0 0 0 -2 2z" fill="#cff09e"/><path d="m43 15v2h-6a2.006 2.006 0 0 0 -2 2h-2v-4z" fill="#cff09e"/><path d="m43 39v-2h-6a2.006 2.006 0 0 1 -2-2h-2v4z" fill="#cff09e"/><path d="m19 35h10v4h-10z" fill="#fff"/><path d="m19 15h10v4h-10z" fill="#fff"/><path d="m20 19h8v16h-8z" fill="#fff"/><path d="m26 23v8a2.006 2.006 0 0 0 2 2v2h-8v-16h8v2a2.006 2.006 0 0 0 -2 2z" fill="#cff09e"/><path d="m29 15v2h-6a2.006 2.006 0 0 0 -2 2h-2v-4z" fill="#cff09e"/><path d="m29 39v-2h-6a2.006 2.006 0 0 1 -2-2h-2v4z" fill="#cff09e"/><path d="m5 35h10v4h-10z" fill="#fff"/><path d="m5 15h10v4h-10z" fill="#fff"/><path d="m6 19h8v16h-8z" fill="#fff"/><g fill="#cff09e"><path d="m12 23v8a2.006 2.006 0 0 0 2 2v2h-8v-16h8v2a2.006 2.006 0 0 0 -2 2z"/><path d="m15 15v2h-6a2.006 2.006 0 0 0 -2 2h-2v-4z"/><path d="m15 39v-2h-6a2.006 2.006 0 0 1 -2-2h-2v4z"/><path d="m45 14v1h-42v-6l2-.57v3.57a2.006 2.006 0 0 0 2 2z"/><path d="m45 41v2h-42v-4h2a2.006 2.006 0 0 0 2 2z"/></g><path d="m57 61h-6v-30l6-6z" fill="#79bd9a"/><path d="m47 61h-6v-21l6-5z" fill="#79bd9a"/><path d="m37 61h-6v-27l6 3z" fill="#79bd9a"/><path d="m27 61h-6v-16l6-6z" fill="#79bd9a"/><path d="m17 61h-6v-6l6-6z" fill="#79bd9a"/><path d="m59 20h-7a2 2 0 0 0 0 4h2.172l-14.672 14.671-6.086-6.085a2 2 0 0 0 -2.828 0l-23 23a2 2 0 1 0 2.828 2.828l21.586-21.585 6.086 6.085a2 2 0 0 0 2.828 0l16.086-16.086v2.172a2 2 0 0 0 4 0v-7a2 2 0 0 0 -2-2z" fill="#a8dba8"/></g><g id="Stroke_Close_copy" fill="#3b8686" data-name="Stroke Close copy"><path d="m28 10a4 4 0 1 0 -4 4 4 4 0 0 0 4-4zm-4 2a2 2 0 1 1 2-2 2 2 0 0 1 -2 2z"/><path d="m31 12h7a1 1 0 0 0 0-2h-7a1 1 0 0 0 0 2z"/><path d="m10 12h7a1 1 0 0 0 0-2h-7a1 1 0 0 0 0 2z"/><path d="m59 19h-7a3 3 0 0 0 -.233 5.991l-8.767 8.766v-13.757a1 1 0 0 0 1-1v-3h1a1 1 0 0 0 1-1v-6a1 1 0 0 0 -.726-.961l-21-6a.993.993 0 0 0 -.55 0l-21 6a1 1 0 0 0 -.724.961v6a1 1 0 0 0 1 1h1v3a1 1 0 0 0 1 1v14a1 1 0 0 0 -1 1v3h-1a1 1 0 0 0 -1 1v4a1 1 0 0 0 1 1h14.758l-10.879 10.878a2.989 2.989 0 0 0 3.121 4.94v1.182a1 1 0 0 0 1 1h6a1 1 0 0 0 1-1v-8.758l2-2v10.758a1 1 0 0 0 1 1h6a1 1 0 0 0 1-1v-18.757l2-2v20.757a1 1 0 0 0 1 1h6a1 1 0 0 0 1-1v-16.916a3 3 0 0 0 2 .366v16.55a1 1 0 0 0 1 1h6a1 1 0 0 0 1-1v-23.758l2-2v25.758a1 1 0 0 0 1 1h6a1 1 0 0 0 1-1v-29.181a2.97 2.97 0 0 0 1 .181 3 3 0 0 0 3-3v-7a3 3 0 0 0 -3-3zm-35.242 19h-3.758v-2h5.758zm-10.758-18v14h-2v-14zm2 14v-14a1 1 0 0 0 1-1v-3h2v3a1 1 0 0 0 1 1v14a1 1 0 0 0 -1 1v3h-2v-3a1 1 0 0 0 -1-1zm12 0h-2v-14h2zm-6-14h2v14h-2zm7-2h-8v-2h8zm1 2a1 1 0 0 0 1-1v-3h2v3a1 1 0 0 0 1 1v11.2a3.066 3.066 0 0 0 -3.121.677l-.879.881zm6 0h2v14h-.758l-1.242-1.242zm5.757 16-1.257 1.257-1.257-1.257zm.243-2h-2v-14h2zm1-16h-8v-2h8zm-38-8.246 20-5.714 20 5.714v4.246h-40zm10 6.246v2h-8v-2zm-7 4h2v14h-2zm-1 16h8v2h-8zm-2 6v-2h17.758l-2 2zm12 18h-4v-1.758l4-4zm10 0h-4v-11.758l4-4zm6 0v-21.757l4 4v17.757zm14 0h-4v-16.758l4-4zm6 0v-26.758l4-4v30.758zm8-31a1 1 0 0 1 -2 0v-2.172a1 1 0 0 0 -1.707-.707l-16.086 16.086a1 1 0 0 1 -1.414 0l-6.086-6.085a1 1 0 0 0 -1.414 0l-21.586 21.586a1.023 1.023 0 0 1 -1.414 0 1 1 0 0 1 0-1.414l23-23a1 1 0 0 1 1.414 0l6.086 6.085a1 1 0 0 0 1.414 0l14.672-14.672a1 1 0 0 0 -.707-1.707h-2.172a1 1 0 0 1 0-2h7a1 1 0 0 1 1 1z"/></g></g></svg>