<svg height="480pt" viewBox="0 0 480.00002 480" width="480pt" xmlns="http://www.w3.org/2000/svg"><path d="m8 235.441406v204.558594c0 17.671875 14.328125 32 32 32h16l104-108.078125zm0 0" fill="#cff09e"/><path d="m408 360v-70.320312l-88 74.242187 104 108.078125h16c17.671875 0 32-14.328125 32-32v-16c-35.347656 0-64-28.652344-64-64zm0 0" fill="#cff09e"/><path d="m216.878906 304.078125-160.878906 167.921875h368l-160.878906-168c-6.046875-6.296875-14.40625-9.851562-23.136719-9.835938-8.734375.015626-17.078125 3.597657-23.105469 9.914063zm0 0" fill="#a8dba8"/><path d="m455.441406 202.320312-47.441406-26.160156v113.519532l64-54.238282v-5.121094c-.011719-11.652343-6.355469-22.378906-16.558594-28zm0 0" fill="#79bd9a"/><path d="m72 289.679688v-113.519532l-47.441406 26.160156c-10.203125 5.621094-16.546875 16.347657-16.558594 28v5.121094zm0 0" fill="#79bd9a"/><path d="m344 8.558594v-.558594h-272c-35.347656 0-64 28.652344-64 64h280c.027344-32.230469 24.023438-59.410156 56-63.441406zm0 0" fill="#a8dba8"/><path d="m248 288c-70.691406 0-128-57.308594-128-128v-88h-48v217.679688l88 74.242187 57.28125-59.84375c6.035156-6.304687 14.386719-9.875 23.117188-9.875 8.734374 0 17.085937 3.570313 23.121093 9.875l57.28125 59.84375 88-74.242187v-1.679688zm0 0" fill="#cff09e"/><path d="m360.558594 10.238281c-5.394532-1.480469-10.964844-2.234375-16.558594-2.238281v.558594c-31.976562 4.03125-55.972656 31.210937-56 63.441406h-216v32h226.558594c3.261718.015625 6.203125-1.945312 7.441406-4.960938 7.441406-18.640624 34.558594-83.117187 54.558594-88.800781zm0 0" fill="#cff09e"/><g fill="#3b8686"><path d="m459.359375 195.28125-43.359375-24v-99.28125c0-39.765625-32.234375-72-72-72h-272c-39.765625 0-72 32.234375-72 72 0 4.417969 3.582031 8 8 8h56v91.441406l-43.359375 24c-12.699219 7.019532-20.5976562 20.367188-20.640625 34.878906v209.679688c0 22.089844 17.910156 40 40 40h400c22.089844 0 40-17.910156 40-40v-209.679688c.011719-14.566406-7.894531-27.988281-20.640625-35.039062zm-8 14.078125c7.726563 4.152344 12.574219 12.1875 12.640625 20.960937v1.441407l-48 40.636719v-82.71875zm-379.359375-193.359375h234.800781c-14.75 11.910156-24.210937 29.160156-26.320312 48h-264c3.980469-27.585938 27.644531-48.046875 55.519531-48zm216 64c4.417969 0 8-3.582031 8-8 .019531-28.191406 20.992188-51.976562 48.960938-55.519531h1.277343c30.050781 1.203125 53.785157 25.925781 53.761719 56v213.519531l-79.039062 66.960938-52.082032-54.402344c-7.542968-7.871094-17.976562-12.324219-28.878906-12.324219s-21.335938 4.453125-28.878906 12.324219l-52.082032 54.402344-79.039062-66.960938v-206zm-272 150.320312c.019531-8.722656 4.765625-16.746093 12.398438-20.960937l35.601562-19.679687v82.71875l-48-40.636719zm0 209.679688v-187.28125l131.921875 112-75.921875 78.882812-19.441406 20.398438h-12.558594c-13.253906 0-24-10.746094-24-24zm58.71875 24 147.921875-154.320312c9.605469-9.539063 25.113281-9.539063 34.71875 0l147.921875 154.320312zm389.28125-24c0 13.253906-10.746094 24-24 24h-12.558594l-20.5625-21.441406-74.800781-78.078125 131.921875-111.761719zm0 0"/><path d="m184 136h152c4.417969 0 8-3.582031 8-8s-3.582031-8-8-8h-152c-4.417969 0-8 3.582031-8 8s3.582031 8 8 8zm0 0"/><path d="m144 192h192c4.417969 0 8-3.582031 8-8s-3.582031-8-8-8h-192c-4.417969 0-8 3.582031-8 8s3.582031 8 8 8zm0 0"/><path d="m144 256h168c4.417969 0 8-3.582031 8-8s-3.582031-8-8-8h-168c-4.417969 0-8 3.582031-8 8s3.582031 8 8 8zm0 0"/></g></svg>