<svg height="480pt" viewBox="0 0 480 480" width="480pt" xmlns="http://www.w3.org/2000/svg"><path d="m254.246094 120h-110.246094v109.046875c0 1.921875.6875 3.78125 1.9375 5.242187l87.957031 102.613282c1.53125 1.785156 3.761719 2.808594 6.109375 2.808594s4.578125-1.023438 6.109375-2.808594l87.949219-102.613282-8 9.359376c-7.160156-54.929688-34.550781-100.664063-71.816406-123.648438zm0 0" fill="#a8dba8"/><path d="m145.753906 120h-1.753906v1.113281zm0 0" fill="#88d3d1"/><path d="m312 168h24v32h-32v-24c0-4.417969 3.582031-8 8-8zm0 0" fill="#cff09e"/><path d="m245.921875 304.273438c-39.957031-46.621094-61.917969-105.996094-61.921875-167.394532v-16.878906h-40v109.046875c0 1.921875.6875 3.78125 1.9375 5.242187l87.957031 102.613282c1.53125 1.785156 3.761719 2.808594 6.109375 2.808594s4.578125-1.023438 6.109375-2.808594l13.886719-16.207032zm0 0" fill="#79bd9a"/><path d="m144 168h24c4.417969 0 8 3.582031 8 8v24h-32zm0 0" fill="#a8dba8"/><path d="m240 168c13.253906 0 24 10.746094 24 24v40h-48v-40c0-13.253906 10.746094-24 24-24zm0 0" fill="#cff09e"/><path d="m176 104v16c0 8.835938 7.164062 16 16 16s16-7.164062 16-16v-16c0-53.015625 14.328125-96 32-96-35.34375 0-64 43.007812-64 96zm0 0" fill="#cff09e"/><path d="m208 104v16c0 8.835938 7.164062 16 16 16s16-7.164062 16-16v-112c-17.671875 0-32 43.007812-32 96zm0 0" fill="#a8dba8"/><path d="m144 104v16c0 8.835938 7.164062 16 16 16s16-7.164062 16-16v-16c0-53.015625 28.65625-96 64-96-53.019531 0-96 42.980469-96 96zm0 0" fill="#a8dba8"/><path d="m240 8c35.351562 0 64 42.984375 64 96v16c0 8.835938 7.164062 16 16 16s16-7.164062 16-16v-16c0-53.019531-42.980469-96-96-96zm0 0" fill="#cff09e"/><path d="m240 8v112c0 8.835938 7.164062 16 16 16s16-7.164062 16-16v-16c0-52.992188-14.328125-96-32-96zm0 0" fill="#cff09e"/><path d="m240 8c17.671875 0 32 42.984375 32 96v16c0 8.835938 7.164062 16 16 16s16-7.164062 16-16v-16c0-52.992188-28.648438-96-64-96zm0 0" fill="#a8dba8"/><path d="m144.609375 232c.316406.820312.761719 1.585938 1.328125 2.265625l87.957031 102.636719c1.53125 1.785156 3.761719 2.808594 6.109375 2.808594s4.578125-1.023438 6.109375-2.808594l87.949219-102.613282c.570312-.683593 1.019531-1.457031 1.328125-2.289062zm0 0" fill="#cff09e"/><path d="m245.921875 304.273438c-18.417969-21.527344-33.152344-45.945313-43.609375-72.273438h-57.703125c.316406.820312.761719 1.585938 1.328125 2.265625l87.957031 102.636719c1.53125 1.785156 3.761719 2.808594 6.109375 2.808594s4.578125-1.023438 6.109375-2.808594l13.886719-16.207032zm0 0" fill="#a8dba8"/><path d="m82.441406 424h-50.441406l-8 48h64l2.496094-39.425781c.140625-2.222657-.648438-4.40625-2.171875-6.027344-1.527344-1.625-3.65625-2.546875-5.882813-2.546875zm0 0" fill="#a8dba8"/><path d="m337.601562 280 6.398438 96h96l-14.863281-89.183594c-.652344-3.914062-4.035157-6.785156-8-6.792968zm0 0" fill="#79bd9a"/><path d="m272 472.023438h184l-8-48h-176zm0 0" fill="#a8dba8"/><g fill="#cff09e"><path d="m448 424-8-48h-290.167969c-4.386719 0-7.972656-3.503906-8.070312-7.886719l-1.898438-88.113281h-39.726562l-5.601563 88.449219c-.273437 4.242187-3.789062 7.542969-8.039062 7.550781h-46.496094l-8 48h50.441406c2.226563 0 4.355469.921875 5.882813 2.546875 1.523437 1.621094 2.3125 3.804687 2.171875 6.027344l-2.496094 39.425781h56l-.855469-39.753906c-.046875-2.167969.78125-4.261719 2.296875-5.8125 1.511719-1.554688 3.589844-2.429688 5.757813-2.433594zm0 0"/><path d="m185.144531 280h-45.28125l.9375 42.320312 99.199219 17.390626c-2.347656.007812-4.578125-1.019532-6.105469-2.808594zm0 0"/><path d="m100.136719 280h-37.257813c-3.96875.003906-7.351562 2.878906-8 6.792969l-2.6875 16.128906 45.871094 10.03125zm0 0"/></g><path d="m100.136719 280.023438-2.082031 32.953124 42.722656 9.34375-.914063-42.296874zm0 0" fill="#a8dba8"/><path d="m472 464h-9.214844l-29.761718-178.527344c-1.277344-7.785156-8.015626-13.492187-15.902344-13.472656h-104.863282l27.871094-32.519531c1.097656-1.292969 1.980469-2.753907 2.613282-4.328125v-.054688c.808593-1.917968 1.234374-3.972656 1.257812-6.050781v-125.046875c-.0625-57.410156-46.589844-103.9375-104-104h-8v.40625c-54.121094 4.210938-95.914062 49.3125-96 103.59375v125.046875c.011719 2.085937.429688 4.148437 1.230469 6.074219v.054687c.632812 1.566407 1.507812 3.023438 2.601562 4.3125l27.921875 32.511719h-104.875c-7.890625-.019531-14.628906 5.691406-15.902344 13.480469l-20.496093 123.007812-3.921875 23.511719-5.335938 32h-9.222656c-4.417969 0-8 3.582031-8 8s3.582031 8 8 8h464c4.417969 0 8-3.582031 8-8s-3.582031-8-8-8zm-54.753906-175.871094 13.3125 79.871094h-79.199219l-6.65625-79.9375zm-255.839844-48.128906h157.195312l-78.601562 91.695312zm6.59375-48h-16v-16h16zm88 32h-32v-32c0-8.835938 7.164062-16 16-16s16 7.164062 16 16zm72-32h-16v-16h16zm0-88v16c0 4.417969-3.582031 8-8 8s-8-3.582031-8-8v-16c.378906-24.667969-6.152344-48.949219-18.855469-70.097656 21.957031 16.617187 34.859375 42.5625 34.855469 70.097656zm-32 0v16c0 4.417969-3.582031 8-8 8s-8-3.582031-8-8v-16c.527344-25.835938-3.507812-51.566406-11.921875-76 16.664063 15.273438 27.921875 43.59375 27.921875 76zm-96 16c0 4.417969-3.582031 8-8 8s-8-3.582031-8-8v-16c0-32.425781 11.199219-60.800781 27.886719-76.078125-8.394531 24.464844-12.421875 50.21875-11.886719 76.078125zm16-16c0-41.238281 8.320312-68.800781 16-80.945312v96.945312c0 4.417969-3.582031 8-8 8s-8-3.582031-8-8zm32-81c7.6875 12.121094 16 39.785156 16 81v16c0 4.417969-3.582031 8-8 8s-8-3.582031-8-8zm-96 81c.035156-27.515625 12.964844-53.425781 34.929688-70-12.726563 21.105469-19.28125 45.355469-18.929688 70v16c0 4.417969-3.582031 8-8 8s-8-3.582031-8-8zm0 38.527344c8.261719 3.078125 17.554688 1.21875 24-4.800782 9.042969 8.320313 22.957031 8.320313 32 0 9.042969 8.320313 22.957031 8.320313 32 0 9.042969 8.320313 22.957031 8.320313 32 0 9.042969 8.320313 22.957031 8.320313 32 0 6.445312 6.019532 15.738281 7.878907 24 4.800782v17.472656h-16c-8.835938 0-16 7.164062-16 16v16c-4.417969 0-8 3.582031-8 8s3.582031 8 8 8h32v16h-56v-32c0-17.671875-14.328125-32-32-32s-32 14.328125-32 32v32h-56v-16h32c4.417969 0 8-3.582031 8-8s-3.582031-8-8-8v-16c0-8.835938-7.164062-16-16-16h-16zm29.464844 145.472656 46.398437 54.089844c3.050781 3.550781 7.5 5.59375 12.179688 5.59375 4.683593 0 9.128906-2.042969 12.179687-5.59375l46.3125-54.089844h30.105469l6.664063 80h-185.542969l-1.722657-80zm-118.585938 0h28.730469l-5.113281 80h-36.992188zm-29.429687 176 5.351562-32 43.710938.046875-2.023438 31.953125zm63.078125 0 1.953125-30.921875c.277343-4.425781-1.289063-8.773437-4.328125-12.007813-3.035156-3.230468-7.277344-5.066406-11.710938-5.070312h-40.960937l5.351562-32h39.664063c8.46875-.015625 15.480468-6.589844 16.039062-15.039062l5.113282-80.960938h24.390624l1.722657 80.289062c.234375 8.714844 7.34375 15.667969 16.0625 15.710938h283.398437l5.335938 32h-287.359375c-4.320313.003906-8.457031 1.746094-11.480469 4.832031-3.019531 3.089844-4.671875 7.265625-4.582031 11.582031l.6875 31.585938zm288.695312-32 5.335938 32h-110.558594v-32zm-233.367187 32-.65625-32h112.800781v32zm254.921875 0-5.328125-32h39.773437l5.335938 32zm0 0" fill="#3b8686"/></svg>